  0
SECTION
  2
HEADER
  9
$ACADVER
  1
AC1015
  9
$ACADMAINTVER
 70
    20
  9
$DWGCODEPAGE
  3
ANSI_936
  9
$INSBASE
 10
0.0
 20
0.0
 30
0.0
  9
$EXTMIN
 10
-2708.775608902274
 20
-2017.967306569318
 30
0.0
  9
$EXTMAX
 10
3837.017297802908
 20
2284.727378453133
 30
0.0
  9
$LIMMIN
 10
0.0
 20
0.0
  9
$LIMMAX
 10
558.8
 20
431.8
  9
$ORTHOMODE
 70
     0
  9
$REGENMODE
 70
     1
  9
$FILLMODE
 70
     1
  9
$QTEXTMODE
 70
     0
  9
$MIRRTEXT
 70
     0
  9
$LTSCALE
 40
30.734
  9
$ATTMODE
 70
     1
  9
$TEXTSIZE
 40
0.2
  9
$TRACEWID
 40
0.05
  9
$TEXTSTYLE
  7
STANDARD
  9
$CLAYER
  8
0
  9
$CELTYPE
  6
BYLAYER
  9
$CECOLOR
 62
   256
  9
$CELTSCALE
 40
1.0
  9
$DISPSILH
 70
     0
  9
$DIMSCALE
 40
1.0
  9
$DIMASZ
 40
3.5
  9
$DIMEXO
 40
3.4925
  9
$DIMDLI
 40
21.2344
  9
$DIMRND
 40
0.0
  9
$DIMDLE
 40
0.0
  9
$DIMEXE
 40
10.0584
  9
$DIMTP
 40
0.01
  9
$DIMTM
 40
0.01
  9
$DIMTXT
 40
3.5
  9
$DIMCEN
 40
5.0292
  9
$DIMTSZ
 40
0.0
  9
$DIMTOL
 70
     1
  9
$DIMLIM
 70
     0
  9
$DIMTIH
 70
     1
  9
$DIMTOH
 70
     1
  9
$DIMSE1
 70
     0
  9
$DIMSE2
 70
     0
  9
$DIMTAD
 70
     0
  9
$DIMZIN
 70
     0
  9
$DIMBLK
  1

  9
$DIMASO
 70
     1
  9
$DIMSHO
 70
     1
  9
$DIMPOST
  1

  9
$DIMAPOST
  1

  9
$DIMALT
 70
     0
  9
$DIMALTD
 70
     2
  9
$DIMALTF
 40
25.4
  9
$DIMLFAC
 40
1.0
  9
$DIMTOFL
 70
     0
  9
$DIMTVP
 40
0.0
  9
$DIMTIX
 70
     0
  9
$DIMSOXD
 70
     0
  9
$DIMSAH
 70
     0
  9
$DIMBLK1
  1

  9
$DIMBLK2
  1

  9
$DIMSTYLE
  2
STANDARD
  9
$DIMCLRD
 70
     0
  9
$DIMCLRE
 70
     0
  9
$DIMCLRT
 70
     0
  9
$DIMTFAC
 40
1.0
  9
$DIMGAP
 40
0.09
  9
$DIMJUST
 70
     0
  9
$DIMSD1
 70
     0
  9
$DIMSD2
 70
     0
  9
$DIMTOLJ
 70
     1
  9
$DIMTZIN
 70
     0
  9
$DIMALTZ
 70
     0
  9
$DIMALTTZ
 70
     0
  9
$DIMUPT
 70
     0
  9
$DIMDEC
 70
     4
  9
$DIMTDEC
 70
     4
  9
$DIMALTU
 70
     2
  9
$DIMALTTD
 70
     2
  9
$DIMTXSTY
  7
STANDARD
  9
$DIMAUNIT
 70
     0
  9
$DIMADEC
 70
     0
  9
$DIMALTRND
 40
0.0
  9
$DIMAZIN
 70
     0
  9
$DIMDSEP
 70
    46
  9
$DIMATFIT
 70
     3
  9
$DIMFRAC
 70
     0
  9
$DIMLDRBLK
  1

  9
$DIMLUNIT
 70
     2
  9
$DIMLWD
 70
    -2
  9
$DIMLWE
 70
    -2
  9
$DIMTMOVE
 70
     0
  9
$LUNITS
 70
     2
  9
$LUPREC
 70
     4
  9
$SKETCHINC
 40
0.1
  9
$FILLETRAD
 40
0.0
  9
$AUNITS
 70
     0
  9
$AUPREC
 70
     0
  9
$MENU
  1
.
  9
$ELEVATION
 40
0.0
  9
$PELEVATION
 40
0.0
  9
$THICKNESS
 40
0.0
  9
$LIMCHECK
 70
     0
  9
$CHAMFERA
 40
0.0
  9
$CHAMFERB
 40
0.0
  9
$CHAMFERC
 40
0.0
  9
$CHAMFERD
 40
0.0
  9
$SKPOLY
 70
     0
  9
$TDCREATE
 40
2458705.637250568
  9
$TDUCREATE
 40
2458705.303917234
  9
$TDUPDATE
 40
2458708.584418797
  9
$TDUUPDATE
 40
2458708.251085463
  9
$TDINDWG
 40
0.0081840856
  9
$TDUSRTIMER
 40
0.0081839236
  9
$USRTIMER
 70
     1
  9
$ANGBASE
 50
0.0
  9
$ANGDIR
 70
     0
  9
$PDMODE
 70
     3
  9
$PDSIZE
 40
8.0
  9
$PLINEWID
 40
0.0
  9
$SPLFRAME
 70
     0
  9
$SPLINETYPE
 70
     6
  9
$SPLINESEGS
 70
     8
  9
$HANDSEED
  5
587
  9
$SURFTAB1
 70
     6
  9
$SURFTAB2
 70
     6
  9
$SURFTYPE
 70
     6
  9
$SURFU
 70
     6
  9
$SURFV
 70
     6
  9
$UCSBASE
  2

  9
$UCSNAME
  2

  9
$UCSORG
 10
0.0
 20
0.0
 30
0.0
  9
$UCSXDIR
 10
1.0
 20
0.0
 30
0.0
  9
$UCSYDIR
 10
0.0
 20
1.0
 30
0.0
  9
$UCSORTHOREF
  2

  9
$UCSORTHOVIEW
 70
     0
  9
$UCSORGTOP
 10
0.0
 20
0.0
 30
0.0
  9
$UCSORGBOTTOM
 10
0.0
 20
0.0
 30
0.0
  9
$UCSORGLEFT
 10
0.0
 20
0.0
 30
0.0
  9
$UCSORGRIGHT
 10
0.0
 20
0.0
 30
0.0
  9
$UCSORGFRONT
 10
0.0
 20
0.0
 30
0.0
  9
$UCSORGBACK
 10
0.0
 20
0.0
 30
0.0
  9
$PUCSBASE
  2

  9
$PUCSNAME
  2

  9
$PUCSORG
 10
0.0
 20
0.0
 30
0.0
  9
$PUCSXDIR
 10
1.0
 20
0.0
 30
0.0
  9
$PUCSYDIR
 10
0.0
 20
1.0
 30
0.0
  9
$PUCSORTHOREF
  2

  9
$PUCSORTHOVIEW
 70
     0
  9
$PUCSORGTOP
 10
0.0
 20
0.0
 30
0.0
  9
$PUCSORGBOTTOM
 10
0.0
 20
0.0
 30
0.0
  9
$PUCSORGLEFT
 10
0.0
 20
0.0
 30
0.0
  9
$PUCSORGRIGHT
 10
0.0
 20
0.0
 30
0.0
  9
$PUCSORGFRONT
 10
0.0
 20
0.0
 30
0.0
  9
$PUCSORGBACK
 10
0.0
 20
0.0
 30
0.0
  9
$USERI1
 70
     0
  9
$USERI2
 70
     0
  9
$USERI3
 70
     0
  9
$USERI4
 70
     0
  9
$USERI5
 70
     0
  9
$USERR1
 40
0.0
  9
$USERR2
 40
0.0
  9
$USERR3
 40
0.0
  9
$USERR4
 40
0.0
  9
$USERR5
 40
0.0
  9
$WORLDVIEW
 70
     1
  9
$SHADEDGE
 70
     3
  9
$SHADEDIF
 70
    70
  9
$TILEMODE
 70
     1
  9
$MAXACTVP
 70
    64
  9
$PINSBASE
 10
0.0
 20
0.0
 30
0.0
  9
$PLIMCHECK
 70
     0
  9
$PEXTMIN
 10
1.000000000000000E+20
 20
1.000000000000000E+20
 30
1.000000000000000E+20
  9
$PEXTMAX
 10
-1.000000000000000E+20
 20
-1.000000000000000E+20
 30
-1.000000000000000E+20
  9
$PLIMMIN
 10
0.0
 20
0.0
  9
$PLIMMAX
 10
12.0
 20
9.0
  9
$UNITMODE
 70
     0
  9
$VISRETAIN
 70
     1
  9
$PLINEGEN
 70
     0
  9
$PSLTSCALE
 70
     1
  9
$TREEDEPTH
 70
  3020
  9
$CMLSTYLE
  2
Standard
  9
$CMLJUST
 70
     0
  9
$CMLSCALE
 40
1.0
  9
$PROXYGRAPHICS
 70
     1
  9
$MEASUREMENT
 70
     1
  9
$CELWEIGHT
370
    -1
  9
$ENDCAPS
280
     0
  9
$JOINSTYLE
280
     0
  9
$LWDISPLAY
290
     0
  9
$INSUNITS
 70
     4
  9
$HYPERLINKBASE
  1

  9
$STYLESHEET
  1

  9
$XEDIT
290
     1
  9
$CEPSNTYPE
380
     0
  9
$PSTYLEMODE
290
     1
  9
$FINGERPRINTGUID
  2
{A5BD2607-AC1B-4E4A-8D5D-774FEC3FAB5E}
  9
$VERSIONGUID
  2
{5E77A703-3CF3-4E14-92C8-663A4BED864B}
  9
$EXTNAMES
290
     1
  9
$PSVPSCALE
 40
0.0
  9
$OLESTARTUP
290
     0
  0
ENDSEC
  0
SECTION
  2
CLASSES
  0
CLASS
  1
ACDBDICTIONARYWDFLT
  2
AcDbDictionaryWithDefault
  3
ObjectDBX Classes
 90
        0
280
     0
281
     0
  0
CLASS
  1
ACDBPLACEHOLDER
  2
AcDbPlaceHolder
  3
ObjectDBX Classes
 90
        0
280
     0
281
     0
  0
CLASS
  1
LAYOUT
  2
AcDbLayout
  3
ObjectDBX Classes
 90
        0
280
     0
281
     0
  0
CLASS
  1
MATERIAL
  2
AcDbMaterial
  3
ObjectDBX Classes
 90
     1153
280
     0
281
     0
  0
CLASS
  1
VISUALSTYLE
  2
AcDbVisualStyle
  3
ObjectDBX Classes
 90
     4095
280
     0
281
     0
  0
CLASS
  1
TABLESTYLE
  2
AcDbTableStyle
  3
ObjectDBX Classes
 90
     4095
280
     0
281
     0
  0
CLASS
  1
SCALE
  2
AcDbScale
  3
ObjectDBX Classes
 90
     1153
280
     0
281
     0
  0
CLASS
  1
MLEADERSTYLE
  2
AcDbMLeaderStyle
  3
ACDB_MLEADERSTYLE_CLASS
 90
     4095
280
     0
281
     0
  0
CLASS
  1
DICTIONARYVAR
  2
AcDbDictionaryVar
  3
ObjectDBX Classes
 90
        0
280
     0
281
     0
  0
CLASS
  1
CELLSTYLEMAP
  2
AcDbCellStyleMap
  3
ObjectDBX Classes
 90
     1152
280
     0
281
     0
  0
CLASS
  1
SORTENTSTABLE
  2
AcDbSortentsTable
  3
ObjectDBX Classes
 90
    32768
280
     0
281
     0
  0
ENDSEC
  0
SECTION
  2
TABLES
  0
TABLE
  2
VPORT
  5
8
330
0
100
AcDbSymbolTable
 70
     1
  0
VPORT
  5
1F4
330
8
100
AcDbSymbolTableRecord
100
AcDbViewportTableRecord
  2
*ACTIVE
 70
     0
 10
0.0
 20
0.0
 11
1.0
 21
1.0
 12
354.381248944673
 22
183.7625621795647
 13
0.0
 23
0.0
 14
1.0
 24
1.0
 15
0.0
 25
0.0
 16
0.0
 26
0.0
 36
1.0
 17
0.0
 27
0.0
 37
0.0
 40
1107.002665887151
 41
1.723970944309927
 42
50.0
 43
0.0
 44
0.0
 50
0.0
 51
0.0
 71
     0
 72
   100
 73
     1
 74
     1
 75
     0
 76
     0
 77
     0
 78
     0
281
     0
 65
     1
110
0.0
120
0.0
130
0.0
111
1.0
121
0.0
131
0.0
112
0.0
122
1.0
132
0.0
 79
     0
146
0.0
  0
ENDTAB
  0
TABLE
  2
LTYPE
  5
5
330
0
100
AcDbSymbolTable
 70
     6
  0
LTYPE
  5
14
330
5
100
AcDbSymbolTableRecord
100
AcDbLinetypeTableRecord
  2
BYBLOCK
 70
     0
  3

 72
    65
 73
     0
 40
0.0
  0
LTYPE
  5
15
330
5
100
AcDbSymbolTableRecord
100
AcDbLinetypeTableRecord
  2
BYLAYER
 70
     0
  3

 72
    65
 73
     0
 40
0.0
  0
LTYPE
  5
16
330
5
100
AcDbSymbolTableRecord
100
AcDbLinetypeTableRecord
  2
CONTINUOUS
 70
     0
  3
Solid line
 72
    65
 73
     0
 40
0.0
  0
LTYPE
  5
1F5
330
5
100
AcDbSymbolTableRecord
100
AcDbLinetypeTableRecord
  2
CENTER
 70
     0
  3
____ _ ____ _ ____ _ ____ _ ____ _ ____ _ ____
 72
    65
 73
     4
 40
0.6
 49
0.375
 74
     0
 49
-0.075
 74
     0
 49
0.075
 74
     0
 49
-0.075
 74
     0
  0
LTYPE
  5
1F6
330
5
100
AcDbSymbolTableRecord
100
AcDbLinetypeTableRecord
  2
HIDDEN
 70
     0
  3
- - - - - - - - - - - - - - - - - - - -
 72
    65
 73
     2
 40
0.2
 49
0.1
 74
     0
 49
-0.1
 74
     0
  0
LTYPE
  5
1F7
330
5
100
AcDbSymbolTableRecord
100
AcDbLinetypeTableRecord
  2
PHANTOM
 70
     0
  3
_____ _ _ _____ _ _ _____ _ _ _____
 72
    65
 73
     6
 40
0.8
 49
0.45
 74
     0
 49
-0.05
 74
     0
 49
0.1
 74
     0
 49
-0.05
 74
     0
 49
0.1
 74
     0
 49
-0.05
 74
     0
  0
LTYPE
  5
1F8
330
5
100
AcDbSymbolTableRecord
100
AcDbLinetypeTableRecord
  2
DOT
 70
     0
  3
. . . . . . . . . . . . . . . . . . . .
 72
    65
 73
     2
 40
0.2
 49
0.1
 74
     0
 49
-0.1
 74
     0
  0
LTYPE
  5
1F9
330
5
100
AcDbSymbolTableRecord
100
AcDbLinetypeTableRecord
  2
DASHED
 70
     0
  3
- - - - - - - - - - - - - - - - - - - -
 72
    65
 73
     2
 40
0.2
 49
0.1
 74
     0
 49
-0.1
 74
     0
  0
ENDTAB
  0
TABLE
  2
LAYER
  5
2
330
0
100
AcDbSymbolTable
 70
     4
  0
LAYER
  5
10
102
{ACAD_XDICTIONARY
360
4B2
102
}
330
2
100
AcDbSymbolTableRecord
100
AcDbLayerTableRecord
  2
0
 70
     0
 62
     7
  6
CONTINUOUS
370
    -3
390
F
  0
LAYER
  5
1FA
102
{ACAD_XDICTIONARY
360
4B4
102
}
330
2
100
AcDbSymbolTableRecord
100
AcDbLayerTableRecord
  2
DEFAULT_1
 70
     0
 62
     7
  6
CENTER
370
    -3
390
F
  0
LAYER
  5
1FB
102
{ACAD_XDICTIONARY
360
4B6
102
}
330
2
100
AcDbSymbolTableRecord
100
AcDbLayerTableRecord
  2
DEFAULT_2
 70
     0
 62
     8
  6
HIDDEN
370
    -3
390
F
  0
LAYER
  5
1FC
102
{ACAD_XDICTIONARY
360
4B8
102
}
330
2
100
AcDbSymbolTableRecord
100
AcDbLayerTableRecord
  2
DEFAULT_3
 70
     0
 62
     7
  6
PHANTOM
370
    -3
390
F
  0
ENDTAB
  0
TABLE
  2
STYLE
  5
3
330
0
100
AcDbSymbolTable
 70
     3
  0
STYLE
  5
11
330
3
100
AcDbSymbolTableRecord
100
AcDbTextStyleTableRecord
  2
STANDARD
 70
     0
 40
0.0
 41
0.85
 50
0.0
 71
     0
 42
0.2
  3
txt
  4

  0
STYLE
  5
1FD
330
3
100
AcDbSymbolTableRecord
100
AcDbTextStyleTableRecord
  2
TEXTSTYLE_1
 70
     0
 40
0.0
 41
0.8
 50
0.0
 71
     0
 42
0.2
  3
gdt
  4

  0
STYLE
  5
1FE
330
3
100
AcDbSymbolTableRecord
100
AcDbTextStyleTableRecord
  2
TEXTSTYLE_2
 70
     0
 40
0.0
 41
0.8
 50
0.0
 71
     0
 42
0.2
  3
txt
  4

  0
ENDTAB
  0
TABLE
  2
VIEW
  5
6
330
0
100
AcDbSymbolTable
 70
     0
  0
ENDTAB
  0
TABLE
  2
UCS
  5
7
330
0
100
AcDbSymbolTable
 70
     0
  0
ENDTAB
  0
TABLE
  2
APPID
  5
9
330
0
100
AcDbSymbolTable
 70
     2
  0
APPID
  5
1FF
330
9
100
AcDbSymbolTableRecord
100
AcDbRegAppTableRecord
  2
ACAD
 70
     0
  0
APPID
  5
2DB
330
9
100
AcDbSymbolTableRecord
100
AcDbRegAppTableRecord
  2
ACAD_MLEADERVER
 70
     0
  0
ENDTAB
  0
TABLE
  2
DIMSTYLE
  5
A
330
0
100
AcDbSymbolTable
 70
     1
100
AcDbDimStyleTable
 71
     1
340
202
  0
DIMSTYLE
105
202
330
A
100
AcDbSymbolTableRecord
100
AcDbDimStyleTableRecord
  2
STANDARD
 70
     0
 41
3.5
 47
0.01
 48
0.01
 71
     1
 73
     0
 74
     0
 77
     1
 78
     8
140
3.5
271
     2
272
     2
284
     8
340
11
  0
ENDTAB
  0
TABLE
  2
BLOCK_RECORD
  5
1
330
0
100
AcDbSymbolTable
 70
     0
  0
BLOCK_RECORD
  5
200
330
1
100
AcDbSymbolTableRecord
100
AcDbBlockTableRecord
  2
*Model_Space
340
286
  0
BLOCK_RECORD
  5
201
330
1
100
AcDbSymbolTableRecord
100
AcDbBlockTableRecord
  2
*Paper_Space
340
287
  0
ENDTAB
  0
ENDSEC
  0
SECTION
  2
BLOCKS
  0
BLOCK
  5
20
330
200
100
AcDbEntity
  8
0
100
AcDbBlockBegin
  2
*Model_Space
 70
     0
 10
0.0
 20
0.0
 30
0.0
  3
*Model_Space
  1

  0
ENDBLK
  5
21
330
200
100
AcDbEntity
  8
0
100
AcDbBlockEnd
  0
BLOCK
  5
1C
330
201
100
AcDbEntity
 67
     1
  8
0
100
AcDbBlockBegin
  2
*Paper_Space
 70
     0
 10
0.0
 20
0.0
 30
0.0
  3
*Paper_Space
  1

  0
ENDBLK
  5
1D
330
201
100
AcDbEntity
 67
     1
  8
0
100
AcDbBlockEnd
  0
ENDSEC
  0
SECTION
  2
ENTITIES
  0
MTEXT
  5
209
102
{ACAD_XDICTIONARY
360
580
102
}
330
200
100
AcDbEntity
  8
0
  6
Continuous
 62
     2
100
AcDbMText
 10
564.1208444522853
 20
-1831.178155403762
 30
0.0
 40
137.79527545
 41
1096.2992114802
 71
     3
 72
     1
  1
\U+6BD4\U+4F8B 1,000
 73
     1
 44
0.9
1001
ACAD
1000
MTEXTBEGIN
1070
    73
1070
     1
1070
    44
1040
0.9
1070
    74
1070
     0
1000
MTEXTEND
  0
LINE
  5
20E
330
200
100
AcDbEntity
  8
0
  6
Continuous
 62
     7
100
AcDbLine
 10
-2630.035399010149
 20
2284.727378453133
 30
0.0
 11
-2708.775608902274
 21
2205.987168561007
 31
0.0
  0
LINE
  5
20F
330
200
100
AcDbEntity
  8
0
  6
Continuous
 62
     7
100
AcDbLine
 10
-2708.775608902274
 20
-1573.540334146868
 30
0.0
 11
-2630.035399010149
 21
-1652.280517790963
 31
0.0
  0
LINE
  5
210
330
200
100
AcDbEntity
  8
0
  6
Continuous
 62
     7
100
AcDbLine
 10
-2708.775608902274
 20
-1573.540334146868
 30
0.0
 11
-2708.775608902274
 21
-609.7608206929144
 31
0.0
  0
LINE
  5
211
330
200
100
AcDbEntity
  8
0
  6
Continuous
 62
     7
100
AcDbLine
 10
-2708.775608902274
 20
1045.357287855086
 30
0.0
 11
-2708.775608902274
 21
2205.987168561007
 31
0.0
  0
LINE
  5
212
330
200
100
AcDbEntity
  8
0
  6
Continuous
 62
     7
100
AcDbLine
 10
-2602.476396412273
 20
-609.7608206929144
 30
0.0
 11
-2602.476396412273
 21
1045.357287855086
 31
0.0
  0
LINE
  5
213
330
200
100
AcDbEntity
  8
0
  6
Continuous
 62
     7
100
AcDbLine
 10
3590.436983093789
 20
-1652.280517790963
 30
0.0
 11
-2630.035399010149
 21
-1652.280517790963
 31
0.0
  0
LINE
  5
214
330
200
100
AcDbEntity
  8
0
  6
CENTER
 62
     6
 48
0.2
100
AcDbLine
 10
2970.875566402907
 20
-1083.280518371342
 30
0.0
 11
3590.436983093789
 21
-1083.280518371342
 31
0.0
  0
LINE
  5
21A
330
200
100
AcDbEntity
  8
0
  6
Continuous
 62
     7
100
AcDbLine
 10
-2708.775608902274
 20
-609.7608206929144
 30
0.0
 11
-2602.476396412273
 21
-609.7608206929144
 31
0.0
  0
LINE
  5
22D
330
200
100
AcDbEntity
  8
0
  6
Continuous
 62
     7
100
AcDbLine
 10
-2602.476396412273
 20
1045.357287855086
 30
0.0
 11
-2708.775608902274
 21
1045.357287855086
 31
0.0
  0
LINE
  5
235
330
200
100
AcDbEntity
  8
0
  6
CENTER
 62
     6
 48
0.2
100
AcDbLine
 10
3590.436983093789
 20
1716.719478772657
 30
0.0
 11
2970.875566402907
 21
1716.719478772657
 31
0.0
  0
LINE
  5
236
330
200
100
AcDbEntity
  8
0
  6
Continuous
 62
     7
100
AcDbLine
 10
-2630.035399010149
 20
2284.727378453133
 30
0.0
 11
3590.436983093789
 21
2284.727378453133
 31
0.0
  0
LINE
  5
237
330
200
100
AcDbEntity
  8
0
  6
CENTER
 62
     6
 48
0.2
100
AcDbLine
 10
2970.875566402907
 20
1716.719478772657
 30
0.0
 11
2970.875566402907
 21
-1083.280518371342
 31
0.0
  0
LINE
  5
238
330
200
100
AcDbEntity
  8
0
  6
Continuous
 62
     7
100
AcDbLine
 10
3590.436983093789
 20
2284.727378453133
 30
0.0
 11
3590.436983093789
 21
-1652.280517790963
 31
0.0
  0
LINE
  5
23C
330
200
100
AcDbEntity
  8
0
  6
Continuous
 62
     7
100
AcDbLine
 10
3758.277140402908
 20
-1083.280518371342
 30
0.0
 11
3758.277140402908
 21
1716.719478772657
 31
0.0
  0
LINE
  5
23D
330
200
100
AcDbEntity
  8
0
  6
Continuous
 62
     7
100
AcDbLine
 10
3837.017297802908
 20
-1083.280518371342
 30
0.0
 11
3837.017297802908
 21
1716.719478772657
 31
0.0
  0
CIRCLE
  5
23E
330
200
100
AcDbEntity
  8
0
  6
Continuous
 62
     7
100
AcDbCircle
 10
-2488.303168182274
 20
-431.8080649689145
 30
0.0
 40
55.11811017999995
  0
CIRCLE
  5
23F
330
200
100
AcDbEntity
  8
0
  6
Continuous
 62
     7
100
AcDbCircle
 10
-2288.303168386274
 20
-132.2017660619149
 30
0.0
 40
17.716535415
  0
CIRCLE
  5
240
330
200
100
AcDbEntity
  8
0
  6
Continuous
 62
     7
100
AcDbCircle
 10
-2388.303168284273
 20
-132.2017660619149
 30
0.0
 40
17.716535415
  0
CIRCLE
  5
241
330
200
100
AcDbEntity
  8
0
  6
Continuous
 62
     7
100
AcDbCircle
 10
-2288.303168386274
 20
-232.2017659599151
 30
0.0
 40
17.716535415
  0
CIRCLE
  5
242
330
200
100
AcDbEntity
  8
0
  6
Continuous
 62
     7
100
AcDbCircle
 10
-2388.303168284273
 20
-232.2017659599151
 30
0.0
 40
17.716535415
  0
CIRCLE
  5
243
330
200
100
AcDbEntity
  8
0
  6
Continuous
 62
     7
100
AcDbCircle
 10
-2288.303168386274
 20
267.7982335300858
 30
0.0
 40
17.716535415
  0
CIRCLE
  5
244
330
200
100
AcDbEntity
  8
0
  6
Continuous
 62
     7
100
AcDbCircle
 10
-2388.303168284273
 20
267.7982335300858
 30
0.0
 40
17.716535415
  0
CIRCLE
  5
245
330
200
100
AcDbEntity
  8
0
  6
Continuous
 62
     7
100
AcDbCircle
 10
-2288.303168386274
 20
167.7982336320856
 30
0.0
 40
17.716535415
  0
CIRCLE
  5
246
330
200
100
AcDbEntity
  8
0
  6
Continuous
 62
     7
100
AcDbCircle
 10
-2388.303168284273
 20
167.7982336320856
 30
0.0
 40
17.716535415
  0
CIRCLE
  5
247
330
200
100
AcDbEntity
  8
0
  6
Continuous
 62
     7
100
AcDbCircle
 10
-2288.303168386274
 20
67.79823373408544
 30
0.0
 40
17.716535415
  0
CIRCLE
  5
248
330
200
100
AcDbEntity
  8
0
  6
Continuous
 62
     7
100
AcDbCircle
 10
-2388.303168284273
 20
67.79823373408544
 30
0.0
 40
17.716535415
  0
CIRCLE
  5
249
330
200
100
AcDbEntity
  8
0
  6
Continuous
 62
     7
100
AcDbCircle
 10
-2288.303168386274
 20
-32.20176616391473
 30
0.0
 40
17.716535415
  0
CIRCLE
  5
24A
330
200
100
AcDbEntity
  8
0
  6
Continuous
 62
     7
100
AcDbCircle
 10
-2388.303168284273
 20
-32.20176616391473
 30
0.0
 40
17.716535415
  0
CIRCLE
  5
24B
330
200
100
AcDbEntity
  8
0
  6
Continuous
 62
     7
100
AcDbCircle
 10
-2488.303168182274
 20
867.404532131084
 30
0.0
 40
55.11811017999995
  0
CIRCLE
  5
24C
330
200
100
AcDbEntity
  8
0
  6
Continuous
 62
     7
100
AcDbCircle
 10
-2388.303168284273
 20
667.7982331220846
 30
0.0
 40
17.716535415
  0
CIRCLE
  5
24D
330
200
100
AcDbEntity
  8
0
  6
Continuous
 62
     7
100
AcDbCircle
 10
-2288.303168386274
 20
667.7982331220846
 30
0.0
 40
17.716535415
  0
CIRCLE
  5
24E
330
200
100
AcDbEntity
  8
0
  6
Continuous
 62
     7
100
AcDbCircle
 10
-2288.303168386274
 20
567.7982332240863
 30
0.0
 40
17.716535415
  0
CIRCLE
  5
24F
330
200
100
AcDbEntity
  8
0
  6
Continuous
 62
     7
100
AcDbCircle
 10
-2388.303168284273
 20
567.7982332240863
 30
0.0
 40
17.716535415
  0
CIRCLE
  5
250
330
200
100
AcDbEntity
  8
0
  6
Continuous
 62
     7
100
AcDbCircle
 10
-2288.303168386274
 20
467.7982333260861
 30
0.0
 40
17.716535415
  0
CIRCLE
  5
251
330
200
100
AcDbEntity
  8
0
  6
Continuous
 62
     7
100
AcDbCircle
 10
-2388.303168284273
 20
467.7982333260861
 30
0.0
 40
17.716535415
  0
CIRCLE
  5
252
330
200
100
AcDbEntity
  8
0
  6
Continuous
 62
     7
100
AcDbCircle
 10
-2288.303168386274
 20
367.7982334280841
 30
0.0
 40
17.716535415
  0
CIRCLE
  5
253
330
200
100
AcDbEntity
  8
0
  6
Continuous
 62
     7
100
AcDbCircle
 10
-2388.303168284273
 20
367.7982334280841
 30
0.0
 40
17.716535415
  0
CIRCLE
  5
254
330
200
100
AcDbEntity
  8
0
  6
Continuous
 62
     7
100
AcDbCircle
 10
3041.348007279845
 20
-783.2805186773421
 30
0.0
 40
23.62204722
  0
CIRCLE
  5
255
330
200
100
AcDbEntity
  8
0
  6
Continuous
 62
     7
100
AcDbCircle
 10
3041.741708062908
 20
-783.2805186773421
 30
0.0
 40
19.68503935
  0
CIRCLE
  5
256
330
200
100
AcDbEntity
  8
0
  6
Continuous
 62
     7
100
AcDbCircle
 10
3041.348007279845
 20
-183.2805192893429
 30
0.0
 40
23.62204722
  0
CIRCLE
  5
257
330
200
100
AcDbEntity
  8
0
  6
Continuous
 62
     7
100
AcDbCircle
 10
3041.348007279845
 20
16.71948050665742
 30
0.0
 40
23.62204722
  0
CIRCLE
  5
258
330
200
100
AcDbEntity
  8
0
  6
Continuous
 62
     7
100
AcDbCircle
 10
3041.348007279845
 20
216.7194803026559
 30
0.0
 40
23.62204722
  0
CIRCLE
  5
259
330
200
100
AcDbEntity
  8
0
  6
Continuous
 62
     7
100
AcDbCircle
 10
3041.348007279845
 20
-383.2805190853433
 30
0.0
 40
23.62204722
  0
CIRCLE
  5
25A
330
200
100
AcDbEntity
  8
0
  6
Continuous
 62
     7
100
AcDbCircle
 10
3041.348007279845
 20
-583.2805188813417
 30
0.0
 40
23.62204722
  0
CIRCLE
  5
25B
330
200
100
AcDbEntity
  8
0
  6
Continuous
 62
     7
100
AcDbCircle
 10
3041.741708062908
 20
-183.2805192893429
 30
0.0
 40
19.68503935
  0
CIRCLE
  5
25C
330
200
100
AcDbEntity
  8
0
  6
Continuous
 62
     7
100
AcDbCircle
 10
3041.741708062908
 20
16.71948050665742
 30
0.0
 40
19.68503935
  0
CIRCLE
  5
25D
330
200
100
AcDbEntity
  8
0
  6
Continuous
 62
     7
100
AcDbCircle
 10
3041.741708062908
 20
216.7194803026559
 30
0.0
 40
19.68503935
  0
CIRCLE
  5
25E
330
200
100
AcDbEntity
  8
0
  6
Continuous
 62
     7
100
AcDbCircle
 10
3041.741708062908
 20
-383.2805190853433
 30
0.0
 40
19.68503935
  0
CIRCLE
  5
25F
330
200
100
AcDbEntity
  8
0
  6
Continuous
 62
     7
100
AcDbCircle
 10
3041.741708062908
 20
-583.2805188813417
 30
0.0
 40
19.68503935
  0
CIRCLE
  5
260
330
200
100
AcDbEntity
  8
0
  6
Continuous
 62
     7
100
AcDbCircle
 10
3449.885802138728
 20
-1433.776581005963
 30
0.0
 40
55.11811017999995
  0
CIRCLE
  5
261
330
200
100
AcDbEntity
  8
0
  6
Continuous
 62
     7
100
AcDbCircle
 10
3435.048794279845
 20
-783.2805186773421
 30
0.0
 40
23.62204722
  0
CIRCLE
  5
262
330
200
100
AcDbEntity
  8
0
  6
Continuous
 62
     7
100
AcDbCircle
 10
3435.442495062908
 20
-783.2805186773421
 30
0.0
 40
19.68503935
  0
CIRCLE
  5
263
330
200
100
AcDbEntity
  8
0
  6
Continuous
 62
     7
100
AcDbCircle
 10
3435.048794279845
 20
-583.2805188813417
 30
0.0
 40
23.62204722
  0
CIRCLE
  5
264
330
200
100
AcDbEntity
  8
0
  6
Continuous
 62
     7
100
AcDbCircle
 10
3435.048794279845
 20
-383.2805190853433
 30
0.0
 40
23.62204722
  0
CIRCLE
  5
265
330
200
100
AcDbEntity
  8
0
  6
Continuous
 62
     7
100
AcDbCircle
 10
3435.048794279845
 20
-183.2805192893429
 30
0.0
 40
23.62204722
  0
CIRCLE
  5
266
330
200
100
AcDbEntity
  8
0
  6
Continuous
 62
     7
100
AcDbCircle
 10
3435.048794279845
 20
16.71948050665742
 30
0.0
 40
23.62204722
  0
CIRCLE
  5
267
330
200
100
AcDbEntity
  8
0
  6
Continuous
 62
     7
100
AcDbCircle
 10
3435.048794279845
 20
216.7194803026559
 30
0.0
 40
23.62204722
  0
CIRCLE
  5
268
330
200
100
AcDbEntity
  8
0
  6
Continuous
 62
     7
100
AcDbCircle
 10
3435.442495062908
 20
-583.2805188813417
 30
0.0
 40
19.68503935
  0
CIRCLE
  5
269
330
200
100
AcDbEntity
  8
0
  6
Continuous
 62
     7
100
AcDbCircle
 10
3435.442495062908
 20
-383.2805190853433
 30
0.0
 40
19.68503935
  0
CIRCLE
  5
26A
330
200
100
AcDbEntity
  8
0
  6
Continuous
 62
     7
100
AcDbCircle
 10
3435.442495062908
 20
-183.2805192893429
 30
0.0
 40
19.68503935
  0
CIRCLE
  5
26B
330
200
100
AcDbEntity
  8
0
  6
Continuous
 62
     7
100
AcDbCircle
 10
3435.442495062908
 20
16.71948050665742
 30
0.0
 40
19.68503935
  0
CIRCLE
  5
26C
330
200
100
AcDbEntity
  8
0
  6
Continuous
 62
     7
100
AcDbCircle
 10
3435.442495062908
 20
216.7194803026559
 30
0.0
 40
19.68503935
  0
CIRCLE
  5
26D
330
200
100
AcDbEntity
  8
0
  6
Continuous
 62
     7
100
AcDbCircle
 10
3041.348007279845
 20
1216.719479282657
 30
0.0
 40
23.62204722
  0
CIRCLE
  5
26E
330
200
100
AcDbEntity
  8
0
  6
Continuous
 62
     7
100
AcDbCircle
 10
3041.348007279845
 20
1016.719479486659
 30
0.0
 40
23.62204722
  0
CIRCLE
  5
26F
330
200
100
AcDbEntity
  8
0
  6
Continuous
 62
     7
100
AcDbCircle
 10
3041.348007279845
 20
616.7194798946566
 30
0.0
 40
23.62204722
  0
CIRCLE
  5
270
330
200
100
AcDbEntity
  8
0
  6
Continuous
 62
     7
100
AcDbCircle
 10
3041.348007279845
 20
816.7194796906569
 30
0.0
 40
23.62204722
  0
CIRCLE
  5
271
330
200
100
AcDbEntity
  8
0
  6
Continuous
 62
     7
100
AcDbCircle
 10
3041.348007279845
 20
416.7194800986581
 30
0.0
 40
23.62204722
  0
CIRCLE
  5
272
330
200
100
AcDbEntity
  8
0
  6
Continuous
 62
     7
100
AcDbCircle
 10
3041.741708062908
 20
1216.719479282657
 30
0.0
 40
19.68503935
  0
CIRCLE
  5
273
330
200
100
AcDbEntity
  8
0
  6
Continuous
 62
     7
100
AcDbCircle
 10
3041.741708062908
 20
1016.719479486659
 30
0.0
 40
19.68503935
  0
CIRCLE
  5
274
330
200
100
AcDbEntity
  8
0
  6
Continuous
 62
     7
100
AcDbCircle
 10
3041.741708062908
 20
616.7194798946566
 30
0.0
 40
19.68503935
  0
CIRCLE
  5
275
330
200
100
AcDbEntity
  8
0
  6
Continuous
 62
     7
100
AcDbCircle
 10
3041.741708062908
 20
816.7194796906569
 30
0.0
 40
19.68503935
  0
CIRCLE
  5
276
330
200
100
AcDbEntity
  8
0
  6
Continuous
 62
     7
100
AcDbCircle
 10
3041.741708062908
 20
416.7194800986581
 30
0.0
 40
19.68503935
  0
CIRCLE
  5
277
330
200
100
AcDbEntity
  8
0
  6
Continuous
 62
     7
100
AcDbCircle
 10
3041.348007279845
 20
1416.719479078658
 30
0.0
 40
23.62204722
  0
CIRCLE
  5
278
330
200
100
AcDbEntity
  8
0
  6
Continuous
 62
     7
100
AcDbCircle
 10
3041.741708062908
 20
1416.719479078658
 30
0.0
 40
19.68503935
  0
CIRCLE
  5
279
330
200
100
AcDbEntity
  8
0
  6
Continuous
 62
     7
100
AcDbCircle
 10
3435.048794279845
 20
416.7194800986581
 30
0.0
 40
23.62204722
  0
CIRCLE
  5
27A
330
200
100
AcDbEntity
  8
0
  6
Continuous
 62
     7
100
AcDbCircle
 10
3435.048794279845
 20
616.7194798946566
 30
0.0
 40
23.62204722
  0
CIRCLE
  5
27B
330
200
100
AcDbEntity
  8
0
  6
Continuous
 62
     7
100
AcDbCircle
 10
3435.048794279845
 20
816.7194796906569
 30
0.0
 40
23.62204722
  0
CIRCLE
  5
27C
330
200
100
AcDbEntity
  8
0
  6
Continuous
 62
     7
100
AcDbCircle
 10
3435.048794279845
 20
1016.719479486659
 30
0.0
 40
23.62204722
  0
CIRCLE
  5
27D
330
200
100
AcDbEntity
  8
0
  6
Continuous
 62
     7
100
AcDbCircle
 10
3435.048794279845
 20
1216.719479282657
 30
0.0
 40
23.62204722
  0
CIRCLE
  5
27E
330
200
100
AcDbEntity
  8
0
  6
Continuous
 62
     7
100
AcDbCircle
 10
3435.442495062908
 20
416.7194800986581
 30
0.0
 40
19.68503935
  0
CIRCLE
  5
27F
330
200
100
AcDbEntity
  8
0
  6
Continuous
 62
     7
100
AcDbCircle
 10
3435.442495062908
 20
616.7194798946566
 30
0.0
 40
19.68503935
  0
CIRCLE
  5
280
330
200
100
AcDbEntity
  8
0
  6
Continuous
 62
     7
100
AcDbCircle
 10
3435.442495062908
 20
816.7194796906569
 30
0.0
 40
19.68503935
  0
CIRCLE
  5
281
330
200
100
AcDbEntity
  8
0
  6
Continuous
 62
     7
100
AcDbCircle
 10
3435.442495062908
 20
1016.719479486659
 30
0.0
 40
19.68503935
  0
CIRCLE
  5
282
330
200
100
AcDbEntity
  8
0
  6
Continuous
 62
     7
100
AcDbCircle
 10
3435.442495062908
 20
1216.719479282657
 30
0.0
 40
19.68503935
  0
CIRCLE
  5
283
330
200
100
AcDbEntity
  8
0
  6
Continuous
 62
     7
100
AcDbCircle
 10
3449.885802138728
 20
2066.223441672069
 30
0.0
 40
55.11811017999995
  0
CIRCLE
  5
284
330
200
100
AcDbEntity
  8
0
  6
Continuous
 62
     7
100
AcDbCircle
 10
3435.048794279845
 20
1416.719479078658
 30
0.0
 40
23.62204722
  0
CIRCLE
  5
285
330
200
100
AcDbEntity
  8
0
  6
Continuous
 62
     7
100
AcDbCircle
 10
3435.442495062908
 20
1416.719479078658
 30
0.0
 40
19.68503935
  0
LINE
  5
450
330
200
100
AcDbEntity
  8
0
  6
CENTER
 62
     1
 48
0.1
100
AcDbLine
 10
-2379.977326262113
 20
-232.2017659599187
 30
0.0
 11
-2196.629010510435
 21
-232.2017659599187
 31
0.0
  0
LINE
  5
451
330
200
100
AcDbEntity
  8
0
  6
CENTER
 62
     1
 48
0.1
100
AcDbLine
 10
-2288.303168386274
 20
-323.8759238357543
 30
0.0
 11
-2288.303168386274
 21
-140.5276080840758
 31
0.0
  0
LINE
  5
452
330
200
100
AcDbEntity
  8
0
  6
CENTER
 62
     1
 48
0.1
100
AcDbLine
 10
-2479.977326160113
 20
-232.2017659599187
 30
0.0
 11
-2296.629010408436
 21
-232.2017659599187
 31
0.0
  0
LINE
  5
453
330
200
100
AcDbEntity
  8
0
  6
CENTER
 62
     1
 48
0.1
100
AcDbLine
 10
-2388.303168284273
 20
-323.8759238357543
 30
0.0
 11
-2388.303168284273
 21
-140.5276080840758
 31
0.0
  0
LINE
  5
454
330
200
100
AcDbEntity
  8
0
  6
CENTER
 62
     1
 48
0.1
100
AcDbLine
 10
-2479.977326160113
 20
-132.2017660619185
 30
0.0
 11
-2296.629010408436
 21
-132.2017660619185
 31
0.0
  0
LINE
  5
455
330
200
100
AcDbEntity
  8
0
  6
CENTER
 62
     1
 48
0.1
100
AcDbLine
 10
-2388.303168284273
 20
-223.8759239377578
 30
0.0
 11
-2388.303168284273
 21
-40.52760818608112
 31
0.0
  0
LINE
  5
456
330
200
100
AcDbEntity
  8
0
  6
CENTER
 62
     1
 48
0.1
100
AcDbLine
 10
-2379.977326262113
 20
-132.2017660619185
 30
0.0
 11
-2196.629010510435
 21
-132.2017660619185
 31
0.0
  0
LINE
  5
457
330
200
100
AcDbEntity
  8
0
  6
CENTER
 62
     1
 48
0.1
100
AcDbLine
 10
-2288.303168386274
 20
-223.8759239377578
 30
0.0
 11
-2288.303168386274
 21
-40.52760818608112
 31
0.0
  0
LINE
  5
458
330
200
100
AcDbEntity
  8
0
  6
CENTER
 62
     1
 48
0.1
100
AcDbLine
 10
-2379.977326262113
 20
-32.20176616391837
 30
0.0
 11
-2196.629010510435
 21
-32.20176616391837
 31
0.0
  0
LINE
  5
459
330
200
100
AcDbEntity
  8
0
  6
CENTER
 62
     1
 48
0.1
100
AcDbLine
 10
-2479.977326160113
 20
-32.20176616391837
 30
0.0
 11
-2296.629010408436
 21
-32.20176616391837
 31
0.0
  0
LINE
  5
45A
330
200
100
AcDbEntity
  8
0
  6
CENTER
 62
     1
 48
0.1
100
AcDbLine
 10
-2479.977326160113
 20
67.79823373407999
 30
0.0
 11
-2296.629010408436
 21
67.79823373407999
 31
0.0
  0
LINE
  5
45B
330
200
100
AcDbEntity
  8
0
  6
CENTER
 62
     1
 48
0.1
100
AcDbLine
 10
-2388.303168284273
 20
-23.87592414175015
 30
0.0
 11
-2388.303168284273
 21
159.4723916099228
 31
0.0
  0
LINE
  5
45C
330
200
100
AcDbEntity
  8
0
  6
CENTER
 62
     1
 48
0.1
100
AcDbLine
 10
-2379.977326262113
 20
67.79823373407999
 30
0.0
 11
-2196.629010510435
 21
67.79823373407999
 31
0.0
  0
LINE
  5
45D
330
200
100
AcDbEntity
  8
0
  6
CENTER
 62
     1
 48
0.1
100
AcDbLine
 10
-2288.303168386274
 20
-23.87592414175015
 30
0.0
 11
-2288.303168386274
 21
159.4723916099228
 31
0.0
  0
LINE
  5
45E
330
200
100
AcDbEntity
  8
0
  6
CENTER
 62
     1
 48
0.1
100
AcDbLine
 10
-2379.977326262113
 20
167.7982336320801
 30
0.0
 11
-2196.629010510435
 21
167.7982336320801
 31
0.0
  0
LINE
  5
45F
330
200
100
AcDbEntity
  8
0
  6
CENTER
 62
     1
 48
0.1
100
AcDbLine
 10
-2288.303168386274
 20
76.12407575624093
 30
0.0
 11
-2288.303168386274
 21
259.4723915079194
 31
0.0
  0
LINE
  5
460
330
200
100
AcDbEntity
  8
0
  6
CENTER
 62
     1
 48
0.1
100
AcDbLine
 10
-2479.977326160113
 20
167.7982336320801
 30
0.0
 11
-2296.629010408436
 21
167.7982336320801
 31
0.0
  0
LINE
  5
461
330
200
100
AcDbEntity
  8
0
  6
CENTER
 62
     1
 48
0.1
100
AcDbLine
 10
-2388.303168284273
 20
76.12407575624093
 30
0.0
 11
-2388.303168284273
 21
259.4723915079194
 31
0.0
  0
LINE
  5
462
330
200
100
AcDbEntity
  8
0
  6
CENTER
 62
     1
 48
0.1
100
AcDbLine
 10
-2479.977326160113
 20
267.7982335300821
 30
0.0
 11
-2296.629010408436
 21
267.7982335300821
 31
0.0
  0
LINE
  5
463
330
200
100
AcDbEntity
  8
0
  6
CENTER
 62
     1
 48
0.1
100
AcDbLine
 10
-2388.303168284273
 20
176.1240756542429
 30
0.0
 11
-2388.303168284273
 21
359.4723914059159
 31
0.0
  0
LINE
  5
464
330
200
100
AcDbEntity
  8
0
  6
CENTER
 62
     1
 48
0.1
100
AcDbLine
 10
-2379.977326262113
 20
267.7982335300821
 30
0.0
 11
-2196.629010510435
 21
267.7982335300821
 31
0.0
  0
LINE
  5
465
330
200
100
AcDbEntity
  8
0
  6
CENTER
 62
     1
 48
0.1
100
AcDbLine
 10
-2288.303168386274
 20
176.1240756542429
 30
0.0
 11
-2288.303168386274
 21
359.4723914059159
 31
0.0
  0
LINE
  5
466
330
200
100
AcDbEntity
  8
0
  6
CENTER
 62
     1
 48
0.1
100
AcDbLine
 10
-2479.977326160113
 20
367.7982334280805
 30
0.0
 11
-2296.629010408436
 21
367.7982334280805
 31
0.0
  0
LINE
  5
467
330
200
100
AcDbEntity
  8
0
  6
CENTER
 62
     1
 48
0.1
100
AcDbLine
 10
-2388.303168284273
 20
276.1240755522485
 30
0.0
 11
-2388.303168284273
 21
459.4723913039233
 31
0.0
  0
LINE
  5
468
330
200
100
AcDbEntity
  8
0
  6
CENTER
 62
     1
 48
0.1
100
AcDbLine
 10
-2379.977326262113
 20
367.7982334280805
 30
0.0
 11
-2196.629010510435
 21
367.7982334280805
 31
0.0
  0
LINE
  5
469
330
200
100
AcDbEntity
  8
0
  6
CENTER
 62
     1
 48
0.1
100
AcDbLine
 10
-2288.303168386274
 20
276.1240755522485
 30
0.0
 11
-2288.303168386274
 21
459.4723913039233
 31
0.0
  0
LINE
  5
46A
330
200
100
AcDbEntity
  8
0
  6
CENTER
 62
     1
 48
0.1
100
AcDbLine
 10
-2379.977326262113
 20
467.7982333260806
 30
0.0
 11
-2196.629010510435
 21
467.7982333260806
 31
0.0
  0
LINE
  5
46B
330
200
100
AcDbEntity
  8
0
  6
CENTER
 62
     1
 48
0.1
100
AcDbLine
 10
-2288.303168386274
 20
376.1240754502414
 30
0.0
 11
-2288.303168386274
 21
559.4723912019198
 31
0.0
  0
LINE
  5
46C
330
200
100
AcDbEntity
  8
0
  6
CENTER
 62
     1
 48
0.1
100
AcDbLine
 10
-2479.977326160113
 20
467.7982333260806
 30
0.0
 11
-2296.629010408436
 21
467.7982333260806
 31
0.0
  0
LINE
  5
46D
330
200
100
AcDbEntity
  8
0
  6
CENTER
 62
     1
 48
0.1
100
AcDbLine
 10
-2388.303168284273
 20
376.1240754502414
 30
0.0
 11
-2388.303168284273
 21
559.4723912019198
 31
0.0
  0
LINE
  5
46E
330
200
100
AcDbEntity
  8
0
  6
CENTER
 62
     1
 48
0.1
100
AcDbLine
 10
-2479.977326160113
 20
567.7982332240826
 30
0.0
 11
-2296.629010408436
 21
567.7982332240826
 31
0.0
  0
LINE
  5
46F
330
200
100
AcDbEntity
  8
0
  6
CENTER
 62
     1
 48
0.1
100
AcDbLine
 10
-2388.303168284273
 20
476.1240753482452
 30
0.0
 11
-2388.303168284273
 21
659.47239109992
 31
0.0
  0
LINE
  5
470
330
200
100
AcDbEntity
  8
0
  6
CENTER
 62
     1
 48
0.1
100
AcDbLine
 10
-2379.977326262113
 20
567.7982332240826
 30
0.0
 11
-2196.629010510435
 21
567.7982332240826
 31
0.0
  0
LINE
  5
471
330
200
100
AcDbEntity
  8
0
  6
CENTER
 62
     1
 48
0.1
100
AcDbLine
 10
-2288.303168386274
 20
476.1240753482452
 30
0.0
 11
-2288.303168386274
 21
659.47239109992
 31
0.0
  0
LINE
  5
472
330
200
100
AcDbEntity
  8
0
  6
CENTER
 62
     1
 48
0.1
100
AcDbLine
 10
-2379.977326262113
 20
667.7982331220809
 30
0.0
 11
-2196.629010510435
 21
667.7982331220809
 31
0.0
  0
LINE
  5
473
330
200
100
AcDbEntity
  8
0
  6
CENTER
 62
     1
 48
0.1
100
AcDbLine
 10
-2288.303168386274
 20
576.1240752462472
 30
0.0
 11
-2288.303168386274
 21
759.4723909979238
 31
0.0
  0
LINE
  5
474
330
200
100
AcDbEntity
  8
0
  6
CENTER
 62
     1
 48
0.1
100
AcDbLine
 10
-2479.977326160113
 20
667.7982331220809
 30
0.0
 11
-2296.629010408436
 21
667.7982331220809
 31
0.0
  0
LINE
  5
475
330
200
100
AcDbEntity
  8
0
  6
CENTER
 62
     1
 48
0.1
100
AcDbLine
 10
-2388.303168284273
 20
576.1240752462472
 30
0.0
 11
-2388.303168284273
 21
759.4723909979238
 31
0.0
  0
LINE
  5
476
330
200
100
AcDbEntity
  8
0
  6
CENTER
 62
     1
 48
0.1
100
AcDbLine
 10
-2579.977326058113
 20
867.4045321310805
 30
0.0
 11
-2396.629010306439
 21
867.4045321310805
 31
0.0
  0
LINE
  5
477
330
200
100
AcDbEntity
  8
0
  6
CENTER
 62
     1
 48
0.1
100
AcDbLine
 10
-2488.303168182274
 20
775.7303742552503
 30
0.0
 11
-2488.303168182274
 21
959.0786900069215
 31
0.0
  0
LINE
  5
478
330
200
100
AcDbEntity
  8
0
  6
CENTER
 62
     1
 48
0.1
100
AcDbLine
 10
-2579.977326058113
 20
-431.8080649689181
 30
0.0
 11
-2396.629010306439
 21
-431.8080649689181
 31
0.0
  0
LINE
  5
479
330
200
100
AcDbEntity
  8
0
  6
CENTER
 62
     1
 48
0.1
100
AcDbLine
 10
-2488.303168182274
 20
-523.4822228447592
 30
0.0
 11
-2488.303168182274
 21
-340.1339070930844
 31
0.0
  0
LINE
  5
480
330
200
100
AcDbEntity
  8
0
  6
CENTER
 62
     1
 48
0.1
100
AcDbLine
 10
3343.768337187072
 20
1416.719479078658
 30
0.0
 11
3527.116652938743
 21
1416.719479078658
 31
0.0
  0
LINE
  5
481
330
200
100
AcDbEntity
  8
0
  6
CENTER
 62
     1
 48
0.1
100
AcDbLine
 10
3435.442495062908
 20
1325.045321202822
 30
0.0
 11
3435.442495062908
 21
1508.393636954497
 31
0.0
  0
LINE
  5
482
330
200
100
AcDbEntity
  8
0
  6
CENTER
 62
     1
 48
0.1
100
AcDbLine
 10
2950.067550187072
 20
1416.719479078658
 30
0.0
 11
3133.415865938745
 21
1416.719479078658
 31
0.0
  0
LINE
  5
483
330
200
100
AcDbEntity
  8
0
  6
CENTER
 62
     1
 48
0.1
100
AcDbLine
 10
3041.741708062908
 20
1325.045321202822
 30
0.0
 11
3041.741708062908
 21
1508.393636954497
 31
0.0
  0
LINE
  5
484
330
200
100
AcDbEntity
  8
0
  6
CENTER
 62
     1
 48
0.1
100
AcDbLine
 10
3343.768337187072
 20
1216.719479282654
 30
0.0
 11
3527.116652938743
 21
1216.719479282654
 31
0.0
  0
LINE
  5
485
330
200
100
AcDbEntity
  8
0
  6
CENTER
 62
     1
 48
0.1
100
AcDbLine
 10
3435.442495062908
 20
1125.045321406818
 30
0.0
 11
3435.442495062908
 21
1308.393637158493
 31
0.0
  0
LINE
  5
486
330
200
100
AcDbEntity
  8
0
  6
CENTER
 62
     1
 48
0.1
100
AcDbLine
 10
2950.067550187072
 20
1216.719479282654
 30
0.0
 11
3133.415865938745
 21
1216.719479282654
 31
0.0
  0
LINE
  5
487
330
200
100
AcDbEntity
  8
0
  6
CENTER
 62
     1
 48
0.1
100
AcDbLine
 10
3041.741708062908
 20
1125.045321406818
 30
0.0
 11
3041.741708062908
 21
1308.393637158493
 31
0.0
  0
LINE
  5
488
330
200
100
AcDbEntity
  8
0
  6
CENTER
 62
     1
 48
0.1
100
AcDbLine
 10
3343.768337187072
 20
1016.719479486664
 30
0.0
 11
3527.116652938743
 21
1016.719479486664
 31
0.0
  0
LINE
  5
489
330
200
100
AcDbEntity
  8
0
  6
CENTER
 62
     1
 48
0.1
100
AcDbLine
 10
3435.442495062908
 20
925.0453216108217
 30
0.0
 11
3435.442495062908
 21
1108.393637362494
 31
0.0
  0
LINE
  5
48A
330
200
100
AcDbEntity
  8
0
  6
CENTER
 62
     1
 48
0.1
100
AcDbLine
 10
2950.067550187072
 20
1016.719479486664
 30
0.0
 11
3133.415865938745
 21
1016.719479486664
 31
0.0
  0
LINE
  5
48B
330
200
100
AcDbEntity
  8
0
  6
CENTER
 62
     1
 48
0.1
100
AcDbLine
 10
3041.741708062908
 20
925.0453216108217
 30
0.0
 11
3041.741708062908
 21
1108.393637362494
 31
0.0
  0
LINE
  5
48C
330
200
100
AcDbEntity
  8
0
  6
CENTER
 62
     1
 48
0.1
100
AcDbLine
 10
2950.067550187072
 20
816.7194796906569
 30
0.0
 11
3133.415865938745
 21
816.7194796906569
 31
0.0
  0
LINE
  5
48D
330
200
100
AcDbEntity
  8
0
  6
CENTER
 62
     1
 48
0.1
100
AcDbLine
 10
3041.741708062908
 20
725.0453218148232
 30
0.0
 11
3041.741708062908
 21
908.3936375664961
 31
0.0
  0
LINE
  5
48E
330
200
100
AcDbEntity
  8
0
  6
CENTER
 62
     1
 48
0.1
100
AcDbLine
 10
3343.768337187072
 20
816.7194796906569
 30
0.0
 11
3527.116652938743
 21
816.7194796906569
 31
0.0
  0
LINE
  5
48F
330
200
100
AcDbEntity
  8
0
  6
CENTER
 62
     1
 48
0.1
100
AcDbLine
 10
3435.442495062908
 20
725.0453218148232
 30
0.0
 11
3435.442495062908
 21
908.3936375664961
 31
0.0
  0
LINE
  5
490
330
200
100
AcDbEntity
  8
0
  6
CENTER
 62
     1
 48
0.1
100
AcDbLine
 10
3343.768337187072
 20
616.7194798946566
 30
0.0
 11
3527.116652938743
 21
616.7194798946566
 31
0.0
  0
LINE
  5
491
330
200
100
AcDbEntity
  8
0
  6
CENTER
 62
     1
 48
0.1
100
AcDbLine
 10
3435.442495062908
 20
525.0453220188192
 30
0.0
 11
3435.442495062908
 21
708.3936377704958
 31
0.0
  0
LINE
  5
492
330
200
100
AcDbEntity
  8
0
  6
CENTER
 62
     1
 48
0.1
100
AcDbLine
 10
2950.067550187072
 20
616.7194798946566
 30
0.0
 11
3133.415865938745
 21
616.7194798946566
 31
0.0
  0
LINE
  5
493
330
200
100
AcDbEntity
  8
0
  6
CENTER
 62
     1
 48
0.1
100
AcDbLine
 10
3041.741708062908
 20
525.0453220188192
 30
0.0
 11
3041.741708062908
 21
708.3936377704958
 31
0.0
  0
LINE
  5
494
330
200
100
AcDbEntity
  8
0
  6
CENTER
 62
     1
 48
0.1
100
AcDbLine
 10
3343.768337187072
 20
416.7194800986581
 30
0.0
 11
3527.116652938743
 21
416.7194800986581
 31
0.0
  0
LINE
  5
495
330
200
100
AcDbEntity
  8
0
  6
CENTER
 62
     1
 48
0.1
100
AcDbLine
 10
3435.442495062908
 20
325.0453222228243
 30
0.0
 11
3435.442495062908
 21
508.3936379744973
 31
0.0
  0
LINE
  5
496
330
200
100
AcDbEntity
  8
0
  6
CENTER
 62
     1
 48
0.1
100
AcDbLine
 10
2950.067550187072
 20
416.7194800986581
 30
0.0
 11
3133.415865938745
 21
416.7194800986581
 31
0.0
  0
LINE
  5
497
330
200
100
AcDbEntity
  8
0
  6
CENTER
 62
     1
 48
0.1
100
AcDbLine
 10
3041.741708062908
 20
325.0453222228243
 30
0.0
 11
3041.741708062908
 21
508.3936379744973
 31
0.0
  0
LINE
  5
498
330
200
100
AcDbEntity
  8
0
  6
CENTER
 62
     1
 48
0.1
100
AcDbLine
 10
2950.067550187072
 20
216.7194803026559
 30
0.0
 11
3133.415865938745
 21
216.7194803026559
 31
0.0
  0
LINE
  5
499
330
200
100
AcDbEntity
  8
0
  6
CENTER
 62
     1
 48
0.1
100
AcDbLine
 10
3041.741708062908
 20
125.0453224268222
 30
0.0
 11
3041.741708062908
 21
308.393638178497
 31
0.0
  0
LINE
  5
49A
330
200
100
AcDbEntity
  8
0
  6
CENTER
 62
     1
 48
0.1
100
AcDbLine
 10
3343.768337187072
 20
216.7194803026559
 30
0.0
 11
3527.116652938743
 21
216.7194803026559
 31
0.0
  0
LINE
  5
49B
330
200
100
AcDbEntity
  8
0
  6
CENTER
 62
     1
 48
0.1
100
AcDbLine
 10
3435.442495062908
 20
125.0453224268222
 30
0.0
 11
3435.442495062908
 21
308.393638178497
 31
0.0
  0
LINE
  5
49C
330
200
100
AcDbEntity
  8
0
  6
CENTER
 62
     1
 48
0.1
100
AcDbLine
 10
2950.067550187072
 20
16.71948050665742
 30
0.0
 11
3133.415865938745
 21
16.71948050665742
 31
0.0
  0
LINE
  5
49D
330
200
100
AcDbEntity
  8
0
  6
CENTER
 62
     1
 48
0.1
100
AcDbLine
 10
3041.741708062908
 20
-74.95467736918181
 30
0.0
 11
3041.741708062908
 21
108.3936383824966
 31
0.0
  0
LINE
  5
49E
330
200
100
AcDbEntity
  8
0
  6
CENTER
 62
     1
 48
0.1
100
AcDbLine
 10
3343.768337187072
 20
16.71948050665742
 30
0.0
 11
3527.116652938743
 21
16.71948050665742
 31
0.0
  0
LINE
  5
49F
330
200
100
AcDbEntity
  8
0
  6
CENTER
 62
     1
 48
0.1
100
AcDbLine
 10
3435.442495062908
 20
-74.95467736918181
 30
0.0
 11
3435.442495062908
 21
108.3936383824966
 31
0.0
  0
LINE
  5
4A0
330
200
100
AcDbEntity
  8
0
  6
CENTER
 62
     1
 48
0.1
100
AcDbLine
 10
2950.067550187072
 20
-183.2805192893429
 30
0.0
 11
3133.415865938745
 21
-183.2805192893429
 31
0.0
  0
LINE
  5
4A1
330
200
100
AcDbEntity
  8
0
  6
CENTER
 62
     1
 48
0.1
100
AcDbLine
 10
3041.741708062908
 20
-274.9546771651822
 30
0.0
 11
3041.741708062908
 21
-91.60636141350369
 31
0.0
  0
LINE
  5
4A2
330
200
100
AcDbEntity
  8
0
  6
CENTER
 62
     1
 48
0.1
100
AcDbLine
 10
3343.768337187072
 20
-183.2805192893429
 30
0.0
 11
3527.116652938743
 21
-183.2805192893429
 31
0.0
  0
LINE
  5
4A3
330
200
100
AcDbEntity
  8
0
  6
CENTER
 62
     1
 48
0.1
100
AcDbLine
 10
3435.442495062908
 20
-274.9546771651822
 30
0.0
 11
3435.442495062908
 21
-91.60636141350369
 31
0.0
  0
LINE
  5
4A4
330
200
100
AcDbEntity
  8
0
  6
CENTER
 62
     1
 48
0.1
100
AcDbLine
 10
2950.067550187072
 20
-383.2805190853433
 30
0.0
 11
3133.415865938745
 21
-383.2805190853433
 31
0.0
  0
LINE
  5
4A5
330
200
100
AcDbEntity
  8
0
  6
CENTER
 62
     1
 48
0.1
100
AcDbLine
 10
3041.741708062908
 20
-474.954676961177
 30
0.0
 11
3041.741708062908
 21
-291.6063612095022
 31
0.0
  0
LINE
  5
4A6
330
200
100
AcDbEntity
  8
0
  6
CENTER
 62
     1
 48
0.1
100
AcDbLine
 10
3343.768337187072
 20
-383.2805190853433
 30
0.0
 11
3527.116652938743
 21
-383.2805190853433
 31
0.0
  0
LINE
  5
4A7
330
200
100
AcDbEntity
  8
0
  6
CENTER
 62
     1
 48
0.1
100
AcDbLine
 10
3435.442495062908
 20
-474.954676961177
 30
0.0
 11
3435.442495062908
 21
-291.6063612095022
 31
0.0
  0
LINE
  5
4A8
330
200
100
AcDbEntity
  8
0
  6
CENTER
 62
     1
 48
0.1
100
AcDbLine
 10
2950.067550187072
 20
-583.2805188813417
 30
0.0
 11
3133.415865938745
 21
-583.2805188813417
 31
0.0
  0
LINE
  5
4A9
330
200
100
AcDbEntity
  8
0
  6
CENTER
 62
     1
 48
0.1
100
AcDbLine
 10
3041.741708062908
 20
-674.9546767571828
 30
0.0
 11
3041.741708062908
 21
-491.6063610055025
 31
0.0
  0
LINE
  5
4AA
330
200
100
AcDbEntity
  8
0
  6
CENTER
 62
     1
 48
0.1
100
AcDbLine
 10
3343.768337187072
 20
-583.2805188813417
 30
0.0
 11
3527.116652938743
 21
-583.2805188813417
 31
0.0
  0
LINE
  5
4AB
330
200
100
AcDbEntity
  8
0
  6
CENTER
 62
     1
 48
0.1
100
AcDbLine
 10
3435.442495062908
 20
-674.9546767571828
 30
0.0
 11
3435.442495062908
 21
-491.6063610055025
 31
0.0
  0
LINE
  5
4AC
330
200
100
AcDbEntity
  8
0
  6
CENTER
 62
     1
 48
0.1
100
AcDbLine
 10
3343.768337187072
 20
-783.2805186773421
 30
0.0
 11
3527.116652938743
 21
-783.2805186773421
 31
0.0
  0
LINE
  5
4AD
330
200
100
AcDbEntity
  8
0
  6
CENTER
 62
     1
 48
0.1
100
AcDbLine
 10
3435.442495062908
 20
-874.9546765531777
 30
0.0
 11
3435.442495062908
 21
-691.6063608015028
 31
0.0
  0
LINE
  5
4AE
330
200
100
AcDbEntity
  8
0
  6
CENTER
 62
     1
 48
0.1
100
AcDbLine
 10
2950.067550187072
 20
-783.2805186773421
 30
0.0
 11
3133.415865938745
 21
-783.2805186773421
 31
0.0
  0
LINE
  5
4AF
330
200
100
AcDbEntity
  8
0
  6
CENTER
 62
     1
 48
0.1
100
AcDbLine
 10
3041.741708062908
 20
-874.9546765531777
 30
0.0
 11
3041.741708062908
 21
-691.6063608015028
 31
0.0
  0
LINE
  5
4B0
330
200
100
AcDbEntity
  8
0
100
AcDbLine
 10
3837.017297802908
 20
1716.719478772657
 30
0.0
 11
3590.436983093789
 21
1716.719478772657
 31
0.0
  0
LINE
  5
4B1
330
200
100
AcDbEntity
  8
0
100
AcDbLine
 10
3837.017297802908
 20
-1083.280518371342
 30
0.0
 11
3590.436983093789
 21
-1083.280518371342
 31
0.0
  0
LINE
  5
4D2
330
200
100
AcDbEntity
  8
0
  6
CENTER
 62
     1
 48
0.1
100
AcDbLine
 10
3358.21164426289
 20
2066.223441672069
 30
0.0
 11
3541.559960014562
 21
2066.223441672069
 31
0.0
  0
LINE
  5
4D3
330
200
100
AcDbEntity
  8
0
  6
CENTER
 62
     1
 48
0.1
100
AcDbLine
 10
3449.885802138728
 20
1974.549283796232
 30
0.0
 11
3449.885802138728
 21
2157.897599547905
 31
0.0
  0
LINE
  5
4D4
330
200
100
AcDbEntity
  8
0
  6
CENTER
 62
     1
 48
0.1
100
AcDbLine
 10
3358.21164426289
 20
-1433.776581005963
 30
0.0
 11
3541.559960014562
 21
-1433.776581005963
 31
0.0
  0
LINE
  5
4D5
330
200
100
AcDbEntity
  8
0
  6
CENTER
 62
     1
 48
0.1
100
AcDbLine
 10
3449.885802138728
 20
-1525.450738881802
 30
0.0
 11
3449.885802138728
 21
-1342.102423130123
 31
0.0
  0
CIRCLE
  5
56C
330
200
100
AcDbEntity
  8
0
100
AcDbCircle
 10
3354.216510897728
 20
1852.152549500657
 30
0.0
 40
98.42519675
  0
CIRCLE
  5
56D
330
200
100
AcDbEntity
  8
0
100
AcDbCircle
 10
3354.216510897728
 20
1804.141365858224
 30
0.0
 40
19.68503935
  0
CIRCLE
  5
56E
330
200
100
AcDbEntity
  8
0
100
AcDbCircle
 10
3354.216510897728
 20
1902.152549449656
 30
0.0
 40
19.68503935
  0
ENDSEC
  0
SECTION
  2
OBJECTS
  0
DICTIONARY
  5
C
330
0
100
AcDbDictionary
281
     1
  3
ACAD_COLOR
350
2B4
  3
ACAD_GROUP
350
D
  3
ACAD_LAYOUT
350
1A
  3
ACAD_MATERIAL
350
28A
  3
ACAD_MLEADERSTYLE
350
2D9
  3
ACAD_MLINESTYLE
350
17
  3
ACAD_PLOTSETTINGS
350
19
  3
ACAD_PLOTSTYLENAME
350
E
  3
ACAD_SCALELIST
350
2B7
  3
ACAD_TABLESTYLE
350
2B5
  3
ACAD_VISUALSTYLE
350
2A3
  3
ACDB_RECOMPOSE_DATA
350
4D8
  3
AcDbVariableDictionary
350
4BA
  3
DWGPROPS
350
57F
  0
DICTIONARY
  5
4B2
330
10
100
AcDbDictionary
280
     1
281
     1
  3
ADSK_XREC_LAYER_RECONCILED
360
4B3
  0
DICTIONARY
  5
4B4
330
1FA
100
AcDbDictionary
280
     1
281
     1
  3
ADSK_XREC_LAYER_RECONCILED
360
4B5
  0
DICTIONARY
  5
4B6
330
1FB
100
AcDbDictionary
280
     1
281
     1
  3
ADSK_XREC_LAYER_RECONCILED
360
4B7
  0
DICTIONARY
  5
4B8
330
1FC
100
AcDbDictionary
280
     1
281
     1
  3
ADSK_XREC_LAYER_RECONCILED
360
4B9
  0
DICTIONARY
  5
580
330
209
100
AcDbDictionary
280
     1
281
     1
  3
ACAD_MTEXT_RT
360
581
  0
DICTIONARY
  5
2B4
102
{ACAD_REACTORS
330
C
102
}
330
C
100
AcDbDictionary
281
     1
  0
DICTIONARY
  5
D
102
{ACAD_REACTORS
330
C
102
}
330
C
100
AcDbDictionary
281
     1
  0
DICTIONARY
  5
1A
102
{ACAD_REACTORS
330
C
102
}
330
C
100
AcDbDictionary
281
     1
  3
Layout1
350
287
  3
Model
350
286
  0
DICTIONARY
  5
28A
102
{ACAD_REACTORS
330
C
102
}
330
C
100
AcDbDictionary
281
     1
  3
ByBlock
350
293
  3
ByLayer
350
28B
  3
Global
350
29B
  0
DICTIONARY
  5
2D9
102
{ACAD_REACTORS
330
C
102
}
330
C
100
AcDbDictionary
281
     1
  3
Standard
350
2DA
  0
DICTIONARY
  5
17
102
{ACAD_REACTORS
330
C
102
}
330
C
100
AcDbDictionary
281
     1
  3
Standard
350
18
  0
DICTIONARY
  5
19
102
{ACAD_REACTORS
330
C
102
}
330
C
100
AcDbDictionary
281
     1
  0
ACDBDICTIONARYWDFLT
  5
E
102
{ACAD_REACTORS
330
C
102
}
330
C
100
AcDbDictionary
281
     1
  3
Normal
350
F
100
AcDbDictionaryWithDefault
340
F
  0
DICTIONARY
  5
2B7
102
{ACAD_REACTORS
330
C
102
}
330
C
100
AcDbDictionary
281
     1
  3
A0
350
2B8
  3
A1
350
2B9
  3
A2
350
2BA
  3
A3
350
2BB
  3
A4
350
2BC
  3
A5
350
2BD
  3
A6
350
2BE
  3
A7
350
2BF
  3
A8
350
2C0
  3
A9
350
2C1
  3
B0
350
2C2
  3
B1
350
2C3
  3
B2
350
2C4
  3
B3
350
2C5
  3
B4
350
2C6
  3
B5
350
2C7
  3
B6
350
2C8
  3
B7
350
2C9
  3
B8
350
2CA
  3
B9
350
2CB
  3
C0
350
2CC
  3
C1
350
2CD
  3
C2
350
2CE
  3
C3
350
2CF
  3
C4
350
2D0
  3
C5
350
2D1
  3
C6
350
2D2
  3
C7
350
2D3
  3
C8
350
2D4
  3
C9
350
2D5
  3
D0
350
2D6
  3
D1
350
2D7
  3
D2
350
2D8
  0
DICTIONARY
  5
2B5
102
{ACAD_REACTORS
330
C
102
}
330
C
100
AcDbDictionary
281
     1
  3
Standard
350
2B6
  0
DICTIONARY
  5
2A3
102
{ACAD_REACTORS
330
C
102
}
330
C
100
AcDbDictionary
281
     1
  3
2dWireframe
350
2A9
  3
3D Hidden
350
2AB
  3
3dWireframe
350
2AA
  3
Basic
350
2A8
  3
Brighten
350
2AF
  3
ColorChange
350
2B3
  3
Conceptual
350
2AC
  3
Dim
350
2AE
  3
Facepattern
350
2B2
  3
Flat
350
2A4
  3
FlatWithEdges
350
2A5
  3
Gouraud
350
2A6
  3
GouraudWithEdges
350
2A7
  3
Linepattern
350
2B1
  3
Realistic
350
2AD
  3
Thicken
350
2B0
  0
XRECORD
  5
4D8
102
{ACAD_REACTORS
330
C
102
}
330
C
100
AcDbXrecord
280
     1
 90
        1
330
2B6
  0
DICTIONARY
  5
4BA
102
{ACAD_REACTORS
330
C
102
}
330
C
100
AcDbDictionary
281
     1
  3
CANNOSCALE
350
4BE
  3
CMLEADERSTYLE
350
4BC
  3
CTABLESTYLE
350
4BB
  3
DIMASSOC
350
4C3
  3
HIDETEXT
350
4C2
  3
INDEXCTL
350
4C1
  3
LIGHTINGUNITS
350
4BF
  3
MSLTSCALE
350
4BD
  3
SORTENTS
350
4C0
  0
XRECORD
  5
57F
102
{ACAD_REACTORS
330
C
102
}
330
C
100
AcDbXrecord
280
     1
  1
DWGPROPS COOKIE
  2

  3

  4

  6

  7

  8
01
  9

300
=
301
=
302
=
303
=
304
=
305
=
306
=
307
=
308
=
309
=
 40
0.0081840856481481
 41
2458705.637250568
 42
2458708.584418797
  1

 90
        0
  0
XRECORD
  5
4B3
102
{ACAD_REACTORS
330
4B2
102
}
330
4B2
100
AcDbXrecord
280
     1
290
     1
  0
XRECORD
  5
4B5
102
{ACAD_REACTORS
330
4B4
102
}
330
4B4
100
AcDbXrecord
280
     1
290
     1
  0
XRECORD
  5
4B7
102
{ACAD_REACTORS
330
4B6
102
}
330
4B6
100
AcDbXrecord
280
     1
290
     1
  0
XRECORD
  5
4B9
102
{ACAD_REACTORS
330
4B8
102
}
330
4B8
100
AcDbXrecord
280
     1
290
     1
  0
XRECORD
  5
581
102
{ACAD_REACTORS
330
580
102
}
330
580
100
AcDbXrecord
280
     1
 40
11452.0
  1
±ÈÀý 1,000
  0
LAYOUT
  5
287
102
{ACAD_XDICTIONARY
360
584
102
}
102
{ACAD_REACTORS
330
1A
102
}
330
1A
100
AcDbPlotSettings
  1

  2
none_device
  4
ANSI_C_(22.00_x_17.00_Inches)
  6

 40
0.0
 41
0.0
 42
0.0
 43
0.0
 44
558.8
 45
431.8
 46
0.0
 47
0.0
 48
0.0
 49
0.0
140
0.0
141
0.0
142
1.0
143
1.0
 70
     0
 72
     1
 73
     0
 74
     0
  7

 75
     0
147
1.0
148
0.0
149
0.0
100
AcDbLayout
  1
Layout1
 70
     1
 71
     1
 10
0.0
 20
0.0
 11
12.0
 21
9.0
 12
0.0
 22
0.0
 32
0.0
 14
1.000000000000000E+20
 24
1.000000000000000E+20
 34
1.000000000000000E+20
 15
-1.000000000000000E+20
 25
-1.000000000000000E+20
 35
-1.000000000000000E+20
146
0.0
 13
0.0
 23
0.0
 33
0.0
 16
1.0
 26
0.0
 36
0.0
 17
0.0
 27
1.0
 37
0.0
 76
     0
330
201
  0
LAYOUT
  5
286
102
{ACAD_XDICTIONARY
360
582
102
}
102
{ACAD_REACTORS
330
1A
102
}
330
1A
100
AcDbPlotSettings
  1

  2
none_device
  4
ANSI_C_(22.00_x_17.00_Inches)
  6

 40
0.0
 41
0.0
 42
0.0
 43
0.0
 44
558.8
 45
431.8
 46
0.0
 47
0.0
 48
0.0
 49
0.0
140
0.0
141
0.0
142
1.0
143
1.0
 70
  1024
 72
     1
 73
     0
 74
     0
  7

 75
     0
147
1.0
148
0.0
149
0.0
100
AcDbLayout
  1
Model
 70
     0
 71
     0
 10
0.0
 20
0.0
 11
558.8
 21
431.8
 12
0.0
 22
0.0
 32
0.0
 14
0.0
 24
0.0
 34
0.0
 15
0.0
 25
0.0
 35
0.0
146
0.0
 13
0.0
 23
0.0
 33
0.0
 16
1.0
 26
0.0
 36
0.0
 17
0.0
 27
1.0
 37
0.0
 76
     0
330
200
331
1F4
  0
MATERIAL
  5
293
102
{ACAD_XDICTIONARY
360
294
102
}
102
{ACAD_REACTORS
330
28A
102
}
330
28A
100
AcDbMaterial
  1
ByBlock
 72
     0
 43
0.0008202099737533
 43
0.0
 43
0.0
 43
0.0
 43
0.0
 43
0.0008202099737533
 43
0.0
 43
0.0
 43
0.0
 43
0.0
 43
1.0
 43
0.0
 43
0.0
 43
0.0
 43
0.0
 43
1.0
 77
     0
 47
0.0008202099737533
 47
0.0
 47
0.0
 47
0.0
 47
0.0
 47
0.0008202099737533
 47
0.0
 47
0.0
 47
0.0
 47
0.0
 47
1.0
 47
0.0
 47
0.0
 47
0.0
 47
0.0
 47
1.0
171
     0
 49
0.0008202099737533
 49
0.0
 49
0.0
 49
0.0
 49
0.0
 49
0.0008202099737533
 49
0.0
 49
0.0
 49
0.0
 49
0.0
 49
1.0
 49
0.0
 49
0.0
 49
0.0
 49
0.0
 49
1.0
175
     0
142
0.0008202099737533
142
0.0
142
0.0
142
0.0
142
0.0
142
0.0008202099737533
142
0.0
142
0.0
142
0.0
142
0.0
142
1.0
142
0.0
142
0.0
142
0.0
142
0.0
142
1.0
179
     0
144
0.0008202099737533
144
0.0
144
0.0
144
0.0
144
0.0
144
0.0008202099737533
144
0.0
144
0.0
144
0.0
144
0.0
144
1.0
144
0.0
144
0.0
144
0.0
144
0.0
144
1.0
147
0.0008202099737533
147
0.0
147
0.0
147
0.0
147
0.0
147
0.0008202099737533
147
0.0
147
0.0
147
0.0
147
0.0
147
1.0
147
0.0
147
0.0
147
0.0
147
0.0
147
1.0
  0
MATERIAL
  5
28B
102
{ACAD_XDICTIONARY
360
28C
102
}
102
{ACAD_REACTORS
330
28A
102
}
330
28A
100
AcDbMaterial
  1
ByLayer
 72
     0
 43
0.0008202099737533
 43
0.0
 43
0.0
 43
0.0
 43
0.0
 43
0.0008202099737533
 43
0.0
 43
0.0
 43
0.0
 43
0.0
 43
1.0
 43
0.0
 43
0.0
 43
0.0
 43
0.0
 43
1.0
 77
     0
 47
0.0008202099737533
 47
0.0
 47
0.0
 47
0.0
 47
0.0
 47
0.0008202099737533
 47
0.0
 47
0.0
 47
0.0
 47
0.0
 47
1.0
 47
0.0
 47
0.0
 47
0.0
 47
0.0
 47
1.0
171
     0
 49
0.0008202099737533
 49
0.0
 49
0.0
 49
0.0
 49
0.0
 49
0.0008202099737533
 49
0.0
 49
0.0
 49
0.0
 49
0.0
 49
1.0
 49
0.0
 49
0.0
 49
0.0
 49
0.0
 49
1.0
175
     0
142
0.0008202099737533
142
0.0
142
0.0
142
0.0
142
0.0
142
0.0008202099737533
142
0.0
142
0.0
142
0.0
142
0.0
142
1.0
142
0.0
142
0.0
142
0.0
142
0.0
142
1.0
179
     0
144
0.0008202099737533
144
0.0
144
0.0
144
0.0
144
0.0
144
0.0008202099737533
144
0.0
144
0.0
144
0.0
144
0.0
144
1.0
144
0.0
144
0.0
144
0.0
144
0.0
144
1.0
147
0.0008202099737533
147
0.0
147
0.0
147
0.0
147
0.0
147
0.0008202099737533
147
0.0
147
0.0
147
0.0
147
0.0
147
1.0
147
0.0
147
0.0
147
0.0
147
0.0
147
1.0
  0
MATERIAL
  5
29B
102
{ACAD_XDICTIONARY
360
29C
102
}
102
{ACAD_REACTORS
330
28A
102
}
330
28A
100
AcDbMaterial
  1
Global
 72
     0
 43
0.0008202099737533
 43
0.0
 43
0.0
 43
0.0
 43
0.0
 43
0.0008202099737533
 43
0.0
 43
0.0
 43
0.0
 43
0.0
 43
1.0
 43
0.0
 43
0.0
 43
0.0
 43
0.0
 43
1.0
 77
     0
 47
0.0008202099737533
 47
0.0
 47
0.0
 47
0.0
 47
0.0
 47
0.0008202099737533
 47
0.0
 47
0.0
 47
0.0
 47
0.0
 47
1.0
 47
0.0
 47
0.0
 47
0.0
 47
0.0
 47
1.0
171
     0
 49
0.0008202099737533
 49
0.0
 49
0.0
 49
0.0
 49
0.0
 49
0.0008202099737533
 49
0.0
 49
0.0
 49
0.0
 49
0.0
 49
1.0
 49
0.0
 49
0.0
 49
0.0
 49
0.0
 49
1.0
175
     0
142
0.0008202099737533
142
0.0
142
0.0
142
0.0
142
0.0
142
0.0008202099737533
142
0.0
142
0.0
142
0.0
142
0.0
142
1.0
142
0.0
142
0.0
142
0.0
142
0.0
142
1.0
179
     0
144
0.0008202099737533
144
0.0
144
0.0
144
0.0
144
0.0
144
0.0008202099737533
144
0.0
144
0.0
144
0.0
144
0.0
144
1.0
144
0.0
144
0.0
144
0.0
144
0.0
144
1.0
147
0.0008202099737533
147
0.0
147
0.0
147
0.0
147
0.0
147
0.0008202099737533
147
0.0
147
0.0
147
0.0
147
0.0
147
1.0
147
0.0
147
0.0
147
0.0
147
0.0
147
1.0
  0
MLEADERSTYLE
  5
2DA
102
{ACAD_REACTORS
330
2D9
102
}
330
2D9
100
AcDbMLeaderStyle
170
     2
171
     1
172
     0
 90
        2
 40
0.0
 41
0.0
173
     1
 91
-1056964608
340
14
 92
       -2
290
     1
 42
2.0
291
     1
 43
0.36
  3
Standard
 44
4.0
300

342
11
174
     1
178
     6
175
     1
176
     0
 93
-1056964608
 45
4.0
292
     0
297
     0
 46
4.0
 94
-1056964608
 47
1.0
 49
1.0
140
1.0
293
     1
141
0.0
294
     1
177
     0
142
1.0
295
     0
296
     0
143
0.125
1001
ACAD_MLEADERVER
1070
     2
  0
MLINESTYLE
  5
18
102
{ACAD_REACTORS
330
17
102
}
330
17
100
AcDbMlineStyle
  2
STANDARD
 70
     0
  3

 62
   256
 51
90.0
 52
90.0
 71
     2
 49
0.5
 62
   256
  6
BYLAYER
 49
-0.5
 62
   256
  6
BYLAYER
  0
ACDBPLACEHOLDER
  5
F
102
{ACAD_REACTORS
330
E
102
}
330
E
  0
SCALE
  5
2B8
102
{ACAD_REACTORS
330
2B7
102
}
330
2B7
100
AcDbScale
 70
     0
300
1:1
140
1.0
141
1.0
290
     1
  0
SCALE
  5
2B9
102
{ACAD_REACTORS
330
2B7
102
}
330
2B7
100
AcDbScale
 70
     0
300
1:2
140
1.0
141
2.0
290
     0
  0
SCALE
  5
2BA
102
{ACAD_REACTORS
330
2B7
102
}
330
2B7
100
AcDbScale
 70
     0
300
1:4
140
1.0
141
4.0
290
     0
  0
SCALE
  5
2BB
102
{ACAD_REACTORS
330
2B7
102
}
330
2B7
100
AcDbScale
 70
     0
300
1:5
140
1.0
141
5.0
290
     0
  0
SCALE
  5
2BC
102
{ACAD_REACTORS
330
2B7
102
}
330
2B7
100
AcDbScale
 70
     0
300
1:8
140
1.0
141
8.0
290
     0
  0
SCALE
  5
2BD
102
{ACAD_REACTORS
330
2B7
102
}
330
2B7
100
AcDbScale
 70
     0
300
1:10
140
1.0
141
10.0
290
     0
  0
SCALE
  5
2BE
102
{ACAD_REACTORS
330
2B7
102
}
330
2B7
100
AcDbScale
 70
     0
300
1:16
140
1.0
141
16.0
290
     0
  0
SCALE
  5
2BF
102
{ACAD_REACTORS
330
2B7
102
}
330
2B7
100
AcDbScale
 70
     0
300
1:20
140
1.0
141
20.0
290
     0
  0
SCALE
  5
2C0
102
{ACAD_REACTORS
330
2B7
102
}
330
2B7
100
AcDbScale
 70
     0
300
1:30
140
1.0
141
30.0
290
     0
  0
SCALE
  5
2C1
102
{ACAD_REACTORS
330
2B7
102
}
330
2B7
100
AcDbScale
 70
     0
300
1:40
140
1.0
141
40.0
290
     0
  0
SCALE
  5
2C2
102
{ACAD_REACTORS
330
2B7
102
}
330
2B7
100
AcDbScale
 70
     0
300
1:50
140
1.0
141
50.0
290
     0
  0
SCALE
  5
2C3
102
{ACAD_REACTORS
330
2B7
102
}
330
2B7
100
AcDbScale
 70
     0
300
1:100
140
1.0
141
100.0
290
     0
  0
SCALE
  5
2C4
102
{ACAD_REACTORS
330
2B7
102
}
330
2B7
100
AcDbScale
 70
     0
300
2:1
140
2.0
141
1.0
290
     0
  0
SCALE
  5
2C5
102
{ACAD_REACTORS
330
2B7
102
}
330
2B7
100
AcDbScale
 70
     0
300
4:1
140
4.0
141
1.0
290
     0
  0
SCALE
  5
2C6
102
{ACAD_REACTORS
330
2B7
102
}
330
2B7
100
AcDbScale
 70
     0
300
8:1
140
8.0
141
1.0
290
     0
  0
SCALE
  5
2C7
102
{ACAD_REACTORS
330
2B7
102
}
330
2B7
100
AcDbScale
 70
     0
300
10:1
140
10.0
141
1.0
290
     0
  0
SCALE
  5
2C8
102
{ACAD_REACTORS
330
2B7
102
}
330
2B7
100
AcDbScale
 70
     0
300
100:1
140
100.0
141
1.0
290
     0
  0
SCALE
  5
2C9
102
{ACAD_REACTORS
330
2B7
102
}
330
2B7
100
AcDbScale
 70
     0
300
1/128" = 1'-0"
140
0.0078125
141
12.0
290
     0
  0
SCALE
  5
2CA
102
{ACAD_REACTORS
330
2B7
102
}
330
2B7
100
AcDbScale
 70
     0
300
1/64" = 1'-0"
140
0.015625
141
12.0
290
     0
  0
SCALE
  5
2CB
102
{ACAD_REACTORS
330
2B7
102
}
330
2B7
100
AcDbScale
 70
     0
300
1/32" = 1'-0"
140
0.03125
141
12.0
290
     0
  0
SCALE
  5
2CC
102
{ACAD_REACTORS
330
2B7
102
}
330
2B7
100
AcDbScale
 70
     0
300
1/16" = 1'-0"
140
0.0625
141
12.0
290
     0
  0
SCALE
  5
2CD
102
{ACAD_REACTORS
330
2B7
102
}
330
2B7
100
AcDbScale
 70
     0
300
3/32" = 1'-0"
140
0.09375
141
12.0
290
     0
  0
SCALE
  5
2CE
102
{ACAD_REACTORS
330
2B7
102
}
330
2B7
100
AcDbScale
 70
     0
300
1/8" = 1'-0"
140
0.125
141
12.0
290
     0
  0
SCALE
  5
2CF
102
{ACAD_REACTORS
330
2B7
102
}
330
2B7
100
AcDbScale
 70
     0
300
3/16" = 1'-0"
140
0.1875
141
12.0
290
     0
  0
SCALE
  5
2D0
102
{ACAD_REACTORS
330
2B7
102
}
330
2B7
100
AcDbScale
 70
     0
300
1/4" = 1'-0"
140
0.25
141
12.0
290
     0
  0
SCALE
  5
2D1
102
{ACAD_REACTORS
330
2B7
102
}
330
2B7
100
AcDbScale
 70
     0
300
3/8" = 1'-0"
140
0.375
141
12.0
290
     0
  0
SCALE
  5
2D2
102
{ACAD_REACTORS
330
2B7
102
}
330
2B7
100
AcDbScale
 70
     0
300
1/2" = 1'-0"
140
0.5
141
12.0
290
     0
  0
SCALE
  5
2D3
102
{ACAD_REACTORS
330
2B7
102
}
330
2B7
100
AcDbScale
 70
     0
300
3/4" = 1'-0"
140
0.75
141
12.0
290
     0
  0
SCALE
  5
2D4
102
{ACAD_REACTORS
330
2B7
102
}
330
2B7
100
AcDbScale
 70
     0
300
1" = 1'-0"
140
1.0
141
12.0
290
     0
  0
SCALE
  5
2D5
102
{ACAD_REACTORS
330
2B7
102
}
330
2B7
100
AcDbScale
 70
     0
300
1-1/2" = 1'-0"
140
1.5
141
12.0
290
     0
  0
SCALE
  5
2D6
102
{ACAD_REACTORS
330
2B7
102
}
330
2B7
100
AcDbScale
 70
     0
300
3" = 1'-0"
140
3.0
141
12.0
290
     0
  0
SCALE
  5
2D7
102
{ACAD_REACTORS
330
2B7
102
}
330
2B7
100
AcDbScale
 70
     0
300
6" = 1'-0"
140
6.0
141
12.0
290
     0
  0
SCALE
  5
2D8
102
{ACAD_REACTORS
330
2B7
102
}
330
2B7
100
AcDbScale
 70
     0
300
1'-0" = 1'-0"
140
12.0
141
12.0
290
     0
  0
TABLESTYLE
  5
2B6
102
{ACAD_XDICTIONARY
360
4D6
102
}
102
{ACAD_REACTORS
330
2B5
102
}
330
2B5
100
AcDbTableStyle
  3
Standard
 70
     0
 71
     0
 40
1.5
 41
1.5
280
     0
281
     0
  7
STANDARD
140
4.5
170
     2
 62
     0
 63
     7
283
     0
274
    -2
284
     1
 64
     0
275
    -2
285
     1
 65
     0
276
    -2
286
     1
 66
     0
277
    -2
287
     1
 67
     0
278
    -2
288
     1
 68
     0
279
    -2
289
     1
 69
     0
  7
STANDARD
140
6.0
170
     5
 62
     0
 63
     7
283
     0
274
    -2
284
     1
 64
     0
275
    -2
285
     1
 65
     0
276
    -2
286
     1
 66
     0
277
    -2
287
     1
 67
     0
278
    -2
288
     1
 68
     0
279
    -2
289
     1
 69
     0
  7
STANDARD
140
4.5
170
     5
 62
     0
 63
     7
283
     0
274
    -2
284
     1
 64
     0
275
    -2
285
     1
 65
     0
276
    -2
286
     1
 66
     0
277
    -2
287
     1
 67
     0
278
    -2
288
     1
 68
     0
279
    -2
289
     1
 69
     0
  0
VISUALSTYLE
  5
2A9
102
{ACAD_REACTORS
330
2A3
102
}
330
2A3
100
AcDbVisualStyle
  2
2dWireframe
 70
     4
 71
     0
 72
     2
 73
     0
 90
        0
 40
-0.6
 41
-30.0
 62
     5
 63
     7
 74
     1
 91
        4
 64
     7
 65
   257
 75
     1
175
     1
 42
1.0
 92
        0
 66
   257
 43
1.0
 76
     1
 77
     6
 78
     2
 67
     7
 79
     5
170
     0
171
     0
290
     0
174
     0
 93
        1
 44
0.0
173
     0
291
     0
 45
0.0
1001
ACAD
1000
AcDbSavedByObjectVersion
1070
     0
1000
AcDbSavedByObjectVersion
1070
     0
1000
AcDbSavedByObjectVersion
1070
     0
  0
VISUALSTYLE
  5
2AB
102
{ACAD_REACTORS
330
2A3
102
}
330
2A3
100
AcDbVisualStyle
  2
3D Hidden
 70
     6
 71
     1
 72
     2
 73
     2
 90
        0
 40
-0.6
 41
-30.0
 62
     5
 63
     7
 74
     2
 91
        2
 64
     7
 65
   257
 75
     2
175
     1
 42
40.0
 92
        0
 66
   257
 43
1.0
 76
     1
 77
     6
 78
     2
 67
     7
 79
     3
170
     0
171
     0
290
     0
174
     0
 93
        1
 44
0.0
173
     0
291
     0
 45
0.0
1001
ACAD
1000
AcDbSavedByObjectVersion
1070
     0
1000
AcDbSavedByObjectVersion
1070
     0
1000
AcDbSavedByObjectVersion
1070
     0
  0
VISUALSTYLE
  5
2AA
102
{ACAD_REACTORS
330
2A3
102
}
330
2A3
100
AcDbVisualStyle
  2
3dWireframe
 70
     5
 71
     0
 72
     2
 73
     0
 90
        0
 40
-0.6
 41
-30.0
 62
     5
 63
     7
 74
     1
 91
        4
 64
     7
 65
   257
 75
     1
175
     1
 42
1.0
 92
        0
 66
   257
 43
1.0
 76
     1
 77
     6
 78
     2
 67
     7
 79
     5
170
     0
171
     0
290
     0
174
     0
 93
        1
 44
0.0
173
     0
291
     0
 45
0.0
1001
ACAD
1000
AcDbSavedByObjectVersion
1070
     0
1000
AcDbSavedByObjectVersion
1070
     0
1000
AcDbSavedByObjectVersion
1070
     0
  0
VISUALSTYLE
  5
2A8
102
{ACAD_REACTORS
330
2A3
102
}
330
2A3
100
AcDbVisualStyle
  2
Basic
 70
     7
 71
     1
 72
     0
 73
     1
 90
        0
 40
-0.6
 41
-30.0
 62
     5
 63
     7
 74
     0
 91
        4
 64
     7
 65
   257
 75
     1
175
     1
 42
1.0
 92
        8
 66
     7
 43
1.0
 76
     1
 77
     6
 78
     2
 67
     7
 79
     5
170
     0
171
     0
290
     0
174
     0
 93
        1
 44
0.0
173
     0
291
     1
 45
0.0
1001
ACAD
1000
AcDbSavedByObjectVersion
1070
     0
1000
AcDbSavedByObjectVersion
1070
     0
1000
AcDbSavedByObjectVersion
1070
     0
  0
VISUALSTYLE
  5
2AF
102
{ACAD_REACTORS
330
2A3
102
}
330
2A3
100
AcDbVisualStyle
  2
Brighten
 70
    12
 71
     2
 72
     2
 73
     0
 90
        0
 40
-0.6
 41
-30.0
 62
     5
 63
     7
 74
     1
 91
        4
 64
     7
 65
   257
 75
     1
175
     1
 42
1.0
 92
        8
 66
     7
 43
1.0
 76
     1
 77
     6
 78
     2
 67
     7
 79
     5
170
     0
171
     0
290
     0
174
     0
 93
        1
 44
50.0
173
     0
291
     1
 45
0.0
1001
ACAD
1000
AcDbSavedByObjectVersion
1070
     0
1000
AcDbSavedByObjectVersion
1070
     0
1000
AcDbSavedByObjectVersion
1070
     0
  0
VISUALSTYLE
  5
2B3
102
{ACAD_REACTORS
330
2A3
102
}
330
2A3
100
AcDbVisualStyle
  2
ColorChange
 70
    16
 71
     2
 72
     2
 73
     3
 90
        0
 40
-0.6
 41
-30.0
 62
     5
 63
     8
 74
     1
 91
        4
 64
     7
 65
   257
 75
     1
175
     1
 42
1.0
 92
        8
 66
     8
 43
1.0
 76
     1
 77
     6
 78
     2
 67
     7
 79
     5
170
     0
171
     0
290
     0
174
     0
 93
        1
 44
0.0
173
     0
291
     1
 45
0.0
1001
ACAD
1000
AcDbSavedByObjectVersion
1070
     0
1000
AcDbSavedByObjectVersion
1070
     0
1000
AcDbSavedByObjectVersion
1070
     0
  0
VISUALSTYLE
  5
2AC
102
{ACAD_REACTORS
330
2A3
102
}
330
2A3
100
AcDbVisualStyle
  2
Conceptual
 70
     9
 71
     3
 72
     2
 73
     0
 90
        0
 40
-0.6
 41
-30.0
 62
     5
 63
     7
 74
     2
 91
        2
 64
     7
 65
   257
 75
     1
175
     1
 42
40.0
 92
        8
 66
     7
 43
1.0
 76
     1
 77
     6
 78
     2
 67
     7
 79
     3
170
     0
171
     0
290
     0
174
     0
 93
        1
 44
0.0
173
     0
291
     0
 45
0.0
1001
ACAD
1000
AcDbSavedByObjectVersion
1070
     0
1000
AcDbSavedByObjectVersion
1070
     0
1000
AcDbSavedByObjectVersion
1070
     0
  0
VISUALSTYLE
  5
2AE
102
{ACAD_REACTORS
330
2A3
102
}
330
2A3
100
AcDbVisualStyle
  2
Dim
 70
    11
 71
     2
 72
     2
 73
     0
 90
        0
 40
-0.6
 41
-30.0
 62
     5
 63
     7
 74
     1
 91
        4
 64
     7
 65
   257
 75
     1
175
     1
 42
1.0
 92
        8
 66
     7
 43
1.0
 76
     1
 77
     6
 78
     2
 67
     7
 79
     5
170
     0
171
     0
290
     0
174
     0
 93
        1
 44
-50.0
173
     0
291
     1
 45
0.0
1001
ACAD
1000
AcDbSavedByObjectVersion
1070
     0
1000
AcDbSavedByObjectVersion
1070
     0
1000
AcDbSavedByObjectVersion
1070
     0
  0
VISUALSTYLE
  5
2B2
102
{ACAD_REACTORS
330
2A3
102
}
330
2A3
100
AcDbVisualStyle
  2
Facepattern
 70
    15
 71
     2
 72
     2
 73
     0
 90
        0
 40
-0.6
 41
-30.0
 62
     5
 63
     7
 74
     1
 91
        4
 64
     7
 65
   257
 75
     1
175
     1
 42
1.0
 92
        8
 66
     7
 43
1.0
 76
     1
 77
     6
 78
     2
 67
     7
 79
     5
170
     0
171
     0
290
     0
174
     0
 93
        1
 44
0.0
173
     0
291
     1
 45
0.0
1001
ACAD
1000
AcDbSavedByObjectVersion
1070
     0
1000
AcDbSavedByObjectVersion
1070
     0
1000
AcDbSavedByObjectVersion
1070
     0
  0
VISUALSTYLE
  5
2A4
102
{ACAD_REACTORS
330
2A3
102
}
330
2A3
100
AcDbVisualStyle
  2
Flat
 70
     0
 71
     2
 72
     1
 73
     1
 90
        2
 40
-0.6
 41
30.0
 62
     5
 63
     7
 74
     0
 91
        4
 64
     7
 65
   257
 75
     1
175
     1
 42
1.0
 92
        8
 66
     7
 43
1.0
 76
     1
 77
     6
 78
     2
 67
     7
 79
     5
170
     0
171
     0
290
     0
174
     0
 93
       13
 44
0.0
173
     0
291
     1
 45
0.0
1001
ACAD
1000
AcDbSavedByObjectVersion
1070
     0
1000
AcDbSavedByObjectVersion
1070
     0
1000
AcDbSavedByObjectVersion
1070
     0
  0
VISUALSTYLE
  5
2A5
102
{ACAD_REACTORS
330
2A3
102
}
330
2A3
100
AcDbVisualStyle
  2
FlatWithEdges
 70
     1
 71
     2
 72
     1
 73
     1
 90
        2
 40
-0.6
 41
30.0
 62
     5
 63
     7
 74
     1
 91
        4
 64
     7
 65
   257
 75
     1
175
     1
 42
1.0
 92
        0
 66
   257
 43
1.0
 76
     1
 77
     6
 78
     2
 67
     7
 79
     5
170
     0
171
     0
290
     0
174
     0
 93
       13
 44
0.0
173
     0
291
     1
 45
0.0
1001
ACAD
1000
AcDbSavedByObjectVersion
1070
     0
1000
AcDbSavedByObjectVersion
1070
     0
1000
AcDbSavedByObjectVersion
1070
     0
  0
VISUALSTYLE
  5
2A6
102
{ACAD_REACTORS
330
2A3
102
}
330
2A3
100
AcDbVisualStyle
  2
Gouraud
 70
     2
 71
     2
 72
     2
 73
     1
 90
        2
 40
-0.6
 41
30.0
 62
     5
 63
     7
 74
     0
 91
        4
 64
     7
 65
   257
 75
     1
175
     1
 42
1.0
 92
        0
 66
     7
 43
1.0
 76
     1
 77
     6
 78
     2
 67
     7
 79
     5
170
     0
171
     0
290
     0
174
     0
 93
       13
 44
0.0
173
     0
291
     1
 45
0.0
1001
ACAD
1000
AcDbSavedByObjectVersion
1070
     0
1000
AcDbSavedByObjectVersion
1070
     0
1000
AcDbSavedByObjectVersion
1070
     0
  0
VISUALSTYLE
  5
2A7
102
{ACAD_REACTORS
330
2A3
102
}
330
2A3
100
AcDbVisualStyle
  2
GouraudWithEdges
 70
     3
 71
     2
 72
     2
 73
     1
 90
        2
 40
-0.6
 41
30.0
 62
     5
 63
     7
 74
     1
 91
        4
 64
     7
 65
   257
 75
     1
175
     1
 42
1.0
 92
        0
 66
   257
 43
1.0
 76
     1
 77
     6
 78
     2
 67
     7
 79
     5
170
     0
171
     0
290
     0
174
     0
 93
       13
 44
0.0
173
     0
291
     1
 45
0.0
1001
ACAD
1000
AcDbSavedByObjectVersion
1070
     0
1000
AcDbSavedByObjectVersion
1070
     0
1000
AcDbSavedByObjectVersion
1070
     0
  0
VISUALSTYLE
  5
2B1
102
{ACAD_REACTORS
330
2A3
102
}
330
2A3
100
AcDbVisualStyle
  2
Linepattern
 70
    14
 71
     2
 72
     2
 73
     0
 90
        0
 40
-0.6
 41
-30.0
 62
     5
 63
     7
 74
     1
 91
        4
 64
     7
 65
   257
 75
     7
175
     7
 42
1.0
 92
        8
 66
     7
 43
1.0
 76
     1
 77
     6
 78
     2
 67
     7
 79
     5
170
     0
171
     0
290
     0
174
     0
 93
        1
 44
0.0
173
     0
291
     1
 45
0.0
1001
ACAD
1000
AcDbSavedByObjectVersion
1070
     0
1000
AcDbSavedByObjectVersion
1070
     0
1000
AcDbSavedByObjectVersion
1070
     0
  0
VISUALSTYLE
  5
2AD
102
{ACAD_REACTORS
330
2A3
102
}
330
2A3
100
AcDbVisualStyle
  2
Realistic
 70
     8
 71
     2
 72
     2
 73
     0
 90
        0
 40
-0.6
 41
-30.0
 62
     5
 63
     7
 74
     1
 91
        0
 64
     7
 65
   257
 75
     1
175
     1
 42
1.0
 92
        8
 66
     8
 43
1.0
 76
     1
 77
     6
 78
     2
 67
     7
 79
     5
170
     0
171
     0
290
     0
174
     0
 93
       13
 44
0.0
173
     0
291
     0
 45
0.0
1001
ACAD
1000
AcDbSavedByObjectVersion
1070
     0
1000
AcDbSavedByObjectVersion
1070
     0
1000
AcDbSavedByObjectVersion
1070
     0
  0
VISUALSTYLE
  5
2B0
102
{ACAD_REACTORS
330
2A3
102
}
330
2A3
100
AcDbVisualStyle
  2
Thicken
 70
    13
 71
     2
 72
     2
 73
     0
 90
        0
 40
-0.6
 41
-30.0
 62
     5
 63
     7
 74
     1
 91
        4
 64
     7
 65
   257
 75
     1
175
     1
 42
1.0
 92
       12
 66
     7
 43
1.0
 76
     1
 77
     6
 78
     2
 67
     7
 79
     5
170
     0
171
     0
290
     0
174
     0
 93
        1
 44
0.0
173
     0
291
     1
 45
0.0
1001
ACAD
1000
AcDbSavedByObjectVersion
1070
     0
1000
AcDbSavedByObjectVersion
1070
     0
1000
AcDbSavedByObjectVersion
1070
     0
  0
DICTIONARYVAR
  5
4BE
102
{ACAD_REACTORS
330
4BA
102
}
330
4BA
100
DictionaryVariables
280
     0
  1
1:1
  0
DICTIONARYVAR
  5
4BC
102
{ACAD_REACTORS
330
4BA
102
}
330
4BA
100
DictionaryVariables
280
     0
  1
STANDARD
  0
DICTIONARYVAR
  5
4BB
102
{ACAD_REACTORS
330
4BA
102
}
330
4BA
100
DictionaryVariables
280
     0
  1
STANDARD
  0
DICTIONARYVAR
  5
4C3
102
{ACAD_REACTORS
330
4BA
102
}
330
4BA
100
DictionaryVariables
280
     0
  1
2
  0
DICTIONARYVAR
  5
4C2
102
{ACAD_REACTORS
330
4BA
102
}
330
4BA
100
DictionaryVariables
280
     0
  1
1
  0
DICTIONARYVAR
  5
4C1
102
{ACAD_REACTORS
330
4BA
102
}
330
4BA
100
DictionaryVariables
280
     0
  1
0
  0
DICTIONARYVAR
  5
4BF
102
{ACAD_REACTORS
330
4BA
102
}
330
4BA
100
DictionaryVariables
280
     0
  1
2
  0
DICTIONARYVAR
  5
4BD
102
{ACAD_REACTORS
330
4BA
102
}
330
4BA
100
DictionaryVariables
280
     0
  1
1
  0
DICTIONARYVAR
  5
4C0
102
{ACAD_REACTORS
330
4BA
102
}
330
4BA
100
DictionaryVariables
280
     0
  1
127
  0
DICTIONARY
  5
584
330
287
100
AcDbDictionary
280
     1
281
     1
  3
ACAD_XREC_ROUNDTRIP
360
585
  0
DICTIONARY
  5
582
330
286
100
AcDbDictionary
280
     1
281
     1
  3
ACAD_XREC_ROUNDTRIP
360
583
  0
DICTIONARY
  5
294
330
293
100
AcDbDictionary
280
     1
281
     1
  3
ACAD_XREC_ROUNDTRIP
360
4E1
  3
BUMPTILE
360
296
  3
DIFFUSETILE
360
295
  3
OPACITYTILE
360
299
  3
REFLECTIONTILE
360
298
  3
REFRACTIONTILE
360
29A
  3
SPECULARTILE
360
297
  0
DICTIONARY
  5
28C
330
28B
100
AcDbDictionary
280
     1
281
     1
  3
ACAD_XREC_ROUNDTRIP
360
4E0
  3
BUMPTILE
360
28E
  3
DIFFUSETILE
360
28D
  3
OPACITYTILE
360
291
  3
REFLECTIONTILE
360
290
  3
REFRACTIONTILE
360
292
  3
SPECULARTILE
360
28F
  0
DICTIONARY
  5
29C
330
29B
100
AcDbDictionary
280
     1
281
     1
  3
ACAD_XREC_ROUNDTRIP
360
4E2
  3
BUMPTILE
360
29E
  3
DIFFUSETILE
360
29D
  3
OPACITYTILE
360
2A1
  3
REFLECTIONTILE
360
2A0
  3
REFRACTIONTILE
360
2A2
  3
SPECULARTILE
360
29F
  0
DICTIONARY
  5
4D6
330
2B6
100
AcDbDictionary
280
     1
281
     1
  3
ACAD_ROUNDTRIP_2008_TABLESTYLE_CELLSTYLEMAP
360
57E
  3
ACAD_XREC_ROUNDTRIP
360
586
  0
XRECORD
  5
585
102
{ACAD_REACTORS
330
584
102
}
330
584
100
AcDbXrecord
280
     1
102
SHADEPLOT
 70
     0
102
SHADEPLOTRESLEVEL
 70
     2
102
SHADEPLOTCUSTOMDPI
 70
   300
  0
XRECORD
  5
583
102
{ACAD_REACTORS
330
582
102
}
330
582
100
AcDbXrecord
280
     1
102
SHADEPLOT
 70
     0
102
SHADEPLOTRESLEVEL
 70
     2
102
SHADEPLOTCUSTOMDPI
 70
   300
  0
XRECORD
  5
4E1
102
{ACAD_REACTORS
330
294
102
}
330
294
100
AcDbXrecord
280
     1
102
MATERIAL
148
0.0
149
0.0
149
0.0
 93
        0
 94
      127
282
     0
 72
     0
 77
     0
171
     0
175
     0
179
     0
273
     0
  0
XRECORD
  5
296
102
{ACAD_REACTORS
330
294
102
}
330
294
100
AcDbXrecord
280
     1
270
     1
271
     1
  0
XRECORD
  5
295
102
{ACAD_REACTORS
330
294
102
}
330
294
100
AcDbXrecord
280
     1
270
     1
271
     1
  0
XRECORD
  5
299
102
{ACAD_REACTORS
330
294
102
}
330
294
100
AcDbXrecord
280
     1
270
     1
271
     1
  0
XRECORD
  5
298
102
{ACAD_REACTORS
330
294
102
}
330
294
100
AcDbXrecord
280
     1
270
     1
271
     1
  0
XRECORD
  5
29A
102
{ACAD_REACTORS
330
294
102
}
330
294
100
AcDbXrecord
280
     1
270
     1
271
     1
  0
XRECORD
  5
297
102
{ACAD_REACTORS
330
294
102
}
330
294
100
AcDbXrecord
280
     1
270
     1
271
     1
  0
XRECORD
  5
4E0
102
{ACAD_REACTORS
330
28C
102
}
330
28C
100
AcDbXrecord
280
     1
102
MATERIAL
148
0.0
149
0.0
149
0.0
 93
        0
 94
      127
282
     0
 72
     0
 77
     0
171
     0
175
     0
179
     0
273
     0
  0
XRECORD
  5
28E
102
{ACAD_REACTORS
330
28C
102
}
330
28C
100
AcDbXrecord
280
     1
270
     1
271
     1
  0
XRECORD
  5
28D
102
{ACAD_REACTORS
330
28C
102
}
330
28C
100
AcDbXrecord
280
     1
270
     1
271
     1
  0
XRECORD
  5
291
102
{ACAD_REACTORS
330
28C
102
}
330
28C
100
AcDbXrecord
280
     1
270
     1
271
     1
  0
XRECORD
  5
290
102
{ACAD_REACTORS
330
28C
102
}
330
28C
100
AcDbXrecord
280
     1
270
     1
271
     1
  0
XRECORD
  5
292
102
{ACAD_REACTORS
330
28C
102
}
330
28C
100
AcDbXrecord
280
     1
270
     1
271
     1
  0
XRECORD
  5
28F
102
{ACAD_REACTORS
330
28C
102
}
330
28C
100
AcDbXrecord
280
     1
270
     1
271
     1
  0
XRECORD
  5
4E2
102
{ACAD_REACTORS
330
29C
102
}
330
29C
100
AcDbXrecord
280
     1
102
MATERIAL
148
0.0
149
0.0
149
0.0
 93
        0
 94
      127
282
     0
 72
     0
 77
     0
171
     0
175
     0
179
     0
273
     0
  0
XRECORD
  5
29E
102
{ACAD_REACTORS
330
29C
102
}
330
29C
100
AcDbXrecord
280
     1
270
     1
271
     1
  0
XRECORD
  5
29D
102
{ACAD_REACTORS
330
29C
102
}
330
29C
100
AcDbXrecord
280
     1
270
     1
271
     1
  0
XRECORD
  5
2A1
102
{ACAD_REACTORS
330
29C
102
}
330
29C
100
AcDbXrecord
280
     1
270
     1
271
     1
  0
XRECORD
  5
2A0
102
{ACAD_REACTORS
330
29C
102
}
330
29C
100
AcDbXrecord
280
     1
270
     1
271
     1
  0
XRECORD
  5
2A2
102
{ACAD_REACTORS
330
29C
102
}
330
29C
100
AcDbXrecord
280
     1
270
     1
271
     1
  0
XRECORD
  5
29F
102
{ACAD_REACTORS
330
29C
102
}
330
29C
100
AcDbXrecord
280
     1
270
     1
271
     1
  0
CELLSTYLEMAP
  5
57E
102
{ACAD_REACTORS
330
4D6
102
}
330
4D6
100
AcDbCellStyleMap
 90
        3
300
CELLSTYLE
  1
TABLEFORMAT_BEGIN
 90
        5
170
     1
 91
        0
 92
    32768
 62
   257
 93
        1
300
CONTENTFORMAT
  1
CONTENTFORMAT_BEGIN
 90
        0
 91
        0
 92
      512
 93
        0
300

 40
0.0
140
1.0
 94
        5
 62
     0
340
11
144
6.0
309
CONTENTFORMAT_END
171
     1
301
MARGIN
  1
CELLMARGIN_BEGIN
 40
1.5
 40
1.5
 40
1.5
 40
1.5
 40
0.18
 40
0.18
309
CELLMARGIN_END
 94
        6
 95
        1
302
GRIDFORMAT
  1
GRIDFORMAT_BEGIN
 90
        0
 91
        1
 62
     0
 92
       -2
340
0
 93
        0
 40
1.125
309
GRIDFORMAT_END
 95
        2
302
GRIDFORMAT
  1
GRIDFORMAT_BEGIN
 90
        0
 91
        1
 62
     0
 92
       -2
340
0
 93
        0
 40
1.125
309
GRIDFORMAT_END
 95
        4
302
GRIDFORMAT
  1
GRIDFORMAT_BEGIN
 90
        0
 91
        1
 62
     0
 92
       -2
340
0
 93
        0
 40
1.125
309
GRIDFORMAT_END
 95
        8
302
GRIDFORMAT
  1
GRIDFORMAT_BEGIN
 90
        0
 91
        1
 62
     0
 92
       -2
340
0
 93
        0
 40
1.125
309
GRIDFORMAT_END
 95
       16
302
GRIDFORMAT
  1
GRIDFORMAT_BEGIN
 90
        0
 91
        1
 62
     0
 92
       -2
340
0
 93
        0
 40
1.125
309
GRIDFORMAT_END
 95
       32
302
GRIDFORMAT
  1
GRIDFORMAT_BEGIN
 90
        0
 91
        1
 62
     0
 92
       -2
340
0
 93
        0
 40
1.125
309
GRIDFORMAT_END
309
TABLEFORMAT_END
  1
CELLSTYLE_BEGIN
 90
        1
 91
        1
300
_TITLE
309
CELLSTYLE_END
300
CELLSTYLE
  1
TABLEFORMAT_BEGIN
 90
        5
170
     1
 91
        0
 92
        0
 62
   257
 93
        1
300
CONTENTFORMAT
  1
CONTENTFORMAT_BEGIN
 90
        0
 91
        0
 92
      512
 93
        0
300

 40
0.0
140
1.0
 94
        5
 62
     0
340
11
144
4.5
309
CONTENTFORMAT_END
171
     1
301
MARGIN
  1
CELLMARGIN_BEGIN
 40
1.5
 40
1.5
 40
1.5
 40
1.5
 40
0.18
 40
0.18
309
CELLMARGIN_END
 94
        6
 95
        1
302
GRIDFORMAT
  1
GRIDFORMAT_BEGIN
 90
        0
 91
        1
 62
     0
 92
       -2
340
0
 93
        0
 40
1.125
309
GRIDFORMAT_END
 95
        2
302
GRIDFORMAT
  1
GRIDFORMAT_BEGIN
 90
        0
 91
        1
 62
     0
 92
       -2
340
0
 93
        0
 40
1.125
309
GRIDFORMAT_END
 95
        4
302
GRIDFORMAT
  1
GRIDFORMAT_BEGIN
 90
        0
 91
        1
 62
     0
 92
       -2
340
0
 93
        0
 40
1.125
309
GRIDFORMAT_END
 95
        8
302
GRIDFORMAT
  1
GRIDFORMAT_BEGIN
 90
        0
 91
        1
 62
     0
 92
       -2
340
0
 93
        0
 40
1.125
309
GRIDFORMAT_END
 95
       16
302
GRIDFORMAT
  1
GRIDFORMAT_BEGIN
 90
        0
 91
        1
 62
     0
 92
       -2
340
0
 93
        0
 40
1.125
309
GRIDFORMAT_END
 95
       32
302
GRIDFORMAT
  1
GRIDFORMAT_BEGIN
 90
        0
 91
        1
 62
     0
 92
       -2
340
0
 93
        0
 40
1.125
309
GRIDFORMAT_END
309
TABLEFORMAT_END
  1
CELLSTYLE_BEGIN
 90
        2
 91
        1
300
_HEADER
309
CELLSTYLE_END
300
CELLSTYLE
  1
TABLEFORMAT_BEGIN
 90
        5
170
     1
 91
        0
 92
        0
 62
   257
 93
        1
300
CONTENTFORMAT
  1
CONTENTFORMAT_BEGIN
 90
        0
 91
        0
 92
      512
 93
        0
300

 40
0.0
140
1.0
 94
        2
 62
     0
340
11
144
4.5
309
CONTENTFORMAT_END
171
     1
301
MARGIN
  1
CELLMARGIN_BEGIN
 40
1.5
 40
1.5
 40
1.5
 40
1.5
 40
0.18
 40
0.18
309
CELLMARGIN_END
 94
        6
 95
        1
302
GRIDFORMAT
  1
GRIDFORMAT_BEGIN
 90
        0
 91
        1
 62
     0
 92
       -2
340
0
 93
        0
 40
1.125
309
GRIDFORMAT_END
 95
        2
302
GRIDFORMAT
  1
GRIDFORMAT_BEGIN
 90
        0
 91
        1
 62
     0
 92
       -2
340
0
 93
        0
 40
1.125
309
GRIDFORMAT_END
 95
        4
302
GRIDFORMAT
  1
GRIDFORMAT_BEGIN
 90
        0
 91
        1
 62
     0
 92
       -2
340
0
 93
        0
 40
1.125
309
GRIDFORMAT_END
 95
        8
302
GRIDFORMAT
  1
GRIDFORMAT_BEGIN
 90
        0
 91
        1
 62
     0
 92
       -2
340
0
 93
        0
 40
1.125
309
GRIDFORMAT_END
 95
       16
302
GRIDFORMAT
  1
GRIDFORMAT_BEGIN
 90
        0
 91
        1
 62
     0
 92
       -2
340
0
 93
        0
 40
1.125
309
GRIDFORMAT_END
 95
       32
302
GRIDFORMAT
  1
GRIDFORMAT_BEGIN
 90
        0
 91
        1
 62
     0
 92
       -2
340
0
 93
        0
 40
1.125
309
GRIDFORMAT_END
309
TABLEFORMAT_END
  1
CELLSTYLE_BEGIN
 90
        3
 91
        2
300
_DATA
309
CELLSTYLE_END
  0
XRECORD
  5
586
102
{ACAD_REACTORS
330
4D6
102
}
330
4D6
100
AcDbXrecord
280
     1
102
ACAD_ROUNDTRIP_PRE2007_TABLESTYLE
 90
      512
 91
        0
  1

 92
      512
 93
        0
  2

 94
      512
 95
        0
  3

  0
ENDSEC
  0
EOF
