  0
SECTION
  2
HEADER
  9
$ACADVER
  1
AC1015
  9
$ACADMAINTVER
 70
    20
  9
$DWGCODEPAGE
  3
ANSI_936
  9
$INSBASE
 10
0.0
 20
0.0
 30
0.0
  9
$EXTMIN
 10
193.7847635561
 20
164.5576227056555
 30
0.0
  9
$EXTMAX
 10
447.0647643812002
 20
484.3567413919489
 30
0.0
  9
$LIMMIN
 10
0.0
 20
0.0
  9
$LIMMAX
 10
558.8
 20
431.8
  9
$ORTHOMODE
 70
     1
  9
$REGENMODE
 70
     1
  9
$FILLMODE
 70
     1
  9
$QTEXTMODE
 70
     0
  9
$MIRRTEXT
 70
     0
  9
$LTSCALE
 40
30.734
  9
$ATTMODE
 70
     1
  9
$TEXTSIZE
 40
0.2
  9
$TRACEWID
 40
0.05
  9
$TEXTSTYLE
  7
STANDARD
  9
$CLAYER
  8
0
  9
$CELTYPE
  6
BYLAYER
  9
$CECOLOR
 62
   256
  9
$CELTSCALE
 40
1.0
  9
$DISPSILH
 70
     0
  9
$DIMSCALE
 40
1.0
  9
$DIMASZ
 40
3.5
  9
$DIMEXO
 40
3.4925
  9
$DIMDLI
 40
21.2344
  9
$DIMRND
 40
0.0
  9
$DIMDLE
 40
0.0
  9
$DIMEXE
 40
10.0584
  9
$DIMTP
 40
0.01
  9
$DIMTM
 40
0.01
  9
$DIMTXT
 40
3.5
  9
$DIMCEN
 40
5.0292
  9
$DIMTSZ
 40
0.0
  9
$DIMTOL
 70
     1
  9
$DIMLIM
 70
     0
  9
$DIMTIH
 70
     1
  9
$DIMTOH
 70
     1
  9
$DIMSE1
 70
     0
  9
$DIMSE2
 70
     0
  9
$DIMTAD
 70
     0
  9
$DIMZIN
 70
     0
  9
$DIMBLK
  1

  9
$DIMASO
 70
     1
  9
$DIMSHO
 70
     1
  9
$DIMPOST
  1

  9
$DIMAPOST
  1

  9
$DIMALT
 70
     0
  9
$DIMALTD
 70
     2
  9
$DIMALTF
 40
25.4
  9
$DIMLFAC
 40
1.0
  9
$DIMTOFL
 70
     0
  9
$DIMTVP
 40
0.0
  9
$DIMTIX
 70
     0
  9
$DIMSOXD
 70
     0
  9
$DIMSAH
 70
     0
  9
$DIMBLK1
  1

  9
$DIMBLK2
  1

  9
$DIMSTYLE
  2
STANDARD
  9
$DIMCLRD
 70
     0
  9
$DIMCLRE
 70
     0
  9
$DIMCLRT
 70
     0
  9
$DIMTFAC
 40
1.0
  9
$DIMGAP
 40
0.09
  9
$DIMJUST
 70
     0
  9
$DIMSD1
 70
     0
  9
$DIMSD2
 70
     0
  9
$DIMTOLJ
 70
     1
  9
$DIMTZIN
 70
     0
  9
$DIMALTZ
 70
     0
  9
$DIMALTTZ
 70
     0
  9
$DIMUPT
 70
     0
  9
$DIMDEC
 70
     4
  9
$DIMTDEC
 70
     4
  9
$DIMALTU
 70
     2
  9
$DIMALTTD
 70
     2
  9
$DIMTXSTY
  7
STANDARD
  9
$DIMAUNIT
 70
     0
  9
$DIMADEC
 70
     0
  9
$DIMALTRND
 40
0.0
  9
$DIMAZIN
 70
     0
  9
$DIMDSEP
 70
    46
  9
$DIMATFIT
 70
     3
  9
$DIMFRAC
 70
     0
  9
$DIMLDRBLK
  1

  9
$DIMLUNIT
 70
     2
  9
$DIMLWD
 70
    -2
  9
$DIMLWE
 70
    -2
  9
$DIMTMOVE
 70
     0
  9
$LUNITS
 70
     2
  9
$LUPREC
 70
     4
  9
$SKETCHINC
 40
0.1
  9
$FILLETRAD
 40
0.0
  9
$AUNITS
 70
     0
  9
$AUPREC
 70
     0
  9
$MENU
  1
.
  9
$ELEVATION
 40
0.0
  9
$PELEVATION
 40
0.0
  9
$THICKNESS
 40
0.0
  9
$LIMCHECK
 70
     0
  9
$CHAMFERA
 40
0.0
  9
$CHAMFERB
 40
0.0
  9
$CHAMFERC
 40
0.0
  9
$CHAMFERD
 40
0.0
  9
$SKPOLY
 70
     0
  9
$TDCREATE
 40
2458708.481323415
  9
$TDUCREATE
 40
2458708.147990081
  9
$TDUPDATE
 40
2458724.389615035
  9
$TDUUPDATE
 40
2458724.056281701
  9
$TDINDWG
 40
0.0190495833
  9
$TDUSRTIMER
 40
0.0190494676
  9
$USRTIMER
 70
     1
  9
$ANGBASE
 50
0.0
  9
$ANGDIR
 70
     0
  9
$PDMODE
 70
     3
  9
$PDSIZE
 40
8.0
  9
$PLINEWID
 40
0.0
  9
$SPLFRAME
 70
     0
  9
$SPLINETYPE
 70
     6
  9
$SPLINESEGS
 70
     8
  9
$HANDSEED
  5
596
  9
$SURFTAB1
 70
     6
  9
$SURFTAB2
 70
     6
  9
$SURFTYPE
 70
     6
  9
$SURFU
 70
     6
  9
$SURFV
 70
     6
  9
$UCSBASE
  2

  9
$UCSNAME
  2

  9
$UCSORG
 10
0.0
 20
0.0
 30
0.0
  9
$UCSXDIR
 10
1.0
 20
0.0
 30
0.0
  9
$UCSYDIR
 10
0.0
 20
1.0
 30
0.0
  9
$UCSORTHOREF
  2

  9
$UCSORTHOVIEW
 70
     0
  9
$UCSORGTOP
 10
0.0
 20
0.0
 30
0.0
  9
$UCSORGBOTTOM
 10
0.0
 20
0.0
 30
0.0
  9
$UCSORGLEFT
 10
0.0
 20
0.0
 30
0.0
  9
$UCSORGRIGHT
 10
0.0
 20
0.0
 30
0.0
  9
$UCSORGFRONT
 10
0.0
 20
0.0
 30
0.0
  9
$UCSORGBACK
 10
0.0
 20
0.0
 30
0.0
  9
$PUCSBASE
  2

  9
$PUCSNAME
  2

  9
$PUCSORG
 10
0.0
 20
0.0
 30
0.0
  9
$PUCSXDIR
 10
1.0
 20
0.0
 30
0.0
  9
$PUCSYDIR
 10
0.0
 20
1.0
 30
0.0
  9
$PUCSORTHOREF
  2

  9
$PUCSORTHOVIEW
 70
     0
  9
$PUCSORGTOP
 10
0.0
 20
0.0
 30
0.0
  9
$PUCSORGBOTTOM
 10
0.0
 20
0.0
 30
0.0
  9
$PUCSORGLEFT
 10
0.0
 20
0.0
 30
0.0
  9
$PUCSORGRIGHT
 10
0.0
 20
0.0
 30
0.0
  9
$PUCSORGFRONT
 10
0.0
 20
0.0
 30
0.0
  9
$PUCSORGBACK
 10
0.0
 20
0.0
 30
0.0
  9
$USERI1
 70
     0
  9
$USERI2
 70
     0
  9
$USERI3
 70
     0
  9
$USERI4
 70
     0
  9
$USERI5
 70
     0
  9
$USERR1
 40
0.0
  9
$USERR2
 40
0.0
  9
$USERR3
 40
0.0
  9
$USERR4
 40
0.0
  9
$USERR5
 40
0.0
  9
$WORLDVIEW
 70
     1
  9
$SHADEDGE
 70
     3
  9
$SHADEDIF
 70
    70
  9
$TILEMODE
 70
     1
  9
$MAXACTVP
 70
    64
  9
$PINSBASE
 10
0.0
 20
0.0
 30
0.0
  9
$PLIMCHECK
 70
     0
  9
$PEXTMIN
 10
1.000000000000000E+20
 20
1.000000000000000E+20
 30
1.000000000000000E+20
  9
$PEXTMAX
 10
-1.000000000000000E+20
 20
-1.000000000000000E+20
 30
-1.000000000000000E+20
  9
$PLIMMIN
 10
0.0
 20
0.0
  9
$PLIMMAX
 10
12.0
 20
9.0
  9
$UNITMODE
 70
     0
  9
$VISRETAIN
 70
     1
  9
$PLINEGEN
 70
     0
  9
$PSLTSCALE
 70
     1
  9
$TREEDEPTH
 70
  3020
  9
$CMLSTYLE
  2
Standard
  9
$CMLJUST
 70
     0
  9
$CMLSCALE
 40
1.0
  9
$PROXYGRAPHICS
 70
     1
  9
$MEASUREMENT
 70
     1
  9
$CELWEIGHT
370
    -1
  9
$ENDCAPS
280
     0
  9
$JOINSTYLE
280
     0
  9
$LWDISPLAY
290
     0
  9
$INSUNITS
 70
     4
  9
$HYPERLINKBASE
  1

  9
$STYLESHEET
  1

  9
$XEDIT
290
     1
  9
$CEPSNTYPE
380
     0
  9
$PSTYLEMODE
290
     1
  9
$FINGERPRINTGUID
  2
{B0B21EBA-9C96-4D14-AD59-505F4DEF258E}
  9
$VERSIONGUID
  2
{ABAF9DCD-B4FE-483E-AE7F-80023EA799C7}
  9
$EXTNAMES
290
     1
  9
$PSVPSCALE
 40
0.0
  9
$OLESTARTUP
290
     0
  0
ENDSEC
  0
SECTION
  2
CLASSES
  0
CLASS
  1
ACDBDICTIONARYWDFLT
  2
AcDbDictionaryWithDefault
  3
ObjectDBX Classes
 90
        0
280
     0
281
     0
  0
CLASS
  1
ACDBPLACEHOLDER
  2
AcDbPlaceHolder
  3
ObjectDBX Classes
 90
        0
280
     0
281
     0
  0
CLASS
  1
LAYOUT
  2
AcDbLayout
  3
ObjectDBX Classes
 90
        0
280
     0
281
     0
  0
CLASS
  1
MATERIAL
  2
AcDbMaterial
  3
ObjectDBX Classes
 90
     1153
280
     0
281
     0
  0
CLASS
  1
VISUALSTYLE
  2
AcDbVisualStyle
  3
ObjectDBX Classes
 90
     4095
280
     0
281
     0
  0
CLASS
  1
TABLESTYLE
  2
AcDbTableStyle
  3
ObjectDBX Classes
 90
     4095
280
     0
281
     0
  0
CLASS
  1
SCALE
  2
AcDbScale
  3
ObjectDBX Classes
 90
     1153
280
     0
281
     0
  0
CLASS
  1
MLEADERSTYLE
  2
AcDbMLeaderStyle
  3
ACDB_MLEADERSTYLE_CLASS
 90
     4095
280
     0
281
     0
  0
CLASS
  1
DICTIONARYVAR
  2
AcDbDictionaryVar
  3
ObjectDBX Classes
 90
        0
280
     0
281
     0
  0
CLASS
  1
CELLSTYLEMAP
  2
AcDbCellStyleMap
  3
ObjectDBX Classes
 90
     1152
280
     0
281
     0
  0
CLASS
  1
DIMASSOC
  2
AcDbDimAssoc
  3
"AcDbDimAssoc|Product Desc:     AcDim ARX App For Dimension|Company:          Autodesk, Inc.|WEB Address:      www.autodesk.com"
 90
        0
280
     0
281
     0
  0
ENDSEC
  0
SECTION
  2
TABLES
  0
TABLE
  2
VPORT
  5
8
330
0
100
AcDbSymbolTable
 70
     1
  0
VPORT
  5
1F4
330
8
100
AcDbSymbolTableRecord
100
AcDbViewportTableRecord
  2
*ACTIVE
 70
     0
 10
0.0
 20
0.0
 11
1.0
 21
1.0
 12
356.3952033929513
 22
430.6904364891765
 13
0.0
 23
0.0
 14
1.0
 24
1.0
 15
0.0
 25
0.0
 16
0.0
 26
0.0
 36
1.0
 17
0.0
 27
0.0
 37
0.0
 40
591.8588000145127
 41
1.717917675544794
 42
50.0
 43
0.0
 44
0.0
 50
0.0
 51
0.0
 71
     0
 72
   100
 73
     1
 74
     1
 75
     0
 76
     0
 77
     0
 78
     0
281
     0
 65
     1
110
0.0
120
0.0
130
0.0
111
1.0
121
0.0
131
0.0
112
0.0
122
1.0
132
0.0
 79
     0
146
0.0
  0
ENDTAB
  0
TABLE
  2
LTYPE
  5
5
330
0
100
AcDbSymbolTable
 70
     7
  0
LTYPE
  5
14
330
5
100
AcDbSymbolTableRecord
100
AcDbLinetypeTableRecord
  2
BYBLOCK
 70
     0
  3

 72
    65
 73
     0
 40
0.0
  0
LTYPE
  5
15
330
5
100
AcDbSymbolTableRecord
100
AcDbLinetypeTableRecord
  2
BYLAYER
 70
     0
  3

 72
    65
 73
     0
 40
0.0
  0
LTYPE
  5
16
330
5
100
AcDbSymbolTableRecord
100
AcDbLinetypeTableRecord
  2
CONTINUOUS
 70
     0
  3
Solid line
 72
    65
 73
     0
 40
0.0
  0
LTYPE
  5
1F5
330
5
100
AcDbSymbolTableRecord
100
AcDbLinetypeTableRecord
  2
CENTER
 70
     0
  3
____ _ ____ _ ____ _ ____ _ ____ _ ____ _ ____
 72
    65
 73
     4
 40
0.6
 49
0.375
 74
     0
 49
-0.075
 74
     0
 49
0.075
 74
     0
 49
-0.075
 74
     0
  0
LTYPE
  5
1F6
330
5
100
AcDbSymbolTableRecord
100
AcDbLinetypeTableRecord
  2
HIDDEN
 70
     0
  3
- - - - - - - - - - - - - - - - - - - -
 72
    65
 73
     2
 40
0.2
 49
0.1
 74
     0
 49
-0.1
 74
     0
  0
LTYPE
  5
1F7
330
5
100
AcDbSymbolTableRecord
100
AcDbLinetypeTableRecord
  2
PHANTOM
 70
     0
  3
_____ _ _ _____ _ _ _____ _ _ _____
 72
    65
 73
     6
 40
0.8
 49
0.45
 74
     0
 49
-0.05
 74
     0
 49
0.1
 74
     0
 49
-0.05
 74
     0
 49
0.1
 74
     0
 49
-0.05
 74
     0
  0
LTYPE
  5
1F8
330
5
100
AcDbSymbolTableRecord
100
AcDbLinetypeTableRecord
  2
DOT
 70
     0
  3
. . . . . . . . . . . . . . . . . . . .
 72
    65
 73
     2
 40
0.2
 49
0.1
 74
     0
 49
-0.1
 74
     0
  0
LTYPE
  5
1F9
330
5
100
AcDbSymbolTableRecord
100
AcDbLinetypeTableRecord
  2
DASHED
 70
     0
  3
- - - - - - - - - - - - - - - - - - - -
 72
    65
 73
     2
 40
0.2
 49
0.1
 74
     0
 49
-0.1
 74
     0
  0
ENDTAB
  0
TABLE
  2
LAYER
  5
2
330
0
100
AcDbSymbolTable
 70
    10
  0
LAYER
  5
10
102
{ACAD_XDICTIONARY
360
320
102
}
330
2
100
AcDbSymbolTableRecord
100
AcDbLayerTableRecord
  2
0
 70
     0
 62
     7
  6
CONTINUOUS
370
    -3
390
F
  0
LAYER
  5
1FA
102
{ACAD_XDICTIONARY
360
322
102
}
330
2
100
AcDbSymbolTableRecord
100
AcDbLayerTableRecord
  2
DEFAULT_1
 70
     0
 62
     7
  6
CENTER
370
    -3
390
F
  0
LAYER
  5
1FB
102
{ACAD_XDICTIONARY
360
324
102
}
330
2
100
AcDbSymbolTableRecord
100
AcDbLayerTableRecord
  2
DEFAULT_2
 70
     0
 62
     8
  6
HIDDEN
370
    -3
390
F
  0
LAYER
  5
1FC
102
{ACAD_XDICTIONARY
360
326
102
}
330
2
100
AcDbSymbolTableRecord
100
AcDbLayerTableRecord
  2
DEFAULT_3
 70
     0
 62
     7
  6
PHANTOM
370
    -3
390
F
  0
LAYER
  5
1FD
102
{ACAD_XDICTIONARY
360
328
102
}
330
2
100
AcDbSymbolTableRecord
100
AcDbLayerTableRecord
  2
820_ASM
 70
     0
 62
     7
  6
CONTINUOUS
370
    -3
390
F
  0
LAYER
  5
1FE
102
{ACAD_XDICTIONARY
360
32A
102
}
330
2
100
AcDbSymbolTableRecord
100
AcDbLayerTableRecord
  2
820_ASM_ASM
 70
     0
 62
     7
  6
CONTINUOUS
370
    -3
390
F
  0
LAYER
  5
1FF
102
{ACAD_XDICTIONARY
360
32C
102
}
330
2
100
AcDbSymbolTableRecord
100
AcDbLayerTableRecord
  2
820_ASM_ASM_ASM
 70
     0
 62
     7
  6
CONTINUOUS
370
    -3
390
F
  0
LAYER
  5
200
102
{ACAD_XDICTIONARY
360
32E
102
}
330
2
100
AcDbSymbolTableRecord
100
AcDbLayerTableRecord
  2
MSBR-52
 70
     0
 62
     7
  6
CONTINUOUS
370
    -3
390
F
  0
LAYER
  5
201
102
{ACAD_XDICTIONARY
360
330
102
}
330
2
100
AcDbSymbolTableRecord
100
AcDbLayerTableRecord
  2
___SHELL
 70
     0
 62
     7
  6
CONTINUOUS
370
    -3
390
F
  0
LAYER
  5
4C0
330
2
100
AcDbSymbolTableRecord
100
AcDbLayerTableRecord
  2
Defpoints
 70
     0
 62
     7
  6
CONTINUOUS
290
     0
370
    -3
390
F
  0
ENDTAB
  0
TABLE
  2
STYLE
  5
3
330
0
100
AcDbSymbolTable
 70
     2
  0
STYLE
  5
11
330
3
100
AcDbSymbolTableRecord
100
AcDbTextStyleTableRecord
  2
STANDARD
 70
     0
 40
0.0
 41
0.85
 50
0.0
 71
     0
 42
0.2
  3
txt
  4

  0
STYLE
  5
202
330
3
100
AcDbSymbolTableRecord
100
AcDbTextStyleTableRecord
  2
TEXTSTYLE_1
 70
     0
 40
0.0
 41
0.8
 50
0.0
 71
     0
 42
0.2
  3
gdt
  4

  0
ENDTAB
  0
TABLE
  2
VIEW
  5
6
330
0
100
AcDbSymbolTable
 70
     0
  0
ENDTAB
  0
TABLE
  2
UCS
  5
7
330
0
100
AcDbSymbolTable
 70
     0
  0
ENDTAB
  0
TABLE
  2
APPID
  5
9
330
0
100
AcDbSymbolTable
 70
     3
  0
APPID
  5
203
330
9
100
AcDbSymbolTableRecord
100
AcDbRegAppTableRecord
  2
ACAD
 70
     0
  0
APPID
  5
317
330
9
100
AcDbSymbolTableRecord
100
AcDbRegAppTableRecord
  2
ACAD_MLEADERVER
 70
     0
  0
APPID
  5
35F
330
9
100
AcDbSymbolTableRecord
100
AcDbRegAppTableRecord
  2
ACAD_EXEMPT_FROM_CAD_STANDARDS
 70
     0
  0
ENDTAB
  0
TABLE
  2
DIMSTYLE
  5
A
330
0
100
AcDbSymbolTable
 70
     2
100
AcDbDimStyleTable
 71
     1
340
206
  0
DIMSTYLE
105
206
330
A
100
AcDbSymbolTableRecord
100
AcDbDimStyleTableRecord
  2
STANDARD
 70
     0
 41
3.5
 47
0.01
 48
0.01
 71
     1
 73
     0
 74
     0
 77
     1
 78
     8
140
3.5
271
     2
272
     2
284
     8
340
11
  0
ENDTAB
  0
TABLE
  2
BLOCK_RECORD
  5
1
330
0
100
AcDbSymbolTable
 70
     9
  0
BLOCK_RECORD
  5
204
330
1
100
AcDbSymbolTableRecord
100
AcDbBlockTableRecord
  2
*Model_Space
340
2C2
  0
BLOCK_RECORD
  5
205
330
1
100
AcDbSymbolTableRecord
100
AcDbBlockTableRecord
  2
*Paper_Space
340
2C3
  0
BLOCK_RECORD
  5
4C1
330
1
100
AcDbSymbolTableRecord
100
AcDbBlockTableRecord
  2
*D2
340
0
  0
BLOCK_RECORD
  5
4DB
330
1
100
AcDbSymbolTableRecord
100
AcDbBlockTableRecord
  2
*D3
340
0
  0
BLOCK_RECORD
  5
4F6
330
1
100
AcDbSymbolTableRecord
100
AcDbBlockTableRecord
  2
*D4
340
0
  0
BLOCK_RECORD
  5
510
330
1
100
AcDbSymbolTableRecord
100
AcDbBlockTableRecord
  2
*D5
340
0
  0
BLOCK_RECORD
  5
52A
330
1
100
AcDbSymbolTableRecord
100
AcDbBlockTableRecord
  2
*D6
340
0
  0
BLOCK_RECORD
  5
538
330
1
100
AcDbSymbolTableRecord
100
AcDbBlockTableRecord
  2
*D7
340
0
  0
BLOCK_RECORD
  5
546
330
1
100
AcDbSymbolTableRecord
100
AcDbBlockTableRecord
  2
*D8
340
0
  0
ENDTAB
  0
ENDSEC
  0
SECTION
  2
BLOCKS
  0
BLOCK
  5
20
330
204
100
AcDbEntity
  8
0
100
AcDbBlockBegin
  2
*Model_Space
 70
     0
 10
0.0
 20
0.0
 30
0.0
  3
*Model_Space
  1

  0
ENDBLK
  5
21
330
204
100
AcDbEntity
  8
0
100
AcDbBlockEnd
  0
BLOCK
  5
1C
330
205
100
AcDbEntity
 67
     1
  8
0
100
AcDbBlockBegin
  2
*Paper_Space
 70
     0
 10
0.0
 20
0.0
 30
0.0
  3
*Paper_Space
  1

  0
ENDBLK
  5
1D
330
205
100
AcDbEntity
 67
     1
  8
0
100
AcDbBlockEnd
  0
BLOCK
  5
4C2
330
4C1
100
AcDbEntity
  8
0
100
AcDbBlockBegin
  2
*D2
 70
     1
 10
0.0
 20
0.0
 30
0.0
  3
*D2
  1

  0
LINE
  5
4CF
330
4C1
100
AcDbEntity
  8
0
 62
     0
370
    -2
100
AcDbLine
 10
343.7847643809003
 20
391.9395805091489
 30
0.0
 11
343.7847643809003
 21
369.1026423072532
 31
0.0
  0
LINE
  5
4D0
330
4C1
100
AcDbEntity
  8
0
 62
     0
370
    -2
100
AcDbLine
 10
384.4247543812003
 20
401.9395805091489
 30
0.0
 11
384.4247543812003
 21
369.1026423072532
 31
0.0
  0
LINE
  5
4D1
330
4C1
100
AcDbEntity
  8
0
 62
     0
370
    -2
100
AcDbLine
 10
347.2847643809002
 20
379.1610423072532
 30
0.0
 11
347.9001760477169
 21
379.1610423072532
 31
0.0
  0
LINE
  5
4D2
330
4C1
100
AcDbEntity
  8
0
 62
     0
370
    -2
100
AcDbLine
 10
380.9247543812002
 20
379.1610423072532
 30
0.0
 11
380.3093427143836
 21
379.1610423072532
 31
0.0
  0
SOLID
  5
4D3
330
4C1
100
AcDbEntity
  8
0
 62
     0
100
AcDbTrace
 10
347.2847643809002
 20
379.7443756405865
 30
0.0
 11
347.2847643809002
 21
378.5777089739199
 31
0.0
 12
343.7847643809003
 22
379.1610423072532
 32
0.0
 13
343.7847643809003
 23
379.1610423072532
 33
0.0
  0
SOLID
  5
4D4
330
4C1
100
AcDbEntity
  8
0
 62
     0
100
AcDbTrace
 10
380.9247543812002
 20
379.7443756405865
 30
0.0
 11
380.9247543812002
 21
378.5777089739199
 31
0.0
 12
384.4247543812003
 22
379.1610423072532
 32
0.0
 13
384.4247543812003
 23
379.1610423072532
 33
0.0
  0
MTEXT
  5
4D5
102
{ACAD_XDICTIONARY
360
588
102
}
330
4C1
100
AcDbEntity
  8
0
 62
     0
100
AcDbMText
 10
364.1047593810502
 20
379.1610423072532
 30
0.0
 40
3.5
 41
0.0
 71
     5
 72
     1
  1
\A1;40.6400\U+00B10.0100
 73
     1
 44
1.0
1001
ACAD
1000
MTEXTBEGIN
1070
    73
1070
     1
1070
    44
1040
1.0
1070
    74
1070
     0
1000
MTEXTEND
  0
POINT
  5
4D6
330
4C1
100
AcDbEntity
  8
Defpoints
 62
     0
100
AcDbPoint
 10
343.7847643809003
 20
395.4320805091489
 30
0.0
  0
POINT
  5
4D7
330
4C1
100
AcDbEntity
  8
Defpoints
 62
     0
100
AcDbPoint
 10
384.4247543812003
 20
405.4320805091489
 30
0.0
  0
POINT
  5
4D8
330
4C1
100
AcDbEntity
  8
Defpoints
 62
     0
100
AcDbPoint
 10
384.4247543812003
 20
379.1610423072532
 30
0.0
  0
ENDBLK
  5
4C3
330
4C1
100
AcDbEntity
  8
0
100
AcDbBlockEnd
  0
BLOCK
  5
4DC
330
4DB
100
AcDbEntity
  8
0
100
AcDbBlockBegin
  2
*D3
 70
     1
 10
0.0
 20
0.0
 30
0.0
  3
*D3
  1

  0
LINE
  5
4E9
330
4DB
100
AcDbEntity
  8
0
 62
     0
370
    -2
100
AcDbLine
 10
338.7397635558
 20
210.1289062674
 30
0.0
 11
338.7397635558
 21
179.8928399616883
 31
0.0
  0
LINE
  5
4EA
330
4DB
100
AcDbEntity
  8
0
 62
     0
370
    -2
100
AcDbLine
 10
384.4247535561
 20
220.1289062674
 30
0.0
 11
384.4247535561
 21
179.8928399616883
 31
0.0
  0
LINE
  5
4EB
330
4DB
100
AcDbEntity
  8
0
 62
     0
370
    -2
100
AcDbLine
 10
342.2397635558001
 20
189.9512399616883
 30
0.0
 11
344.8818418892833
 21
189.9512399616883
 31
0.0
  0
LINE
  5
4EC
330
4DB
100
AcDbEntity
  8
0
 62
     0
370
    -2
100
AcDbLine
 10
380.9247535561
 20
189.9512399616883
 30
0.0
 11
378.2826752226167
 21
189.9512399616883
 31
0.0
  0
SOLID
  5
4ED
330
4DB
100
AcDbEntity
  8
0
 62
     0
100
AcDbTrace
 10
342.2397635558001
 20
190.5345732950216
 30
0.0
 11
342.2397635558001
 21
189.367906628355
 31
0.0
 12
338.7397635558
 22
189.9512399616883
 32
0.0
 13
338.7397635558
 23
189.9512399616883
 33
0.0
  0
SOLID
  5
4EE
330
4DB
100
AcDbEntity
  8
0
 62
     0
100
AcDbTrace
 10
380.9247535561
 20
190.5345732950216
 30
0.0
 11
380.9247535561
 21
189.367906628355
 31
0.0
 12
384.4247535561
 22
189.9512399616883
 32
0.0
 13
384.4247535561
 23
189.9512399616883
 33
0.0
  0
MTEXT
  5
4EF
102
{ACAD_XDICTIONARY
360
58A
102
}
330
4DB
100
AcDbEntity
  8
0
 62
     0
100
AcDbMText
 10
361.58225855595
 20
189.9512399616883
 30
0.0
 40
3.5
 41
0.0
 71
     5
 72
     1
  1
\A1;45.6850\U+00B10.0100
 73
     1
 44
1.0
1001
ACAD
1000
MTEXTBEGIN
1070
    73
1070
     1
1070
    44
1040
1.0
1070
    74
1070
     0
1000
MTEXTEND
  0
POINT
  5
4F0
330
4DB
100
AcDbEntity
  8
Defpoints
 62
     0
100
AcDbPoint
 10
338.7397635558
 20
213.6214062674
 30
0.0
  0
POINT
  5
4F1
330
4DB
100
AcDbEntity
  8
Defpoints
 62
     0
100
AcDbPoint
 10
384.4247535561
 20
223.6214062674
 30
0.0
  0
POINT
  5
4F2
330
4DB
100
AcDbEntity
  8
Defpoints
 62
     0
100
AcDbPoint
 10
384.4247535561
 20
189.9512399616883
 30
0.0
  0
ENDBLK
  5
4DD
330
4DB
100
AcDbEntity
  8
0
100
AcDbBlockEnd
  0
BLOCK
  5
4F7
330
4F6
100
AcDbEntity
  8
0
100
AcDbBlockBegin
  2
*D4
 70
     1
 10
0.0
 20
0.0
 30
0.0
  3
*D4
  1

  0
LINE
  5
504
330
4F6
100
AcDbEntity
  8
0
 62
     0
370
    -2
100
AcDbLine
 10
216.6847643812003
 20
377.4395805091489
 30
0.0
 11
216.6847643812003
 21
357.3336508480458
 31
0.0
  0
LINE
  5
505
330
4F6
100
AcDbEntity
  8
0
 62
     0
370
    -2
100
AcDbLine
 10
262.5047643812003
 20
399.449616011449
 30
0.0
 11
262.5047643812003
 21
357.3336508480458
 31
0.0
  0
LINE
  5
506
330
4F6
100
AcDbEntity
  8
0
 62
     0
370
    -2
100
AcDbLine
 10
220.1847643812003
 20
367.3920508480458
 30
0.0
 11
223.1422643812003
 21
367.3920508480458
 31
0.0
  0
LINE
  5
507
330
4F6
100
AcDbEntity
  8
0
 62
     0
370
    -2
100
AcDbLine
 10
259.0047643812003
 20
367.3920508480458
 30
0.0
 11
256.0472643812003
 21
367.3920508480458
 31
0.0
  0
SOLID
  5
508
330
4F6
100
AcDbEntity
  8
0
 62
     0
100
AcDbTrace
 10
220.1847643812003
 20
367.9753841813791
 30
0.0
 11
220.1847643812003
 21
366.8087175147125
 31
0.0
 12
216.6847643812003
 22
367.3920508480458
 32
0.0
 13
216.6847643812003
 23
367.3920508480458
 33
0.0
  0
SOLID
  5
509
330
4F6
100
AcDbEntity
  8
0
 62
     0
100
AcDbTrace
 10
259.0047643812003
 20
367.9753841813791
 30
0.0
 11
259.0047643812003
 21
366.8087175147125
 31
0.0
 12
262.5047643812003
 22
367.3920508480458
 32
0.0
 13
262.5047643812003
 23
367.3920508480458
 33
0.0
  0
MTEXT
  5
50A
102
{ACAD_XDICTIONARY
360
58C
102
}
330
4F6
100
AcDbEntity
  8
0
 62
     0
100
AcDbMText
 10
239.5947643812003
 20
367.3920508480458
 30
0.0
 40
3.5
 41
0.0
 71
     5
 72
     1
  1
\A1;45.8200\U+00B10.0100
 73
     1
 44
1.0
1001
ACAD
1000
MTEXTBEGIN
1070
    73
1070
     1
1070
    44
1040
1.0
1070
    74
1070
     0
1000
MTEXTEND
  0
POINT
  5
50B
330
4F6
100
AcDbEntity
  8
Defpoints
 62
     0
100
AcDbPoint
 10
216.6847643812003
 20
380.9320805091489
 30
0.0
  0
POINT
  5
50C
330
4F6
100
AcDbEntity
  8
Defpoints
 62
     0
100
AcDbPoint
 10
262.5047643812003
 20
402.9421160114489
 30
0.0
  0
POINT
  5
50D
330
4F6
100
AcDbEntity
  8
Defpoints
 62
     0
100
AcDbPoint
 10
262.5047643812003
 20
367.3920508480458
 30
0.0
  0
ENDBLK
  5
4F8
330
4F6
100
AcDbEntity
  8
0
100
AcDbBlockEnd
  0
BLOCK
  5
511
330
510
100
AcDbEntity
  8
0
100
AcDbBlockBegin
  2
*D5
 70
     1
 10
0.0
 20
0.0
 30
0.0
  3
*D5
  1

  0
LINE
  5
51E
330
510
100
AcDbEntity
  8
0
 62
     0
370
    -2
100
AcDbLine
 10
211.5147635561
 20
195.6289062674
 30
0.0
 11
211.5147635561
 21
180.4926550402548
 31
0.0
  0
LINE
  5
51F
330
510
100
AcDbEntity
  8
0
 62
     0
370
    -2
100
AcDbLine
 10
257.3347635561
 20
217.6389417697
 30
0.0
 11
257.3347635561
 21
180.4926550402548
 31
0.0
  0
LINE
  5
520
330
510
100
AcDbEntity
  8
0
 62
     0
370
    -2
100
AcDbLine
 10
215.0147635561
 20
190.5510550402548
 30
0.0
 11
217.9722635561
 21
190.5510550402548
 31
0.0
  0
LINE
  5
521
330
510
100
AcDbEntity
  8
0
 62
     0
370
    -2
100
AcDbLine
 10
253.8347635561
 20
190.5510550402548
 30
0.0
 11
250.8772635561
 21
190.5510550402548
 31
0.0
  0
SOLID
  5
522
330
510
100
AcDbEntity
  8
0
 62
     0
100
AcDbTrace
 10
215.0147635561
 20
191.1343883735881
 30
0.0
 11
215.0147635561
 21
189.9677217069215
 31
0.0
 12
211.5147635561
 22
190.5510550402548
 32
0.0
 13
211.5147635561
 23
190.5510550402548
 33
0.0
  0
SOLID
  5
523
330
510
100
AcDbEntity
  8
0
 62
     0
100
AcDbTrace
 10
253.8347635561
 20
191.1343883735881
 30
0.0
 11
253.8347635561
 21
189.9677217069215
 31
0.0
 12
257.3347635561
 22
190.5510550402548
 32
0.0
 13
257.3347635561
 23
190.5510550402548
 33
0.0
  0
MTEXT
  5
524
102
{ACAD_XDICTIONARY
360
58E
102
}
330
510
100
AcDbEntity
  8
0
 62
     0
100
AcDbMText
 10
234.4247635561
 20
190.5510550402548
 30
0.0
 40
3.5
 41
0.0
 71
     5
 72
     1
  1
\A1;45.8200\U+00B10.0100
 73
     1
 44
1.0
1001
ACAD
1000
MTEXTBEGIN
1070
    73
1070
     1
1070
    44
1040
1.0
1070
    74
1070
     0
1000
MTEXTEND
  0
POINT
  5
525
330
510
100
AcDbEntity
  8
Defpoints
 62
     0
100
AcDbPoint
 10
211.5147635561
 20
199.1214062674
 30
0.0
  0
POINT
  5
526
330
510
100
AcDbEntity
  8
Defpoints
 62
     0
100
AcDbPoint
 10
257.3347635561
 20
221.1314417697
 30
0.0
  0
POINT
  5
527
330
510
100
AcDbEntity
  8
Defpoints
 62
     0
100
AcDbPoint
 10
257.3347635561
 20
190.5510550402548
 30
0.0
  0
ENDBLK
  5
512
330
510
100
AcDbEntity
  8
0
100
AcDbBlockEnd
  0
BLOCK
  5
52B
330
52A
100
AcDbEntity
  8
0
100
AcDbBlockBegin
  2
*D6
 70
     1
 10
0.0
 20
0.0
 30
0.0
  3
*D6
  1

  0
LINE
  5
52D
330
52A
100
AcDbEntity
  8
0
 62
     0
370
    -2
100
AcDbLine
 10
257.3347635561
 20
217.6389417697
 30
0.0
 11
257.3347635561
 21
200.9804088383436
 31
0.0
  0
LINE
  5
52E
330
52A
100
AcDbEntity
  8
0
 62
     0
370
    -2
100
AcDbLine
 10
338.7397635558
 20
210.1289062674
 30
0.0
 11
338.7397635558
 21
200.9804088383436
 31
0.0
  0
LINE
  5
52F
330
52A
100
AcDbEntity
  8
0
 62
     0
370
    -2
100
AcDbLine
 10
260.8347635561
 20
211.0388088383436
 30
0.0
 11
282.0805968892834
 21
211.0388088383436
 31
0.0
  0
LINE
  5
530
330
52A
100
AcDbEntity
  8
0
 62
     0
370
    -2
100
AcDbLine
 10
335.2397635558
 20
211.0388088383436
 30
0.0
 11
313.9939302226167
 21
211.0388088383436
 31
0.0
  0
SOLID
  5
531
330
52A
100
AcDbEntity
  8
0
 62
     0
100
AcDbTrace
 10
260.8347635561
 20
211.6221421716769
 30
0.0
 11
260.8347635561
 21
210.4554755050102
 31
0.0
 12
257.3347635561
 22
211.0388088383436
 32
0.0
 13
257.3347635561
 23
211.0388088383436
 33
0.0
  0
SOLID
  5
532
330
52A
100
AcDbEntity
  8
0
 62
     0
100
AcDbTrace
 10
335.2397635558
 20
211.6221421716769
 30
0.0
 11
335.2397635558
 21
210.4554755050102
 31
0.0
 12
338.7397635558
 22
211.0388088383436
 32
0.0
 13
338.7397635558
 23
211.0388088383436
 33
0.0
  0
MTEXT
  5
533
102
{ACAD_XDICTIONARY
360
590
102
}
330
52A
100
AcDbEntity
  8
0
 62
     0
100
AcDbMText
 10
298.0372635559501
 20
211.0388088383436
 30
0.0
 40
3.5
 41
0.0
 71
     5
 72
     1
  1
\A1;81.4050\U+00B10.0100
 73
     1
 44
1.0
1001
ACAD
1000
MTEXTBEGIN
1070
    73
1070
     1
1070
    44
1040
1.0
1070
    74
1070
     0
1000
MTEXTEND
  0
POINT
  5
534
330
52A
100
AcDbEntity
  8
Defpoints
 62
     0
100
AcDbPoint
 10
257.3347635561
 20
221.1314417697
 30
0.0
  0
POINT
  5
535
330
52A
100
AcDbEntity
  8
Defpoints
 62
     0
100
AcDbPoint
 10
338.7397635558
 20
213.6214062674
 30
0.0
  0
POINT
  5
536
330
52A
100
AcDbEntity
  8
Defpoints
 62
     0
100
AcDbPoint
 10
338.7397635558
 20
211.0388088383436
 30
0.0
  0
ENDBLK
  5
52C
330
52A
100
AcDbEntity
  8
0
100
AcDbBlockEnd
  0
BLOCK
  5
539
330
538
100
AcDbEntity
  8
0
100
AcDbBlockBegin
  2
*D7
 70
     1
 10
0.0
 20
0.0
 30
0.0
  3
*D7
  1

  0
LINE
  5
53B
330
538
100
AcDbEntity
  8
0
 62
     0
370
    -2
100
AcDbLine
 10
262.5047643812003
 20
399.449616011449
 30
0.0
 11
262.5047643812003
 21
363.0512920805101
 31
0.0
  0
LINE
  5
53C
330
538
100
AcDbEntity
  8
0
 62
     0
370
    -2
100
AcDbLine
 10
343.7847643809003
 20
391.9395805091489
 30
0.0
 11
343.7847643809003
 21
363.0512920805101
 31
0.0
  0
LINE
  5
53D
330
538
100
AcDbEntity
  8
0
 62
     0
370
    -2
100
AcDbLine
 10
266.0047643812003
 20
373.1096920805101
 30
0.0
 11
287.1880977143836
 21
373.1096920805101
 31
0.0
  0
LINE
  5
53E
330
538
100
AcDbEntity
  8
0
 62
     0
370
    -2
100
AcDbLine
 10
340.2847643809002
 20
373.1096920805101
 30
0.0
 11
319.1014310477169
 21
373.1096920805101
 31
0.0
  0
SOLID
  5
53F
330
538
100
AcDbEntity
  8
0
 62
     0
100
AcDbTrace
 10
266.0047643812003
 20
373.6930254138434
 30
0.0
 11
266.0047643812003
 21
372.5263587471768
 31
0.0
 12
262.5047643812003
 22
373.1096920805101
 32
0.0
 13
262.5047643812003
 23
373.1096920805101
 33
0.0
  0
SOLID
  5
540
330
538
100
AcDbEntity
  8
0
 62
     0
100
AcDbTrace
 10
340.2847643809002
 20
373.6930254138434
 30
0.0
 11
340.2847643809002
 21
372.5263587471768
 31
0.0
 12
343.7847643809003
 22
373.1096920805101
 32
0.0
 13
343.7847643809003
 23
373.1096920805101
 33
0.0
  0
MTEXT
  5
541
102
{ACAD_XDICTIONARY
360
592
102
}
330
538
100
AcDbEntity
  8
0
 62
     0
100
AcDbMText
 10
303.1447643810503
 20
373.1096920805101
 30
0.0
 40
3.5
 41
0.0
 71
     5
 72
     1
  1
\A1;81.2800\U+00B10.0100
 73
     1
 44
1.0
1001
ACAD
1000
MTEXTBEGIN
1070
    73
1070
     1
1070
    44
1040
1.0
1070
    74
1070
     0
1000
MTEXTEND
  0
POINT
  5
542
330
538
100
AcDbEntity
  8
Defpoints
 62
     0
100
AcDbPoint
 10
262.5047643812003
 20
402.9421160114489
 30
0.0
  0
POINT
  5
543
330
538
100
AcDbEntity
  8
Defpoints
 62
     0
100
AcDbPoint
 10
343.7847643809003
 20
395.4320805091489
 30
0.0
  0
POINT
  5
544
330
538
100
AcDbEntity
  8
Defpoints
 62
     0
100
AcDbPoint
 10
343.7847643809003
 20
373.1096920805101
 30
0.0
  0
ENDBLK
  5
53A
330
538
100
AcDbEntity
  8
0
100
AcDbBlockEnd
  0
BLOCK
  5
547
330
546
100
AcDbEntity
  8
0
100
AcDbBlockBegin
  2
*D8
 70
     1
 10
0.0
 20
0.0
 30
0.0
  3
*D8
  1

  0
LINE
  5
554
330
546
100
AcDbEntity
  8
0
 62
     0
370
    -2
100
AcDbLine
 10
384.4247543812003
 20
401.9395805091489
 30
0.0
 11
384.4247543812003
 21
372.5236766733914
 31
0.0
  0
LINE
  5
555
330
546
100
AcDbEntity
  8
0
 62
     0
370
    -2
100
AcDbLine
 10
425.0647643812002
 20
406.9395805091489
 30
0.0
 11
425.0647643812002
 21
372.5236766733914
 31
0.0
  0
LINE
  5
556
330
546
100
AcDbEntity
  8
0
 62
     0
370
    -2
100
AcDbLine
 10
387.9247543812003
 20
382.5820766733914
 30
0.0
 11
388.5401760478669
 21
382.5820766733914
 31
0.0
  0
LINE
  5
557
330
546
100
AcDbEntity
  8
0
 62
     0
370
    -2
100
AcDbLine
 10
421.5647643812002
 20
382.5820766733914
 30
0.0
 11
420.9493427145336
 21
382.5820766733914
 31
0.0
  0
SOLID
  5
558
330
546
100
AcDbEntity
  8
0
 62
     0
100
AcDbTrace
 10
387.9247543812003
 20
383.1654100067247
 30
0.0
 11
387.9247543812003
 21
381.998743340058
 31
0.0
 12
384.4247543812003
 22
382.5820766733914
 32
0.0
 13
384.4247543812003
 23
382.5820766733914
 33
0.0
  0
SOLID
  5
559
330
546
100
AcDbEntity
  8
0
 62
     0
100
AcDbTrace
 10
421.5647643812002
 20
383.1654100067247
 30
0.0
 11
421.5647643812002
 21
381.998743340058
 31
0.0
 12
425.0647643812002
 22
382.5820766733914
 32
0.0
 13
425.0647643812002
 23
382.5820766733914
 33
0.0
  0
MTEXT
  5
55A
102
{ACAD_XDICTIONARY
360
594
102
}
330
546
100
AcDbEntity
  8
0
 62
     0
100
AcDbMText
 10
404.7447593812002
 20
382.5820766733914
 30
0.0
 40
3.5
 41
0.0
 71
     5
 72
     1
  1
\A1;40.6400\U+00B10.0100
 73
     1
 44
1.0
1001
ACAD
1000
MTEXTBEGIN
1070
    73
1070
     1
1070
    44
1040
1.0
1070
    74
1070
     0
1000
MTEXTEND
  0
POINT
  5
55B
330
546
100
AcDbEntity
  8
Defpoints
 62
     0
100
AcDbPoint
 10
384.4247543812003
 20
405.4320805091489
 30
0.0
  0
POINT
  5
55C
330
546
100
AcDbEntity
  8
Defpoints
 62
     0
100
AcDbPoint
 10
425.0647643812002
 20
410.4320805091488
 30
0.0
  0
POINT
  5
55D
330
546
100
AcDbEntity
  8
Defpoints
 62
     0
100
AcDbPoint
 10
425.0647643812002
 20
382.5820766733914
 30
0.0
  0
ENDBLK
  5
548
330
546
100
AcDbEntity
  8
0
100
AcDbBlockEnd
  0
ENDSEC
  0
SECTION
  2
ENTITIES
  0
LINE
  5
415
330
204
100
AcDbEntity
  8
0
  6
Continuous
 62
     7
100
AcDbLine
 10
193.7847643812002
 20
355.656741391949
 30
0.0
 11
193.7847643812002
 21
484.3567413919489
 31
0.0
  0
LINE
  5
416
330
204
100
AcDbEntity
  8
0
  6
Continuous
 62
     7
100
AcDbLine
 10
193.7847643812002
 20
355.656741391949
 30
0.0
 11
447.0647643812002
 21
355.656741391949
 31
0.0
  0
LINE
  5
417
330
204
100
AcDbEntity
  8
0
  6
Continuous
 62
     7
100
AcDbLine
 10
193.7847643812002
 20
484.3567413919489
 30
0.0
 11
447.0647643812002
 21
484.3567413919489
 31
0.0
  0
LINE
  5
418
330
204
100
AcDbEntity
  8
0
  6
Continuous
 62
     7
100
AcDbLine
 10
447.0647643812002
 20
484.3567413919489
 30
0.0
 11
447.0647643812002
 21
355.656741391949
 31
0.0
  0
CIRCLE
  5
419
330
204
100
AcDbEntity
  8
0
  6
Continuous
 62
     7
100
AcDbCircle
 10
216.6847643812003
 20
380.9320805091489
 30
0.0
 40
1.399999999999999
  0
CIRCLE
  5
41A
330
204
100
AcDbEntity
  8
0
  6
Continuous
 62
     7
100
AcDbCircle
 10
251.8447643812002
 20
358.7567413919489
 30
0.0
 40
0.7628561733
  0
CIRCLE
  5
41B
330
204
100
AcDbEntity
  8
0
  6
Continuous
 62
     7
100
AcDbCircle
 10
216.9847643812003
 20
386.576706391949
 30
0.0
 40
0.55
  0
CIRCLE
  5
41C
330
204
100
AcDbEntity
  8
0
  6
Continuous
 62
     7
100
AcDbCircle
 10
214.4447643812003
 20
386.576706391949
 30
0.0
 40
0.55
  0
CIRCLE
  5
41D
330
204
100
AcDbEntity
  8
0
  6
Continuous
 62
     7
100
AcDbCircle
 10
216.6847643812003
 20
415.0167063919489
 30
0.0
 40
1.399999999999999
  0
CIRCLE
  5
41E
330
204
100
AcDbEntity
  8
0
  6
Continuous
 62
     7
100
AcDbCircle
 10
214.4447643812003
 20
389.116706391949
 30
0.0
 40
0.55
  0
CIRCLE
  5
41F
330
204
100
AcDbEntity
  8
0
  6
Continuous
 62
     7
100
AcDbCircle
 10
216.9847643812003
 20
389.116706391949
 30
0.0
 40
0.55
  0
CIRCLE
  5
420
330
204
100
AcDbEntity
  8
0
  6
Continuous
 62
     7
100
AcDbCircle
 10
216.9847643812003
 20
391.656706391949
 30
0.0
 40
0.55
  0
CIRCLE
  5
421
330
204
100
AcDbEntity
  8
0
  6
Continuous
 62
     7
100
AcDbCircle
 10
214.4447643812003
 20
391.656706391949
 30
0.0
 40
0.55
  0
CIRCLE
  5
422
330
204
100
AcDbEntity
  8
0
  6
Continuous
 62
     7
100
AcDbCircle
 10
214.4447643812003
 20
394.196706391949
 30
0.0
 40
0.55
  0
CIRCLE
  5
423
330
204
100
AcDbEntity
  8
0
  6
Continuous
 62
     7
100
AcDbCircle
 10
216.9847643812003
 20
394.196706391949
 30
0.0
 40
0.55
  0
CIRCLE
  5
424
330
204
100
AcDbEntity
  8
0
  6
Continuous
 62
     7
100
AcDbCircle
 10
214.4447643812003
 20
396.7367063919489
 30
0.0
 40
0.55
  0
CIRCLE
  5
425
330
204
100
AcDbEntity
  8
0
  6
Continuous
 62
     7
100
AcDbCircle
 10
216.9847643812003
 20
396.7367063919489
 30
0.0
 40
0.55
  0
CIRCLE
  5
426
330
204
100
AcDbEntity
  8
0
  6
Continuous
 62
     7
100
AcDbCircle
 10
214.4447643812003
 20
399.276706391949
 30
0.0
 40
0.55
  0
CIRCLE
  5
427
330
204
100
AcDbEntity
  8
0
  6
Continuous
 62
     7
100
AcDbCircle
 10
216.9847643812003
 20
399.276706391949
 30
0.0
 40
0.55
  0
CIRCLE
  5
428
330
204
100
AcDbEntity
  8
0
  6
Continuous
 62
     7
100
AcDbCircle
 10
214.4447643812003
 20
401.816706391949
 30
0.0
 40
0.55
  0
CIRCLE
  5
429
330
204
100
AcDbEntity
  8
0
  6
Continuous
 62
     7
100
AcDbCircle
 10
216.9847643812003
 20
401.816706391949
 30
0.0
 40
0.55
  0
CIRCLE
  5
42A
330
204
100
AcDbEntity
  8
0
  6
Continuous
 62
     7
100
AcDbCircle
 10
216.9847643812003
 20
404.3567063919489
 30
0.0
 40
0.55
  0
CIRCLE
  5
42B
330
204
100
AcDbEntity
  8
0
  6
Continuous
 62
     7
100
AcDbCircle
 10
214.4447643812003
 20
404.3567063919489
 30
0.0
 40
0.55
  0
CIRCLE
  5
42C
330
204
100
AcDbEntity
  8
0
  6
Continuous
 62
     7
100
AcDbCircle
 10
214.4447643812003
 20
406.8967063919489
 30
0.0
 40
0.55
  0
CIRCLE
  5
42D
330
204
100
AcDbEntity
  8
0
  6
Continuous
 62
     7
100
AcDbCircle
 10
216.9847643812003
 20
406.8967063919489
 30
0.0
 40
0.55
  0
CIRCLE
  5
42E
330
204
100
AcDbEntity
  8
0
  6
Continuous
 62
     7
100
AcDbCircle
 10
214.4447643812003
 20
409.436706391949
 30
0.0
 40
0.55
  0
CIRCLE
  5
42F
330
204
100
AcDbEntity
  8
0
  6
Continuous
 62
     7
100
AcDbCircle
 10
216.9847643812003
 20
409.436706391949
 30
0.0
 40
0.55
  0
CIRCLE
  5
430
330
204
100
AcDbEntity
  8
0
  6
Continuous
 62
     7
100
AcDbCircle
 10
297.5647643812002
 20
358.7567413919489
 30
0.0
 40
0.7628561733
  0
CIRCLE
  5
431
330
204
100
AcDbEntity
  8
0
  6
Continuous
 62
     7
100
AcDbCircle
 10
262.5047643812003
 20
402.9421160114489
 30
0.0
 40
1.399999999999999
  0
CIRCLE
  5
432
330
204
100
AcDbEntity
  8
0
  6
Continuous
 62
     7
100
AcDbCircle
 10
262.8047643812002
 20
408.5867418942489
 30
0.0
 40
0.55
  0
CIRCLE
  5
433
330
204
100
AcDbEntity
  8
0
  6
Continuous
 62
     7
100
AcDbCircle
 10
260.2647643812003
 20
408.5867418942489
 30
0.0
 40
0.55
  0
CIRCLE
  5
434
330
204
100
AcDbEntity
  8
0
  6
Continuous
 62
     7
100
AcDbCircle
 10
260.2647643812003
 20
411.126741894249
 30
0.0
 40
0.55
  0
CIRCLE
  5
435
330
204
100
AcDbEntity
  8
0
  6
Continuous
 62
     7
100
AcDbCircle
 10
262.8047643812002
 20
411.126741894249
 30
0.0
 40
0.55
  0
CIRCLE
  5
436
330
204
100
AcDbEntity
  8
0
  6
Continuous
 62
     7
100
AcDbCircle
 10
262.8047643812002
 20
413.6667418942489
 30
0.0
 40
0.55
  0
CIRCLE
  5
437
330
204
100
AcDbEntity
  8
0
  6
Continuous
 62
     7
100
AcDbCircle
 10
260.2647643812003
 20
413.6667418942489
 30
0.0
 40
0.55
  0
CIRCLE
  5
438
330
204
100
AcDbEntity
  8
0
  6
Continuous
 62
     7
100
AcDbCircle
 10
260.2647643812003
 20
416.2067418942489
 30
0.0
 40
0.55
  0
CIRCLE
  5
439
330
204
100
AcDbEntity
  8
0
  6
Continuous
 62
     7
100
AcDbCircle
 10
262.8047643812002
 20
416.2067418942489
 30
0.0
 40
0.55
  0
CIRCLE
  5
43A
330
204
100
AcDbEntity
  8
0
  6
Continuous
 62
     7
100
AcDbCircle
 10
260.2647643812003
 20
418.746741894249
 30
0.0
 40
0.55
  0
CIRCLE
  5
43B
330
204
100
AcDbEntity
  8
0
  6
Continuous
 62
     7
100
AcDbCircle
 10
262.8047643812002
 20
418.746741894249
 30
0.0
 40
0.55
  0
CIRCLE
  5
449
330
204
100
AcDbEntity
  8
0
  6
Continuous
 62
     7
100
AcDbCircle
 10
216.6847643812003
 20
424.9967063918488
 30
0.0
 40
1.399999999999999
  0
CIRCLE
  5
44A
330
204
100
AcDbEntity
  8
0
  6
Continuous
 62
     7
100
AcDbCircle
 10
216.9847643812003
 20
430.641332274649
 30
0.0
 40
0.55
  0
CIRCLE
  5
44B
330
204
100
AcDbEntity
  8
0
  6
Continuous
 62
     7
100
AcDbCircle
 10
214.4447643812003
 20
430.641332274649
 30
0.0
 40
0.55
  0
CIRCLE
  5
44C
330
204
100
AcDbEntity
  8
0
  6
Continuous
 62
     7
100
AcDbCircle
 10
214.4447643812003
 20
433.1813322746489
 30
0.0
 40
0.55
  0
CIRCLE
  5
44D
330
204
100
AcDbEntity
  8
0
  6
Continuous
 62
     7
100
AcDbCircle
 10
216.9847643812003
 20
433.1813322746489
 30
0.0
 40
0.55
  0
CIRCLE
  5
44E
330
204
100
AcDbEntity
  8
0
  6
Continuous
 62
     7
100
AcDbCircle
 10
216.9847643812003
 20
435.7213322746489
 30
0.0
 40
0.55
  0
CIRCLE
  5
44F
330
204
100
AcDbEntity
  8
0
  6
Continuous
 62
     7
100
AcDbCircle
 10
214.4447643812003
 20
435.7213322746489
 30
0.0
 40
0.55
  0
CIRCLE
  5
450
330
204
100
AcDbEntity
  8
0
  6
Continuous
 62
     7
100
AcDbCircle
 10
214.4447643812003
 20
438.2613322746489
 30
0.0
 40
0.55
  0
CIRCLE
  5
451
330
204
100
AcDbEntity
  8
0
  6
Continuous
 62
     7
100
AcDbCircle
 10
216.9847643812003
 20
438.2613322746489
 30
0.0
 40
0.55
  0
CIRCLE
  5
452
330
204
100
AcDbEntity
  8
0
  6
Continuous
 62
     7
100
AcDbCircle
 10
214.4447643812003
 20
440.8013322746489
 30
0.0
 40
0.55
  0
CIRCLE
  5
453
330
204
100
AcDbEntity
  8
0
  6
Continuous
 62
     7
100
AcDbCircle
 10
216.9847643812003
 20
440.8013322746489
 30
0.0
 40
0.55
  0
CIRCLE
  5
454
330
204
100
AcDbEntity
  8
0
  6
Continuous
 62
     7
100
AcDbCircle
 10
214.4447643812003
 20
443.3413322746489
 30
0.0
 40
0.55
  0
CIRCLE
  5
455
330
204
100
AcDbEntity
  8
0
  6
Continuous
 62
     7
100
AcDbCircle
 10
216.9847643812003
 20
443.3413322746489
 30
0.0
 40
0.55
  0
CIRCLE
  5
456
330
204
100
AcDbEntity
  8
0
  6
Continuous
 62
     7
100
AcDbCircle
 10
214.4447643812003
 20
445.8813322746489
 30
0.0
 40
0.55
  0
CIRCLE
  5
457
330
204
100
AcDbEntity
  8
0
  6
Continuous
 62
     7
100
AcDbCircle
 10
216.9847643812003
 20
445.8813322746489
 30
0.0
 40
0.55
  0
CIRCLE
  5
458
330
204
100
AcDbEntity
  8
0
  6
Continuous
 62
     7
100
AcDbCircle
 10
216.9847643812003
 20
448.4213322746489
 30
0.0
 40
0.55
  0
CIRCLE
  5
459
330
204
100
AcDbEntity
  8
0
  6
Continuous
 62
     7
100
AcDbCircle
 10
214.4447643812003
 20
448.4213322746489
 30
0.0
 40
0.55
  0
CIRCLE
  5
45A
330
204
100
AcDbEntity
  8
0
  6
Continuous
 62
     7
100
AcDbCircle
 10
214.4447643812003
 20
450.9613322746489
 30
0.0
 40
0.55
  0
CIRCLE
  5
45B
330
204
100
AcDbEntity
  8
0
  6
Continuous
 62
     7
100
AcDbCircle
 10
216.9847643812003
 20
450.9613322746489
 30
0.0
 40
0.55
  0
CIRCLE
  5
45C
330
204
100
AcDbEntity
  8
0
  6
Continuous
 62
     7
100
AcDbCircle
 10
216.6847643812003
 20
459.0813322746489
 30
0.0
 40
1.399999999999999
  0
CIRCLE
  5
45D
330
204
100
AcDbEntity
  8
0
  6
Continuous
 62
     7
100
AcDbCircle
 10
251.8447643812002
 20
481.256741391949
 30
0.0
 40
0.7628561733
  0
CIRCLE
  5
45E
330
204
100
AcDbEntity
  8
0
  6
Continuous
 62
     7
100
AcDbCircle
 10
214.4447643812003
 20
453.5013322746489
 30
0.0
 40
0.55
  0
CIRCLE
  5
45F
330
204
100
AcDbEntity
  8
0
  6
Continuous
 62
     7
100
AcDbCircle
 10
216.9847643812003
 20
453.5013322746489
 30
0.0
 40
0.55
  0
CIRCLE
  5
460
330
204
100
AcDbEntity
  8
0
  6
Continuous
 62
     7
100
AcDbCircle
 10
260.2647643812003
 20
421.2867418942489
 30
0.0
 40
0.55
  0
CIRCLE
  5
461
330
204
100
AcDbEntity
  8
0
  6
Continuous
 62
     7
100
AcDbCircle
 10
262.8047643812002
 20
421.2867418942489
 30
0.0
 40
0.55
  0
CIRCLE
  5
462
330
204
100
AcDbEntity
  8
0
  6
Continuous
 62
     7
100
AcDbCircle
 10
260.2647643812003
 20
423.826741894249
 30
0.0
 40
0.55
  0
CIRCLE
  5
463
330
204
100
AcDbEntity
  8
0
  6
Continuous
 62
     7
100
AcDbCircle
 10
262.8047643812002
 20
423.826741894249
 30
0.0
 40
0.55
  0
CIRCLE
  5
464
330
204
100
AcDbEntity
  8
0
  6
Continuous
 62
     7
100
AcDbCircle
 10
262.8047643812002
 20
426.3667418942489
 30
0.0
 40
0.55
  0
CIRCLE
  5
465
330
204
100
AcDbEntity
  8
0
  6
Continuous
 62
     7
100
AcDbCircle
 10
260.2647643812003
 20
426.3667418942489
 30
0.0
 40
0.55
  0
CIRCLE
  5
466
330
204
100
AcDbEntity
  8
0
  6
Continuous
 62
     7
100
AcDbCircle
 10
260.2647643812003
 20
428.9067418942489
 30
0.0
 40
0.55
  0
CIRCLE
  5
467
330
204
100
AcDbEntity
  8
0
  6
Continuous
 62
     7
100
AcDbCircle
 10
262.8047643812002
 20
428.9067418942489
 30
0.0
 40
0.55
  0
CIRCLE
  5
468
330
204
100
AcDbEntity
  8
0
  6
Continuous
 62
     7
100
AcDbCircle
 10
262.5047643812003
 20
437.0267418942489
 30
0.0
 40
1.399999999999999
  0
CIRCLE
  5
469
330
204
100
AcDbEntity
  8
0
  6
Continuous
 62
     7
100
AcDbCircle
 10
260.2647643812003
 20
431.446741894249
 30
0.0
 40
0.55
  0
CIRCLE
  5
46A
330
204
100
AcDbEntity
  8
0
  6
Continuous
 62
     7
100
AcDbCircle
 10
262.8047643812002
 20
431.446741894249
 30
0.0
 40
0.55
  0
CIRCLE
  5
474
330
204
100
AcDbEntity
  8
0
  6
Continuous
 62
     7
100
AcDbCircle
 10
297.5647643812002
 20
481.256741391949
 30
0.0
 40
0.7628561733
  0
CIRCLE
  5
475
330
204
100
AcDbEntity
  8
0
  6
Continuous
 62
     7
100
AcDbCircle
 10
343.2847643812003
 20
358.7567413919489
 30
0.0
 40
0.7628561733
  0
CIRCLE
  5
476
330
204
100
AcDbEntity
  8
0
  6
Continuous
 62
     7
100
AcDbCircle
 10
322.4247193812002
 20
405.6067193919489
 30
0.0
 40
1.8
  0
CIRCLE
  5
477
330
204
100
AcDbEntity
  8
0
  6
Continuous
 62
     7
100
AcDbCircle
 10
343.7847643809003
 20
395.4320805091489
 30
0.0
 40
1.399999999999999
  0
CIRCLE
  5
478
330
204
100
AcDbEntity
  8
0
  6
Continuous
 62
     7
100
AcDbCircle
 10
344.0847643809003
 20
401.0767063919489
 30
0.0
 40
0.55
  0
CIRCLE
  5
479
330
204
100
AcDbEntity
  8
0
  6
Continuous
 62
     7
100
AcDbCircle
 10
341.5447643809002
 20
401.0767063919489
 30
0.0
 40
0.55
  0
CIRCLE
  5
47A
330
204
100
AcDbEntity
  8
0
  6
Continuous
 62
     7
100
AcDbCircle
 10
341.5447643809002
 20
403.6167063919489
 30
0.0
 40
0.55
  0
CIRCLE
  5
47B
330
204
100
AcDbEntity
  8
0
  6
Continuous
 62
     7
100
AcDbCircle
 10
344.0847643809003
 20
403.6167063919489
 30
0.0
 40
0.55
  0
CIRCLE
  5
47C
330
204
100
AcDbEntity
  8
0
  6
Continuous
 62
     7
100
AcDbCircle
 10
344.0847643809003
 20
406.156706391949
 30
0.0
 40
0.55
  0
CIRCLE
  5
47D
330
204
100
AcDbEntity
  8
0
  6
Continuous
 62
     7
100
AcDbCircle
 10
341.5447643809002
 20
406.156706391949
 30
0.0
 40
0.55
  0
CIRCLE
  5
47E
330
204
100
AcDbEntity
  8
0
  6
Continuous
 62
     7
100
AcDbCircle
 10
341.5447643809002
 20
408.6967063919489
 30
0.0
 40
0.55
  0
CIRCLE
  5
47F
330
204
100
AcDbEntity
  8
0
  6
Continuous
 62
     7
100
AcDbCircle
 10
344.0847643809003
 20
408.6967063919489
 30
0.0
 40
0.55
  0
CIRCLE
  5
480
330
204
100
AcDbEntity
  8
0
  6
Continuous
 62
     7
100
AcDbCircle
 10
341.5447643809002
 20
411.2367063919489
 30
0.0
 40
0.55
  0
CIRCLE
  5
481
330
204
100
AcDbEntity
  8
0
  6
Continuous
 62
     7
100
AcDbCircle
 10
344.0847643809003
 20
411.2367063919489
 30
0.0
 40
0.55
  0
CIRCLE
  5
482
330
204
100
AcDbEntity
  8
0
  6
Continuous
 62
     7
100
AcDbCircle
 10
341.5447643809002
 20
413.776706391949
 30
0.0
 40
0.55
  0
CIRCLE
  5
483
330
204
100
AcDbEntity
  8
0
  6
Continuous
 62
     7
100
AcDbCircle
 10
344.0847643809003
 20
413.776706391949
 30
0.0
 40
0.55
  0
CIRCLE
  5
484
330
204
100
AcDbEntity
  8
0
  6
Continuous
 62
     7
100
AcDbCircle
 10
341.5447643809002
 20
416.3167063919489
 30
0.0
 40
0.55
  0
CIRCLE
  5
485
330
204
100
AcDbEntity
  8
0
  6
Continuous
 62
     7
100
AcDbCircle
 10
344.0847643809003
 20
416.3167063919489
 30
0.0
 40
0.55
  0
CIRCLE
  5
486
330
204
100
AcDbEntity
  8
0
  6
Continuous
 62
     7
100
AcDbCircle
 10
344.0847643809003
 20
418.856706391949
 30
0.0
 40
0.55
  0
CIRCLE
  5
487
330
204
100
AcDbEntity
  8
0
  6
Continuous
 62
     7
100
AcDbCircle
 10
341.5447643809002
 20
418.856706391949
 30
0.0
 40
0.55
  0
CIRCLE
  5
488
330
204
100
AcDbEntity
  8
0
  6
Continuous
 62
     7
100
AcDbCircle
 10
389.0047643812002
 20
358.7567413919489
 30
0.0
 40
0.7628561733
  0
CIRCLE
  5
489
330
204
100
AcDbEntity
  8
0
  6
Continuous
 62
     7
100
AcDbCircle
 10
404.2246573812002
 20
405.6067193919489
 30
0.0
 40
1.8
  0
CIRCLE
  5
48A
330
204
100
AcDbEntity
  8
0
  6
Continuous
 62
     7
100
AcDbCircle
 10
425.0647643812002
 20
410.4320805091488
 30
0.0
 40
1.399999999999999
  0
CIRCLE
  5
48B
330
204
100
AcDbEntity
  8
0
  6
Continuous
 62
     7
100
AcDbCircle
 10
384.4247543812003
 20
405.4320805091489
 30
0.0
 40
1.399999999999999
  0
CIRCLE
  5
48C
330
204
100
AcDbEntity
  8
0
  6
Continuous
 62
     7
100
AcDbCircle
 10
425.3647643812002
 20
416.076706391949
 30
0.0
 40
0.55
  0
CIRCLE
  5
48D
330
204
100
AcDbEntity
  8
0
  6
Continuous
 62
     7
100
AcDbCircle
 10
422.8247643812002
 20
416.076706391949
 30
0.0
 40
0.55
  0
CIRCLE
  5
48E
330
204
100
AcDbEntity
  8
0
  6
Continuous
 62
     7
100
AcDbCircle
 10
422.8247643812002
 20
418.6167063919489
 30
0.0
 40
0.55
  0
CIRCLE
  5
48F
330
204
100
AcDbEntity
  8
0
  6
Continuous
 62
     7
100
AcDbCircle
 10
425.3647643812002
 20
418.6167063919489
 30
0.0
 40
0.55
  0
CIRCLE
  5
490
330
204
100
AcDbEntity
  8
0
  6
Continuous
 62
     7
100
AcDbCircle
 10
382.1847543812003
 20
411.0767063919489
 30
0.0
 40
0.55
  0
CIRCLE
  5
491
330
204
100
AcDbEntity
  8
0
  6
Continuous
 62
     7
100
AcDbCircle
 10
384.7247543812002
 20
411.0767063919489
 30
0.0
 40
0.55
  0
CIRCLE
  5
492
330
204
100
AcDbEntity
  8
0
  6
Continuous
 62
     7
100
AcDbCircle
 10
384.7247543812002
 20
413.6167063919489
 30
0.0
 40
0.55
  0
CIRCLE
  5
493
330
204
100
AcDbEntity
  8
0
  6
Continuous
 62
     7
100
AcDbCircle
 10
382.1847543812003
 20
413.6167063919489
 30
0.0
 40
0.55
  0
CIRCLE
  5
494
330
204
100
AcDbEntity
  8
0
  6
Continuous
 62
     7
100
AcDbCircle
 10
382.1847543812003
 20
416.1567063919489
 30
0.0
 40
0.55
  0
CIRCLE
  5
495
330
204
100
AcDbEntity
  8
0
  6
Continuous
 62
     7
100
AcDbCircle
 10
384.7247543812002
 20
416.1567063919489
 30
0.0
 40
0.55
  0
CIRCLE
  5
496
330
204
100
AcDbEntity
  8
0
  6
Continuous
 62
     7
100
AcDbCircle
 10
382.1847543812003
 20
418.6967063919489
 30
0.0
 40
0.55
  0
CIRCLE
  5
497
330
204
100
AcDbEntity
  8
0
  6
Continuous
 62
     7
100
AcDbCircle
 10
384.7247543812002
 20
418.6967063919489
 30
0.0
 40
0.55
  0
CIRCLE
  5
498
330
204
100
AcDbEntity
  8
0
  6
Continuous
 62
     7
100
AcDbCircle
 10
322.4247193812002
 20
441.606647391949
 30
0.0
 40
1.8
  0
CIRCLE
  5
499
330
204
100
AcDbEntity
  8
0
  6
Continuous
 62
     7
100
AcDbCircle
 10
343.7847643809003
 20
429.5167063919489
 30
0.0
 40
1.399999999999999
  0
CIRCLE
  5
49A
330
204
100
AcDbEntity
  8
0
  6
Continuous
 62
     7
100
AcDbCircle
 10
341.5447643809002
 20
421.3967063919489
 30
0.0
 40
0.55
  0
CIRCLE
  5
49B
330
204
100
AcDbEntity
  8
0
  6
Continuous
 62
     7
100
AcDbCircle
 10
344.0847643809003
 20
421.3967063919489
 30
0.0
 40
0.55
  0
CIRCLE
  5
49C
330
204
100
AcDbEntity
  8
0
  6
Continuous
 62
     7
100
AcDbCircle
 10
341.5447643809002
 20
423.9367063919489
 30
0.0
 40
0.55
  0
CIRCLE
  5
49D
330
204
100
AcDbEntity
  8
0
  6
Continuous
 62
     7
100
AcDbCircle
 10
344.0847643809003
 20
423.9367063919489
 30
0.0
 40
0.55
  0
CIRCLE
  5
49E
330
204
100
AcDbEntity
  8
0
  6
Continuous
 62
     7
100
AcDbCircle
 10
343.2847643812003
 20
481.256741391949
 30
0.0
 40
0.7628561733
  0
CIRCLE
  5
49F
330
204
100
AcDbEntity
  8
0
  6
Continuous
 62
     7
100
AcDbCircle
 10
382.1847543812003
 20
421.2367063919489
 30
0.0
 40
0.55
  0
CIRCLE
  5
4A0
330
204
100
AcDbEntity
  8
0
  6
Continuous
 62
     7
100
AcDbCircle
 10
384.7247543812002
 20
421.2367063919489
 30
0.0
 40
0.55
  0
CIRCLE
  5
4A1
330
204
100
AcDbEntity
  8
0
  6
Continuous
 62
     7
100
AcDbCircle
 10
382.1847543812003
 20
423.7767063919489
 30
0.0
 40
0.55
  0
CIRCLE
  5
4A2
330
204
100
AcDbEntity
  8
0
  6
Continuous
 62
     7
100
AcDbCircle
 10
384.7247543812002
 20
423.7767063919489
 30
0.0
 40
0.55
  0
CIRCLE
  5
4A3
330
204
100
AcDbEntity
  8
0
  6
Continuous
 62
     7
100
AcDbCircle
 10
382.1847543812003
 20
426.3167063919489
 30
0.0
 40
0.55
  0
CIRCLE
  5
4A4
330
204
100
AcDbEntity
  8
0
  6
Continuous
 62
     7
100
AcDbCircle
 10
384.7247543812002
 20
426.3167063919489
 30
0.0
 40
0.55
  0
CIRCLE
  5
4A5
330
204
100
AcDbEntity
  8
0
  6
Continuous
 62
     7
100
AcDbCircle
 10
382.1847543812003
 20
428.8567063919489
 30
0.0
 40
0.55
  0
CIRCLE
  5
4A6
330
204
100
AcDbEntity
  8
0
  6
Continuous
 62
     7
100
AcDbCircle
 10
384.7247543812002
 20
428.8567063919489
 30
0.0
 40
0.55
  0
CIRCLE
  5
4A7
330
204
100
AcDbEntity
  8
0
  6
Continuous
 62
     7
100
AcDbCircle
 10
382.1847543812003
 20
431.396706391949
 30
0.0
 40
0.55
  0
CIRCLE
  5
4A8
330
204
100
AcDbEntity
  8
0
  6
Continuous
 62
     7
100
AcDbCircle
 10
384.7247543812002
 20
431.396706391949
 30
0.0
 40
0.55
  0
CIRCLE
  5
4A9
330
204
100
AcDbEntity
  8
0
  6
Continuous
 62
     7
100
AcDbCircle
 10
384.4247543812003
 20
439.5167063919489
 30
0.0
 40
1.399999999999999
  0
CIRCLE
  5
4AA
330
204
100
AcDbEntity
  8
0
  6
Continuous
 62
     7
100
AcDbCircle
 10
382.1847543812003
 20
433.9367063919489
 30
0.0
 40
0.55
  0
CIRCLE
  5
4AB
330
204
100
AcDbEntity
  8
0
  6
Continuous
 62
     7
100
AcDbCircle
 10
384.7247543812002
 20
433.9367063919489
 30
0.0
 40
0.55
  0
CIRCLE
  5
4AC
330
204
100
AcDbEntity
  8
0
  6
Continuous
 62
     7
100
AcDbCircle
 10
425.3647643812002
 20
421.1567063919489
 30
0.0
 40
0.55
  0
CIRCLE
  5
4AD
330
204
100
AcDbEntity
  8
0
  6
Continuous
 62
     7
100
AcDbCircle
 10
422.8247643812002
 20
421.1567063919489
 30
0.0
 40
0.55
  0
CIRCLE
  5
4AE
330
204
100
AcDbEntity
  8
0
  6
Continuous
 62
     7
100
AcDbCircle
 10
422.8247643812002
 20
423.696706391949
 30
0.0
 40
0.55
  0
CIRCLE
  5
4AF
330
204
100
AcDbEntity
  8
0
  6
Continuous
 62
     7
100
AcDbCircle
 10
425.3647643812002
 20
423.696706391949
 30
0.0
 40
0.55
  0
CIRCLE
  5
4B0
330
204
100
AcDbEntity
  8
0
  6
Continuous
 62
     7
100
AcDbCircle
 10
422.8247643812002
 20
426.2367063919489
 30
0.0
 40
0.55
  0
CIRCLE
  5
4B1
330
204
100
AcDbEntity
  8
0
  6
Continuous
 62
     7
100
AcDbCircle
 10
425.3647643812002
 20
426.2367063919489
 30
0.0
 40
0.55
  0
CIRCLE
  5
4B2
330
204
100
AcDbEntity
  8
0
  6
Continuous
 62
     7
100
AcDbCircle
 10
422.8247643812002
 20
428.7767063919489
 30
0.0
 40
0.55
  0
CIRCLE
  5
4B3
330
204
100
AcDbEntity
  8
0
  6
Continuous
 62
     7
100
AcDbCircle
 10
425.3647643812002
 20
428.7767063919489
 30
0.0
 40
0.55
  0
CIRCLE
  5
4B4
330
204
100
AcDbEntity
  8
0
  6
Continuous
 62
     7
100
AcDbCircle
 10
422.8247643812002
 20
431.316706391949
 30
0.0
 40
0.55
  0
CIRCLE
  5
4B5
330
204
100
AcDbEntity
  8
0
  6
Continuous
 62
     7
100
AcDbCircle
 10
425.3647643812002
 20
431.316706391949
 30
0.0
 40
0.55
  0
CIRCLE
  5
4B6
330
204
100
AcDbEntity
  8
0
  6
Continuous
 62
     7
100
AcDbCircle
 10
404.2246573812002
 20
441.606647391949
 30
0.0
 40
1.8
  0
CIRCLE
  5
4B7
330
204
100
AcDbEntity
  8
0
  6
Continuous
 62
     7
100
AcDbCircle
 10
425.0647643812002
 20
444.5167063919489
 30
0.0
 40
1.399999999999999
  0
CIRCLE
  5
4B8
330
204
100
AcDbEntity
  8
0
  6
Continuous
 62
     7
100
AcDbCircle
 10
425.3647643812002
 20
433.856706391949
 30
0.0
 40
0.55
  0
CIRCLE
  5
4B9
330
204
100
AcDbEntity
  8
0
  6
Continuous
 62
     7
100
AcDbCircle
 10
422.8247643812002
 20
433.856706391949
 30
0.0
 40
0.55
  0
CIRCLE
  5
4BA
330
204
100
AcDbEntity
  8
0
  6
Continuous
 62
     7
100
AcDbCircle
 10
422.8247643812002
 20
436.3967063919489
 30
0.0
 40
0.55
  0
CIRCLE
  5
4BB
330
204
100
AcDbEntity
  8
0
  6
Continuous
 62
     7
100
AcDbCircle
 10
425.3647643812002
 20
436.3967063919489
 30
0.0
 40
0.55
  0
CIRCLE
  5
4BC
330
204
100
AcDbEntity
  8
0
  6
Continuous
 62
     7
100
AcDbCircle
 10
422.8247643812002
 20
438.936706391949
 30
0.0
 40
0.55
  0
CIRCLE
  5
4BD
330
204
100
AcDbEntity
  8
0
  6
Continuous
 62
     7
100
AcDbCircle
 10
425.3647643812002
 20
438.936706391949
 30
0.0
 40
0.55
  0
CIRCLE
  5
4BE
330
204
100
AcDbEntity
  8
0
  6
Continuous
 62
     7
100
AcDbCircle
 10
389.0047643812002
 20
481.256741391949
 30
0.0
 40
0.7628561733
  0
LINE
  5
55F
330
204
100
AcDbEntity
  8
0
  6
CENTER
 62
     7
100
AcDbLine
 10
226.4347643812002
 20
442.7467413919489
 30
0.0
 11
226.4347643812002
 21
392.7467413919489
 31
0.0
  0
LINE
  5
560
330
204
100
AcDbEntity
  8
0
  6
CENTER
 62
     7
100
AcDbLine
 10
232.0347643812003
 20
392.7467413919489
 30
0.0
 11
232.0347643812003
 21
442.7467413919489
 31
0.0
  0
LINE
  5
561
330
204
100
AcDbEntity
  8
0
  6
CENTER
 62
     7
100
AcDbLine
 10
226.4347643812002
 20
392.7467413919489
 30
0.0
 11
232.0347643812003
 21
392.7467413919489
 31
0.0
  0
LINE
  5
562
330
204
100
AcDbEntity
  8
0
  6
CENTER
 62
     7
100
AcDbLine
 10
232.0347643812003
 20
442.7467413919489
 30
0.0
 11
226.4347643812002
 21
442.7467413919489
 31
0.0
  0
LINE
  5
563
330
204
100
AcDbEntity
  8
0
  6
CENTER
 62
     7
100
AcDbLine
 10
309.3746813812004
 20
375.6567753919489
 30
0.0
 11
317.8747913812003
 21
375.6567753919489
 31
0.0
  0
LINE
  5
564
330
204
100
AcDbEntity
  8
0
  6
CENTER
 62
     7
100
AcDbLine
 10
363.7746233812003
 20
375.6567753919489
 30
0.0
 11
393.1746153812003
 21
375.6567753919489
 31
0.0
  0
LINE
  5
565
330
204
100
AcDbEntity
  8
0
  6
CENTER
 62
     7
100
AcDbLine
 10
393.1746153812003
 20
381.6567753919489
 30
0.0
 11
363.7746233812003
 21
381.6567753919489
 31
0.0
  0
LINE
  5
566
330
204
100
AcDbEntity
  8
0
  6
CENTER
 62
     7
100
AcDbLine
 10
317.8747913812003
 20
381.6567753919489
 30
0.0
 11
309.3746813812004
 21
381.6567753919489
 31
0.0
  0
LINE
  5
567
330
204
100
AcDbEntity
  8
0
  6
CENTER
 62
     7
100
AcDbLine
 10
309.3746813812004
 20
381.6567753919489
 30
0.0
 11
309.3746813812004
 21
375.6567753919489
 31
0.0
  0
LINE
  5
568
330
204
100
AcDbEntity
  8
0
  6
CENTER
 62
     7
100
AcDbLine
 10
317.8747913812003
 20
375.6567753919489
 30
0.0
 11
317.8747913812003
 21
381.6567753919489
 31
0.0
  0
LINE
  5
569
330
204
100
AcDbEntity
  8
0
  6
CENTER
 62
     7
100
AcDbLine
 10
363.7746233812003
 20
381.6567753919489
 30
0.0
 11
363.7746233812003
 21
375.6567753919489
 31
0.0
  0
LINE
  5
56A
330
204
100
AcDbEntity
  8
0
  6
CENTER
 62
     7
100
AcDbLine
 10
393.1746153812003
 20
375.6567753919489
 30
0.0
 11
393.1746153812003
 21
381.6567753919489
 31
0.0
  0
ENDSEC
  0
SECTION
  2
OBJECTS
  0
DICTIONARY
  5
C
330
0
100
AcDbDictionary
281
     1
  3
ACAD_COLOR
350
2F0
  3
ACAD_GROUP
350
D
  3
ACAD_LAYOUT
350
1A
  3
ACAD_MATERIAL
350
2C6
  3
ACAD_MLEADERSTYLE
350
315
  3
ACAD_MLINESTYLE
350
17
  3
ACAD_PLOTSETTINGS
350
19
  3
ACAD_PLOTSTYLENAME
350
E
  3
ACAD_SCALELIST
350
2F3
  3
ACAD_TABLESTYLE
350
2F1
  3
ACAD_VISUALSTYLE
350
2DF
  3
ACDB_RECOMPOSE_DATA
350
34C
  3
AcDbVariableDictionary
350
332
  3
DWGPROPS
350
582
  0
DICTIONARY
  5
320
330
10
100
AcDbDictionary
280
     1
281
     1
  3
ADSK_XREC_LAYER_RECONCILED
360
321
  0
DICTIONARY
  5
322
330
1FA
100
AcDbDictionary
280
     1
281
     1
  3
ADSK_XREC_LAYER_RECONCILED
360
323
  0
DICTIONARY
  5
324
330
1FB
100
AcDbDictionary
280
     1
281
     1
  3
ADSK_XREC_LAYER_RECONCILED
360
325
  0
DICTIONARY
  5
326
330
1FC
100
AcDbDictionary
280
     1
281
     1
  3
ADSK_XREC_LAYER_RECONCILED
360
327
  0
DICTIONARY
  5
328
330
1FD
100
AcDbDictionary
280
     1
281
     1
  3
ADSK_XREC_LAYER_RECONCILED
360
329
  0
DICTIONARY
  5
32A
330
1FE
100
AcDbDictionary
280
     1
281
     1
  3
ADSK_XREC_LAYER_RECONCILED
360
32B
  0
DICTIONARY
  5
32C
330
1FF
100
AcDbDictionary
280
     1
281
     1
  3
ADSK_XREC_LAYER_RECONCILED
360
32D
  0
DICTIONARY
  5
32E
330
200
100
AcDbDictionary
280
     1
281
     1
  3
ADSK_XREC_LAYER_RECONCILED
360
32F
  0
DICTIONARY
  5
330
330
201
100
AcDbDictionary
280
     1
281
     1
  3
ADSK_XREC_LAYER_RECONCILED
360
331
  0
DICTIONARY
  5
588
330
4D5
100
AcDbDictionary
280
     1
281
     1
  3
ACAD_MTEXT_RT
360
589
  0
DICTIONARY
  5
58A
330
4EF
100
AcDbDictionary
280
     1
281
     1
  3
ACAD_MTEXT_RT
360
58B
  0
DICTIONARY
  5
58C
330
50A
100
AcDbDictionary
280
     1
281
     1
  3
ACAD_MTEXT_RT
360
58D
  0
DICTIONARY
  5
58E
330
524
100
AcDbDictionary
280
     1
281
     1
  3
ACAD_MTEXT_RT
360
58F
  0
DICTIONARY
  5
590
330
533
100
AcDbDictionary
280
     1
281
     1
  3
ACAD_MTEXT_RT
360
591
  0
DICTIONARY
  5
592
330
541
100
AcDbDictionary
280
     1
281
     1
  3
ACAD_MTEXT_RT
360
593
  0
DICTIONARY
  5
594
330
55A
100
AcDbDictionary
280
     1
281
     1
  3
ACAD_MTEXT_RT
360
595
  0
DICTIONARY
  5
2F0
102
{ACAD_REACTORS
330
C
102
}
330
C
100
AcDbDictionary
281
     1
  0
DICTIONARY
  5
D
102
{ACAD_REACTORS
330
C
102
}
330
C
100
AcDbDictionary
281
     1
  0
DICTIONARY
  5
1A
102
{ACAD_REACTORS
330
C
102
}
330
C
100
AcDbDictionary
281
     1
  3
Layout1
350
2C3
  3
Model
350
2C2
  0
DICTIONARY
  5
2C6
102
{ACAD_REACTORS
330
C
102
}
330
C
100
AcDbDictionary
281
     1
  3
ByBlock
350
2CF
  3
ByLayer
350
2C7
  3
Global
350
2D7
  0
DICTIONARY
  5
315
102
{ACAD_REACTORS
330
C
102
}
330
C
100
AcDbDictionary
281
     1
  3
Standard
350
316
  0
DICTIONARY
  5
17
102
{ACAD_REACTORS
330
C
102
}
330
C
100
AcDbDictionary
281
     1
  3
Standard
350
18
  0
DICTIONARY
  5
19
102
{ACAD_REACTORS
330
C
102
}
330
C
100
AcDbDictionary
281
     1
  0
ACDBDICTIONARYWDFLT
  5
E
102
{ACAD_REACTORS
330
C
102
}
330
C
100
AcDbDictionary
281
     1
  3
Normal
350
F
100
AcDbDictionaryWithDefault
340
F
  0
DICTIONARY
  5
2F3
102
{ACAD_REACTORS
330
C
102
}
330
C
100
AcDbDictionary
281
     1
  3
A0
350
2F4
  3
A1
350
2F5
  3
A2
350
2F6
  3
A3
350
2F7
  3
A4
350
2F8
  3
A5
350
2F9
  3
A6
350
2FA
  3
A7
350
2FB
  3
A8
350
2FC
  3
A9
350
2FD
  3
B0
350
2FE
  3
B1
350
2FF
  3
B2
350
300
  3
B3
350
301
  3
B4
350
302
  3
B5
350
303
  3
B6
350
304
  3
B7
350
305
  3
B8
350
306
  3
B9
350
307
  3
C0
350
308
  3
C1
350
309
  3
C2
350
30A
  3
C3
350
30B
  3
C4
350
30C
  3
C5
350
30D
  3
C6
350
30E
  3
C7
350
30F
  3
C8
350
310
  3
C9
350
311
  3
D0
350
312
  3
D1
350
313
  3
D2
350
314
  0
DICTIONARY
  5
2F1
102
{ACAD_REACTORS
330
C
102
}
330
C
100
AcDbDictionary
281
     1
  3
Standard
350
2F2
  0
DICTIONARY
  5
2DF
102
{ACAD_REACTORS
330
C
102
}
330
C
100
AcDbDictionary
281
     1
  3
2dWireframe
350
2E5
  3
3D Hidden
350
2E7
  3
3dWireframe
350
2E6
  3
Basic
350
2E4
  3
Brighten
350
2EB
  3
ColorChange
350
2EF
  3
Conceptual
350
2E8
  3
Dim
350
2EA
  3
Facepattern
350
2EE
  3
Flat
350
2E0
  3
FlatWithEdges
350
2E1
  3
Gouraud
350
2E2
  3
GouraudWithEdges
350
2E3
  3
Linepattern
350
2ED
  3
Realistic
350
2E9
  3
Thicken
350
2EC
  0
XRECORD
  5
34C
102
{ACAD_REACTORS
330
C
102
}
330
C
100
AcDbXrecord
280
     1
 90
        1
330
2F2
  0
DICTIONARY
  5
332
102
{ACAD_REACTORS
330
C
102
}
330
C
100
AcDbDictionary
281
     1
  3
CANNOSCALE
350
336
  3
CMLEADERSTYLE
350
334
  3
CTABLESTYLE
350
333
  3
DIMASSOC
350
33B
  3
HIDETEXT
350
33A
  3
INDEXCTL
350
339
  3
LIGHTINGUNITS
350
337
  3
MSLTSCALE
350
335
  3
SORTENTS
350
338
  0
XRECORD
  5
582
102
{ACAD_REACTORS
330
C
102
}
330
C
100
AcDbXrecord
280
     1
  1
DWGPROPS COOKIE
  2

  3

  4

  6

  7

  8
01
  9

300
=
301
=
302
=
303
=
304
=
305
=
306
=
307
=
308
=
309
=
 40
0.0190495717592593
 41
2458708.481323415
 42
2458724.389615035
  1

 90
        0
  0
XRECORD
  5
321
102
{ACAD_REACTORS
330
320
102
}
330
320
100
AcDbXrecord
280
     1
290
     1
  0
XRECORD
  5
323
102
{ACAD_REACTORS
330
322
102
}
330
322
100
AcDbXrecord
280
     1
290
     1
  0
XRECORD
  5
325
102
{ACAD_REACTORS
330
324
102
}
330
324
100
AcDbXrecord
280
     1
290
     1
  0
XRECORD
  5
327
102
{ACAD_REACTORS
330
326
102
}
330
326
100
AcDbXrecord
280
     1
290
     1
  0
XRECORD
  5
329
102
{ACAD_REACTORS
330
328
102
}
330
328
100
AcDbXrecord
280
     1
290
     1
  0
XRECORD
  5
32B
102
{ACAD_REACTORS
330
32A
102
}
330
32A
100
AcDbXrecord
280
     1
290
     1
  0
XRECORD
  5
32D
102
{ACAD_REACTORS
330
32C
102
}
330
32C
100
AcDbXrecord
280
     1
290
     1
  0
XRECORD
  5
32F
102
{ACAD_REACTORS
330
32E
102
}
330
32E
100
AcDbXrecord
280
     1
290
     1
  0
XRECORD
  5
331
102
{ACAD_REACTORS
330
330
102
}
330
330
100
AcDbXrecord
280
     1
290
     1
  0
XRECORD
  5
589
102
{ACAD_REACTORS
330
588
102
}
330
588
100
AcDbXrecord
280
     1
 40
15860.0
  1
\A1;40.64000.0100
  0
XRECORD
  5
58B
102
{ACAD_REACTORS
330
58A
102
}
330
58A
100
AcDbXrecord
280
     1
 40
15976.0
  1
\A1;45.68500.0100
  0
XRECORD
  5
58D
102
{ACAD_REACTORS
330
58C
102
}
330
58C
100
AcDbXrecord
280
     1
 40
15888.0
  1
\A1;45.82000.0100
  0
XRECORD
  5
58F
102
{ACAD_REACTORS
330
58E
102
}
330
58E
100
AcDbXrecord
280
     1
 40
15888.0
  1
\A1;45.82000.0100
  0
XRECORD
  5
591
102
{ACAD_REACTORS
330
590
102
}
330
590
100
AcDbXrecord
280
     1
 40
15884.0
  1
\A1;81.40500.0100
  0
XRECORD
  5
593
102
{ACAD_REACTORS
330
592
102
}
330
592
100
AcDbXrecord
280
     1
 40
15890.0
  1
\A1;81.28000.0100
  0
XRECORD
  5
595
102
{ACAD_REACTORS
330
594
102
}
330
594
100
AcDbXrecord
280
     1
 40
15860.0
  1
\A1;40.64000.0100
  0
LAYOUT
  5
2C3
102
{ACAD_XDICTIONARY
360
585
102
}
102
{ACAD_REACTORS
330
1A
102
}
330
1A
100
AcDbPlotSettings
  1

  2
none_device
  4
ANSI_C_(22.00_x_17.00_Inches)
  6

 40
0.0
 41
0.0
 42
0.0
 43
0.0
 44
558.8
 45
431.8
 46
0.0
 47
0.0
 48
0.0
 49
0.0
140
0.0
141
0.0
142
1.0
143
1.0
 70
     0
 72
     1
 73
     0
 74
     0
  7

 75
     0
147
1.0
148
0.0
149
0.0
100
AcDbLayout
  1
Layout1
 70
     1
 71
     1
 10
0.0
 20
0.0
 11
12.0
 21
9.0
 12
0.0
 22
0.0
 32
0.0
 14
1.000000000000000E+20
 24
1.000000000000000E+20
 34
1.000000000000000E+20
 15
-1.000000000000000E+20
 25
-1.000000000000000E+20
 35
-1.000000000000000E+20
146
0.0
 13
0.0
 23
0.0
 33
0.0
 16
1.0
 26
0.0
 36
0.0
 17
0.0
 27
1.0
 37
0.0
 76
     0
330
205
  0
LAYOUT
  5
2C2
102
{ACAD_XDICTIONARY
360
583
102
}
102
{ACAD_REACTORS
330
1A
102
}
330
1A
100
AcDbPlotSettings
  1

  2
none_device
  4
ANSI_C_(22.00_x_17.00_Inches)
  6

 40
0.0
 41
0.0
 42
0.0
 43
0.0
 44
558.8
 45
431.8
 46
0.0
 47
0.0
 48
0.0
 49
0.0
140
0.0
141
0.0
142
1.0
143
1.0
 70
  1024
 72
     1
 73
     0
 74
     0
  7

 75
     0
147
1.0
148
0.0
149
0.0
100
AcDbLayout
  1
Model
 70
     0
 71
     0
 10
0.0
 20
0.0
 11
558.8
 21
431.8
 12
0.0
 22
0.0
 32
0.0
 14
0.0
 24
0.0
 34
0.0
 15
0.0
 25
0.0
 35
0.0
146
0.0
 13
0.0
 23
0.0
 33
0.0
 16
1.0
 26
0.0
 36
0.0
 17
0.0
 27
1.0
 37
0.0
 76
     0
330
204
331
1F4
  0
MATERIAL
  5
2CF
102
{ACAD_XDICTIONARY
360
2D0
102
}
102
{ACAD_REACTORS
330
2C6
102
}
330
2C6
100
AcDbMaterial
  1
ByBlock
 72
     0
 43
0.0008202099737533
 43
0.0
 43
0.0
 43
0.0
 43
0.0
 43
0.0008202099737533
 43
0.0
 43
0.0
 43
0.0
 43
0.0
 43
1.0
 43
0.0
 43
0.0
 43
0.0
 43
0.0
 43
1.0
 77
     0
 47
0.0008202099737533
 47
0.0
 47
0.0
 47
0.0
 47
0.0
 47
0.0008202099737533
 47
0.0
 47
0.0
 47
0.0
 47
0.0
 47
1.0
 47
0.0
 47
0.0
 47
0.0
 47
0.0
 47
1.0
171
     0
 49
0.0008202099737533
 49
0.0
 49
0.0
 49
0.0
 49
0.0
 49
0.0008202099737533
 49
0.0
 49
0.0
 49
0.0
 49
0.0
 49
1.0
 49
0.0
 49
0.0
 49
0.0
 49
0.0
 49
1.0
175
     0
142
0.0008202099737533
142
0.0
142
0.0
142
0.0
142
0.0
142
0.0008202099737533
142
0.0
142
0.0
142
0.0
142
0.0
142
1.0
142
0.0
142
0.0
142
0.0
142
0.0
142
1.0
179
     0
144
0.0008202099737533
144
0.0
144
0.0
144
0.0
144
0.0
144
0.0008202099737533
144
0.0
144
0.0
144
0.0
144
0.0
144
1.0
144
0.0
144
0.0
144
0.0
144
0.0
144
1.0
147
0.0008202099737533
147
0.0
147
0.0
147
0.0
147
0.0
147
0.0008202099737533
147
0.0
147
0.0
147
0.0
147
0.0
147
1.0
147
0.0
147
0.0
147
0.0
147
0.0
147
1.0
  0
MATERIAL
  5
2C7
102
{ACAD_XDICTIONARY
360
2C8
102
}
102
{ACAD_REACTORS
330
2C6
102
}
330
2C6
100
AcDbMaterial
  1
ByLayer
 72
     0
 43
0.0008202099737533
 43
0.0
 43
0.0
 43
0.0
 43
0.0
 43
0.0008202099737533
 43
0.0
 43
0.0
 43
0.0
 43
0.0
 43
1.0
 43
0.0
 43
0.0
 43
0.0
 43
0.0
 43
1.0
 77
     0
 47
0.0008202099737533
 47
0.0
 47
0.0
 47
0.0
 47
0.0
 47
0.0008202099737533
 47
0.0
 47
0.0
 47
0.0
 47
0.0
 47
1.0
 47
0.0
 47
0.0
 47
0.0
 47
0.0
 47
1.0
171
     0
 49
0.0008202099737533
 49
0.0
 49
0.0
 49
0.0
 49
0.0
 49
0.0008202099737533
 49
0.0
 49
0.0
 49
0.0
 49
0.0
 49
1.0
 49
0.0
 49
0.0
 49
0.0
 49
0.0
 49
1.0
175
     0
142
0.0008202099737533
142
0.0
142
0.0
142
0.0
142
0.0
142
0.0008202099737533
142
0.0
142
0.0
142
0.0
142
0.0
142
1.0
142
0.0
142
0.0
142
0.0
142
0.0
142
1.0
179
     0
144
0.0008202099737533
144
0.0
144
0.0
144
0.0
144
0.0
144
0.0008202099737533
144
0.0
144
0.0
144
0.0
144
0.0
144
1.0
144
0.0
144
0.0
144
0.0
144
0.0
144
1.0
147
0.0008202099737533
147
0.0
147
0.0
147
0.0
147
0.0
147
0.0008202099737533
147
0.0
147
0.0
147
0.0
147
0.0
147
1.0
147
0.0
147
0.0
147
0.0
147
0.0
147
1.0
  0
MATERIAL
  5
2D7
102
{ACAD_XDICTIONARY
360
2D8
102
}
102
{ACAD_REACTORS
330
2C6
102
}
330
2C6
100
AcDbMaterial
  1
Global
 72
     0
 43
0.0008202099737533
 43
0.0
 43
0.0
 43
0.0
 43
0.0
 43
0.0008202099737533
 43
0.0
 43
0.0
 43
0.0
 43
0.0
 43
1.0
 43
0.0
 43
0.0
 43
0.0
 43
0.0
 43
1.0
 77
     0
 47
0.0008202099737533
 47
0.0
 47
0.0
 47
0.0
 47
0.0
 47
0.0008202099737533
 47
0.0
 47
0.0
 47
0.0
 47
0.0
 47
1.0
 47
0.0
 47
0.0
 47
0.0
 47
0.0
 47
1.0
171
     0
 49
0.0008202099737533
 49
0.0
 49
0.0
 49
0.0
 49
0.0
 49
0.0008202099737533
 49
0.0
 49
0.0
 49
0.0
 49
0.0
 49
1.0
 49
0.0
 49
0.0
 49
0.0
 49
0.0
 49
1.0
175
     0
142
0.0008202099737533
142
0.0
142
0.0
142
0.0
142
0.0
142
0.0008202099737533
142
0.0
142
0.0
142
0.0
142
0.0
142
1.0
142
0.0
142
0.0
142
0.0
142
0.0
142
1.0
179
     0
144
0.0008202099737533
144
0.0
144
0.0
144
0.0
144
0.0
144
0.0008202099737533
144
0.0
144
0.0
144
0.0
144
0.0
144
1.0
144
0.0
144
0.0
144
0.0
144
0.0
144
1.0
147
0.0008202099737533
147
0.0
147
0.0
147
0.0
147
0.0
147
0.0008202099737533
147
0.0
147
0.0
147
0.0
147
0.0
147
1.0
147
0.0
147
0.0
147
0.0
147
0.0
147
1.0
  0
MLEADERSTYLE
  5
316
102
{ACAD_REACTORS
330
315
102
}
330
315
100
AcDbMLeaderStyle
170
     2
171
     1
172
     0
 90
        2
 40
0.0
 41
0.0
173
     1
 91
-1056964608
340
14
 92
       -2
290
     1
 42
2.0
291
     1
 43
0.36
  3
Standard
 44
4.0
300

342
11
174
     1
178
     6
175
     1
176
     0
 93
-1056964608
 45
4.0
292
     0
297
     0
 46
4.0
 94
-1056964608
 47
1.0
 49
1.0
140
1.0
293
     1
141
0.0
294
     1
177
     0
142
1.0
295
     0
296
     0
143
0.125
1001
ACAD_MLEADERVER
1070
     2
  0
MLINESTYLE
  5
18
102
{ACAD_REACTORS
330
17
102
}
330
17
100
AcDbMlineStyle
  2
STANDARD
 70
     0
  3

 62
   256
 51
90.0
 52
90.0
 71
     2
 49
0.5
 62
   256
  6
BYLAYER
 49
-0.5
 62
   256
  6
BYLAYER
  0
ACDBPLACEHOLDER
  5
F
102
{ACAD_REACTORS
330
E
102
}
330
E
  0
SCALE
  5
2F4
102
{ACAD_REACTORS
330
2F3
102
}
330
2F3
100
AcDbScale
 70
     0
300
1:1
140
1.0
141
1.0
290
     1
  0
SCALE
  5
2F5
102
{ACAD_REACTORS
330
2F3
102
}
330
2F3
100
AcDbScale
 70
     0
300
1:2
140
1.0
141
2.0
290
     0
  0
SCALE
  5
2F6
102
{ACAD_REACTORS
330
2F3
102
}
330
2F3
100
AcDbScale
 70
     0
300
1:4
140
1.0
141
4.0
290
     0
  0
SCALE
  5
2F7
102
{ACAD_REACTORS
330
2F3
102
}
330
2F3
100
AcDbScale
 70
     0
300
1:5
140
1.0
141
5.0
290
     0
  0
SCALE
  5
2F8
102
{ACAD_REACTORS
330
2F3
102
}
330
2F3
100
AcDbScale
 70
     0
300
1:8
140
1.0
141
8.0
290
     0
  0
SCALE
  5
2F9
102
{ACAD_REACTORS
330
2F3
102
}
330
2F3
100
AcDbScale
 70
     0
300
1:10
140
1.0
141
10.0
290
     0
  0
SCALE
  5
2FA
102
{ACAD_REACTORS
330
2F3
102
}
330
2F3
100
AcDbScale
 70
     0
300
1:16
140
1.0
141
16.0
290
     0
  0
SCALE
  5
2FB
102
{ACAD_REACTORS
330
2F3
102
}
330
2F3
100
AcDbScale
 70
     0
300
1:20
140
1.0
141
20.0
290
     0
  0
SCALE
  5
2FC
102
{ACAD_REACTORS
330
2F3
102
}
330
2F3
100
AcDbScale
 70
     0
300
1:30
140
1.0
141
30.0
290
     0
  0
SCALE
  5
2FD
102
{ACAD_REACTORS
330
2F3
102
}
330
2F3
100
AcDbScale
 70
     0
300
1:40
140
1.0
141
40.0
290
     0
  0
SCALE
  5
2FE
102
{ACAD_REACTORS
330
2F3
102
}
330
2F3
100
AcDbScale
 70
     0
300
1:50
140
1.0
141
50.0
290
     0
  0
SCALE
  5
2FF
102
{ACAD_REACTORS
330
2F3
102
}
330
2F3
100
AcDbScale
 70
     0
300
1:100
140
1.0
141
100.0
290
     0
  0
SCALE
  5
300
102
{ACAD_REACTORS
330
2F3
102
}
330
2F3
100
AcDbScale
 70
     0
300
2:1
140
2.0
141
1.0
290
     0
  0
SCALE
  5
301
102
{ACAD_REACTORS
330
2F3
102
}
330
2F3
100
AcDbScale
 70
     0
300
4:1
140
4.0
141
1.0
290
     0
  0
SCALE
  5
302
102
{ACAD_REACTORS
330
2F3
102
}
330
2F3
100
AcDbScale
 70
     0
300
8:1
140
8.0
141
1.0
290
     0
  0
SCALE
  5
303
102
{ACAD_REACTORS
330
2F3
102
}
330
2F3
100
AcDbScale
 70
     0
300
10:1
140
10.0
141
1.0
290
     0
  0
SCALE
  5
304
102
{ACAD_REACTORS
330
2F3
102
}
330
2F3
100
AcDbScale
 70
     0
300
100:1
140
100.0
141
1.0
290
     0
  0
SCALE
  5
305
102
{ACAD_REACTORS
330
2F3
102
}
330
2F3
100
AcDbScale
 70
     0
300
1/128" = 1'-0"
140
0.0078125
141
12.0
290
     0
  0
SCALE
  5
306
102
{ACAD_REACTORS
330
2F3
102
}
330
2F3
100
AcDbScale
 70
     0
300
1/64" = 1'-0"
140
0.015625
141
12.0
290
     0
  0
SCALE
  5
307
102
{ACAD_REACTORS
330
2F3
102
}
330
2F3
100
AcDbScale
 70
     0
300
1/32" = 1'-0"
140
0.03125
141
12.0
290
     0
  0
SCALE
  5
308
102
{ACAD_REACTORS
330
2F3
102
}
330
2F3
100
AcDbScale
 70
     0
300
1/16" = 1'-0"
140
0.0625
141
12.0
290
     0
  0
SCALE
  5
309
102
{ACAD_REACTORS
330
2F3
102
}
330
2F3
100
AcDbScale
 70
     0
300
3/32" = 1'-0"
140
0.09375
141
12.0
290
     0
  0
SCALE
  5
30A
102
{ACAD_REACTORS
330
2F3
102
}
330
2F3
100
AcDbScale
 70
     0
300
1/8" = 1'-0"
140
0.125
141
12.0
290
     0
  0
SCALE
  5
30B
102
{ACAD_REACTORS
330
2F3
102
}
330
2F3
100
AcDbScale
 70
     0
300
3/16" = 1'-0"
140
0.1875
141
12.0
290
     0
  0
SCALE
  5
30C
102
{ACAD_REACTORS
330
2F3
102
}
330
2F3
100
AcDbScale
 70
     0
300
1/4" = 1'-0"
140
0.25
141
12.0
290
     0
  0
SCALE
  5
30D
102
{ACAD_REACTORS
330
2F3
102
}
330
2F3
100
AcDbScale
 70
     0
300
3/8" = 1'-0"
140
0.375
141
12.0
290
     0
  0
SCALE
  5
30E
102
{ACAD_REACTORS
330
2F3
102
}
330
2F3
100
AcDbScale
 70
     0
300
1/2" = 1'-0"
140
0.5
141
12.0
290
     0
  0
SCALE
  5
30F
102
{ACAD_REACTORS
330
2F3
102
}
330
2F3
100
AcDbScale
 70
     0
300
3/4" = 1'-0"
140
0.75
141
12.0
290
     0
  0
SCALE
  5
310
102
{ACAD_REACTORS
330
2F3
102
}
330
2F3
100
AcDbScale
 70
     0
300
1" = 1'-0"
140
1.0
141
12.0
290
     0
  0
SCALE
  5
311
102
{ACAD_REACTORS
330
2F3
102
}
330
2F3
100
AcDbScale
 70
     0
300
1-1/2" = 1'-0"
140
1.5
141
12.0
290
     0
  0
SCALE
  5
312
102
{ACAD_REACTORS
330
2F3
102
}
330
2F3
100
AcDbScale
 70
     0
300
3" = 1'-0"
140
3.0
141
12.0
290
     0
  0
SCALE
  5
313
102
{ACAD_REACTORS
330
2F3
102
}
330
2F3
100
AcDbScale
 70
     0
300
6" = 1'-0"
140
6.0
141
12.0
290
     0
  0
SCALE
  5
314
102
{ACAD_REACTORS
330
2F3
102
}
330
2F3
100
AcDbScale
 70
     0
300
1'-0" = 1'-0"
140
12.0
141
12.0
290
     0
  0
TABLESTYLE
  5
2F2
102
{ACAD_XDICTIONARY
360
34A
102
}
102
{ACAD_REACTORS
330
2F1
102
}
330
2F1
100
AcDbTableStyle
  3
Standard
 70
     0
 71
     0
 40
1.5
 41
1.5
280
     0
281
     0
  7
STANDARD
140
4.5
170
     2
 62
     0
 63
     7
283
     0
274
    -2
284
     1
 64
     0
275
    -2
285
     1
 65
     0
276
    -2
286
     1
 66
     0
277
    -2
287
     1
 67
     0
278
    -2
288
     1
 68
     0
279
    -2
289
     1
 69
     0
  7
STANDARD
140
6.0
170
     5
 62
     0
 63
     7
283
     0
274
    -2
284
     1
 64
     0
275
    -2
285
     1
 65
     0
276
    -2
286
     1
 66
     0
277
    -2
287
     1
 67
     0
278
    -2
288
     1
 68
     0
279
    -2
289
     1
 69
     0
  7
STANDARD
140
4.5
170
     5
 62
     0
 63
     7
283
     0
274
    -2
284
     1
 64
     0
275
    -2
285
     1
 65
     0
276
    -2
286
     1
 66
     0
277
    -2
287
     1
 67
     0
278
    -2
288
     1
 68
     0
279
    -2
289
     1
 69
     0
  0
VISUALSTYLE
  5
2E5
102
{ACAD_REACTORS
330
2DF
102
}
330
2DF
100
AcDbVisualStyle
  2
2dWireframe
 70
     4
 71
     0
 72
     2
 73
     0
 90
        0
 40
-0.6
 41
-30.0
 62
     5
 63
     7
 74
     1
 91
        4
 64
     7
 65
   257
 75
     1
175
     1
 42
1.0
 92
        0
 66
   257
 43
1.0
 76
     1
 77
     6
 78
     2
 67
     7
 79
     5
170
     0
171
     0
290
     0
174
     0
 93
        1
 44
0.0
173
     0
291
     0
 45
0.0
1001
ACAD
1000
AcDbSavedByObjectVersion
1070
     0
1000
AcDbSavedByObjectVersion
1070
     0
  0
VISUALSTYLE
  5
2E7
102
{ACAD_REACTORS
330
2DF
102
}
330
2DF
100
AcDbVisualStyle
  2
3D Hidden
 70
     6
 71
     1
 72
     2
 73
     2
 90
        0
 40
-0.6
 41
-30.0
 62
     5
 63
     7
 74
     2
 91
        2
 64
     7
 65
   257
 75
     2
175
     1
 42
40.0
 92
        0
 66
   257
 43
1.0
 76
     1
 77
     6
 78
     2
 67
     7
 79
     3
170
     0
171
     0
290
     0
174
     0
 93
        1
 44
0.0
173
     0
291
     0
 45
0.0
1001
ACAD
1000
AcDbSavedByObjectVersion
1070
     0
1000
AcDbSavedByObjectVersion
1070
     0
  0
VISUALSTYLE
  5
2E6
102
{ACAD_REACTORS
330
2DF
102
}
330
2DF
100
AcDbVisualStyle
  2
3dWireframe
 70
     5
 71
     0
 72
     2
 73
     0
 90
        0
 40
-0.6
 41
-30.0
 62
     5
 63
     7
 74
     1
 91
        4
 64
     7
 65
   257
 75
     1
175
     1
 42
1.0
 92
        0
 66
   257
 43
1.0
 76
     1
 77
     6
 78
     2
 67
     7
 79
     5
170
     0
171
     0
290
     0
174
     0
 93
        1
 44
0.0
173
     0
291
     0
 45
0.0
1001
ACAD
1000
AcDbSavedByObjectVersion
1070
     0
1000
AcDbSavedByObjectVersion
1070
     0
  0
VISUALSTYLE
  5
2E4
102
{ACAD_REACTORS
330
2DF
102
}
330
2DF
100
AcDbVisualStyle
  2
Basic
 70
     7
 71
     1
 72
     0
 73
     1
 90
        0
 40
-0.6
 41
-30.0
 62
     5
 63
     7
 74
     0
 91
        4
 64
     7
 65
   257
 75
     1
175
     1
 42
1.0
 92
        8
 66
     7
 43
1.0
 76
     1
 77
     6
 78
     2
 67
     7
 79
     5
170
     0
171
     0
290
     0
174
     0
 93
        1
 44
0.0
173
     0
291
     1
 45
0.0
1001
ACAD
1000
AcDbSavedByObjectVersion
1070
     0
1000
AcDbSavedByObjectVersion
1070
     0
  0
VISUALSTYLE
  5
2EB
102
{ACAD_REACTORS
330
2DF
102
}
330
2DF
100
AcDbVisualStyle
  2
Brighten
 70
    12
 71
     2
 72
     2
 73
     0
 90
        0
 40
-0.6
 41
-30.0
 62
     5
 63
     7
 74
     1
 91
        4
 64
     7
 65
   257
 75
     1
175
     1
 42
1.0
 92
        8
 66
     7
 43
1.0
 76
     1
 77
     6
 78
     2
 67
     7
 79
     5
170
     0
171
     0
290
     0
174
     0
 93
        1
 44
50.0
173
     0
291
     1
 45
0.0
1001
ACAD
1000
AcDbSavedByObjectVersion
1070
     0
1000
AcDbSavedByObjectVersion
1070
     0
  0
VISUALSTYLE
  5
2EF
102
{ACAD_REACTORS
330
2DF
102
}
330
2DF
100
AcDbVisualStyle
  2
ColorChange
 70
    16
 71
     2
 72
     2
 73
     3
 90
        0
 40
-0.6
 41
-30.0
 62
     5
 63
     8
 74
     1
 91
        4
 64
     7
 65
   257
 75
     1
175
     1
 42
1.0
 92
        8
 66
     8
 43
1.0
 76
     1
 77
     6
 78
     2
 67
     7
 79
     5
170
     0
171
     0
290
     0
174
     0
 93
        1
 44
0.0
173
     0
291
     1
 45
0.0
1001
ACAD
1000
AcDbSavedByObjectVersion
1070
     0
1000
AcDbSavedByObjectVersion
1070
     0
  0
VISUALSTYLE
  5
2E8
102
{ACAD_REACTORS
330
2DF
102
}
330
2DF
100
AcDbVisualStyle
  2
Conceptual
 70
     9
 71
     3
 72
     2
 73
     0
 90
        0
 40
-0.6
 41
-30.0
 62
     5
 63
     7
 74
     2
 91
        2
 64
     7
 65
   257
 75
     1
175
     1
 42
40.0
 92
        8
 66
     7
 43
1.0
 76
     1
 77
     6
 78
     2
 67
     7
 79
     3
170
     0
171
     0
290
     0
174
     0
 93
        1
 44
0.0
173
     0
291
     0
 45
0.0
1001
ACAD
1000
AcDbSavedByObjectVersion
1070
     0
1000
AcDbSavedByObjectVersion
1070
     0
  0
VISUALSTYLE
  5
2EA
102
{ACAD_REACTORS
330
2DF
102
}
330
2DF
100
AcDbVisualStyle
  2
Dim
 70
    11
 71
     2
 72
     2
 73
     0
 90
        0
 40
-0.6
 41
-30.0
 62
     5
 63
     7
 74
     1
 91
        4
 64
     7
 65
   257
 75
     1
175
     1
 42
1.0
 92
        8
 66
     7
 43
1.0
 76
     1
 77
     6
 78
     2
 67
     7
 79
     5
170
     0
171
     0
290
     0
174
     0
 93
        1
 44
-50.0
173
     0
291
     1
 45
0.0
1001
ACAD
1000
AcDbSavedByObjectVersion
1070
     0
1000
AcDbSavedByObjectVersion
1070
     0
  0
VISUALSTYLE
  5
2EE
102
{ACAD_REACTORS
330
2DF
102
}
330
2DF
100
AcDbVisualStyle
  2
Facepattern
 70
    15
 71
     2
 72
     2
 73
     0
 90
        0
 40
-0.6
 41
-30.0
 62
     5
 63
     7
 74
     1
 91
        4
 64
     7
 65
   257
 75
     1
175
     1
 42
1.0
 92
        8
 66
     7
 43
1.0
 76
     1
 77
     6
 78
     2
 67
     7
 79
     5
170
     0
171
     0
290
     0
174
     0
 93
        1
 44
0.0
173
     0
291
     1
 45
0.0
1001
ACAD
1000
AcDbSavedByObjectVersion
1070
     0
1000
AcDbSavedByObjectVersion
1070
     0
  0
VISUALSTYLE
  5
2E0
102
{ACAD_REACTORS
330
2DF
102
}
330
2DF
100
AcDbVisualStyle
  2
Flat
 70
     0
 71
     2
 72
     1
 73
     1
 90
        2
 40
-0.6
 41
30.0
 62
     5
 63
     7
 74
     0
 91
        4
 64
     7
 65
   257
 75
     1
175
     1
 42
1.0
 92
        8
 66
     7
 43
1.0
 76
     1
 77
     6
 78
     2
 67
     7
 79
     5
170
     0
171
     0
290
     0
174
     0
 93
       13
 44
0.0
173
     0
291
     1
 45
0.0
1001
ACAD
1000
AcDbSavedByObjectVersion
1070
     0
1000
AcDbSavedByObjectVersion
1070
     0
  0
VISUALSTYLE
  5
2E1
102
{ACAD_REACTORS
330
2DF
102
}
330
2DF
100
AcDbVisualStyle
  2
FlatWithEdges
 70
     1
 71
     2
 72
     1
 73
     1
 90
        2
 40
-0.6
 41
30.0
 62
     5
 63
     7
 74
     1
 91
        4
 64
     7
 65
   257
 75
     1
175
     1
 42
1.0
 92
        0
 66
   257
 43
1.0
 76
     1
 77
     6
 78
     2
 67
     7
 79
     5
170
     0
171
     0
290
     0
174
     0
 93
       13
 44
0.0
173
     0
291
     1
 45
0.0
1001
ACAD
1000
AcDbSavedByObjectVersion
1070
     0
1000
AcDbSavedByObjectVersion
1070
     0
  0
VISUALSTYLE
  5
2E2
102
{ACAD_REACTORS
330
2DF
102
}
330
2DF
100
AcDbVisualStyle
  2
Gouraud
 70
     2
 71
     2
 72
     2
 73
     1
 90
        2
 40
-0.6
 41
30.0
 62
     5
 63
     7
 74
     0
 91
        4
 64
     7
 65
   257
 75
     1
175
     1
 42
1.0
 92
        0
 66
     7
 43
1.0
 76
     1
 77
     6
 78
     2
 67
     7
 79
     5
170
     0
171
     0
290
     0
174
     0
 93
       13
 44
0.0
173
     0
291
     1
 45
0.0
1001
ACAD
1000
AcDbSavedByObjectVersion
1070
     0
1000
AcDbSavedByObjectVersion
1070
     0
  0
VISUALSTYLE
  5
2E3
102
{ACAD_REACTORS
330
2DF
102
}
330
2DF
100
AcDbVisualStyle
  2
GouraudWithEdges
 70
     3
 71
     2
 72
     2
 73
     1
 90
        2
 40
-0.6
 41
30.0
 62
     5
 63
     7
 74
     1
 91
        4
 64
     7
 65
   257
 75
     1
175
     1
 42
1.0
 92
        0
 66
   257
 43
1.0
 76
     1
 77
     6
 78
     2
 67
     7
 79
     5
170
     0
171
     0
290
     0
174
     0
 93
       13
 44
0.0
173
     0
291
     1
 45
0.0
1001
ACAD
1000
AcDbSavedByObjectVersion
1070
     0
1000
AcDbSavedByObjectVersion
1070
     0
  0
VISUALSTYLE
  5
2ED
102
{ACAD_REACTORS
330
2DF
102
}
330
2DF
100
AcDbVisualStyle
  2
Linepattern
 70
    14
 71
     2
 72
     2
 73
     0
 90
        0
 40
-0.6
 41
-30.0
 62
     5
 63
     7
 74
     1
 91
        4
 64
     7
 65
   257
 75
     7
175
     7
 42
1.0
 92
        8
 66
     7
 43
1.0
 76
     1
 77
     6
 78
     2
 67
     7
 79
     5
170
     0
171
     0
290
     0
174
     0
 93
        1
 44
0.0
173
     0
291
     1
 45
0.0
1001
ACAD
1000
AcDbSavedByObjectVersion
1070
     0
1000
AcDbSavedByObjectVersion
1070
     0
  0
VISUALSTYLE
  5
2E9
102
{ACAD_REACTORS
330
2DF
102
}
330
2DF
100
AcDbVisualStyle
  2
Realistic
 70
     8
 71
     2
 72
     2
 73
     0
 90
        0
 40
-0.6
 41
-30.0
 62
     5
 63
     7
 74
     1
 91
        0
 64
     7
 65
   257
 75
     1
175
     1
 42
1.0
 92
        8
 66
     8
 43
1.0
 76
     1
 77
     6
 78
     2
 67
     7
 79
     5
170
     0
171
     0
290
     0
174
     0
 93
       13
 44
0.0
173
     0
291
     0
 45
0.0
1001
ACAD
1000
AcDbSavedByObjectVersion
1070
     0
1000
AcDbSavedByObjectVersion
1070
     0
  0
VISUALSTYLE
  5
2EC
102
{ACAD_REACTORS
330
2DF
102
}
330
2DF
100
AcDbVisualStyle
  2
Thicken
 70
    13
 71
     2
 72
     2
 73
     0
 90
        0
 40
-0.6
 41
-30.0
 62
     5
 63
     7
 74
     1
 91
        4
 64
     7
 65
   257
 75
     1
175
     1
 42
1.0
 92
       12
 66
     7
 43
1.0
 76
     1
 77
     6
 78
     2
 67
     7
 79
     5
170
     0
171
     0
290
     0
174
     0
 93
        1
 44
0.0
173
     0
291
     1
 45
0.0
1001
ACAD
1000
AcDbSavedByObjectVersion
1070
     0
1000
AcDbSavedByObjectVersion
1070
     0
  0
DICTIONARYVAR
  5
336
102
{ACAD_REACTORS
330
332
102
}
330
332
100
DictionaryVariables
280
     0
  1
1:1
  0
DICTIONARYVAR
  5
334
102
{ACAD_REACTORS
330
332
102
}
330
332
100
DictionaryVariables
280
     0
  1
STANDARD
  0
DICTIONARYVAR
  5
333
102
{ACAD_REACTORS
330
332
102
}
330
332
100
DictionaryVariables
280
     0
  1
STANDARD
  0
DICTIONARYVAR
  5
33B
102
{ACAD_REACTORS
330
332
102
}
330
332
100
DictionaryVariables
280
     0
  1
2
  0
DICTIONARYVAR
  5
33A
102
{ACAD_REACTORS
330
332
102
}
330
332
100
DictionaryVariables
280
     0
  1
1
  0
DICTIONARYVAR
  5
339
102
{ACAD_REACTORS
330
332
102
}
330
332
100
DictionaryVariables
280
     0
  1
0
  0
DICTIONARYVAR
  5
337
102
{ACAD_REACTORS
330
332
102
}
330
332
100
DictionaryVariables
280
     0
  1
2
  0
DICTIONARYVAR
  5
335
102
{ACAD_REACTORS
330
332
102
}
330
332
100
DictionaryVariables
280
     0
  1
1
  0
DICTIONARYVAR
  5
338
102
{ACAD_REACTORS
330
332
102
}
330
332
100
DictionaryVariables
280
     0
  1
127
  0
DICTIONARY
  5
585
330
2C3
100
AcDbDictionary
280
     1
281
     1
  3
ACAD_XREC_ROUNDTRIP
360
586
  0
DICTIONARY
  5
583
330
2C2
100
AcDbDictionary
280
     1
281
     1
  3
ACAD_XREC_ROUNDTRIP
360
584
  0
DICTIONARY
  5
2D0
330
2CF
100
AcDbDictionary
280
     1
281
     1
  3
ACAD_XREC_ROUNDTRIP
360
355
  3
BUMPTILE
360
2D2
  3
DIFFUSETILE
360
2D1
  3
OPACITYTILE
360
2D5
  3
REFLECTIONTILE
360
2D4
  3
REFRACTIONTILE
360
2D6
  3
SPECULARTILE
360
2D3
  0
DICTIONARY
  5
2C8
330
2C7
100
AcDbDictionary
280
     1
281
     1
  3
ACAD_XREC_ROUNDTRIP
360
354
  3
BUMPTILE
360
2CA
  3
DIFFUSETILE
360
2C9
  3
OPACITYTILE
360
2CD
  3
REFLECTIONTILE
360
2CC
  3
REFRACTIONTILE
360
2CE
  3
SPECULARTILE
360
2CB
  0
DICTIONARY
  5
2D8
330
2D7
100
AcDbDictionary
280
     1
281
     1
  3
ACAD_XREC_ROUNDTRIP
360
356
  3
BUMPTILE
360
2DA
  3
DIFFUSETILE
360
2D9
  3
OPACITYTILE
360
2DD
  3
REFLECTIONTILE
360
2DC
  3
REFRACTIONTILE
360
2DE
  3
SPECULARTILE
360
2DB
  0
DICTIONARY
  5
34A
330
2F2
100
AcDbDictionary
280
     1
281
     1
  3
ACAD_ROUNDTRIP_2008_TABLESTYLE_CELLSTYLEMAP
360
581
  3
ACAD_XREC_ROUNDTRIP
360
587
  0
XRECORD
  5
586
102
{ACAD_REACTORS
330
585
102
}
330
585
100
AcDbXrecord
280
     1
102
SHADEPLOT
 70
     0
102
SHADEPLOTRESLEVEL
 70
     2
102
SHADEPLOTCUSTOMDPI
 70
   300
  0
XRECORD
  5
584
102
{ACAD_REACTORS
330
583
102
}
330
583
100
AcDbXrecord
280
     1
102
SHADEPLOT
 70
     0
102
SHADEPLOTRESLEVEL
 70
     2
102
SHADEPLOTCUSTOMDPI
 70
   300
  0
XRECORD
  5
355
102
{ACAD_REACTORS
330
2D0
102
}
330
2D0
100
AcDbXrecord
280
     1
102
MATERIAL
148
0.0
149
0.0
149
0.0
 93
        0
 94
      127
282
     0
 72
     0
 77
     0
171
     0
175
     0
179
     0
273
     0
  0
XRECORD
  5
2D2
102
{ACAD_REACTORS
330
2D0
102
}
330
2D0
100
AcDbXrecord
280
     1
270
     1
271
     1
  0
XRECORD
  5
2D1
102
{ACAD_REACTORS
330
2D0
102
}
330
2D0
100
AcDbXrecord
280
     1
270
     1
271
     1
  0
XRECORD
  5
2D5
102
{ACAD_REACTORS
330
2D0
102
}
330
2D0
100
AcDbXrecord
280
     1
270
     1
271
     1
  0
XRECORD
  5
2D4
102
{ACAD_REACTORS
330
2D0
102
}
330
2D0
100
AcDbXrecord
280
     1
270
     1
271
     1
  0
XRECORD
  5
2D6
102
{ACAD_REACTORS
330
2D0
102
}
330
2D0
100
AcDbXrecord
280
     1
270
     1
271
     1
  0
XRECORD
  5
2D3
102
{ACAD_REACTORS
330
2D0
102
}
330
2D0
100
AcDbXrecord
280
     1
270
     1
271
     1
  0
XRECORD
  5
354
102
{ACAD_REACTORS
330
2C8
102
}
330
2C8
100
AcDbXrecord
280
     1
102
MATERIAL
148
0.0
149
0.0
149
0.0
 93
        0
 94
      127
282
     0
 72
     0
 77
     0
171
     0
175
     0
179
     0
273
     0
  0
XRECORD
  5
2CA
102
{ACAD_REACTORS
330
2C8
102
}
330
2C8
100
AcDbXrecord
280
     1
270
     1
271
     1
  0
XRECORD
  5
2C9
102
{ACAD_REACTORS
330
2C8
102
}
330
2C8
100
AcDbXrecord
280
     1
270
     1
271
     1
  0
XRECORD
  5
2CD
102
{ACAD_REACTORS
330
2C8
102
}
330
2C8
100
AcDbXrecord
280
     1
270
     1
271
     1
  0
XRECORD
  5
2CC
102
{ACAD_REACTORS
330
2C8
102
}
330
2C8
100
AcDbXrecord
280
     1
270
     1
271
     1
  0
XRECORD
  5
2CE
102
{ACAD_REACTORS
330
2C8
102
}
330
2C8
100
AcDbXrecord
280
     1
270
     1
271
     1
  0
XRECORD
  5
2CB
102
{ACAD_REACTORS
330
2C8
102
}
330
2C8
100
AcDbXrecord
280
     1
270
     1
271
     1
  0
XRECORD
  5
356
102
{ACAD_REACTORS
330
2D8
102
}
330
2D8
100
AcDbXrecord
280
     1
102
MATERIAL
148
0.0
149
0.0
149
0.0
 93
        0
 94
      127
282
     0
 72
     0
 77
     0
171
     0
175
     0
179
     0
273
     0
  0
XRECORD
  5
2DA
102
{ACAD_REACTORS
330
2D8
102
}
330
2D8
100
AcDbXrecord
280
     1
270
     1
271
     1
  0
XRECORD
  5
2D9
102
{ACAD_REACTORS
330
2D8
102
}
330
2D8
100
AcDbXrecord
280
     1
270
     1
271
     1
  0
XRECORD
  5
2DD
102
{ACAD_REACTORS
330
2D8
102
}
330
2D8
100
AcDbXrecord
280
     1
270
     1
271
     1
  0
XRECORD
  5
2DC
102
{ACAD_REACTORS
330
2D8
102
}
330
2D8
100
AcDbXrecord
280
     1
270
     1
271
     1
  0
XRECORD
  5
2DE
102
{ACAD_REACTORS
330
2D8
102
}
330
2D8
100
AcDbXrecord
280
     1
270
     1
271
     1
  0
XRECORD
  5
2DB
102
{ACAD_REACTORS
330
2D8
102
}
330
2D8
100
AcDbXrecord
280
     1
270
     1
271
     1
  0
CELLSTYLEMAP
  5
581
102
{ACAD_REACTORS
330
34A
102
}
330
34A
100
AcDbCellStyleMap
 90
        3
300
CELLSTYLE
  1
TABLEFORMAT_BEGIN
 90
        5
170
     1
 91
        0
 92
    32768
 62
   257
 93
        1
300
CONTENTFORMAT
  1
CONTENTFORMAT_BEGIN
 90
        0
 91
        0
 92
      512
 93
        0
300

 40
0.0
140
1.0
 94
        5
 62
     0
340
11
144
6.0
309
CONTENTFORMAT_END
171
     1
301
MARGIN
  1
CELLMARGIN_BEGIN
 40
1.5
 40
1.5
 40
1.5
 40
1.5
 40
0.18
 40
0.18
309
CELLMARGIN_END
 94
        6
 95
        1
302
GRIDFORMAT
  1
GRIDFORMAT_BEGIN
 90
        0
 91
        1
 62
     0
 92
       -2
340
0
 93
        0
 40
1.125
309
GRIDFORMAT_END
 95
        2
302
GRIDFORMAT
  1
GRIDFORMAT_BEGIN
 90
        0
 91
        1
 62
     0
 92
       -2
340
0
 93
        0
 40
1.125
309
GRIDFORMAT_END
 95
        4
302
GRIDFORMAT
  1
GRIDFORMAT_BEGIN
 90
        0
 91
        1
 62
     0
 92
       -2
340
0
 93
        0
 40
1.125
309
GRIDFORMAT_END
 95
        8
302
GRIDFORMAT
  1
GRIDFORMAT_BEGIN
 90
        0
 91
        1
 62
     0
 92
       -2
340
0
 93
        0
 40
1.125
309
GRIDFORMAT_END
 95
       16
302
GRIDFORMAT
  1
GRIDFORMAT_BEGIN
 90
        0
 91
        1
 62
     0
 92
       -2
340
0
 93
        0
 40
1.125
309
GRIDFORMAT_END
 95
       32
302
GRIDFORMAT
  1
GRIDFORMAT_BEGIN
 90
        0
 91
        1
 62
     0
 92
       -2
340
0
 93
        0
 40
1.125
309
GRIDFORMAT_END
309
TABLEFORMAT_END
  1
CELLSTYLE_BEGIN
 90
        1
 91
        1
300
_TITLE
309
CELLSTYLE_END
300
CELLSTYLE
  1
TABLEFORMAT_BEGIN
 90
        5
170
     1
 91
        0
 92
        0
 62
   257
 93
        1
300
CONTENTFORMAT
  1
CONTENTFORMAT_BEGIN
 90
        0
 91
        0
 92
      512
 93
        0
300

 40
0.0
140
1.0
 94
        5
 62
     0
340
11
144
4.5
309
CONTENTFORMAT_END
171
     1
301
MARGIN
  1
CELLMARGIN_BEGIN
 40
1.5
 40
1.5
 40
1.5
 40
1.5
 40
0.18
 40
0.18
309
CELLMARGIN_END
 94
        6
 95
        1
302
GRIDFORMAT
  1
GRIDFORMAT_BEGIN
 90
        0
 91
        1
 62
     0
 92
       -2
340
0
 93
        0
 40
1.125
309
GRIDFORMAT_END
 95
        2
302
GRIDFORMAT
  1
GRIDFORMAT_BEGIN
 90
        0
 91
        1
 62
     0
 92
       -2
340
0
 93
        0
 40
1.125
309
GRIDFORMAT_END
 95
        4
302
GRIDFORMAT
  1
GRIDFORMAT_BEGIN
 90
        0
 91
        1
 62
     0
 92
       -2
340
0
 93
        0
 40
1.125
309
GRIDFORMAT_END
 95
        8
302
GRIDFORMAT
  1
GRIDFORMAT_BEGIN
 90
        0
 91
        1
 62
     0
 92
       -2
340
0
 93
        0
 40
1.125
309
GRIDFORMAT_END
 95
       16
302
GRIDFORMAT
  1
GRIDFORMAT_BEGIN
 90
        0
 91
        1
 62
     0
 92
       -2
340
0
 93
        0
 40
1.125
309
GRIDFORMAT_END
 95
       32
302
GRIDFORMAT
  1
GRIDFORMAT_BEGIN
 90
        0
 91
        1
 62
     0
 92
       -2
340
0
 93
        0
 40
1.125
309
GRIDFORMAT_END
309
TABLEFORMAT_END
  1
CELLSTYLE_BEGIN
 90
        2
 91
        1
300
_HEADER
309
CELLSTYLE_END
300
CELLSTYLE
  1
TABLEFORMAT_BEGIN
 90
        5
170
     1
 91
        0
 92
        0
 62
   257
 93
        1
300
CONTENTFORMAT
  1
CONTENTFORMAT_BEGIN
 90
        0
 91
        0
 92
      512
 93
        0
300

 40
0.0
140
1.0
 94
        2
 62
     0
340
11
144
4.5
309
CONTENTFORMAT_END
171
     1
301
MARGIN
  1
CELLMARGIN_BEGIN
 40
1.5
 40
1.5
 40
1.5
 40
1.5
 40
0.18
 40
0.18
309
CELLMARGIN_END
 94
        6
 95
        1
302
GRIDFORMAT
  1
GRIDFORMAT_BEGIN
 90
        0
 91
        1
 62
     0
 92
       -2
340
0
 93
        0
 40
1.125
309
GRIDFORMAT_END
 95
        2
302
GRIDFORMAT
  1
GRIDFORMAT_BEGIN
 90
        0
 91
        1
 62
     0
 92
       -2
340
0
 93
        0
 40
1.125
309
GRIDFORMAT_END
 95
        4
302
GRIDFORMAT
  1
GRIDFORMAT_BEGIN
 90
        0
 91
        1
 62
     0
 92
       -2
340
0
 93
        0
 40
1.125
309
GRIDFORMAT_END
 95
        8
302
GRIDFORMAT
  1
GRIDFORMAT_BEGIN
 90
        0
 91
        1
 62
     0
 92
       -2
340
0
 93
        0
 40
1.125
309
GRIDFORMAT_END
 95
       16
302
GRIDFORMAT
  1
GRIDFORMAT_BEGIN
 90
        0
 91
        1
 62
     0
 92
       -2
340
0
 93
        0
 40
1.125
309
GRIDFORMAT_END
 95
       32
302
GRIDFORMAT
  1
GRIDFORMAT_BEGIN
 90
        0
 91
        1
 62
     0
 92
       -2
340
0
 93
        0
 40
1.125
309
GRIDFORMAT_END
309
TABLEFORMAT_END
  1
CELLSTYLE_BEGIN
 90
        3
 91
        2
300
_DATA
309
CELLSTYLE_END
  0
XRECORD
  5
587
102
{ACAD_REACTORS
330
34A
102
}
330
34A
100
AcDbXrecord
280
     1
102
ACAD_ROUNDTRIP_PRE2007_TABLESTYLE
 90
      512
 91
        0
  1

 92
      512
 93
        0
  2

 94
      512
 95
        0
  3

  0
ENDSEC
  0
EOF
