  0
SECTION
  2
HEADER
  9
$ACADVER
  1
AC1015
  9
$ACADMAINTVER
 70
    20
  9
$DWGCODEPAGE
  3
ANSI_936
  9
$INSBASE
 10
0.0
 20
0.0
 30
0.0
  9
$EXTMIN
 10
-3146.894728192711
 20
-2305.893192179619
 30
0.0
  9
$EXTMAX
 10
3410.313532835472
 20
1996.801492842832
 30
0.0
  9
$LIMMIN
 10
0.0
 20
0.0
  9
$LIMMAX
 10
558.8
 20
431.8
  9
$ORTHOMODE
 70
     1
  9
$REGENMODE
 70
     1
  9
$FILLMODE
 70
     1
  9
$QTEXTMODE
 70
     0
  9
$MIRRTEXT
 70
     0
  9
$LTSCALE
 40
30.734
  9
$ATTMODE
 70
     1
  9
$TEXTSIZE
 40
0.2
  9
$TRACEWID
 40
0.05
  9
$TEXTSTYLE
  7
STANDARD
  9
$CLAYER
  8
0
  9
$CELTYPE
  6
BYLAYER
  9
$CECOLOR
 62
   256
  9
$CELTSCALE
 40
1.0
  9
$DISPSILH
 70
     0
  9
$DIMSCALE
 40
1.0
  9
$DIMASZ
 40
3.5
  9
$DIMEXO
 40
3.4925
  9
$DIMDLI
 40
21.2344
  9
$DIMRND
 40
0.0
  9
$DIMDLE
 40
0.0
  9
$DIMEXE
 40
10.0584
  9
$DIMTP
 40
0.01
  9
$DIMTM
 40
0.01
  9
$DIMTXT
 40
3.5
  9
$DIMCEN
 40
5.0292
  9
$DIMTSZ
 40
0.0
  9
$DIMTOL
 70
     1
  9
$DIMLIM
 70
     0
  9
$DIMTIH
 70
     1
  9
$DIMTOH
 70
     1
  9
$DIMSE1
 70
     0
  9
$DIMSE2
 70
     0
  9
$DIMTAD
 70
     0
  9
$DIMZIN
 70
     0
  9
$DIMBLK
  1

  9
$DIMASO
 70
     1
  9
$DIMSHO
 70
     1
  9
$DIMPOST
  1

  9
$DIMAPOST
  1

  9
$DIMALT
 70
     0
  9
$DIMALTD
 70
     2
  9
$DIMALTF
 40
25.4
  9
$DIMLFAC
 40
1.0
  9
$DIMTOFL
 70
     0
  9
$DIMTVP
 40
0.0
  9
$DIMTIX
 70
     0
  9
$DIMSOXD
 70
     0
  9
$DIMSAH
 70
     0
  9
$DIMBLK1
  1

  9
$DIMBLK2
  1

  9
$DIMSTYLE
  2
STANDARD
  9
$DIMCLRD
 70
     0
  9
$DIMCLRE
 70
     0
  9
$DIMCLRT
 70
     0
  9
$DIMTFAC
 40
1.0
  9
$DIMGAP
 40
0.09
  9
$DIMJUST
 70
     0
  9
$DIMSD1
 70
     0
  9
$DIMSD2
 70
     0
  9
$DIMTOLJ
 70
     1
  9
$DIMTZIN
 70
     0
  9
$DIMALTZ
 70
     0
  9
$DIMALTTZ
 70
     0
  9
$DIMUPT
 70
     0
  9
$DIMDEC
 70
     4
  9
$DIMTDEC
 70
     4
  9
$DIMALTU
 70
     2
  9
$DIMALTTD
 70
     2
  9
$DIMTXSTY
  7
STANDARD
  9
$DIMAUNIT
 70
     0
  9
$DIMADEC
 70
     0
  9
$DIMALTRND
 40
0.0
  9
$DIMAZIN
 70
     0
  9
$DIMDSEP
 70
    46
  9
$DIMATFIT
 70
     3
  9
$DIMFRAC
 70
     0
  9
$DIMLDRBLK
  1

  9
$DIMLUNIT
 70
     2
  9
$DIMLWD
 70
    -2
  9
$DIMLWE
 70
    -2
  9
$DIMTMOVE
 70
     0
  9
$LUNITS
 70
     2
  9
$LUPREC
 70
     4
  9
$SKETCHINC
 40
0.1
  9
$FILLETRAD
 40
0.0
  9
$AUNITS
 70
     0
  9
$AUPREC
 70
     0
  9
$MENU
  1
.
  9
$ELEVATION
 40
0.0
  9
$PELEVATION
 40
0.0
  9
$THICKNESS
 40
0.0
  9
$LIMCHECK
 70
     0
  9
$CHAMFERA
 40
0.0
  9
$CHAMFERB
 40
0.0
  9
$CHAMFERC
 40
0.0
  9
$CHAMFERD
 40
0.0
  9
$SKPOLY
 70
     0
  9
$TDCREATE
 40
2458705.645451331
  9
$TDUCREATE
 40
2458705.312117998
  9
$TDUPDATE
 40
2458708.585160914
  9
$TDUUPDATE
 40
2458708.251827581
  9
$TDINDWG
 40
0.0250724769
  9
$TDUSRTIMER
 40
0.0250723264
  9
$USRTIMER
 70
     1
  9
$ANGBASE
 50
0.0
  9
$ANGDIR
 70
     0
  9
$PDMODE
 70
     3
  9
$PDSIZE
 40
8.0
  9
$PLINEWID
 40
0.0
  9
$SPLFRAME
 70
     0
  9
$SPLINETYPE
 70
     6
  9
$SPLINESEGS
 70
     8
  9
$HANDSEED
  5
5FC
  9
$SURFTAB1
 70
     6
  9
$SURFTAB2
 70
     6
  9
$SURFTYPE
 70
     6
  9
$SURFU
 70
     6
  9
$SURFV
 70
     6
  9
$UCSBASE
  2

  9
$UCSNAME
  2

  9
$UCSORG
 10
0.0
 20
0.0
 30
0.0
  9
$UCSXDIR
 10
1.0
 20
0.0
 30
0.0
  9
$UCSYDIR
 10
0.0
 20
1.0
 30
0.0
  9
$UCSORTHOREF
  2

  9
$UCSORTHOVIEW
 70
     0
  9
$UCSORGTOP
 10
0.0
 20
0.0
 30
0.0
  9
$UCSORGBOTTOM
 10
0.0
 20
0.0
 30
0.0
  9
$UCSORGLEFT
 10
0.0
 20
0.0
 30
0.0
  9
$UCSORGRIGHT
 10
0.0
 20
0.0
 30
0.0
  9
$UCSORGFRONT
 10
0.0
 20
0.0
 30
0.0
  9
$UCSORGBACK
 10
0.0
 20
0.0
 30
0.0
  9
$PUCSBASE
  2

  9
$PUCSNAME
  2

  9
$PUCSORG
 10
0.0
 20
0.0
 30
0.0
  9
$PUCSXDIR
 10
1.0
 20
0.0
 30
0.0
  9
$PUCSYDIR
 10
0.0
 20
1.0
 30
0.0
  9
$PUCSORTHOREF
  2

  9
$PUCSORTHOVIEW
 70
     0
  9
$PUCSORGTOP
 10
0.0
 20
0.0
 30
0.0
  9
$PUCSORGBOTTOM
 10
0.0
 20
0.0
 30
0.0
  9
$PUCSORGLEFT
 10
0.0
 20
0.0
 30
0.0
  9
$PUCSORGRIGHT
 10
0.0
 20
0.0
 30
0.0
  9
$PUCSORGFRONT
 10
0.0
 20
0.0
 30
0.0
  9
$PUCSORGBACK
 10
0.0
 20
0.0
 30
0.0
  9
$USERI1
 70
     0
  9
$USERI2
 70
     0
  9
$USERI3
 70
     0
  9
$USERI4
 70
     0
  9
$USERI5
 70
     0
  9
$USERR1
 40
0.0
  9
$USERR2
 40
0.0
  9
$USERR3
 40
0.0
  9
$USERR4
 40
0.0
  9
$USERR5
 40
0.0
  9
$WORLDVIEW
 70
     1
  9
$SHADEDGE
 70
     3
  9
$SHADEDIF
 70
    70
  9
$TILEMODE
 70
     1
  9
$MAXACTVP
 70
    64
  9
$PINSBASE
 10
0.0
 20
0.0
 30
0.0
  9
$PLIMCHECK
 70
     0
  9
$PEXTMIN
 10
1.000000000000000E+20
 20
1.000000000000000E+20
 30
1.000000000000000E+20
  9
$PEXTMAX
 10
-1.000000000000000E+20
 20
-1.000000000000000E+20
 30
-1.000000000000000E+20
  9
$PLIMMIN
 10
0.0
 20
0.0
  9
$PLIMMAX
 10
12.0
 20
9.0
  9
$UNITMODE
 70
     0
  9
$VISRETAIN
 70
     1
  9
$PLINEGEN
 70
     0
  9
$PSLTSCALE
 70
     1
  9
$TREEDEPTH
 70
  3020
  9
$CMLSTYLE
  2
Standard
  9
$CMLJUST
 70
     0
  9
$CMLSCALE
 40
1.0
  9
$PROXYGRAPHICS
 70
     1
  9
$MEASUREMENT
 70
     1
  9
$CELWEIGHT
370
    -1
  9
$ENDCAPS
280
     0
  9
$JOINSTYLE
280
     0
  9
$LWDISPLAY
290
     0
  9
$INSUNITS
 70
     4
  9
$HYPERLINKBASE
  1

  9
$STYLESHEET
  1

  9
$XEDIT
290
     1
  9
$CEPSNTYPE
380
     0
  9
$PSTYLEMODE
290
     1
  9
$FINGERPRINTGUID
  2
{D4FF7B01-35B7-4A39-9653-A7434388F08D}
  9
$VERSIONGUID
  2
{E6F6E9C7-01D1-4ED1-8C5F-AB05CCFA368C}
  9
$EXTNAMES
290
     1
  9
$PSVPSCALE
 40
0.0
  9
$OLESTARTUP
290
     0
  0
ENDSEC
  0
SECTION
  2
CLASSES
  0
CLASS
  1
ACDBDICTIONARYWDFLT
  2
AcDbDictionaryWithDefault
  3
ObjectDBX Classes
 90
        0
280
     0
281
     0
  0
CLASS
  1
ACDBPLACEHOLDER
  2
AcDbPlaceHolder
  3
ObjectDBX Classes
 90
        0
280
     0
281
     0
  0
CLASS
  1
LAYOUT
  2
AcDbLayout
  3
ObjectDBX Classes
 90
        0
280
     0
281
     0
  0
CLASS
  1
MATERIAL
  2
AcDbMaterial
  3
ObjectDBX Classes
 90
     1153
280
     0
281
     0
  0
CLASS
  1
VISUALSTYLE
  2
AcDbVisualStyle
  3
ObjectDBX Classes
 90
     4095
280
     0
281
     0
  0
CLASS
  1
TABLESTYLE
  2
AcDbTableStyle
  3
ObjectDBX Classes
 90
     4095
280
     0
281
     0
  0
CLASS
  1
SCALE
  2
AcDbScale
  3
ObjectDBX Classes
 90
     1153
280
     0
281
     0
  0
CLASS
  1
MLEADERSTYLE
  2
AcDbMLeaderStyle
  3
ACDB_MLEADERSTYLE_CLASS
 90
     4095
280
     0
281
     0
  0
CLASS
  1
CELLSTYLEMAP
  2
AcDbCellStyleMap
  3
ObjectDBX Classes
 90
     1152
280
     0
281
     0
  0
CLASS
  1
DICTIONARYVAR
  2
AcDbDictionaryVar
  3
ObjectDBX Classes
 90
        0
280
     0
281
     0
  0
CLASS
  1
SORTENTSTABLE
  2
AcDbSortentsTable
  3
ObjectDBX Classes
 90
        0
280
     0
281
     0
  0
ENDSEC
  0
SECTION
  2
TABLES
  0
TABLE
  2
VPORT
  5
8
330
0
100
AcDbSymbolTable
 70
     1
  0
VPORT
  5
1F4
330
8
100
AcDbSymbolTableRecord
100
AcDbViewportTableRecord
  2
*ACTIVE
 70
     0
 10
0.0
 20
0.0
 11
1.0
 21
1.0
 12
373.7460989147776
 22
256.6193447038797
 13
0.0
 23
0.0
 14
1.0
 24
1.0
 15
0.0
 25
0.0
 16
0.0
 26
0.0
 36
1.0
 17
0.0
 27
0.0
 37
0.0
 40
1207.78810754561
 41
1.723970944309927
 42
50.0
 43
0.0
 44
0.0
 50
0.0
 51
0.0
 71
     0
 72
   100
 73
     1
 74
     1
 75
     0
 76
     0
 77
     0
 78
     0
281
     0
 65
     1
110
0.0
120
0.0
130
0.0
111
1.0
121
0.0
131
0.0
112
0.0
122
1.0
132
0.0
 79
     0
146
0.0
  0
ENDTAB
  0
TABLE
  2
LTYPE
  5
5
330
0
100
AcDbSymbolTable
 70
     6
  0
LTYPE
  5
14
330
5
100
AcDbSymbolTableRecord
100
AcDbLinetypeTableRecord
  2
BYBLOCK
 70
     0
  3

 72
    65
 73
     0
 40
0.0
  0
LTYPE
  5
15
330
5
100
AcDbSymbolTableRecord
100
AcDbLinetypeTableRecord
  2
BYLAYER
 70
     0
  3

 72
    65
 73
     0
 40
0.0
  0
LTYPE
  5
16
330
5
100
AcDbSymbolTableRecord
100
AcDbLinetypeTableRecord
  2
CONTINUOUS
 70
     0
  3
Solid line
 72
    65
 73
     0
 40
0.0
  0
LTYPE
  5
1F5
330
5
100
AcDbSymbolTableRecord
100
AcDbLinetypeTableRecord
  2
CENTER
 70
     0
  3
____ _ ____ _ ____ _ ____ _ ____ _ ____ _ ____
 72
    65
 73
     4
 40
0.6
 49
0.375
 74
     0
 49
-0.075
 74
     0
 49
0.075
 74
     0
 49
-0.075
 74
     0
  0
LTYPE
  5
1F6
330
5
100
AcDbSymbolTableRecord
100
AcDbLinetypeTableRecord
  2
HIDDEN
 70
     0
  3
- - - - - - - - - - - - - - - - - - - -
 72
    65
 73
     2
 40
0.2
 49
0.1
 74
     0
 49
-0.1
 74
     0
  0
LTYPE
  5
1F7
330
5
100
AcDbSymbolTableRecord
100
AcDbLinetypeTableRecord
  2
PHANTOM
 70
     0
  3
_____ _ _ _____ _ _ _____ _ _ _____
 72
    65
 73
     6
 40
0.8
 49
0.45
 74
     0
 49
-0.05
 74
     0
 49
0.1
 74
     0
 49
-0.05
 74
     0
 49
0.1
 74
     0
 49
-0.05
 74
     0
  0
LTYPE
  5
1F8
330
5
100
AcDbSymbolTableRecord
100
AcDbLinetypeTableRecord
  2
DOT
 70
     0
  3
. . . . . . . . . . . . . . . . . . . .
 72
    65
 73
     2
 40
0.2
 49
0.1
 74
     0
 49
-0.1
 74
     0
  0
LTYPE
  5
1F9
330
5
100
AcDbSymbolTableRecord
100
AcDbLinetypeTableRecord
  2
DASHED
 70
     0
  3
- - - - - - - - - - - - - - - - - - - -
 72
    65
 73
     2
 40
0.2
 49
0.1
 74
     0
 49
-0.1
 74
     0
  0
ENDTAB
  0
TABLE
  2
LAYER
  5
2
330
0
100
AcDbSymbolTable
 70
     4
  0
LAYER
  5
10
102
{ACAD_XDICTIONARY
360
532
102
}
330
2
100
AcDbSymbolTableRecord
100
AcDbLayerTableRecord
  2
0
 70
     0
 62
     7
  6
CONTINUOUS
370
    -3
390
F
  0
LAYER
  5
1FA
102
{ACAD_XDICTIONARY
360
534
102
}
330
2
100
AcDbSymbolTableRecord
100
AcDbLayerTableRecord
  2
DEFAULT_1
 70
     0
 62
     7
  6
CENTER
370
    -3
390
F
  0
LAYER
  5
1FB
102
{ACAD_XDICTIONARY
360
536
102
}
330
2
100
AcDbSymbolTableRecord
100
AcDbLayerTableRecord
  2
DEFAULT_2
 70
     0
 62
     8
  6
HIDDEN
370
    -3
390
F
  0
LAYER
  5
1FC
102
{ACAD_XDICTIONARY
360
538
102
}
330
2
100
AcDbSymbolTableRecord
100
AcDbLayerTableRecord
  2
DEFAULT_3
 70
     0
 62
     7
  6
PHANTOM
370
    -3
390
F
  0
ENDTAB
  0
TABLE
  2
STYLE
  5
3
330
0
100
AcDbSymbolTable
 70
     3
  0
STYLE
  5
11
330
3
100
AcDbSymbolTableRecord
100
AcDbTextStyleTableRecord
  2
STANDARD
 70
     0
 40
0.0
 41
0.85
 50
0.0
 71
     0
 42
0.2
  3
txt
  4

  0
STYLE
  5
1FD
330
3
100
AcDbSymbolTableRecord
100
AcDbTextStyleTableRecord
  2
TEXTSTYLE_1
 70
     0
 40
0.0
 41
0.8
 50
0.0
 71
     0
 42
0.2
  3
gdt
  4

  0
STYLE
  5
1FE
330
3
100
AcDbSymbolTableRecord
100
AcDbTextStyleTableRecord
  2
TEXTSTYLE_2
 70
     0
 40
0.0
 41
0.8
 50
0.0
 71
     0
 42
0.2
  3
txt
  4

  0
ENDTAB
  0
TABLE
  2
VIEW
  5
6
330
0
100
AcDbSymbolTable
 70
     0
  0
ENDTAB
  0
TABLE
  2
UCS
  5
7
330
0
100
AcDbSymbolTable
 70
     0
  0
ENDTAB
  0
TABLE
  2
APPID
  5
9
330
0
100
AcDbSymbolTable
 70
     2
  0
APPID
  5
1FF
330
9
100
AcDbSymbolTableRecord
100
AcDbRegAppTableRecord
  2
ACAD
 70
     0
  0
APPID
  5
321
330
9
100
AcDbSymbolTableRecord
100
AcDbRegAppTableRecord
  2
ACAD_MLEADERVER
 70
     0
  0
ENDTAB
  0
TABLE
  2
DIMSTYLE
  5
A
330
0
100
AcDbSymbolTable
 70
     1
100
AcDbDimStyleTable
 71
     1
340
202
  0
DIMSTYLE
105
202
330
A
100
AcDbSymbolTableRecord
100
AcDbDimStyleTableRecord
  2
STANDARD
 70
     0
 41
3.5
 47
0.01
 48
0.01
 71
     1
 73
     0
 74
     0
 77
     1
 78
     8
140
3.5
271
     2
272
     2
284
     8
340
11
  0
ENDTAB
  0
TABLE
  2
BLOCK_RECORD
  5
1
330
0
100
AcDbSymbolTable
 70
     0
  0
BLOCK_RECORD
  5
200
102
{ACAD_XDICTIONARY
360
33A
102
}
330
1
100
AcDbSymbolTableRecord
100
AcDbBlockTableRecord
  2
*Model_Space
340
2CC
  0
BLOCK_RECORD
  5
201
330
1
100
AcDbSymbolTableRecord
100
AcDbBlockTableRecord
  2
*Paper_Space
340
2CD
  0
ENDTAB
  0
ENDSEC
  0
SECTION
  2
BLOCKS
  0
BLOCK
  5
20
330
200
100
AcDbEntity
  8
0
100
AcDbBlockBegin
  2
*Model_Space
 70
     0
 10
0.0
 20
0.0
 30
0.0
  3
*Model_Space
  1

  0
ENDBLK
  5
21
330
200
100
AcDbEntity
  8
0
100
AcDbBlockEnd
  0
BLOCK
  5
1C
330
201
100
AcDbEntity
 67
     1
  8
0
100
AcDbBlockBegin
  2
*Paper_Space
 70
     0
 10
0.0
 20
0.0
 30
0.0
  3
*Paper_Space
  1

  0
ENDBLK
  5
1D
330
201
100
AcDbEntity
 67
     1
  8
0
100
AcDbBlockEnd
  0
ENDSEC
  0
SECTION
  2
ENTITIES
  0
MTEXT
  5
21B
102
{ACAD_XDICTIONARY
360
5F5
102
}
330
200
100
AcDbEntity
  8
0
  6
Continuous
 62
     2
100
AcDbMText
 10
131.7094023213822
 20
-2119.104041014063
 30
0.0
 40
137.79527545
 41
1096.2992114802
 71
     3
 72
     1
  1
\U+6BD4\U+4F8B 1,000
 73
     1
 44
0.9
1001
ACAD
1000
MTEXTBEGIN
1070
    73
1070
     1
1070
    44
1040
0.9
1070
    74
1070
     0
1000
MTEXTEND
  0
LINE
  5
220
330
200
100
AcDbEntity
  8
0
  6
Continuous
 62
     7
100
AcDbLine
 10
-3068.154518300585
 20
1996.801492842832
 30
0.0
 11
-3146.894728192711
 21
1918.061282950706
 31
0.0
  0
LINE
  5
221
330
200
100
AcDbEntity
  8
0
  6
Continuous
 62
     7
100
AcDbLine
 10
-3146.894728192711
 20
-1861.466219757169
 30
0.0
 11
-3068.154518296648
 21
-1940.206403401263
 31
0.0
  0
LINE
  5
222
330
200
100
AcDbEntity
  8
0
  6
Continuous
 62
     7
100
AcDbLine
 10
-3146.894728192711
 20
1918.061282950706
 30
0.0
 11
-3146.894728192711
 21
1721.998330394785
 31
0.0
  0
LINE
  5
223
330
200
100
AcDbEntity
  8
0
  6
Continuous
 62
     7
100
AcDbLine
 10
-3146.894728192711
 20
-1665.403240953216
 30
0.0
 11
-3146.894728192711
 21
-1861.466219757169
 31
0.0
  0
LINE
  5
224
330
200
100
AcDbEntity
  8
0
  6
Continuous
 62
     7
100
AcDbLine
 10
-3040.595515702711
 20
1721.998330394785
 30
0.0
 11
-3040.595515702711
 21
-1665.403240953216
 31
0.0
  0
LINE
  5
225
330
200
100
AcDbEntity
  8
0
  6
Continuous
 62
     7
100
AcDbLine
 10
-3068.154518296648
 20
-1940.206403401263
 30
0.0
 11
3152.317863807289
 21
-1940.206403401263
 31
0.0
  0
LINE
  5
226
330
200
100
AcDbEntity
  8
0
  6
Continuous
 62
     7
100
AcDbLine
 10
-3040.595515702711
 20
-1665.403240953216
 30
0.0
 11
-3146.894728192711
 21
-1665.403240953216
 31
0.0
  0
LINE
  5
227
330
200
100
AcDbEntity
  8
0
  6
Continuous
 62
     7
100
AcDbLine
 10
3347.199753372291
 20
-1073.080426687307
 30
0.0
 11
3335.388729762291
 21
-1073.080426687307
 31
0.0
  0
LINE
  5
228
330
200
100
AcDbEntity
  8
0
  6
Continuous
 62
     7
100
AcDbLine
 10
2975.546210444291
 20
-1063.237907012306
 30
0.0
 11
2888.932037304289
 21
-1063.237907012306
 31
0.0
  0
LINE
  5
229
330
200
100
AcDbEntity
  8
0
  6
CENTER
 62
     6
 48
0.1
100
AcDbLine
 10
2788.144635832289
 20
-1051.426883402306
 30
0.0
 11
2872.228727529516
 21
-1051.426883402306
 31
0.0
  0
LINE
  5
22C
330
200
100
AcDbEntity
  8
0
  6
Continuous
 62
     7
100
AcDbLine
 10
2975.546210444291
 20
-1027.804836182306
 30
0.0
 11
2888.932037304289
 21
-1027.804836182306
 31
0.0
  0
LINE
  5
237
330
200
100
AcDbEntity
  8
0
  6
Continuous
 62
     7
100
AcDbLine
 10
2888.932037304289
 20
-553.3953878473057
 30
0.0
 11
2975.546210444291
 21
-553.3953878473057
 31
0.0
  0
LINE
  5
23A
330
200
100
AcDbEntity
  8
0
  6
CENTER
 62
     6
 48
0.1
100
AcDbLine
 10
3152.317863807289
 20
-529.7733406273055
 30
0.0
 11
2992.249520219063
 21
-529.7733406273055
 31
0.0
  0
LINE
  5
23B
330
200
100
AcDbEntity
  8
0
  6
Continuous
 62
     7
100
AcDbLine
 10
2975.546210444291
 20
-517.9623170173072
 30
0.0
 11
2888.932037304289
 21
-517.9623170173072
 31
0.0
  0
LINE
  5
23C
330
200
100
AcDbEntity
  8
0
  6
Continuous
 62
     7
100
AcDbLine
 10
3347.199753372291
 20
-508.1197973423077
 30
0.0
 11
3335.388729762291
 21
-508.1197973423077
 31
0.0
  0
LINE
  5
23D
330
200
100
AcDbEntity
  8
0
  6
CENTER
 62
     6
 48
0.1
100
AcDbLine
 10
2937.872588435471
 20
-37.79469081022762
 30
0.0
 11
3152.317863807289
 21
-37.79469081022762
 31
0.0
  0
LINE
  5
248
330
200
100
AcDbEntity
  8
0
  6
CENTER
 62
     6
 48
0.1
100
AcDbLine
 10
3152.317863807289
 20
729.9218438397747
 30
0.0
 11
2937.872588435471
 21
729.9218438397747
 31
0.0
  0
LINE
  5
249
330
200
100
AcDbEntity
  8
0
  6
Continuous
 62
     7
100
AcDbLine
 10
2843.506641752199
 20
816.8278466369539
 30
0.0
 11
2800.199549418419
 21
816.8278466369539
 31
0.0
  0
LINE
  5
24A
330
200
100
AcDbEntity
  8
0
  6
CENTER
 62
     6
 48
0.1
100
AcDbLine
 10
2522.246811772796
 20
836.5129342467971
 30
0.0
 11
2773.78928059997
 21
836.5129342467971
 31
0.0
  0
LINE
  5
24B
330
200
100
AcDbEntity
  8
0
  6
Continuous
 62
     7
100
AcDbLine
 10
2843.506641740388
 20
871.9459641830981
 30
0.0
 11
2800.199549430231
 21
871.9459641830981
 31
0.0
  0
LINE
  5
250
330
200
100
AcDbEntity
  8
0
  6
Continuous
 62
     7
100
AcDbLine
 10
2843.506641744324
 20
1427.064095518453
 30
0.0
 11
2800.199549418419
 21
1427.064095518453
 31
0.0
  0
LINE
  5
251
330
200
100
AcDbEntity
  8
0
  6
CENTER
 62
     6
 48
0.1
100
AcDbLine
 10
3152.317863807289
 20
1461.709784002798
 30
0.0
 11
2870.138979245207
 21
1461.709784002798
 31
0.0
  0
LINE
  5
252
330
200
100
AcDbEntity
  8
0
  6
Continuous
 62
     7
100
AcDbLine
 10
2843.50664174826
 20
1482.182213064594
 30
0.0
 11
2800.199549422355
 21
1482.182213064594
 31
0.0
  0
LINE
  5
253
330
200
100
AcDbEntity
  8
0
  6
Continuous
 62
     7
100
AcDbLine
 10
-3146.894728192711
 20
1721.998330394785
 30
0.0
 11
-3040.595515702711
 21
1721.998330394785
 31
0.0
  0
LINE
  5
254
330
200
100
AcDbEntity
  8
0
  6
Continuous
 62
     7
100
AcDbLine
 10
3152.317863807289
 20
1996.801492842832
 30
0.0
 11
-3068.154518300585
 21
1996.801492842832
 31
0.0
  0
LINE
  5
255
330
200
100
AcDbEntity
  8
0
  6
CENTER
 62
     6
 48
0.1
100
AcDbLine
 10
2522.246811772796
 20
1461.709784002798
 30
0.0
 11
2522.246811772796
 21
836.5129342467971
 31
0.0
  0
LINE
  5
256
330
200
100
AcDbEntity
  8
0
  6
CENTER
 62
     6
 48
0.1
100
AcDbLine
 10
2788.144635832289
 20
-529.7733406273055
 30
0.0
 11
2788.144635832289
 21
-1051.426883402306
 31
0.0
  0
LINE
  5
262
330
200
100
AcDbEntity
  8
0
  6
CENTER
 62
     6
 48
0.1
100
AcDbLine
 10
2937.872588435471
 20
729.9218438397747
 30
0.0
 11
2937.872588435471
 21
-37.79469081022762
 31
0.0
  0
LINE
  5
26A
330
200
100
AcDbEntity
  8
0
  6
Continuous
 62
     7
100
AcDbLine
 10
3152.317863807289
 20
-1940.206403401263
 30
0.0
 11
3152.317863807289
 21
1996.801492842832
 31
0.0
  0
LINE
  5
26B
330
200
100
AcDbEntity
  8
0
  6
Continuous
 62
     7
100
AcDbLine
 10
3335.388729762291
 20
-508.1197973423077
 30
0.0
 11
3335.388729762291
 21
-1073.080426687307
 31
0.0
  0
LINE
  5
26C
330
200
100
AcDbEntity
  8
0
  6
Continuous
 62
     7
100
AcDbLine
 10
3347.199753372291
 20
-508.1197973423077
 30
0.0
 11
3347.199753372291
 21
-1073.080426687307
 31
0.0
  0
LINE
  5
26F
330
200
100
AcDbEntity
  8
0
  6
Continuous
 62
     7
100
AcDbLine
 10
3364.766495952799
 20
836.5129342467971
 30
0.0
 11
3364.766495952799
 21
1461.709784002798
 31
0.0
  0
LINE
  5
270
330
200
100
AcDbEntity
  8
0
  6
Continuous
 62
     7
100
AcDbLine
 10
3390.628493485471
 20
-37.79469081022762
 30
0.0
 11
3390.628493485471
 21
729.9218438397747
 31
0.0
  0
LINE
  5
271
330
200
100
AcDbEntity
  8
0
  6
Continuous
 62
     7
100
AcDbLine
 10
3410.313532835472
 20
-37.79469081022762
 30
0.0
 11
3410.313532835472
 21
729.9218438397747
 31
0.0
  0
CIRCLE
  5
272
330
200
100
AcDbEntity
  8
0
  6
Continuous
 62
     7
100
AcDbCircle
 10
-2926.422287472711
 20
-1487.450485229216
 30
0.0
 40
55.11811017999995
  0
CIRCLE
  5
273
330
200
100
AcDbEntity
  8
0
  6
Continuous
 62
     7
100
AcDbCircle
 10
-2926.422287472711
 20
-188.237888129217
 30
0.0
 40
55.11811017999995
  0
CIRCLE
  5
274
330
200
100
AcDbEntity
  8
0
  6
Continuous
 62
     7
100
AcDbCircle
 10
-2826.422287574711
 20
-1187.844186322216
 30
0.0
 40
17.716535415
  0
CIRCLE
  5
275
330
200
100
AcDbEntity
  8
0
  6
Continuous
 62
     7
100
AcDbCircle
 10
-2826.422287574711
 20
-1287.844186220216
 30
0.0
 40
17.716535415
  0
CIRCLE
  5
276
330
200
100
AcDbEntity
  8
0
  6
Continuous
 62
     7
100
AcDbCircle
 10
-2826.422287574711
 20
-887.8441866282155
 30
0.0
 40
17.716535415
  0
CIRCLE
  5
277
330
200
100
AcDbEntity
  8
0
  6
Continuous
 62
     7
100
AcDbCircle
 10
-2826.422287574711
 20
-987.8441865262175
 30
0.0
 40
17.716535415
  0
CIRCLE
  5
278
330
200
100
AcDbEntity
  8
0
  6
Continuous
 62
     7
100
AcDbCircle
 10
-2826.422287574711
 20
-1087.844186424216
 30
0.0
 40
17.716535415
  0
CIRCLE
  5
279
330
200
100
AcDbEntity
  8
0
  6
Continuous
 62
     7
100
AcDbCircle
 10
-2726.422287672774
 20
-1187.844186322216
 30
0.0
 40
17.716535415
  0
CIRCLE
  5
27A
330
200
100
AcDbEntity
  8
0
  6
Continuous
 62
     7
100
AcDbCircle
 10
-2726.422287672774
 20
-1287.844186220216
 30
0.0
 40
17.716535415
  0
CIRCLE
  5
27B
330
200
100
AcDbEntity
  8
0
  6
Continuous
 62
     7
100
AcDbCircle
 10
-2726.422287672774
 20
-887.8441866282155
 30
0.0
 40
17.716535415
  0
CIRCLE
  5
27C
330
200
100
AcDbEntity
  8
0
  6
Continuous
 62
     7
100
AcDbCircle
 10
-2726.422287672774
 20
-987.8441865262175
 30
0.0
 40
17.716535415
  0
CIRCLE
  5
27D
330
200
100
AcDbEntity
  8
0
  6
Continuous
 62
     7
100
AcDbCircle
 10
-2726.422287672774
 20
-1087.844186424216
 30
0.0
 40
17.716535415
  0
CIRCLE
  5
27E
330
200
100
AcDbEntity
  8
0
  6
Continuous
 62
     7
100
AcDbCircle
 10
-2826.422287574711
 20
-687.844186832217
 30
0.0
 40
17.716535415
  0
CIRCLE
  5
27F
330
200
100
AcDbEntity
  8
0
  6
Continuous
 62
     7
100
AcDbCircle
 10
-2826.422287574711
 20
-787.8441867302154
 30
0.0
 40
17.716535415
  0
CIRCLE
  5
280
330
200
100
AcDbEntity
  8
0
  6
Continuous
 62
     7
100
AcDbCircle
 10
-2826.422287574711
 20
-387.8441871382165
 30
0.0
 40
17.716535415
  0
CIRCLE
  5
281
330
200
100
AcDbEntity
  8
0
  6
Continuous
 62
     7
100
AcDbCircle
 10
-2826.422287574711
 20
-487.8441870362166
 30
0.0
 40
17.716535415
  0
CIRCLE
  5
282
330
200
100
AcDbEntity
  8
0
  6
Continuous
 62
     7
100
AcDbCircle
 10
-2826.422287574711
 20
-587.844186934215
 30
0.0
 40
17.716535415
  0
CIRCLE
  5
283
330
200
100
AcDbEntity
  8
0
  6
Continuous
 62
     7
100
AcDbCircle
 10
-2726.422287672774
 20
-687.844186832217
 30
0.0
 40
17.716535415
  0
CIRCLE
  5
284
330
200
100
AcDbEntity
  8
0
  6
Continuous
 62
     7
100
AcDbCircle
 10
-2726.422287672774
 20
-787.8441867302154
 30
0.0
 40
17.716535415
  0
CIRCLE
  5
285
330
200
100
AcDbEntity
  8
0
  6
Continuous
 62
     7
100
AcDbCircle
 10
-2726.422287672774
 20
-387.8441871382165
 30
0.0
 40
17.716535415
  0
CIRCLE
  5
286
330
200
100
AcDbEntity
  8
0
  6
Continuous
 62
     7
100
AcDbCircle
 10
-2726.422287672774
 20
-487.8441870362166
 30
0.0
 40
17.716535415
  0
CIRCLE
  5
287
330
200
100
AcDbEntity
  8
0
  6
Continuous
 62
     7
100
AcDbCircle
 10
-2726.422287672774
 20
-587.844186934215
 30
0.0
 40
17.716535415
  0
CIRCLE
  5
288
330
200
100
AcDbEntity
  8
0
  6
Continuous
 62
     7
100
AcDbCircle
 10
-2926.422287472711
 20
244.8329775707825
 30
0.0
 40
55.11811017999995
  0
CIRCLE
  5
289
330
200
100
AcDbEntity
  8
0
  6
Continuous
 62
     7
100
AcDbCircle
 10
-2926.422287472711
 20
1544.045574670785
 30
0.0
 40
55.11811017999995
  0
CIRCLE
  5
28A
330
200
100
AcDbEntity
  8
0
  6
Continuous
 62
     7
100
AcDbCircle
 10
-2826.422287574711
 20
544.4392764777822
 30
0.0
 40
17.716535415
  0
CIRCLE
  5
28B
330
200
100
AcDbEntity
  8
0
  6
Continuous
 62
     7
100
AcDbCircle
 10
-2826.422287574711
 20
444.4392765797838
 30
0.0
 40
17.716535415
  0
CIRCLE
  5
28C
330
200
100
AcDbEntity
  8
0
  6
Continuous
 62
     7
100
AcDbCircle
 10
-2826.422287574711
 20
844.4392761717827
 30
0.0
 40
17.716535415
  0
CIRCLE
  5
28D
330
200
100
AcDbEntity
  8
0
  6
Continuous
 62
     7
100
AcDbCircle
 10
-2826.422287574711
 20
744.4392762737843
 30
0.0
 40
17.716535415
  0
CIRCLE
  5
28E
330
200
100
AcDbEntity
  8
0
  6
Continuous
 62
     7
100
AcDbCircle
 10
-2826.422287574711
 20
644.4392763757841
 30
0.0
 40
17.716535415
  0
CIRCLE
  5
28F
330
200
100
AcDbEntity
  8
0
  6
Continuous
 62
     7
100
AcDbCircle
 10
-2726.422287672774
 20
544.4392764777822
 30
0.0
 40
17.716535415
  0
CIRCLE
  5
290
330
200
100
AcDbEntity
  8
0
  6
Continuous
 62
     7
100
AcDbCircle
 10
-2726.422287672774
 20
444.4392765797838
 30
0.0
 40
17.716535415
  0
CIRCLE
  5
291
330
200
100
AcDbEntity
  8
0
  6
Continuous
 62
     7
100
AcDbCircle
 10
-2726.422287672774
 20
844.4392761717827
 30
0.0
 40
17.716535415
  0
CIRCLE
  5
292
330
200
100
AcDbEntity
  8
0
  6
Continuous
 62
     7
100
AcDbCircle
 10
-2726.422287672774
 20
744.4392762737843
 30
0.0
 40
17.716535415
  0
CIRCLE
  5
293
330
200
100
AcDbEntity
  8
0
  6
Continuous
 62
     7
100
AcDbCircle
 10
-2726.422287672774
 20
644.4392763757841
 30
0.0
 40
17.716535415
  0
CIRCLE
  5
294
330
200
100
AcDbEntity
  8
0
  6
Continuous
 62
     7
100
AcDbCircle
 10
-2826.422287574711
 20
1044.439275967785
 30
0.0
 40
17.716535415
  0
CIRCLE
  5
295
330
200
100
AcDbEntity
  8
0
  6
Continuous
 62
     7
100
AcDbCircle
 10
-2826.422287574711
 20
944.4392760697846
 30
0.0
 40
17.716535415
  0
CIRCLE
  5
296
330
200
100
AcDbEntity
  8
0
  6
Continuous
 62
     7
100
AcDbCircle
 10
-2826.422287574711
 20
1344.439275661785
 30
0.0
 40
17.716535415
  0
CIRCLE
  5
297
330
200
100
AcDbEntity
  8
0
  6
Continuous
 62
     7
100
AcDbCircle
 10
-2826.422287574711
 20
1244.439275763783
 30
0.0
 40
17.716535415
  0
CIRCLE
  5
298
330
200
100
AcDbEntity
  8
0
  6
Continuous
 62
     7
100
AcDbCircle
 10
-2826.422287574711
 20
1144.439275865783
 30
0.0
 40
17.716535415
  0
CIRCLE
  5
299
330
200
100
AcDbEntity
  8
0
  6
Continuous
 62
     7
100
AcDbCircle
 10
-2726.422287672774
 20
1044.439275967785
 30
0.0
 40
17.716535415
  0
CIRCLE
  5
29A
330
200
100
AcDbEntity
  8
0
  6
Continuous
 62
     7
100
AcDbCircle
 10
-2726.422287672774
 20
944.4392760697846
 30
0.0
 40
17.716535415
  0
CIRCLE
  5
29B
330
200
100
AcDbEntity
  8
0
  6
Continuous
 62
     7
100
AcDbCircle
 10
-2726.422287672774
 20
1344.439275661785
 30
0.0
 40
17.716535415
  0
CIRCLE
  5
29C
330
200
100
AcDbEntity
  8
0
  6
Continuous
 62
     7
100
AcDbCircle
 10
-2726.422287672774
 20
1244.439275763783
 30
0.0
 40
17.716535415
  0
CIRCLE
  5
29D
330
200
100
AcDbEntity
  8
0
  6
Continuous
 62
     7
100
AcDbCircle
 10
-2726.422287672774
 20
1144.439275865783
 30
0.0
 40
17.716535415
  0
CIRCLE
  5
29E
330
200
100
AcDbEntity
  8
0
  6
Continuous
 62
     7
100
AcDbCircle
 10
3011.76668284829
 20
-1721.702466616263
 30
0.0
 40
55.11811017999995
  0
CIRCLE
  5
29F
330
200
100
AcDbEntity
  8
0
  6
Continuous
 62
     7
100
AcDbCircle
 10
2819.64069879229
 20
-928.3953874648068
 30
0.0
 40
19.68503935
  0
CIRCLE
  5
2A0
330
200
100
AcDbEntity
  8
0
  6
Continuous
 62
     7
100
AcDbCircle
 10
2819.64069879229
 20
-829.9701907148063
 30
0.0
 40
19.68503935
  0
CIRCLE
  5
2A1
330
200
100
AcDbEntity
  8
0
  6
Continuous
 62
     7
100
AcDbCircle
 10
2819.64069879229
 20
-751.2300333148068
 30
0.0
 40
19.68503935
  0
CIRCLE
  5
2A2
330
200
100
AcDbEntity
  8
0
  6
Continuous
 62
     7
100
AcDbCircle
 10
2819.64069879229
 20
-652.8048365648064
 30
0.0
 40
19.68503935
  0
ARC
  5
2A3
330
200
100
AcDbEntity
  8
0
  6
Continuous
 62
     7
100
AcDbCircle
 10
2975.546210444291
 20
-535.6788524323073
 30
0.0
 40
17.716535415
100
AcDbArc
 50
270.0
 51
90.0
  0
ARC
  5
2A4
330
200
100
AcDbEntity
  8
0
  6
Continuous
 62
     7
100
AcDbCircle
 10
2888.932037304289
 20
-535.6788524323073
 30
0.0
 40
17.716535415
100
AcDbArc
 50
90.0
 51
270.0
  0
ARC
  5
2A5
330
200
100
AcDbEntity
  8
0
  6
Continuous
 62
     7
100
AcDbCircle
 10
2888.932037304289
 20
-1045.521371597306
 30
0.0
 40
17.716535415
100
AcDbArc
 50
90.0
 51
270.0
  0
ARC
  5
2A6
330
200
100
AcDbEntity
  8
0
  6
Continuous
 62
     7
100
AcDbCircle
 10
2975.546210444291
 20
-1045.521371597306
 30
0.0
 40
17.716535415
100
AcDbArc
 50
270.0
 51
90.0
  0
ARC
  5
2A8
330
200
100
AcDbEntity
  8
0
  6
Continuous
 62
     7
100
AcDbCircle
 10
2843.506641764009
 20
844.386905411995
 30
0.0
 40
27.55905877110236
100
AcDbArc
 50
269.9999999795001
 51
90.00000005729992
  0
ARC
  5
2A9
330
200
100
AcDbEntity
  8
0
  6
Continuous
 62
     7
100
AcDbCircle
 10
2800.199549406608
 20
844.386905411995
 30
0.0
 40
27.55905877110236
100
AcDbArc
 50
89.99999995500028
 51
270.0000000319993
  0
CIRCLE
  5
2AA
330
200
100
AcDbEntity
  8
0
  6
Continuous
 62
     7
100
AcDbCircle
 10
2584.845190145953
 20
974.5050066493531
 30
0.0
 40
23.6220503735433
  0
CIRCLE
  5
2AB
330
200
100
AcDbEntity
  8
0
  6
Continuous
 62
     7
100
AcDbCircle
 10
2684.84520340616
 20
1024.505013279455
 30
0.0
 40
23.62205037748031
  0
CIRCLE
  5
2AC
330
200
100
AcDbEntity
  8
0
  6
Continuous
 62
     7
100
AcDbCircle
 10
2584.845190145953
 20
1074.505019909558
 30
0.0
 40
23.6220503735433
  0
CIRCLE
  5
2AD
330
200
100
AcDbEntity
  8
0
  6
Continuous
 62
     7
100
AcDbCircle
 10
2584.845190145953
 20
1174.505033165826
 30
0.0
 40
23.6220503735433
  0
CIRCLE
  5
2AE
330
200
100
AcDbEntity
  8
0
  6
Continuous
 62
     7
100
AcDbCircle
 10
2684.84520340616
 20
1224.505039795927
 30
0.0
 40
23.62205037748031
  0
CIRCLE
  5
2AF
330
200
100
AcDbEntity
  8
0
  6
Continuous
 62
     7
100
AcDbCircle
 10
2684.84520340616
 20
1124.505026535724
 30
0.0
 40
23.62205037748031
  0
CIRCLE
  5
2B0
330
200
100
AcDbEntity
  8
0
  6
Continuous
 62
     7
100
AcDbCircle
 10
2584.845190145953
 20
1274.505046422095
 30
0.0
 40
23.6220503735433
  0
CIRCLE
  5
2B1
330
200
100
AcDbEntity
  8
0
  6
Continuous
 62
     7
100
AcDbCircle
 10
2684.84520340616
 20
1324.505053052196
 30
0.0
 40
23.62205037748031
  0
ARC
  5
2B3
330
200
100
AcDbEntity
  8
0
  6
Continuous
 62
     7
100
AcDbCircle
 10
2843.506641764009
 20
1454.623154293493
 30
0.0
 40
27.55905877110236
100
AcDbArc
 50
269.9999999795994
 51
90.00000007749939
  0
ARC
  5
2B4
330
200
100
AcDbEntity
  8
0
  6
Continuous
 62
     7
100
AcDbCircle
 10
2800.199549406608
 20
1454.623154293493
 30
0.0
 40
27.55905877110236
100
AcDbArc
 50
89.99999997959937
 51
270.0000000319993
  0
CIRCLE
  5
2B5
330
200
100
AcDbEntity
  8
0
  6
Continuous
 62
     7
100
AcDbCircle
 10
2996.927706485472
 20
245.4097831371255
 30
0.0
 40
23.62204722
  0
CIRCLE
  5
2B6
330
200
100
AcDbEntity
  8
0
  6
Continuous
 62
     7
100
AcDbCircle
 10
2996.927706485472
 20
445.4097829331258
 30
0.0
 40
23.62204722
  0
ARC
  5
2BA
330
200
100
AcDbEntity
  8
0
  6
Continuous
 62
     7
100
AcDbCircle
 10
2934.845236548797
 20
923.7176585672987
 30
0.0
 40
48.62093115119406
100
AcDbArc
 50
270.0204425499999
 51
90.00008040670008
  0
CIRCLE
  5
2BC
330
200
100
AcDbEntity
  8
0
  6
Continuous
 62
     7
100
AcDbCircle
 10
3127.758622178796
 20
888.2845877372984
 30
0.0
 40
20.078740137
  0
CIRCLE
  5
2BD
330
200
100
AcDbEntity
  8
0
  6
Continuous
 62
     7
100
AcDbCircle
 10
3127.758622178796
 20
988.2845876352986
 30
0.0
 40
20.078740137
  0
CIRCLE
  5
2C1
330
200
100
AcDbEntity
  8
0
  6
Continuous
 62
     7
100
AcDbCircle
 10
3011.76668284829
 20
1778.297556061769
 30
0.0
 40
55.11811017999995
  0
ARC
  5
2C2
330
200
100
AcDbEntity
  8
0
  6
Continuous
 62
     7
100
AcDbCircle
 10
2934.845236548797
 20
1374.505059682298
 30
0.0
 40
48.62093115119406
100
AcDbArc
 50
270.0204425525994
 51
90.00007729570041
  0
CIRCLE
  5
2C4
330
200
100
AcDbEntity
  8
0
  6
Continuous
 62
     7
100
AcDbCircle
 10
3127.758622178796
 20
1409.938130512297
 30
0.0
 40
20.078740137
  0
CIRCLE
  5
2C5
330
200
100
AcDbEntity
  8
0
  6
Continuous
 62
     7
100
AcDbCircle
 10
3127.758622178796
 20
1309.938130614298
 30
0.0
 40
20.078740137
  0
SPLINE
  5
2C8
330
200
100
AcDbEntity
  8
0
  6
Continuous
 62
     7
100
AcDbSpline
210
0.0
220
0.0
230
1.0
 70
     8
 71
     3
 72
    80
 73
    76
 74
     0
 42
0.0000000001
 43
0.0000000001
 40
0.0
 40
0.0
 40
0.0
 40
0.0
 40
0.0030541401
 40
0.0100062666
 40
0.0175929085
 40
0.0246775293
 40
0.030441677
 40
0.0356692176
 40
0.0406098837
 40
0.045729855
 40
0.0514526177
 40
0.0578002607
 40
0.0645914489
 40
0.0720908074
 40
0.0810817422
 40
0.0919317643
 40
0.1050429705
 40
0.1220150311
 40
0.1415436491
 40
0.1637019193
 40
0.190076394
 40
0.2102592918
 40
0.2340437852
 40
0.2604064205999999
 40
0.2873090423
 40
0.3206385685
 40
0.3634224576
 40
0.4030893223
 40
0.4460825659000001
 40
0.49052115
 40
0.5337451246000003
 40
0.5680853654
 40
0.6011344781
 40
0.6420547540000002
 40
0.6758831127000003
 40
0.7014262465000001
 40
0.7231567931999999
 40
0.7431247367
 40
0.7711070944000003
 40
0.7904728663
 40
0.8065778568
 40
0.8214476456999999
 40
0.8345048224999999
 40
0.8471242094
 40
0.8617588506999997
 40
0.8738364212999998
 40
0.8839530979999999
 40
0.8928684555
 40
0.9017523836
 40
0.9103806943000002
 40
0.9198208766
 40
0.9300743655999999
 40
0.9376543788999999
 40
0.9437926896
 40
0.9492890709
 40
0.9543448386999999
 40
0.9588525804999999
 40
0.9627134378999999
 40
0.9659755866000001
 40
0.9687432108999999
 40
0.9711547674
 40
0.9733269620999999
 40
0.9753614653999999
 40
0.9773388508
 40
0.9793155602
 40
0.9813202357999999
 40
0.9833825558
 40
0.9855320477999999
 40
0.9878337264
 40
0.9902632119999999
 40
0.9925700915
 40
0.9949336108
 40
0.9968198901999999
 40
0.9985809217999999
 40
1.0
 40
1.0
 40
1.0
 40
1.0
 10
2934.845168316512
 20
972.3385895413267
 30
0.0
 10
2934.736498997728
 20
972.4477611829479
 30
0.0
 10
2934.165673911694
 20
972.4457224546076
 30
0.0
 10
2933.327267936168
 20
972.5160562852398
 30
0.0
 10
2932.219734331001
 20
972.4535676002652
 30
0.0
 10
2931.19645486748
 20
972.3770267263279
 30
0.0
 10
2930.288341415649
 20
972.2854309232698
 30
0.0
 10
2929.490202727487
 20
972.1939833013166
 30
0.0
 10
2928.725504381811
 20
972.0944091911825
 30
0.0
 10
2927.937717197575
 20
971.9800150771261
 30
0.0
 10
2927.081049623644
 20
971.846395360726
 30
0.0
 10
2926.142855541923
 20
971.688908687658
 30
0.0
 10
2925.119126042969
 20
971.5002639555677
 30
0.0
 10
2923.969901721307
 20
971.2584522589622
 30
0.0
 10
2922.630275218738
 20
970.930671334103
 30
0.0
 10
2921.026276755806
 20
970.4952470471434
 30
0.0
 10
2919.052066423173
 20
969.8878062524872
 30
0.0
 10
2916.72087259878
 20
968.9712303124778
 30
0.0
 10
2914.045937695997
 20
967.7033624751894
 30
0.0
 10
2911.023480541601
 20
966.0742530477163
 30
0.0
 10
2908.045982906842
 20
964.2954110140962
 30
0.0
 10
2905.132618043669
 20
962.268031622465
 30
0.0
 10
2902.366720755154
 20
960.0361538137185
 30
0.0
 10
2899.667299529561
 20
957.2303913480755
 30
0.0
 10
2896.865409937928
 20
953.8755070680345
 30
0.0
 10
2893.921146196838
 20
949.5862840133522
 30
0.0
 10
2890.993781896675
 20
944.5241365578876
 30
0.0
 10
2888.425237655201
 20
938.7259596819113
 30
0.0
 10
2886.723672412841
 20
932.5086806961262
 30
0.0
 10
2886.184703283467
 20
925.9137886595453
 30
0.0
 10
2886.332434799067
 20
919.7585291736995
 30
0.0
 10
2886.900636463844
 20
914.1965339785857
 30
0.0
 10
2888.303983785246
 20
908.8888462556514
 30
0.0
 10
2890.581411027016
 20
903.9352690874748
 30
0.0
 10
2892.941184044295
 20
899.4585902495218
 30
0.0
 10
2895.146293766456
 20
896.0098574341428
 30
0.0
 10
2897.094246343209
 20
893.2315765354033
 30
0.0
 10
2899.328797829118
 20
890.5147380932922
 30
0.0
 10
2901.684854275533
 20
888.0654507572071
 30
0.0
 10
2904.064532989641
 20
885.9186581885296
 30
0.0
 10
2906.120035054474
 20
884.4240029774573
 30
0.0
 10
2907.959607698266
 20
883.179889014158
 30
0.0
 10
2909.693572889411
 20
882.0947899089659
 30
0.0
 10
2911.452946308878
 20
881.0753260517376
 30
0.0
 10
2913.200072503946
 20
880.1348789503354
 30
0.0
 10
2914.867939679408
 20
879.3162012897537
 30
0.0
 10
2916.301404579526
 20
878.6776483415851
 30
0.0
 10
2917.603143672682
 20
878.1404029208733
 30
0.0
 10
2918.855633230459
 20
877.6835604803945
 30
0.0
 10
2920.145139130721
 20
877.2530263666613
 30
0.0
 10
2921.512148900981
 20
876.8379124851907
 30
0.0
 10
2922.839100253957
 20
876.4750401391083
 30
0.0
 10
2924.010196099219
 20
876.1742434425633
 30
0.0
 10
2924.954690082504
 20
875.9568097853062
 30
0.0
 10
2925.778772668279
 20
875.7848390768195
 30
0.0
 10
2926.524642777758
 20
875.6412010415315
 30
0.0
 10
2927.190812446367
 20
875.5201754196095
 30
0.0
 10
2927.768818914284
 20
875.4200794905791
 30
0.0
 10
2928.261030224804
 20
875.3389950064084
 30
0.0
 10
2928.681703283429
 20
875.2734509395468
 30
0.0
 10
2929.048538657074
 20
875.2195452742489
 30
0.0
 10
2929.379181349649
 20
875.1737466876802
 30
0.0
 10
2929.688518569804
 20
875.1338273452002
 30
0.0
 10
2929.988425128554
 20
875.0979722507491
 30
0.0
 10
2930.287161868409
 20
875.0651031484212
 30
0.0
 10
2930.59055057282
 20
875.0355257114424
 30
0.0
 10
2930.903026820534
 20
875.0096670972961
 30
0.0
 10
2931.230841339885
 20
874.9880078807837
 30
0.0
 10
2931.577514280477
 20
874.9717969359171
 30
0.0
 10
2931.932438780115
 20
874.9635111485222
 30
0.0
 10
2932.2905286577
 20
874.9651924083647
 30
0.0
 10
2932.621226999884
 20
874.9750666524487
 30
0.0
 10
2932.923442212175
 20
874.9969002862853
 30
0.0
 10
2933.178540723725
 20
875.020465069725
 30
0.0
 10
2933.332411034592
 20
875.074908668097
 30
0.0
 10
2933.394633817993
 20
875.110276372783
 30
0.0
  0
SPLINE
  5
2C9
330
200
100
AcDbEntity
  8
0
  6
Continuous
 62
     7
100
AcDbSpline
210
0.0
220
0.0
230
1.0
 70
     8
 71
     3
 72
    10
 73
     6
 74
     0
 42
0.0000000001
 43
0.0000000001
 40
0.0
 40
0.0
 40
0.0
 40
0.0
 40
0.3305301154
 40
0.6603884907000001
 40
1.0
 40
1.0
 40
1.0
 40
1.0
 10
2934.862585265314
 20
875.093189565714
 30
0.0
 10
2934.700902840282
 20
875.0978807192533
 30
0.0
 10
2934.377767104391
 20
875.1052716050708
 30
0.0
 10
2933.88837692379
 20
875.1003576641306
 30
0.0
 10
2933.560786931997
 20
875.1065631798738
 30
0.0
 10
2933.394633817993
 20
875.110276372783
 30
0.0
  0
SPLINE
  5
2CA
330
200
100
AcDbEntity
  8
0
  6
Continuous
 62
     7
100
AcDbSpline
210
0.0
220
0.0
230
1.0
 70
     8
 71
     3
 72
    78
 73
    74
 74
     0
 42
0.0000000001
 43
0.0000000001
 40
0.0
 40
0.0
 40
0.0
 40
0.0
 40
0.0034323263
 40
0.0110512871
 40
0.0190490562
 40
0.0266551248
 40
0.0327133307
 40
0.0382699549
 40
0.0439357336
 40
0.0503291196
 40
0.0574297881
 40
0.0649911694
 40
0.0733391507
 40
0.0831561026
 40
0.0950938381
 40
0.1097358558
 40
0.127091949
 40
0.1473325901
 40
0.1715295911
 40
0.1934625202
 40
0.2139373538
 40
0.2406023073
 40
0.2674391123
 40
0.2978519805
 40
0.3381993479999999
 40
0.3736782127
 40
0.4138434365000001
 40
0.4551798932000001
 40
0.4995547734000001
 40
0.5413280205
 40
0.5754348203000001
 40
0.6146863177000002
 40
0.6552037575
 40
0.6849684012
 40
0.7090583031000001
 40
0.7282134033
 40
0.7544168696
 40
0.7796227278
 40
0.7974757369
 40
0.8132044301
 40
0.8263225053000001
 40
0.8380567238999997
 40
0.8524975129000001
 40
0.8665385423
 40
0.878503809
 40
0.8877999146
 40
0.8956266095
 40
0.9044802981
 40
0.9130391309999998
 40
0.9251710055
 40
0.9342598720999999
 40
0.9411459604999999
 40
0.9469669593
 40
0.9522679187000001
 40
0.9570904609999999
 40
0.9612751711000001
 40
0.9648178095999998
 40
0.967807215
 40
0.9703786639
 40
0.9726643090999999
 40
0.9747695167999999
 40
0.9767798130999999
 40
0.9787637213
 40
0.9807644712000001
 40
0.9828148234
 40
0.9849514736999999
 40
0.9873099329999998
 40
0.9898399613999997
 40
0.9922625852999999
 40
0.9947261762
 40
0.9966682247000001
 40
0.9985544670999999
 40
1.0
 40
1.0
 40
1.0
 40
1.0
 10
2934.845170958247
 20
1423.125990640579
 30
0.0
 10
2934.714564064679
 20
1423.239608616841
 30
0.0
 10
2934.097135006249
 20
1423.239744817629
 30
0.0
 10
2933.179260826087
 20
1423.302066931737
 30
0.0
 10
2931.99413492572
 20
1423.227499636539
 30
0.0
 10
2930.909213548875
 20
1423.137964451589
 30
0.0
 10
2929.944292124662
 20
1423.035940487129
 30
0.0
 10
2929.079323873573
 20
1422.930215743141
 30
0.0
 10
2928.19945719337
 20
1422.806331668463
 30
0.0
 10
2927.24424495025
 20
1422.660148428455
 30
0.0
 10
2926.196570734784
 20
1422.486419306586
 30
0.0
 10
2925.055303239887
 20
1422.27538736192
 30
0.0
 10
2923.786223075825
 20
1422.004201401565
 30
0.0
 10
2922.312563482839
 20
1421.638033488552
 30
0.0
 10
2920.544449665745
 20
1421.143289111105
 30
0.0
 10
2918.438882738758
 20
1420.449008288979
 30
0.0
 10
2915.997040406606
 20
1419.451711703381
 30
0.0
 10
2913.214543948811
 20
1418.043876378046
 30
0.0
 10
2910.278482164406
 20
1416.434570155277
 30
0.0
 10
2907.419698053148
 20
1414.667578117711
 30
0.0
 10
2904.566717658422
 20
1412.662505111881
 30
0.0
 10
2901.747991121926
 20
1410.206228712814
 30
0.0
 10
2898.833168711514
 20
1407.128791775007
 30
0.0
 10
2895.824181604345
 20
1403.225624507335
 30
0.0
 10
2892.890617343558
 20
1398.73157533869
 30
0.0
 10
2890.172353314835
 20
1393.545917406971
 30
0.0
 10
2887.906692002186
 20
1388.076770180265
 30
0.0
 10
2886.543591885466
 20
1381.842411631507
 30
0.0
 10
2886.154508397675
 20
1375.403340882169
 30
0.0
 10
2886.443390432812
 20
1369.345314660002
 30
0.0
 10
2887.090828467585
 20
1363.549665236778
 30
0.0
 10
2889.014243351451
 20
1358.097970628167
 30
0.0
 10
2891.361175049843
 20
1353.094451956105
 30
0.0
 10
2893.749347661581
 20
1348.971834554801
 30
0.0
 10
2895.753137986309
 20
1345.8817594674
 30
0.0
 10
2897.818837283415
 20
1343.048392596274
 30
0.0
 10
2900.202193221926
 20
1340.400204969053
 30
0.0
 10
2902.654180904466
 20
1337.905908522778
 30
0.0
 10
2904.960732661956
 20
1336.035599993191
 30
0.0
 10
2906.886988805661
 20
1334.679183718983
 30
0.0
 10
2908.59790478423
 20
1333.555188787059
 30
0.0
 10
2910.292978774628
 20
1332.527834984958
 30
0.0
 10
2912.058415792512
 20
1331.528651289127
 30
0.0
 10
2913.866272940274
 20
1330.582215640486
 30
0.0
 10
2915.479680800832
 20
1329.828320751492
 30
0.0
 10
2916.823620149856
 20
1329.23954885839
 30
0.0
 10
2918.042926951762
 20
1328.75924513447
 30
0.0
 10
2919.245138690693
 20
1328.340298272695
 30
0.0
 10
2920.660340956967
 20
1327.873363198367
 30
0.0
 10
2922.105155652343
 20
1327.461630659416
 30
0.0
 10
2923.475140686379
 20
1327.097358998371
 30
0.0
 10
2924.543202480564
 20
1326.836754313597
 30
0.0
 10
2925.43059404265
 20
1326.642941282298
 30
0.0
 10
2926.219230589092
 20
1326.485511034429
 30
0.0
 10
2926.928741249786
 20
1326.353686034563
 30
0.0
 10
2927.552065568048
 20
1326.243637743337
 30
0.0
 10
2928.08510796514
 20
1326.15410600327
 30
0.0
 10
2928.538554956805
 20
1326.082004420665
 30
0.0
 10
2928.929940420973
 20
1326.023421566397
 30
0.0
 10
2929.27764568046
 20
1325.974358597941
 30
0.0
 10
2929.597708581708
 20
1325.932039511372
 30
0.0
 10
2929.903063979033
 20
1325.894695727944
 30
0.0
 10
2930.203531108649
 20
1325.860894397268
 30
0.0
 10
2930.506375415428
 20
1325.830300393363
 30
0.0
 10
2930.817296525346
 20
1325.80328586977
 30
0.0
 10
2931.146608351782
 20
1325.779932598139
 30
0.0
 10
2931.500471465594
 20
1325.76159942493
 30
0.0
 10
2931.86911883136
 20
1325.751187302892
 30
0.0
 10
2932.243181165624
 20
1325.751678200531
 30
0.0
 10
2932.587567476297
 20
1325.761075976112
 30
0.0
 10
2932.904085184636
 20
1325.782754846168
 30
0.0
 10
2933.169471487513
 20
1325.805764153232
 30
0.0
 10
2933.331748306245
 20
1325.860790105931
 30
0.0
 10
2933.394633817993
 20
1325.897677487783
 30
0.0
  0
SPLINE
  5
2CB
330
200
100
AcDbEntity
  8
0
  6
Continuous
 62
     7
100
AcDbSpline
210
0.0
220
0.0
230
1.0
 70
     8
 71
     3
 72
    10
 73
     6
 74
     0
 42
0.0000000001
 43
0.0000000001
 40
0.0
 40
0.0
 40
0.0
 40
0.0
 40
0.3305301164
 40
0.6603884912
 40
1.0
 40
1.0
 40
1.0
 40
1.0
 10
2934.862585269252
 20
1325.880590680714
 30
0.0
 10
2934.70090284422
 20
1325.885281834253
 30
0.0
 10
2934.377767104391
 20
1325.892672720069
 30
0.0
 10
2933.88837692379
 20
1325.88775877913
 30
0.0
 10
2933.560786931997
 20
1325.893964294873
 30
0.0
 10
2933.394633817993
 20
1325.897677487783
 30
0.0
  0
LINE
  5
339
330
200
100
AcDbEntity
  8
0
  6
CENTER
 62
     6
 48
0.1
100
AcDbLine
 10
2869.916910570647
 20
836.5129342467971
 30
0.0
 11
3152.317863807285
 21
836.5129342467971
 31
0.0
  0
LINE
  5
33C
330
200
100
AcDbEntity
  8
0
  6
CENTER
 62
     6
 48
0.1
100
AcDbLine
 10
2773.567211925406
 20
1461.709784002798
 30
0.0
 11
2522.246811772796
 21
1461.709784002798
 31
0.0
  0
LINE
  5
33D
330
200
100
AcDbEntity
  8
0
100
AcDbLine
 10
3364.766495952799
 20
1461.709784002798
 30
0.0
 11
3152.317863807289
 21
1461.709784002798
 31
0.0
  0
LINE
  5
33E
330
200
100
AcDbEntity
  8
0
100
AcDbLine
 10
3364.766495952799
 20
836.5129342467971
 30
0.0
 11
3152.317863807285
 21
836.5129342467971
 31
0.0
  0
LINE
  5
33F
330
200
100
AcDbEntity
  8
0
100
AcDbLine
 10
3152.317863807289
 20
729.9218438397747
 30
0.0
 11
3410.313532835472
 21
729.9218438397747
 31
0.0
  0
LINE
  5
340
330
200
100
AcDbEntity
  8
0
100
AcDbLine
 10
3152.317863807289
 20
-37.79469081022762
 30
0.0
 11
3410.313532835472
 21
-37.79469081022398
 31
0.0
  0
LINE
  5
341
330
200
100
AcDbEntity
  8
0
  6
CENTER
 62
     6
 48
0.1
100
AcDbLine
 10
2872.228727529516
 20
-529.7733406273055
 30
0.0
 11
2788.144635832289
 21
-529.7733406273055
 31
0.0
  0
LINE
  5
342
330
200
100
AcDbEntity
  8
0
  6
CENTER
 62
     6
 48
0.1
100
AcDbLine
 10
2992.249520219063
 20
-1051.426883402306
 30
0.0
 11
3152.317863807289
 21
-1051.426883402306
 31
0.0
  0
LINE
  5
343
330
200
100
AcDbEntity
  8
0
100
AcDbLine
 10
3152.317863807289
 20
-529.7733406273055
 30
0.0
 11
3335.388729762291
 21
-529.7733406273055
 31
0.0
  0
LINE
  5
344
330
200
100
AcDbEntity
  8
0
100
AcDbLine
 10
3152.317863807289
 20
-1051.426883402306
 30
0.0
 11
3335.388729762291
 21
-1051.426883402306
 31
0.0
  0
LINE
  5
4B7
330
200
100
AcDbEntity
  8
0
  6
CENTER
 62
     1
 48
0.1
100
AcDbLine
 10
-2818.09644555255
 20
444.4392765797838
 30
0.0
 11
-2634.748129800872
 21
444.4392765797838
 31
0.0
  0
LINE
  5
4B8
330
200
100
AcDbEntity
  8
0
  6
CENTER
 62
     1
 48
0.1
100
AcDbLine
 10
-2726.422287676715
 20
352.7651187039483
 30
0.0
 11
-2726.422287676715
 21
536.113434455623
 31
0.0
  0
LINE
  5
4B9
330
200
100
AcDbEntity
  8
0
  6
CENTER
 62
     1
 48
0.1
100
AcDbLine
 10
-2918.096445450551
 20
444.4392765797838
 30
0.0
 11
-2734.748129698877
 21
444.4392765797838
 31
0.0
  0
LINE
  5
4BA
330
200
100
AcDbEntity
  8
0
  6
CENTER
 62
     1
 48
0.1
100
AcDbLine
 10
-2826.422287574714
 20
352.7651187039483
 30
0.0
 11
-2826.422287574714
 21
536.113434455623
 31
0.0
  0
LINE
  5
4BB
330
200
100
AcDbEntity
  8
0
  6
CENTER
 62
     1
 48
0.1
100
AcDbLine
 10
-2918.096445450551
 20
544.4392764777822
 30
0.0
 11
-2734.748129698877
 21
544.4392764777822
 31
0.0
  0
LINE
  5
4BC
330
200
100
AcDbEntity
  8
0
  6
CENTER
 62
     1
 48
0.1
100
AcDbLine
 10
-2826.422287574714
 20
452.7651186019466
 30
0.0
 11
-2826.422287574714
 21
636.1134343536195
 31
0.0
  0
LINE
  5
4BD
330
200
100
AcDbEntity
  8
0
  6
CENTER
 62
     1
 48
0.1
100
AcDbLine
 10
-2818.09644555255
 20
544.4392764777822
 30
0.0
 11
-2634.748129800872
 21
544.4392764777822
 31
0.0
  0
LINE
  5
4BE
330
200
100
AcDbEntity
  8
0
  6
CENTER
 62
     1
 48
0.1
100
AcDbLine
 10
-2726.422287676715
 20
452.7651186019466
 30
0.0
 11
-2726.422287676715
 21
636.1134343536195
 31
0.0
  0
LINE
  5
4BF
330
200
100
AcDbEntity
  8
0
  6
CENTER
 62
     1
 48
0.1
100
AcDbLine
 10
-2818.09644555255
 20
644.4392763757841
 30
0.0
 11
-2634.748129800872
 21
644.4392763757841
 31
0.0
  0
LINE
  5
4C0
330
200
100
AcDbEntity
  8
0
  6
CENTER
 62
     1
 48
0.1
100
AcDbLine
 10
-2918.096445450551
 20
644.4392763757841
 30
0.0
 11
-2734.748129698877
 21
644.4392763757841
 31
0.0
  0
LINE
  5
4C1
330
200
100
AcDbEntity
  8
0
  6
CENTER
 62
     1
 48
0.1
100
AcDbLine
 10
-2918.096445450551
 20
744.4392762737843
 30
0.0
 11
-2734.748129698877
 21
744.4392762737843
 31
0.0
  0
LINE
  5
4C2
330
200
100
AcDbEntity
  8
0
  6
CENTER
 62
     1
 48
0.1
100
AcDbLine
 10
-2826.422287574714
 20
652.7651183979505
 30
0.0
 11
-2826.422287574714
 21
836.1134341496235
 31
0.0
  0
LINE
  5
4C3
330
200
100
AcDbEntity
  8
0
  6
CENTER
 62
     1
 48
0.1
100
AcDbLine
 10
-2818.09644555255
 20
744.4392762737843
 30
0.0
 11
-2634.748129800872
 21
744.4392762737843
 31
0.0
  0
LINE
  5
4C4
330
200
100
AcDbEntity
  8
0
  6
CENTER
 62
     1
 48
0.1
100
AcDbLine
 10
-2726.422287676715
 20
652.7651183979505
 30
0.0
 11
-2726.422287676715
 21
836.1134341496235
 31
0.0
  0
LINE
  5
4C5
330
200
100
AcDbEntity
  8
0
  6
CENTER
 62
     1
 48
0.1
100
AcDbLine
 10
-2818.09644555255
 20
844.4392761717827
 30
0.0
 11
-2634.748129800872
 21
844.4392761717827
 31
0.0
  0
LINE
  5
4C6
330
200
100
AcDbEntity
  8
0
  6
CENTER
 62
     1
 48
0.1
100
AcDbLine
 10
-2918.096445450551
 20
844.4392761717827
 30
0.0
 11
-2734.748129698877
 21
844.4392761717827
 31
0.0
  0
LINE
  5
4C7
330
200
100
AcDbEntity
  8
0
  6
CENTER
 62
     1
 48
0.1
100
AcDbLine
 10
-2918.096445450551
 20
944.4392760697846
 30
0.0
 11
-2734.748129698877
 21
944.4392760697846
 31
0.0
  0
LINE
  5
4C8
330
200
100
AcDbEntity
  8
0
  6
CENTER
 62
     1
 48
0.1
100
AcDbLine
 10
-2826.422287574714
 20
852.7651181939454
 30
0.0
 11
-2826.422287574714
 21
1036.11343394562
 31
0.0
  0
LINE
  5
4C9
330
200
100
AcDbEntity
  8
0
  6
CENTER
 62
     1
 48
0.1
100
AcDbLine
 10
-2818.09644555255
 20
944.4392760697846
 30
0.0
 11
-2634.748129800872
 21
944.4392760697846
 31
0.0
  0
LINE
  5
4CA
330
200
100
AcDbEntity
  8
0
  6
CENTER
 62
     1
 48
0.1
100
AcDbLine
 10
-2726.422287676715
 20
852.7651181939454
 30
0.0
 11
-2726.422287676715
 21
1036.11343394562
 31
0.0
  0
LINE
  5
4CB
330
200
100
AcDbEntity
  8
0
  6
CENTER
 62
     1
 48
0.1
100
AcDbLine
 10
-2918.096445450551
 20
1044.439275967785
 30
0.0
 11
-2734.748129698877
 21
1044.439275967785
 31
0.0
  0
LINE
  5
4CC
330
200
100
AcDbEntity
  8
0
  6
CENTER
 62
     1
 48
0.1
100
AcDbLine
 10
-2826.422287574714
 20
952.7651180919475
 30
0.0
 11
-2826.422287574714
 21
1136.113433843624
 31
0.0
  0
LINE
  5
4CD
330
200
100
AcDbEntity
  8
0
  6
CENTER
 62
     1
 48
0.1
100
AcDbLine
 10
-2818.09644555255
 20
1044.439275967785
 30
0.0
 11
-2634.748129800872
 21
1044.439275967785
 31
0.0
  0
LINE
  5
4CE
330
200
100
AcDbEntity
  8
0
  6
CENTER
 62
     1
 48
0.1
100
AcDbLine
 10
-2726.422287676715
 20
952.7651180919475
 30
0.0
 11
-2726.422287676715
 21
1136.113433843624
 31
0.0
  0
LINE
  5
4CF
330
200
100
AcDbEntity
  8
0
  6
CENTER
 62
     1
 48
0.1
100
AcDbLine
 10
-2818.09644555255
 20
1144.439275865783
 30
0.0
 11
-2634.748129800872
 21
1144.439275865783
 31
0.0
  0
LINE
  5
4D0
330
200
100
AcDbEntity
  8
0
  6
CENTER
 62
     1
 48
0.1
100
AcDbLine
 10
-2918.096445450551
 20
1144.439275865783
 30
0.0
 11
-2734.748129698877
 21
1144.439275865783
 31
0.0
  0
LINE
  5
4D1
330
200
100
AcDbEntity
  8
0
  6
CENTER
 62
     1
 48
0.1
100
AcDbLine
 10
-2918.096445450551
 20
1244.439275763783
 30
0.0
 11
-2734.748129698877
 21
1244.439275763783
 31
0.0
  0
LINE
  5
4D2
330
200
100
AcDbEntity
  8
0
  6
CENTER
 62
     1
 48
0.1
100
AcDbLine
 10
-2826.422287574714
 20
1152.765117887949
 30
0.0
 11
-2826.422287574714
 21
1336.113433639622
 31
0.0
  0
LINE
  5
4D3
330
200
100
AcDbEntity
  8
0
  6
CENTER
 62
     1
 48
0.1
100
AcDbLine
 10
-2818.09644555255
 20
1244.439275763783
 30
0.0
 11
-2634.748129800872
 21
1244.439275763783
 31
0.0
  0
LINE
  5
4D4
330
200
100
AcDbEntity
  8
0
  6
CENTER
 62
     1
 48
0.1
100
AcDbLine
 10
-2726.422287676715
 20
1152.765117887949
 30
0.0
 11
-2726.422287676715
 21
1336.113433639622
 31
0.0
  0
LINE
  5
4D5
330
200
100
AcDbEntity
  8
0
  6
CENTER
 62
     1
 48
0.1
100
AcDbLine
 10
-2818.09644555255
 20
1344.439275661785
 30
0.0
 11
-2634.748129800872
 21
1344.439275661785
 31
0.0
  0
LINE
  5
4D6
330
200
100
AcDbEntity
  8
0
  6
CENTER
 62
     1
 48
0.1
100
AcDbLine
 10
-2726.422287676715
 20
1252.765117785948
 30
0.0
 11
-2726.422287676715
 21
1436.113433537621
 31
0.0
  0
LINE
  5
4D7
330
200
100
AcDbEntity
  8
0
  6
CENTER
 62
     1
 48
0.1
100
AcDbLine
 10
-2918.096445450551
 20
1344.439275661785
 30
0.0
 11
-2734.748129698877
 21
1344.439275661785
 31
0.0
  0
LINE
  5
4D8
330
200
100
AcDbEntity
  8
0
  6
CENTER
 62
     1
 48
0.1
100
AcDbLine
 10
-2826.422287574714
 20
1252.765117785948
 30
0.0
 11
-2826.422287574714
 21
1436.113433537621
 31
0.0
  0
LINE
  5
4D9
330
200
100
AcDbEntity
  8
0
  6
CENTER
 62
     1
 48
0.1
100
AcDbLine
 10
-3018.096445348554
 20
1544.045574670785
 30
0.0
 11
-2834.74812959688
 21
1544.045574670785
 31
0.0
  0
LINE
  5
4DA
330
200
100
AcDbEntity
  8
0
  6
CENTER
 62
     1
 48
0.1
100
AcDbLine
 10
-2926.422287472711
 20
1452.371416794949
 30
0.0
 11
-2926.422287472711
 21
1635.719732546622
 31
0.0
  0
LINE
  5
4DB
330
200
100
AcDbEntity
  8
0
  6
CENTER
 62
     1
 48
0.1
100
AcDbLine
 10
-3018.096445348554
 20
244.8329775707825
 30
0.0
 11
-2834.74812959688
 21
244.8329775707825
 31
0.0
  0
LINE
  5
4DC
330
200
100
AcDbEntity
  8
0
  6
CENTER
 62
     1
 48
0.1
100
AcDbLine
 10
-2926.422287472711
 20
153.1588196949415
 30
0.0
 11
-2926.422287472711
 21
336.5071354466199
 31
0.0
  0
LINE
  5
4DD
330
200
100
AcDbEntity
  8
0
  6
CENTER
 62
     1
 48
0.1
100
AcDbLine
 10
-2818.09644555255
 20
-1287.844186220216
 30
0.0
 11
-2634.748129800872
 21
-1287.844186220216
 31
0.0
  0
LINE
  5
4DE
330
200
100
AcDbEntity
  8
0
  6
CENTER
 62
     1
 48
0.1
100
AcDbLine
 10
-2726.422287676715
 20
-1379.518344096052
 30
0.0
 11
-2726.422287676715
 21
-1196.170028344377
 31
0.0
  0
LINE
  5
4DF
330
200
100
AcDbEntity
  8
0
  6
CENTER
 62
     1
 48
0.1
100
AcDbLine
 10
-2918.096445450551
 20
-1287.844186220216
 30
0.0
 11
-2734.748129698877
 21
-1287.844186220216
 31
0.0
  0
LINE
  5
4E0
330
200
100
AcDbEntity
  8
0
  6
CENTER
 62
     1
 48
0.1
100
AcDbLine
 10
-2826.422287574714
 20
-1379.518344096052
 30
0.0
 11
-2826.422287574714
 21
-1196.170028344377
 31
0.0
  0
LINE
  5
4E1
330
200
100
AcDbEntity
  8
0
  6
CENTER
 62
     1
 48
0.1
100
AcDbLine
 10
-2918.096445450551
 20
-1187.844186322216
 30
0.0
 11
-2734.748129698877
 21
-1187.844186322216
 31
0.0
  0
LINE
  5
4E2
330
200
100
AcDbEntity
  8
0
  6
CENTER
 62
     1
 48
0.1
100
AcDbLine
 10
-2826.422287574714
 20
-1279.518344198059
 30
0.0
 11
-2826.422287574714
 21
-1096.170028446377
 31
0.0
  0
LINE
  5
4E3
330
200
100
AcDbEntity
  8
0
  6
CENTER
 62
     1
 48
0.1
100
AcDbLine
 10
-2818.09644555255
 20
-1187.844186322216
 30
0.0
 11
-2634.748129800872
 21
-1187.844186322216
 31
0.0
  0
LINE
  5
4E4
330
200
100
AcDbEntity
  8
0
  6
CENTER
 62
     1
 48
0.1
100
AcDbLine
 10
-2726.422287676715
 20
-1279.518344198059
 30
0.0
 11
-2726.422287676715
 21
-1096.170028446377
 31
0.0
  0
LINE
  5
4E5
330
200
100
AcDbEntity
  8
0
  6
CENTER
 62
     1
 48
0.1
100
AcDbLine
 10
-2818.09644555255
 20
-1087.844186424219
 30
0.0
 11
-2634.748129800872
 21
-1087.844186424219
 31
0.0
  0
LINE
  5
4E6
330
200
100
AcDbEntity
  8
0
  6
CENTER
 62
     1
 48
0.1
100
AcDbLine
 10
-2918.096445450551
 20
-1087.844186424219
 30
0.0
 11
-2734.748129698877
 21
-1087.844186424219
 31
0.0
  0
LINE
  5
4E7
330
200
100
AcDbEntity
  8
0
  6
CENTER
 62
     1
 48
0.1
100
AcDbLine
 10
-2918.096445450551
 20
-987.8441865262175
 30
0.0
 11
-2734.748129698877
 21
-987.8441865262175
 31
0.0
  0
LINE
  5
4E8
330
200
100
AcDbEntity
  8
0
  6
CENTER
 62
     1
 48
0.1
100
AcDbLine
 10
-2826.422287574714
 20
-1079.518344402051
 30
0.0
 11
-2826.422287574714
 21
-896.1700286503765
 31
0.0
  0
LINE
  5
4E9
330
200
100
AcDbEntity
  8
0
  6
CENTER
 62
     1
 48
0.1
100
AcDbLine
 10
-2818.09644555255
 20
-987.8441865262175
 30
0.0
 11
-2634.748129800872
 21
-987.8441865262175
 31
0.0
  0
LINE
  5
4EA
330
200
100
AcDbEntity
  8
0
  6
CENTER
 62
     1
 48
0.1
100
AcDbLine
 10
-2726.422287676715
 20
-1079.518344402051
 30
0.0
 11
-2726.422287676715
 21
-896.1700286503765
 31
0.0
  0
LINE
  5
4EB
330
200
100
AcDbEntity
  8
0
  6
CENTER
 62
     1
 48
0.1
100
AcDbLine
 10
-2818.09644555255
 20
-887.8441866282155
 30
0.0
 11
-2634.748129800872
 21
-887.8441866282155
 31
0.0
  0
LINE
  5
4EC
330
200
100
AcDbEntity
  8
0
  6
CENTER
 62
     1
 48
0.1
100
AcDbLine
 10
-2918.096445450551
 20
-887.8441866282155
 30
0.0
 11
-2734.748129698877
 21
-887.8441866282155
 31
0.0
  0
LINE
  5
4ED
330
200
100
AcDbEntity
  8
0
  6
CENTER
 62
     1
 48
0.1
100
AcDbLine
 10
-2918.096445450551
 20
-787.8441867302154
 30
0.0
 11
-2734.748129698877
 21
-787.8441867302154
 31
0.0
  0
LINE
  5
4EE
330
200
100
AcDbEntity
  8
0
  6
CENTER
 62
     1
 48
0.1
100
AcDbLine
 10
-2826.422287574714
 20
-879.5183446060546
 30
0.0
 11
-2826.422287574714
 21
-696.1700288543798
 31
0.0
  0
LINE
  5
4EF
330
200
100
AcDbEntity
  8
0
  6
CENTER
 62
     1
 48
0.1
100
AcDbLine
 10
-2818.09644555255
 20
-787.8441867302154
 30
0.0
 11
-2634.748129800872
 21
-787.8441867302154
 31
0.0
  0
LINE
  5
4F0
330
200
100
AcDbEntity
  8
0
  6
CENTER
 62
     1
 48
0.1
100
AcDbLine
 10
-2726.422287676715
 20
-879.5183446060546
 30
0.0
 11
-2726.422287676715
 21
-696.1700288543798
 31
0.0
  0
LINE
  5
4F1
330
200
100
AcDbEntity
  8
0
  6
CENTER
 62
     1
 48
0.1
100
AcDbLine
 10
-2918.096445450551
 20
-687.844186832217
 30
0.0
 11
-2734.748129698877
 21
-687.844186832217
 31
0.0
  0
LINE
  5
4F2
330
200
100
AcDbEntity
  8
0
  6
CENTER
 62
     1
 48
0.1
100
AcDbLine
 10
-2826.422287574714
 20
-779.5183447080508
 30
0.0
 11
-2826.422287574714
 21
-596.170028956376
 31
0.0
  0
LINE
  5
4F3
330
200
100
AcDbEntity
  8
0
  6
CENTER
 62
     1
 48
0.1
100
AcDbLine
 10
-2818.09644555255
 20
-687.844186832217
 30
0.0
 11
-2634.748129800872
 21
-687.844186832217
 31
0.0
  0
LINE
  5
4F4
330
200
100
AcDbEntity
  8
0
  6
CENTER
 62
     1
 48
0.1
100
AcDbLine
 10
-2726.422287676715
 20
-779.5183447080508
 30
0.0
 11
-2726.422287676715
 21
-596.170028956376
 31
0.0
  0
LINE
  5
4F5
330
200
100
AcDbEntity
  8
0
  6
CENTER
 62
     1
 48
0.1
100
AcDbLine
 10
-2818.09644555255
 20
-587.8441869342187
 30
0.0
 11
-2634.748129800872
 21
-587.8441869342187
 31
0.0
  0
LINE
  5
4F6
330
200
100
AcDbEntity
  8
0
  6
CENTER
 62
     1
 48
0.1
100
AcDbLine
 10
-2918.096445450551
 20
-587.8441869342187
 30
0.0
 11
-2734.748129698877
 21
-587.8441869342187
 31
0.0
  0
LINE
  5
4F7
330
200
100
AcDbEntity
  8
0
  6
CENTER
 62
     1
 48
0.1
100
AcDbLine
 10
-2918.096445450551
 20
-487.8441870362166
 30
0.0
 11
-2734.748129698877
 21
-487.8441870362166
 31
0.0
  0
LINE
  5
4F8
330
200
100
AcDbEntity
  8
0
  6
CENTER
 62
     1
 48
0.1
100
AcDbLine
 10
-2826.422287574714
 20
-579.5183449120541
 30
0.0
 11
-2826.422287574714
 21
-396.1700291603774
 31
0.0
  0
LINE
  5
4F9
330
200
100
AcDbEntity
  8
0
  6
CENTER
 62
     1
 48
0.1
100
AcDbLine
 10
-2818.09644555255
 20
-487.8441870362166
 30
0.0
 11
-2634.748129800872
 21
-487.8441870362166
 31
0.0
  0
LINE
  5
4FA
330
200
100
AcDbEntity
  8
0
  6
CENTER
 62
     1
 48
0.1
100
AcDbLine
 10
-2726.422287676715
 20
-579.5183449120541
 30
0.0
 11
-2726.422287676715
 21
-396.1700291603774
 31
0.0
  0
LINE
  5
4FB
330
200
100
AcDbEntity
  8
0
  6
CENTER
 62
     1
 48
0.1
100
AcDbLine
 10
-2818.09644555255
 20
-387.8441871382165
 30
0.0
 11
-2634.748129800872
 21
-387.8441871382165
 31
0.0
  0
LINE
  5
4FC
330
200
100
AcDbEntity
  8
0
  6
CENTER
 62
     1
 48
0.1
100
AcDbLine
 10
-2726.422287676715
 20
-479.5183450140503
 30
0.0
 11
-2726.422287676715
 21
-296.1700292623773
 31
0.0
  0
LINE
  5
4FD
330
200
100
AcDbEntity
  8
0
  6
CENTER
 62
     1
 48
0.1
100
AcDbLine
 10
-2918.096445450551
 20
-387.8441871382165
 30
0.0
 11
-2734.748129698877
 21
-387.8441871382165
 31
0.0
  0
LINE
  5
4FE
330
200
100
AcDbEntity
  8
0
  6
CENTER
 62
     1
 48
0.1
100
AcDbLine
 10
-2826.422287574714
 20
-479.5183450140503
 30
0.0
 11
-2826.422287574714
 21
-296.1700292623773
 31
0.0
  0
LINE
  5
4FF
330
200
100
AcDbEntity
  8
0
  6
CENTER
 62
     1
 48
0.1
100
AcDbLine
 10
-3018.096445348554
 20
-188.237888129217
 30
0.0
 11
-2834.74812959688
 21
-188.237888129217
 31
0.0
  0
LINE
  5
500
330
200
100
AcDbEntity
  8
0
  6
CENTER
 62
     1
 48
0.1
100
AcDbLine
 10
-2926.422287472711
 20
-279.9120460050508
 30
0.0
 11
-2926.422287472711
 21
-96.56373025337599
 31
0.0
  0
LINE
  5
501
330
200
100
AcDbEntity
  8
0
  6
CENTER
 62
     1
 48
0.1
100
AcDbLine
 10
-3018.096445348554
 20
-1487.450485229216
 30
0.0
 11
-2834.74812959688
 21
-1487.450485229216
 31
0.0
  0
LINE
  5
502
330
200
100
AcDbEntity
  8
0
  6
CENTER
 62
     1
 48
0.1
100
AcDbLine
 10
-2926.422287472711
 20
-1579.124643105059
 30
0.0
 11
-2926.422287472711
 21
-1395.77632735338
 31
0.0
  0
LINE
  5
503
330
200
100
AcDbEntity
  8
0
  6
CENTER
 62
     1
 48
0.1
100
AcDbLine
 10
2920.092524972447
 20
1778.297556061772
 30
0.0
 11
3103.44084072412
 21
1778.297556061772
 31
0.0
  0
LINE
  5
504
330
200
100
AcDbEntity
  8
0
  6
CENTER
 62
     1
 48
0.1
100
AcDbLine
 10
3011.76668284829
 20
1686.623398185929
 30
0.0
 11
3011.76668284829
 21
1869.971713937606
 31
0.0
  0
LINE
  5
505
330
200
100
AcDbEntity
  8
0
  6
CENTER
 62
     1
 48
0.1
100
AcDbLine
 10
2843.171078672954
 20
1374.505059682298
 30
0.0
 11
3026.519394424632
 21
1374.505059682298
 31
0.0
  0
LINE
  5
506
330
200
100
AcDbEntity
  8
0
  6
CENTER
 62
     1
 48
0.1
100
AcDbLine
 10
2934.845236548797
 20
1282.830901806459
 30
0.0
 11
2934.845236548797
 21
1466.179217558138
 31
0.0
  0
LINE
  5
507
330
200
100
AcDbEntity
  8
0
  6
CENTER
 62
     1
 48
0.1
100
AcDbLine
 10
2843.171078672954
 20
923.7176585673005
 30
0.0
 11
3026.519394424632
 21
923.7176585673005
 31
0.0
  0
LINE
  5
508
330
200
100
AcDbEntity
  8
0
  6
CENTER
 62
     1
 48
0.1
100
AcDbLine
 10
2934.845236548797
 20
832.0435006914594
 30
0.0
 11
2934.845236548797
 21
1015.391816443138
 31
0.0
  0
LINE
  5
509
330
200
100
AcDbEntity
  8
0
  6
CENTER
 62
     1
 48
0.1
100
AcDbLine
 10
3036.084464302954
 20
988.2845876352986
 30
0.0
 11
3219.432780054628
 21
988.2845876352986
 31
0.0
  0
LINE
  5
50A
330
200
100
AcDbEntity
  8
0
  6
CENTER
 62
     1
 48
0.1
100
AcDbLine
 10
3127.758622178796
 20
896.6104297594593
 30
0.0
 11
3127.758622178796
 21
1079.958745511137
 31
0.0
  0
LINE
  5
50B
330
200
100
AcDbEntity
  8
0
  6
CENTER
 62
     1
 48
0.1
100
AcDbLine
 10
3036.084464302954
 20
888.284587737302
 30
0.0
 11
3219.432780054628
 21
888.284587737302
 31
0.0
  0
LINE
  5
50C
330
200
100
AcDbEntity
  8
0
  6
CENTER
 62
     1
 48
0.1
100
AcDbLine
 10
3127.758622178796
 20
796.6104298614591
 30
0.0
 11
3127.758622178796
 21
979.9587456131394
 31
0.0
  0
LINE
  5
50D
330
200
100
AcDbEntity
  8
0
  6
CENTER
 62
     1
 48
0.1
100
AcDbLine
 10
3036.084464302954
 20
1309.9381306143
 30
0.0
 11
3219.432780054628
 21
1309.9381306143
 31
0.0
  0
LINE
  5
50E
330
200
100
AcDbEntity
  8
0
  6
CENTER
 62
     1
 48
0.1
100
AcDbLine
 10
3127.758622178796
 20
1218.263972738465
 30
0.0
 11
3127.758622178796
 21
1401.612288490138
 31
0.0
  0
LINE
  5
50F
330
200
100
AcDbEntity
  8
0
  6
CENTER
 62
     1
 48
0.1
100
AcDbLine
 10
3036.084464302954
 20
1409.938130512302
 30
0.0
 11
3219.432780054628
 21
1409.938130512302
 31
0.0
  0
LINE
  5
510
330
200
100
AcDbEntity
  8
0
  6
CENTER
 62
     1
 48
0.1
100
AcDbLine
 10
3127.758622178796
 20
1318.263972636458
 30
0.0
 11
3127.758622178796
 21
1501.612288388136
 31
0.0
  0
LINE
  5
511
330
200
100
AcDbEntity
  8
0
  6
CENTER
 62
     1
 48
0.1
100
AcDbLine
 10
2593.171045530315
 20
1024.50501327946
 30
0.0
 11
2776.51936128199
 21
1024.50501327946
 31
0.0
  0
LINE
  5
512
330
200
100
AcDbEntity
  8
0
  6
CENTER
 62
     1
 48
0.1
100
AcDbLine
 10
2684.84520340616
 20
932.8308554036157
 30
0.0
 11
2684.84520340616
 21
1116.179171155296
 31
0.0
  0
LINE
  5
513
330
200
100
AcDbEntity
  8
0
  6
CENTER
 62
     1
 48
0.1
100
AcDbLine
 10
2593.171045530315
 20
1124.505026535726
 30
0.0
 11
2776.51936128199
 21
1124.505026535726
 31
0.0
  0
LINE
  5
514
330
200
100
AcDbEntity
  8
0
  6
CENTER
 62
     1
 48
0.1
100
AcDbLine
 10
2684.84520340616
 20
1032.83086865989
 30
0.0
 11
2684.84520340616
 21
1216.179184411563
 31
0.0
  0
LINE
  5
515
330
200
100
AcDbEntity
  8
0
  6
CENTER
 62
     1
 48
0.1
100
AcDbLine
 10
2593.171045530315
 20
1224.505039795931
 30
0.0
 11
2776.51936128199
 21
1224.505039795931
 31
0.0
  0
LINE
  5
516
330
200
100
AcDbEntity
  8
0
  6
CENTER
 62
     1
 48
0.1
100
AcDbLine
 10
2684.84520340616
 20
1132.83088192009
 30
0.0
 11
2684.84520340616
 21
1316.179197671767
 31
0.0
  0
LINE
  5
517
330
200
100
AcDbEntity
  8
0
  6
CENTER
 62
     1
 48
0.1
100
AcDbLine
 10
2593.171045530315
 20
1324.5050530522
 30
0.0
 11
2776.51936128199
 21
1324.5050530522
 31
0.0
  0
LINE
  5
518
330
200
100
AcDbEntity
  8
0
  6
CENTER
 62
     1
 48
0.1
100
AcDbLine
 10
2684.84520340616
 20
1232.830895176359
 30
0.0
 11
2684.84520340616
 21
1416.17921092803
 31
0.0
  0
LINE
  5
519
330
200
100
AcDbEntity
  8
0
  6
CENTER
 62
     1
 48
0.1
100
AcDbLine
 10
2493.171032270112
 20
1274.505046422097
 30
0.0
 11
2676.519348021783
 21
1274.505046422097
 31
0.0
  0
LINE
  5
51A
330
200
100
AcDbEntity
  8
0
  6
CENTER
 62
     1
 48
0.1
100
AcDbLine
 10
2584.845190145953
 20
1182.830888546257
 30
0.0
 11
2584.845190145953
 21
1366.179204297932
 31
0.0
  0
LINE
  5
51B
330
200
100
AcDbEntity
  8
0
  6
CENTER
 62
     1
 48
0.1
100
AcDbLine
 10
2493.171032270112
 20
1174.505033165831
 30
0.0
 11
2676.519348021783
 21
1174.505033165831
 31
0.0
  0
LINE
  5
51C
330
200
100
AcDbEntity
  8
0
  6
CENTER
 62
     1
 48
0.1
100
AcDbLine
 10
2584.845190145953
 20
1082.830875289986
 30
0.0
 11
2584.845190145953
 21
1266.179191041665
 31
0.0
  0
LINE
  5
51F
330
200
100
AcDbEntity
  8
0
  6
CENTER
 62
     1
 48
0.1
100
AcDbLine
 10
2493.171032270112
 20
974.5050066493586
 30
0.0
 11
2676.519348021783
 21
974.5050066493586
 31
0.0
  0
LINE
  5
520
330
200
100
AcDbEntity
  8
0
  6
CENTER
 62
     1
 48
0.1
100
AcDbLine
 10
2584.845190145953
 20
882.8308487735139
 30
0.0
 11
2584.845190145953
 21
1066.179164525192
 31
0.0
  0
LINE
  5
521
330
200
100
AcDbEntity
  8
0
  6
CENTER
 62
     1
 48
0.1
100
AcDbLine
 10
2584.845190145953
 20
882.8308487774556
 30
0.0
 11
2584.845190145953
 21
1066.17916452913
 31
0.0
  0
LINE
  5
522
330
200
100
AcDbEntity
  8
0
  6
CENTER
 62
     1
 48
0.1
100
AcDbLine
 10
2493.171032270112
 20
1074.50501990956
 30
0.0
 11
2676.519348021783
 21
1074.50501990956
 31
0.0
  0
LINE
  5
523
330
200
100
AcDbEntity
  8
0
  6
CENTER
 62
     1
 48
0.1
100
AcDbLine
 10
2584.845190145953
 20
982.8308620337192
 30
0.0
 11
2584.845190145953
 21
1166.179177785396
 31
0.0
  0
LINE
  5
524
330
200
100
AcDbEntity
  8
0
  6
CENTER
 62
     1
 48
0.1
100
AcDbLine
 10
2905.253548609631
 20
445.4097829331295
 30
0.0
 11
3088.601864361304
 21
445.4097829331295
 31
0.0
  0
LINE
  5
525
330
200
100
AcDbEntity
  8
0
  6
CENTER
 62
     1
 48
0.1
100
AcDbLine
 10
2996.927706485472
 20
353.7356250572902
 30
0.0
 11
2996.927706485472
 21
537.083940808965
 31
0.0
  0
LINE
  5
526
330
200
100
AcDbEntity
  8
0
  6
CENTER
 62
     1
 48
0.1
100
AcDbLine
 10
2905.253548609631
 20
245.4097831371291
 30
0.0
 11
3088.601864361304
 21
245.4097831371291
 31
0.0
  0
LINE
  5
527
330
200
100
AcDbEntity
  8
0
  6
CENTER
 62
     1
 48
0.1
100
AcDbLine
 10
2996.927706485472
 20
153.7356252612899
 30
0.0
 11
2996.927706485472
 21
337.0839410129647
 31
0.0
  0
LINE
  5
528
330
200
100
AcDbEntity
  8
0
  6
CENTER
 62
     1
 48
0.1
100
AcDbLine
 10
2727.966540916447
 20
-652.804836564801
 30
0.0
 11
2911.31485666812
 21
-652.804836564801
 31
0.0
  0
LINE
  5
529
330
200
100
AcDbEntity
  8
0
  6
CENTER
 62
     1
 48
0.1
100
AcDbLine
 10
2819.64069879229
 20
-744.478994440642
 30
0.0
 11
2819.64069879229
 21
-561.1306786889672
 31
0.0
  0
LINE
  5
52A
330
200
100
AcDbEntity
  8
0
  6
CENTER
 62
     1
 48
0.1
100
AcDbLine
 10
2727.966540916447
 20
-751.2300333148013
 30
0.0
 11
2911.31485666812
 21
-751.2300333148013
 31
0.0
  0
LINE
  5
52B
330
200
100
AcDbEntity
  8
0
  6
CENTER
 62
     1
 48
0.1
100
AcDbLine
 10
2819.64069879229
 20
-842.9041911906443
 30
0.0
 11
2819.64069879229
 21
-659.5558754389676
 31
0.0
  0
LINE
  5
52C
330
200
100
AcDbEntity
  8
0
  6
CENTER
 62
     1
 48
0.1
100
AcDbLine
 10
2727.966540916447
 20
-829.970190714801
 30
0.0
 11
2911.31485666812
 21
-829.970190714801
 31
0.0
  0
LINE
  5
52D
330
200
100
AcDbEntity
  8
0
  6
CENTER
 62
     1
 48
0.1
100
AcDbLine
 10
2819.64069879229
 20
-921.6443485906438
 30
0.0
 11
2819.64069879229
 21
-738.2960328389672
 31
0.0
  0
LINE
  5
52E
330
200
100
AcDbEntity
  8
0
  6
CENTER
 62
     1
 48
0.1
100
AcDbLine
 10
2727.966540916447
 20
-928.3953874648014
 30
0.0
 11
2911.31485666812
 21
-928.3953874648014
 31
0.0
  0
LINE
  5
52F
330
200
100
AcDbEntity
  8
0
  6
CENTER
 62
     1
 48
0.1
100
AcDbLine
 10
2819.64069879229
 20
-1020.069545340644
 30
0.0
 11
2819.64069879229
 21
-836.7212295889675
 31
0.0
  0
LINE
  5
530
330
200
100
AcDbEntity
  8
0
  6
CENTER
 62
     1
 48
0.1
100
AcDbLine
 10
2920.092524972447
 20
-1721.70246661626
 30
0.0
 11
3103.44084072412
 21
-1721.70246661626
 31
0.0
  0
LINE
  5
531
330
200
100
AcDbEntity
  8
0
  6
CENTER
 62
     1
 48
0.1
100
AcDbLine
 10
3011.76668284829
 20
-1813.376624492103
 30
0.0
 11
3011.76668284829
 21
-1630.028308740423
 31
0.0
  0
CIRCLE
  5
5E1
330
200
100
AcDbEntity
  8
0
100
AcDbCircle
 10
2758.617076807289
 20
1605.016870470794
 30
0.0
 40
98.42519675
  0
CIRCLE
  5
5E2
330
200
100
AcDbEntity
  8
0
100
AcDbCircle
 10
2758.617076807289
 20
1557.005686828364
 30
0.0
 40
19.68503935
  0
CIRCLE
  5
5E3
330
200
100
AcDbEntity
  8
0
100
AcDbCircle
 10
2758.617076807289
 20
1655.016870419798
 30
0.0
 40
19.68503935
  0
ENDSEC
  0
SECTION
  2
OBJECTS
  0
DICTIONARY
  5
C
330
0
100
AcDbDictionary
281
     1
  3
ACAD_COLOR
350
2FA
  3
ACAD_GROUP
350
D
  3
ACAD_LAYOUT
350
1A
  3
ACAD_MATERIAL
350
2D0
  3
ACAD_MLEADERSTYLE
350
31F
  3
ACAD_MLINESTYLE
350
17
  3
ACAD_PLOTSETTINGS
350
19
  3
ACAD_PLOTSTYLENAME
350
E
  3
ACAD_SCALELIST
350
2FD
  3
ACAD_TABLESTYLE
350
2FB
  3
ACAD_VISUALSTYLE
350
2E9
  3
ACDB_RECOMPOSE_DATA
350
546
  3
AcDbVariableDictionary
350
53A
  3
DWGPROPS
350
5F4
  0
DICTIONARY
  5
532
330
10
100
AcDbDictionary
280
     1
281
     1
  3
ADSK_XREC_LAYER_RECONCILED
360
533
  0
DICTIONARY
  5
534
330
1FA
100
AcDbDictionary
280
     1
281
     1
  3
ADSK_XREC_LAYER_RECONCILED
360
535
  0
DICTIONARY
  5
536
330
1FB
100
AcDbDictionary
280
     1
281
     1
  3
ADSK_XREC_LAYER_RECONCILED
360
537
  0
DICTIONARY
  5
538
330
1FC
100
AcDbDictionary
280
     1
281
     1
  3
ADSK_XREC_LAYER_RECONCILED
360
539
  0
DICTIONARY
  5
33A
330
200
100
AcDbDictionary
280
     1
281
     1
  3
ACAD_SORTENTS
360
33B
  0
DICTIONARY
  5
5F5
330
21B
100
AcDbDictionary
280
     1
281
     1
  3
ACAD_MTEXT_RT
360
5F6
  0
DICTIONARY
  5
2FA
102
{ACAD_REACTORS
330
C
102
}
330
C
100
AcDbDictionary
281
     1
  0
DICTIONARY
  5
D
102
{ACAD_REACTORS
330
C
102
}
330
C
100
AcDbDictionary
281
     1
  0
DICTIONARY
  5
1A
102
{ACAD_REACTORS
330
C
102
}
330
C
100
AcDbDictionary
281
     1
  3
Layout1
350
2CD
  3
Model
350
2CC
  0
DICTIONARY
  5
2D0
102
{ACAD_REACTORS
330
C
102
}
330
C
100
AcDbDictionary
281
     1
  3
ByBlock
350
2D9
  3
ByLayer
350
2D1
  3
Global
350
2E1
  0
DICTIONARY
  5
31F
102
{ACAD_REACTORS
330
C
102
}
330
C
100
AcDbDictionary
281
     1
  3
Standard
350
320
  0
DICTIONARY
  5
17
102
{ACAD_REACTORS
330
C
102
}
330
C
100
AcDbDictionary
281
     1
  3
Standard
350
18
  0
DICTIONARY
  5
19
102
{ACAD_REACTORS
330
C
102
}
330
C
100
AcDbDictionary
281
     1
  0
ACDBDICTIONARYWDFLT
  5
E
102
{ACAD_REACTORS
330
C
102
}
330
C
100
AcDbDictionary
281
     1
  3
Normal
350
F
100
AcDbDictionaryWithDefault
340
F
  0
DICTIONARY
  5
2FD
102
{ACAD_REACTORS
330
C
102
}
330
C
100
AcDbDictionary
281
     1
  3
A0
350
2FE
  3
A1
350
2FF
  3
A2
350
300
  3
A3
350
301
  3
A4
350
302
  3
A5
350
303
  3
A6
350
304
  3
A7
350
305
  3
A8
350
306
  3
A9
350
307
  3
B0
350
308
  3
B1
350
309
  3
B2
350
30A
  3
B3
350
30B
  3
B4
350
30C
  3
B5
350
30D
  3
B6
350
30E
  3
B7
350
30F
  3
B8
350
310
  3
B9
350
311
  3
C0
350
312
  3
C1
350
313
  3
C2
350
314
  3
C3
350
315
  3
C4
350
316
  3
C5
350
317
  3
C6
350
318
  3
C7
350
319
  3
C8
350
31A
  3
C9
350
31B
  3
D0
350
31C
  3
D1
350
31D
  3
D2
350
31E
  0
DICTIONARY
  5
2FB
102
{ACAD_REACTORS
330
C
102
}
330
C
100
AcDbDictionary
281
     1
  3
Standard
350
2FC
  0
DICTIONARY
  5
2E9
102
{ACAD_REACTORS
330
C
102
}
330
C
100
AcDbDictionary
281
     1
  3
2dWireframe
350
2EF
  3
3D Hidden
350
2F1
  3
3dWireframe
350
2F0
  3
Basic
350
2EE
  3
Brighten
350
2F5
  3
ColorChange
350
2F9
  3
Conceptual
350
2F2
  3
Dim
350
2F4
  3
Facepattern
350
2F8
  3
Flat
350
2EA
  3
FlatWithEdges
350
2EB
  3
Gouraud
350
2EC
  3
GouraudWithEdges
350
2ED
  3
Linepattern
350
2F7
  3
Realistic
350
2F3
  3
Thicken
350
2F6
  0
XRECORD
  5
546
102
{ACAD_REACTORS
330
C
102
}
330
C
100
AcDbXrecord
280
     1
 90
        1
330
2FC
  0
DICTIONARY
  5
53A
102
{ACAD_REACTORS
330
C
102
}
330
C
100
AcDbDictionary
281
     1
  3
CANNOSCALE
350
53E
  3
CMLEADERSTYLE
350
53C
  3
CTABLESTYLE
350
53B
  3
DIMASSOC
350
543
  3
HIDETEXT
350
542
  3
INDEXCTL
350
541
  3
LIGHTINGUNITS
350
53F
  3
MSLTSCALE
350
53D
  3
SORTENTS
350
540
  0
XRECORD
  5
5F4
102
{ACAD_REACTORS
330
C
102
}
330
C
100
AcDbXrecord
280
     1
  1
DWGPROPS COOKIE
  2

  3

  4

  6

  7

  8
01
  9

300
=
301
=
302
=
303
=
304
=
305
=
306
=
307
=
308
=
309
=
 40
0.0250724537037037
 41
2458705.645451331
 42
2458708.585160914
  1

 90
        0
  0
XRECORD
  5
533
102
{ACAD_REACTORS
330
532
102
}
330
532
100
AcDbXrecord
280
     1
290
     1
  0
XRECORD
  5
535
102
{ACAD_REACTORS
330
534
102
}
330
534
100
AcDbXrecord
280
     1
290
     1
  0
XRECORD
  5
537
102
{ACAD_REACTORS
330
536
102
}
330
536
100
AcDbXrecord
280
     1
290
     1
  0
XRECORD
  5
539
102
{ACAD_REACTORS
330
538
102
}
330
538
100
AcDbXrecord
280
     1
290
     1
  0
SORTENTSTABLE
  5
33B
102
{ACAD_REACTORS
330
33A
102
}
330
33A
100
AcDbSortentsTable
330
200
331
271
  5
275
331
2AE
  5
2B3
331
4CD
  5
4CE
331
279
  5
27D
331
530
  5
531
331
33F
  5
342
331
504
  5
505
331
50C
  5
50D
331
281
  5
285
331
2B6
  5
2C1
331
4D5
  5
4D6
331
514
  5
515
331
23A
  5
23B
331
289
  5
28D
331
4DD
  5
4DE
331
4E5
  5
4E6
331
51C
  5
51F
331
24A
  5
250
331
291
  5
295
331
4ED
  5
4EE
331
524
  5
525
331
252
  5
256
331
299
  5
29D
331
2A1
  5
2A5
331
4F5
  5
4F6
331
262
  5
26C
331
52C
  5
52D
331
26A
  5
26E
331
227
  5
227
331
4BE
  5
4BF
331
4FD
  5
4FE
331
4C6
  5
4C7
331
272
  5
276
331
505
  5
506
331
2C8
  5
339
331
2AF
  5
2B4
331
27A
  5
27E
331
531
  5
558
331
4CE
  5
4CF
331
4D6
  5
4D7
331
50D
  5
50E
331
282
  5
286
331
28A
  5
28E
331
4DE
  5
4DF
331
23B
  5
23D
331
515
  5
516
331
4E6
  5
4E7
331
292
  5
296
331
24B
  5
252
331
525
  5
526
331
253
  5
258
331
29A
  5
29E
331
4EE
  5
4EF
331
4F6
  5
4F7
331
52D
  5
52E
331
220
  5
220
331
2A2
  5
2A6
331
4B7
  5
4B8
331
4BF
  5
4C0
331
4FE
  5
4FF
331
26B
  5
271
331
4C7
  5
4C8
331
339
  5
251
331
273
  5
277
331
2A8
  5
2AC
331
2B0
  5
2B5
331
4CF
  5
4D0
331
27B
  5
27F
331
22C
  5
22E
331
2C9
  5
33C
331
506
  5
507
331
50E
  5
50F
331
283
  5
287
331
4D7
  5
4D8
331
516
  5
517
331
23C
  5
248
331
28B
  5
28F
331
4DF
  5
4E0
331
4E7
  5
4E8
331
293
  5
297
331
340
  5
343
331
29B
  5
29F
331
4EF
  5
4F0
331
254
  5
259
331
526
  5
527
331
52E
  5
52F
331
4B8
  5
4B9
331
4F7
  5
4F8
331
2A3
  5
2A8
331
221
  5
221
331
26C
  5
272
331
4C0
  5
4C1
331
4FF
  5
500
331
274
  5
278
331
2A9
  5
2AD
331
4C8
  5
4C9
331
4D0
  5
4D1
331
507
  5
508
331
2CA
  5
33D
331
27C
  5
280
331
2B1
  5
2B6
331
4D8
  5
4D9
331
50F
  5
510
331
284
  5
288
331
28C
  5
290
331
2C1
  5
2C8
331
4E0
  5
4E1
331
23D
  5
249
331
517
  5
518
331
51F
  5
520
331
294
  5
298
331
341
  5
23C
331
4E8
  5
4E9
331
527
  5
528
331
255
  5
25A
331
29C
  5
2A0
331
4F0
  5
4F1
331
4F8
  5
4F9
331
52F
  5
530
331
222
  5
222
331
2A4
  5
2A9
331
4B9
  5
4BA
331
4C1
  5
4C2
331
4C9
  5
4CA
331
500
  5
501
331
275
  5
279
331
2AA
  5
2AE
331
4D1
  5
4D2
331
27D
  5
281
331
2CB
  5
33E
331
508
  5
509
331
510
  5
511
331
285
  5
289
331
2BA
  5
2C2
331
4D9
  5
4DA
331
4E1
  5
4E2
331
518
  5
519
331
28D
  5
291
331
2C2
  5
2C9
331
4E9
  5
4EA
331
520
  5
521
331
295
  5
299
331
342
  5
22B
331
4F1
  5
4F2
331
29D
  5
2A1
331
256
  5
25B
331
21B
  5
21B
331
528
  5
529
331
223
  5
223
331
2A5
  5
2AA
331
4BA
  5
4BB
331
4F9
  5
4FA
331
4C2
  5
4C3
331
501
  5
502
331
33C
  5
255
331
276
  5
27A
331
2AB
  5
2AF
331
4CA
  5
4CB
331
4D2
  5
4D3
331
509
  5
50A
331
27E
  5
282
331
2B3
  5
2B7
331
4DA
  5
4DB
331
511
  5
512
331
237
  5
23A
331
286
  5
28A
331
28E
  5
292
331
4E2
  5
4E3
331
519
  5
51A
331
521
  5
522
331
296
  5
29A
331
343
  5
344
331
4EA
  5
4EB
331
4F2
  5
4F3
331
529
  5
52A
331
29E
  5
2A2
331
4FA
  5
4FB
331
224
  5
224
331
2A6
  5
2AB
331
4BB
  5
4BC
331
4C3
  5
4C4
331
26F
  5
273
331
2AC
  5
2B0
331
4CB
  5
4CC
331
33D
  5
33F
331
502
  5
503
331
228
  5
228
331
277
  5
27B
331
27F
  5
283
331
2B4
  5
2B8
331
4D3
  5
4D4
331
50A
  5
50B
331
512
  5
513
331
287
  5
28B
331
2BC
  5
2C4
331
4DB
  5
4DC
331
4E3
  5
4E4
331
51A
  5
51B
331
28F
  5
293
331
2C4
  5
2CA
331
248
  5
24A
331
4EB
  5
4EC
331
522
  5
523
331
250
  5
253
331
297
  5
29B
331
344
  5
4B7
331
29F
  5
2A3
331
4F3
  5
4F4
331
52A
  5
52B
331
225
  5
225
331
4BC
  5
4BD
331
4FB
  5
4FC
331
4C4
  5
4C5
331
270
  5
274
331
503
  5
504
331
33E
  5
341
331
229
  5
229
331
278
  5
27C
331
2AD
  5
2B1
331
4CC
  5
4CD
331
4D4
  5
4D5
331
50B
  5
50C
331
280
  5
284
331
2B5
  5
2BD
331
2BD
  5
2C5
331
4DC
  5
4DD
331
513
  5
514
331
288
  5
28C
331
2C5
  5
2CB
331
4E4
  5
4E5
331
51B
  5
51C
331
290
  5
294
331
249
  5
24B
331
523
  5
524
331
251
  5
254
331
298
  5
29C
331
4EC
  5
4ED
331
4F4
  5
4F5
331
52B
  5
52C
331
2A0
  5
2A4
331
4FC
  5
4FD
331
226
  5
226
331
4BD
  5
4BE
331
4C5
  5
4C6
  0
XRECORD
  5
5F6
102
{ACAD_REACTORS
330
5F5
102
}
330
5F5
100
AcDbXrecord
280
     1
 40
11452.0
  1
 1,000
  0
LAYOUT
  5
2CD
102
{ACAD_XDICTIONARY
360
5F9
102
}
102
{ACAD_REACTORS
330
1A
102
}
330
1A
100
AcDbPlotSettings
  1

  2
none_device
  4
ANSI_C_(22.00_x_17.00_Inches)
  6

 40
0.0
 41
0.0
 42
0.0
 43
0.0
 44
558.8
 45
431.8
 46
0.0
 47
0.0
 48
0.0
 49
0.0
140
0.0
141
0.0
142
1.0
143
1.0
 70
     0
 72
     1
 73
     0
 74
     0
  7

 75
     0
147
1.0
148
0.0
149
0.0
100
AcDbLayout
  1
Layout1
 70
     1
 71
     1
 10
0.0
 20
0.0
 11
12.0
 21
9.0
 12
0.0
 22
0.0
 32
0.0
 14
1.000000000000000E+20
 24
1.000000000000000E+20
 34
1.000000000000000E+20
 15
-1.000000000000000E+20
 25
-1.000000000000000E+20
 35
-1.000000000000000E+20
146
0.0
 13
0.0
 23
0.0
 33
0.0
 16
1.0
 26
0.0
 36
0.0
 17
0.0
 27
1.0
 37
0.0
 76
     0
330
201
  0
LAYOUT
  5
2CC
102
{ACAD_XDICTIONARY
360
5F7
102
}
102
{ACAD_REACTORS
330
1A
102
}
330
1A
100
AcDbPlotSettings
  1

  2
none_device
  4
ANSI_C_(22.00_x_17.00_Inches)
  6

 40
0.0
 41
0.0
 42
0.0
 43
0.0
 44
558.8
 45
431.8
 46
0.0
 47
0.0
 48
0.0
 49
0.0
140
0.0
141
0.0
142
1.0
143
1.0
 70
  1024
 72
     1
 73
     0
 74
     0
  7

 75
     0
147
1.0
148
0.0
149
0.0
100
AcDbLayout
  1
Model
 70
     0
 71
     0
 10
0.0
 20
0.0
 11
558.8
 21
431.8
 12
0.0
 22
0.0
 32
0.0
 14
0.0
 24
0.0
 34
0.0
 15
0.0
 25
0.0
 35
0.0
146
0.0
 13
0.0
 23
0.0
 33
0.0
 16
1.0
 26
0.0
 36
0.0
 17
0.0
 27
1.0
 37
0.0
 76
     0
330
200
331
1F4
  0
MATERIAL
  5
2D9
102
{ACAD_XDICTIONARY
360
2DA
102
}
102
{ACAD_REACTORS
330
2D0
102
}
330
2D0
100
AcDbMaterial
  1
ByBlock
 72
     0
 43
0.0008202099737533
 43
0.0
 43
0.0
 43
0.0
 43
0.0
 43
0.0008202099737533
 43
0.0
 43
0.0
 43
0.0
 43
0.0
 43
1.0
 43
0.0
 43
0.0
 43
0.0
 43
0.0
 43
1.0
 77
     0
 47
0.0008202099737533
 47
0.0
 47
0.0
 47
0.0
 47
0.0
 47
0.0008202099737533
 47
0.0
 47
0.0
 47
0.0
 47
0.0
 47
1.0
 47
0.0
 47
0.0
 47
0.0
 47
0.0
 47
1.0
171
     0
 49
0.0008202099737533
 49
0.0
 49
0.0
 49
0.0
 49
0.0
 49
0.0008202099737533
 49
0.0
 49
0.0
 49
0.0
 49
0.0
 49
1.0
 49
0.0
 49
0.0
 49
0.0
 49
0.0
 49
1.0
175
     0
142
0.0008202099737533
142
0.0
142
0.0
142
0.0
142
0.0
142
0.0008202099737533
142
0.0
142
0.0
142
0.0
142
0.0
142
1.0
142
0.0
142
0.0
142
0.0
142
0.0
142
1.0
179
     0
144
0.0008202099737533
144
0.0
144
0.0
144
0.0
144
0.0
144
0.0008202099737533
144
0.0
144
0.0
144
0.0
144
0.0
144
1.0
144
0.0
144
0.0
144
0.0
144
0.0
144
1.0
147
0.0008202099737533
147
0.0
147
0.0
147
0.0
147
0.0
147
0.0008202099737533
147
0.0
147
0.0
147
0.0
147
0.0
147
1.0
147
0.0
147
0.0
147
0.0
147
0.0
147
1.0
  0
MATERIAL
  5
2D1
102
{ACAD_XDICTIONARY
360
2D2
102
}
102
{ACAD_REACTORS
330
2D0
102
}
330
2D0
100
AcDbMaterial
  1
ByLayer
 72
     0
 43
0.0008202099737533
 43
0.0
 43
0.0
 43
0.0
 43
0.0
 43
0.0008202099737533
 43
0.0
 43
0.0
 43
0.0
 43
0.0
 43
1.0
 43
0.0
 43
0.0
 43
0.0
 43
0.0
 43
1.0
 77
     0
 47
0.0008202099737533
 47
0.0
 47
0.0
 47
0.0
 47
0.0
 47
0.0008202099737533
 47
0.0
 47
0.0
 47
0.0
 47
0.0
 47
1.0
 47
0.0
 47
0.0
 47
0.0
 47
0.0
 47
1.0
171
     0
 49
0.0008202099737533
 49
0.0
 49
0.0
 49
0.0
 49
0.0
 49
0.0008202099737533
 49
0.0
 49
0.0
 49
0.0
 49
0.0
 49
1.0
 49
0.0
 49
0.0
 49
0.0
 49
0.0
 49
1.0
175
     0
142
0.0008202099737533
142
0.0
142
0.0
142
0.0
142
0.0
142
0.0008202099737533
142
0.0
142
0.0
142
0.0
142
0.0
142
1.0
142
0.0
142
0.0
142
0.0
142
0.0
142
1.0
179
     0
144
0.0008202099737533
144
0.0
144
0.0
144
0.0
144
0.0
144
0.0008202099737533
144
0.0
144
0.0
144
0.0
144
0.0
144
1.0
144
0.0
144
0.0
144
0.0
144
0.0
144
1.0
147
0.0008202099737533
147
0.0
147
0.0
147
0.0
147
0.0
147
0.0008202099737533
147
0.0
147
0.0
147
0.0
147
0.0
147
1.0
147
0.0
147
0.0
147
0.0
147
0.0
147
1.0
  0
MATERIAL
  5
2E1
102
{ACAD_XDICTIONARY
360
2E2
102
}
102
{ACAD_REACTORS
330
2D0
102
}
330
2D0
100
AcDbMaterial
  1
Global
 72
     0
 43
0.0008202099737533
 43
0.0
 43
0.0
 43
0.0
 43
0.0
 43
0.0008202099737533
 43
0.0
 43
0.0
 43
0.0
 43
0.0
 43
1.0
 43
0.0
 43
0.0
 43
0.0
 43
0.0
 43
1.0
 77
     0
 47
0.0008202099737533
 47
0.0
 47
0.0
 47
0.0
 47
0.0
 47
0.0008202099737533
 47
0.0
 47
0.0
 47
0.0
 47
0.0
 47
1.0
 47
0.0
 47
0.0
 47
0.0
 47
0.0
 47
1.0
171
     0
 49
0.0008202099737533
 49
0.0
 49
0.0
 49
0.0
 49
0.0
 49
0.0008202099737533
 49
0.0
 49
0.0
 49
0.0
 49
0.0
 49
1.0
 49
0.0
 49
0.0
 49
0.0
 49
0.0
 49
1.0
175
     0
142
0.0008202099737533
142
0.0
142
0.0
142
0.0
142
0.0
142
0.0008202099737533
142
0.0
142
0.0
142
0.0
142
0.0
142
1.0
142
0.0
142
0.0
142
0.0
142
0.0
142
1.0
179
     0
144
0.0008202099737533
144
0.0
144
0.0
144
0.0
144
0.0
144
0.0008202099737533
144
0.0
144
0.0
144
0.0
144
0.0
144
1.0
144
0.0
144
0.0
144
0.0
144
0.0
144
1.0
147
0.0008202099737533
147
0.0
147
0.0
147
0.0
147
0.0
147
0.0008202099737533
147
0.0
147
0.0
147
0.0
147
0.0
147
1.0
147
0.0
147
0.0
147
0.0
147
0.0
147
1.0
  0
MLEADERSTYLE
  5
320
102
{ACAD_REACTORS
330
31F
102
}
330
31F
100
AcDbMLeaderStyle
170
     2
171
     1
172
     0
 90
        2
 40
0.0
 41
0.0
173
     1
 91
-1056964608
340
14
 92
       -2
290
     1
 42
2.0
291
     1
 43
0.36
  3
Standard
 44
4.0
300

342
11
174
     1
178
     6
175
     1
176
     0
 93
-1056964608
 45
4.0
292
     0
297
     0
 46
4.0
 94
-1056964608
 47
1.0
 49
1.0
140
1.0
293
     1
141
0.0
294
     1
177
     0
142
1.0
295
     0
296
     0
143
0.125
1001
ACAD_MLEADERVER
1070
     2
  0
MLINESTYLE
  5
18
102
{ACAD_REACTORS
330
17
102
}
330
17
100
AcDbMlineStyle
  2
STANDARD
 70
     0
  3

 62
   256
 51
90.0
 52
90.0
 71
     2
 49
0.5
 62
   256
  6
BYLAYER
 49
-0.5
 62
   256
  6
BYLAYER
  0
ACDBPLACEHOLDER
  5
F
102
{ACAD_REACTORS
330
E
102
}
330
E
  0
SCALE
  5
2FE
102
{ACAD_REACTORS
330
2FD
102
}
330
2FD
100
AcDbScale
 70
     0
300
1:1
140
1.0
141
1.0
290
     1
  0
SCALE
  5
2FF
102
{ACAD_REACTORS
330
2FD
102
}
330
2FD
100
AcDbScale
 70
     0
300
1:2
140
1.0
141
2.0
290
     0
  0
SCALE
  5
300
102
{ACAD_REACTORS
330
2FD
102
}
330
2FD
100
AcDbScale
 70
     0
300
1:4
140
1.0
141
4.0
290
     0
  0
SCALE
  5
301
102
{ACAD_REACTORS
330
2FD
102
}
330
2FD
100
AcDbScale
 70
     0
300
1:5
140
1.0
141
5.0
290
     0
  0
SCALE
  5
302
102
{ACAD_REACTORS
330
2FD
102
}
330
2FD
100
AcDbScale
 70
     0
300
1:8
140
1.0
141
8.0
290
     0
  0
SCALE
  5
303
102
{ACAD_REACTORS
330
2FD
102
}
330
2FD
100
AcDbScale
 70
     0
300
1:10
140
1.0
141
10.0
290
     0
  0
SCALE
  5
304
102
{ACAD_REACTORS
330
2FD
102
}
330
2FD
100
AcDbScale
 70
     0
300
1:16
140
1.0
141
16.0
290
     0
  0
SCALE
  5
305
102
{ACAD_REACTORS
330
2FD
102
}
330
2FD
100
AcDbScale
 70
     0
300
1:20
140
1.0
141
20.0
290
     0
  0
SCALE
  5
306
102
{ACAD_REACTORS
330
2FD
102
}
330
2FD
100
AcDbScale
 70
     0
300
1:30
140
1.0
141
30.0
290
     0
  0
SCALE
  5
307
102
{ACAD_REACTORS
330
2FD
102
}
330
2FD
100
AcDbScale
 70
     0
300
1:40
140
1.0
141
40.0
290
     0
  0
SCALE
  5
308
102
{ACAD_REACTORS
330
2FD
102
}
330
2FD
100
AcDbScale
 70
     0
300
1:50
140
1.0
141
50.0
290
     0
  0
SCALE
  5
309
102
{ACAD_REACTORS
330
2FD
102
}
330
2FD
100
AcDbScale
 70
     0
300
1:100
140
1.0
141
100.0
290
     0
  0
SCALE
  5
30A
102
{ACAD_REACTORS
330
2FD
102
}
330
2FD
100
AcDbScale
 70
     0
300
2:1
140
2.0
141
1.0
290
     0
  0
SCALE
  5
30B
102
{ACAD_REACTORS
330
2FD
102
}
330
2FD
100
AcDbScale
 70
     0
300
4:1
140
4.0
141
1.0
290
     0
  0
SCALE
  5
30C
102
{ACAD_REACTORS
330
2FD
102
}
330
2FD
100
AcDbScale
 70
     0
300
8:1
140
8.0
141
1.0
290
     0
  0
SCALE
  5
30D
102
{ACAD_REACTORS
330
2FD
102
}
330
2FD
100
AcDbScale
 70
     0
300
10:1
140
10.0
141
1.0
290
     0
  0
SCALE
  5
30E
102
{ACAD_REACTORS
330
2FD
102
}
330
2FD
100
AcDbScale
 70
     0
300
100:1
140
100.0
141
1.0
290
     0
  0
SCALE
  5
30F
102
{ACAD_REACTORS
330
2FD
102
}
330
2FD
100
AcDbScale
 70
     0
300
1/128" = 1'-0"
140
0.0078125
141
12.0
290
     0
  0
SCALE
  5
310
102
{ACAD_REACTORS
330
2FD
102
}
330
2FD
100
AcDbScale
 70
     0
300
1/64" = 1'-0"
140
0.015625
141
12.0
290
     0
  0
SCALE
  5
311
102
{ACAD_REACTORS
330
2FD
102
}
330
2FD
100
AcDbScale
 70
     0
300
1/32" = 1'-0"
140
0.03125
141
12.0
290
     0
  0
SCALE
  5
312
102
{ACAD_REACTORS
330
2FD
102
}
330
2FD
100
AcDbScale
 70
     0
300
1/16" = 1'-0"
140
0.0625
141
12.0
290
     0
  0
SCALE
  5
313
102
{ACAD_REACTORS
330
2FD
102
}
330
2FD
100
AcDbScale
 70
     0
300
3/32" = 1'-0"
140
0.09375
141
12.0
290
     0
  0
SCALE
  5
314
102
{ACAD_REACTORS
330
2FD
102
}
330
2FD
100
AcDbScale
 70
     0
300
1/8" = 1'-0"
140
0.125
141
12.0
290
     0
  0
SCALE
  5
315
102
{ACAD_REACTORS
330
2FD
102
}
330
2FD
100
AcDbScale
 70
     0
300
3/16" = 1'-0"
140
0.1875
141
12.0
290
     0
  0
SCALE
  5
316
102
{ACAD_REACTORS
330
2FD
102
}
330
2FD
100
AcDbScale
 70
     0
300
1/4" = 1'-0"
140
0.25
141
12.0
290
     0
  0
SCALE
  5
317
102
{ACAD_REACTORS
330
2FD
102
}
330
2FD
100
AcDbScale
 70
     0
300
3/8" = 1'-0"
140
0.375
141
12.0
290
     0
  0
SCALE
  5
318
102
{ACAD_REACTORS
330
2FD
102
}
330
2FD
100
AcDbScale
 70
     0
300
1/2" = 1'-0"
140
0.5
141
12.0
290
     0
  0
SCALE
  5
319
102
{ACAD_REACTORS
330
2FD
102
}
330
2FD
100
AcDbScale
 70
     0
300
3/4" = 1'-0"
140
0.75
141
12.0
290
     0
  0
SCALE
  5
31A
102
{ACAD_REACTORS
330
2FD
102
}
330
2FD
100
AcDbScale
 70
     0
300
1" = 1'-0"
140
1.0
141
12.0
290
     0
  0
SCALE
  5
31B
102
{ACAD_REACTORS
330
2FD
102
}
330
2FD
100
AcDbScale
 70
     0
300
1-1/2" = 1'-0"
140
1.5
141
12.0
290
     0
  0
SCALE
  5
31C
102
{ACAD_REACTORS
330
2FD
102
}
330
2FD
100
AcDbScale
 70
     0
300
3" = 1'-0"
140
3.0
141
12.0
290
     0
  0
SCALE
  5
31D
102
{ACAD_REACTORS
330
2FD
102
}
330
2FD
100
AcDbScale
 70
     0
300
6" = 1'-0"
140
6.0
141
12.0
290
     0
  0
SCALE
  5
31E
102
{ACAD_REACTORS
330
2FD
102
}
330
2FD
100
AcDbScale
 70
     0
300
1'-0" = 1'-0"
140
12.0
141
12.0
290
     0
  0
TABLESTYLE
  5
2FC
102
{ACAD_XDICTIONARY
360
544
102
}
102
{ACAD_REACTORS
330
2FB
102
}
330
2FB
100
AcDbTableStyle
  3
Standard
 70
     0
 71
     0
 40
1.5
 41
1.5
280
     0
281
     0
  7
STANDARD
140
4.5
170
     2
 62
     0
 63
     7
283
     0
274
    -2
284
     1
 64
     0
275
    -2
285
     1
 65
     0
276
    -2
286
     1
 66
     0
277
    -2
287
     1
 67
     0
278
    -2
288
     1
 68
     0
279
    -2
289
     1
 69
     0
  7
STANDARD
140
6.0
170
     5
 62
     0
 63
     7
283
     0
274
    -2
284
     1
 64
     0
275
    -2
285
     1
 65
     0
276
    -2
286
     1
 66
     0
277
    -2
287
     1
 67
     0
278
    -2
288
     1
 68
     0
279
    -2
289
     1
 69
     0
  7
STANDARD
140
4.5
170
     5
 62
     0
 63
     7
283
     0
274
    -2
284
     1
 64
     0
275
    -2
285
     1
 65
     0
276
    -2
286
     1
 66
     0
277
    -2
287
     1
 67
     0
278
    -2
288
     1
 68
     0
279
    -2
289
     1
 69
     0
  0
VISUALSTYLE
  5
2EF
102
{ACAD_REACTORS
330
2E9
102
}
330
2E9
100
AcDbVisualStyle
  2
2dWireframe
 70
     4
 71
     0
 72
     2
 73
     0
 90
        0
 40
-0.6
 41
-30.0
 62
     5
 63
     7
 74
     1
 91
        4
 64
     7
 65
   257
 75
     1
175
     1
 42
1.0
 92
        0
 66
   257
 43
1.0
 76
     1
 77
     6
 78
     2
 67
     7
 79
     5
170
     0
171
     0
290
     0
174
     0
 93
        1
 44
0.0
173
     0
291
     0
 45
0.0
1001
ACAD
1000
AcDbSavedByObjectVersion
1070
     0
1000
AcDbSavedByObjectVersion
1070
     0
1000
AcDbSavedByObjectVersion
1070
     0
  0
VISUALSTYLE
  5
2F1
102
{ACAD_REACTORS
330
2E9
102
}
330
2E9
100
AcDbVisualStyle
  2
3D Hidden
 70
     6
 71
     1
 72
     2
 73
     2
 90
        0
 40
-0.6
 41
-30.0
 62
     5
 63
     7
 74
     2
 91
        2
 64
     7
 65
   257
 75
     2
175
     1
 42
40.0
 92
        0
 66
   257
 43
1.0
 76
     1
 77
     6
 78
     2
 67
     7
 79
     3
170
     0
171
     0
290
     0
174
     0
 93
        1
 44
0.0
173
     0
291
     0
 45
0.0
1001
ACAD
1000
AcDbSavedByObjectVersion
1070
     0
1000
AcDbSavedByObjectVersion
1070
     0
1000
AcDbSavedByObjectVersion
1070
     0
  0
VISUALSTYLE
  5
2F0
102
{ACAD_REACTORS
330
2E9
102
}
330
2E9
100
AcDbVisualStyle
  2
3dWireframe
 70
     5
 71
     0
 72
     2
 73
     0
 90
        0
 40
-0.6
 41
-30.0
 62
     5
 63
     7
 74
     1
 91
        4
 64
     7
 65
   257
 75
     1
175
     1
 42
1.0
 92
        0
 66
   257
 43
1.0
 76
     1
 77
     6
 78
     2
 67
     7
 79
     5
170
     0
171
     0
290
     0
174
     0
 93
        1
 44
0.0
173
     0
291
     0
 45
0.0
1001
ACAD
1000
AcDbSavedByObjectVersion
1070
     0
1000
AcDbSavedByObjectVersion
1070
     0
1000
AcDbSavedByObjectVersion
1070
     0
  0
VISUALSTYLE
  5
2EE
102
{ACAD_REACTORS
330
2E9
102
}
330
2E9
100
AcDbVisualStyle
  2
Basic
 70
     7
 71
     1
 72
     0
 73
     1
 90
        0
 40
-0.6
 41
-30.0
 62
     5
 63
     7
 74
     0
 91
        4
 64
     7
 65
   257
 75
     1
175
     1
 42
1.0
 92
        8
 66
     7
 43
1.0
 76
     1
 77
     6
 78
     2
 67
     7
 79
     5
170
     0
171
     0
290
     0
174
     0
 93
        1
 44
0.0
173
     0
291
     1
 45
0.0
1001
ACAD
1000
AcDbSavedByObjectVersion
1070
     0
1000
AcDbSavedByObjectVersion
1070
     0
1000
AcDbSavedByObjectVersion
1070
     0
  0
VISUALSTYLE
  5
2F5
102
{ACAD_REACTORS
330
2E9
102
}
330
2E9
100
AcDbVisualStyle
  2
Brighten
 70
    12
 71
     2
 72
     2
 73
     0
 90
        0
 40
-0.6
 41
-30.0
 62
     5
 63
     7
 74
     1
 91
        4
 64
     7
 65
   257
 75
     1
175
     1
 42
1.0
 92
        8
 66
     7
 43
1.0
 76
     1
 77
     6
 78
     2
 67
     7
 79
     5
170
     0
171
     0
290
     0
174
     0
 93
        1
 44
50.0
173
     0
291
     1
 45
0.0
1001
ACAD
1000
AcDbSavedByObjectVersion
1070
     0
1000
AcDbSavedByObjectVersion
1070
     0
1000
AcDbSavedByObjectVersion
1070
     0
  0
VISUALSTYLE
  5
2F9
102
{ACAD_REACTORS
330
2E9
102
}
330
2E9
100
AcDbVisualStyle
  2
ColorChange
 70
    16
 71
     2
 72
     2
 73
     3
 90
        0
 40
-0.6
 41
-30.0
 62
     5
 63
     8
 74
     1
 91
        4
 64
     7
 65
   257
 75
     1
175
     1
 42
1.0
 92
        8
 66
     8
 43
1.0
 76
     1
 77
     6
 78
     2
 67
     7
 79
     5
170
     0
171
     0
290
     0
174
     0
 93
        1
 44
0.0
173
     0
291
     1
 45
0.0
1001
ACAD
1000
AcDbSavedByObjectVersion
1070
     0
1000
AcDbSavedByObjectVersion
1070
     0
1000
AcDbSavedByObjectVersion
1070
     0
  0
VISUALSTYLE
  5
2F2
102
{ACAD_REACTORS
330
2E9
102
}
330
2E9
100
AcDbVisualStyle
  2
Conceptual
 70
     9
 71
     3
 72
     2
 73
     0
 90
        0
 40
-0.6
 41
-30.0
 62
     5
 63
     7
 74
     2
 91
        2
 64
     7
 65
   257
 75
     1
175
     1
 42
40.0
 92
        8
 66
     7
 43
1.0
 76
     1
 77
     6
 78
     2
 67
     7
 79
     3
170
     0
171
     0
290
     0
174
     0
 93
        1
 44
0.0
173
     0
291
     0
 45
0.0
1001
ACAD
1000
AcDbSavedByObjectVersion
1070
     0
1000
AcDbSavedByObjectVersion
1070
     0
1000
AcDbSavedByObjectVersion
1070
     0
  0
VISUALSTYLE
  5
2F4
102
{ACAD_REACTORS
330
2E9
102
}
330
2E9
100
AcDbVisualStyle
  2
Dim
 70
    11
 71
     2
 72
     2
 73
     0
 90
        0
 40
-0.6
 41
-30.0
 62
     5
 63
     7
 74
     1
 91
        4
 64
     7
 65
   257
 75
     1
175
     1
 42
1.0
 92
        8
 66
     7
 43
1.0
 76
     1
 77
     6
 78
     2
 67
     7
 79
     5
170
     0
171
     0
290
     0
174
     0
 93
        1
 44
-50.0
173
     0
291
     1
 45
0.0
1001
ACAD
1000
AcDbSavedByObjectVersion
1070
     0
1000
AcDbSavedByObjectVersion
1070
     0
1000
AcDbSavedByObjectVersion
1070
     0
  0
VISUALSTYLE
  5
2F8
102
{ACAD_REACTORS
330
2E9
102
}
330
2E9
100
AcDbVisualStyle
  2
Facepattern
 70
    15
 71
     2
 72
     2
 73
     0
 90
        0
 40
-0.6
 41
-30.0
 62
     5
 63
     7
 74
     1
 91
        4
 64
     7
 65
   257
 75
     1
175
     1
 42
1.0
 92
        8
 66
     7
 43
1.0
 76
     1
 77
     6
 78
     2
 67
     7
 79
     5
170
     0
171
     0
290
     0
174
     0
 93
        1
 44
0.0
173
     0
291
     1
 45
0.0
1001
ACAD
1000
AcDbSavedByObjectVersion
1070
     0
1000
AcDbSavedByObjectVersion
1070
     0
1000
AcDbSavedByObjectVersion
1070
     0
  0
VISUALSTYLE
  5
2EA
102
{ACAD_REACTORS
330
2E9
102
}
330
2E9
100
AcDbVisualStyle
  2
Flat
 70
     0
 71
     2
 72
     1
 73
     1
 90
        2
 40
-0.6
 41
30.0
 62
     5
 63
     7
 74
     0
 91
        4
 64
     7
 65
   257
 75
     1
175
     1
 42
1.0
 92
        8
 66
     7
 43
1.0
 76
     1
 77
     6
 78
     2
 67
     7
 79
     5
170
     0
171
     0
290
     0
174
     0
 93
       13
 44
0.0
173
     0
291
     1
 45
0.0
1001
ACAD
1000
AcDbSavedByObjectVersion
1070
     0
1000
AcDbSavedByObjectVersion
1070
     0
1000
AcDbSavedByObjectVersion
1070
     0
  0
VISUALSTYLE
  5
2EB
102
{ACAD_REACTORS
330
2E9
102
}
330
2E9
100
AcDbVisualStyle
  2
FlatWithEdges
 70
     1
 71
     2
 72
     1
 73
     1
 90
        2
 40
-0.6
 41
30.0
 62
     5
 63
     7
 74
     1
 91
        4
 64
     7
 65
   257
 75
     1
175
     1
 42
1.0
 92
        0
 66
   257
 43
1.0
 76
     1
 77
     6
 78
     2
 67
     7
 79
     5
170
     0
171
     0
290
     0
174
     0
 93
       13
 44
0.0
173
     0
291
     1
 45
0.0
1001
ACAD
1000
AcDbSavedByObjectVersion
1070
     0
1000
AcDbSavedByObjectVersion
1070
     0
1000
AcDbSavedByObjectVersion
1070
     0
  0
VISUALSTYLE
  5
2EC
102
{ACAD_REACTORS
330
2E9
102
}
330
2E9
100
AcDbVisualStyle
  2
Gouraud
 70
     2
 71
     2
 72
     2
 73
     1
 90
        2
 40
-0.6
 41
30.0
 62
     5
 63
     7
 74
     0
 91
        4
 64
     7
 65
   257
 75
     1
175
     1
 42
1.0
 92
        0
 66
     7
 43
1.0
 76
     1
 77
     6
 78
     2
 67
     7
 79
     5
170
     0
171
     0
290
     0
174
     0
 93
       13
 44
0.0
173
     0
291
     1
 45
0.0
1001
ACAD
1000
AcDbSavedByObjectVersion
1070
     0
1000
AcDbSavedByObjectVersion
1070
     0
1000
AcDbSavedByObjectVersion
1070
     0
  0
VISUALSTYLE
  5
2ED
102
{ACAD_REACTORS
330
2E9
102
}
330
2E9
100
AcDbVisualStyle
  2
GouraudWithEdges
 70
     3
 71
     2
 72
     2
 73
     1
 90
        2
 40
-0.6
 41
30.0
 62
     5
 63
     7
 74
     1
 91
        4
 64
     7
 65
   257
 75
     1
175
     1
 42
1.0
 92
        0
 66
   257
 43
1.0
 76
     1
 77
     6
 78
     2
 67
     7
 79
     5
170
     0
171
     0
290
     0
174
     0
 93
       13
 44
0.0
173
     0
291
     1
 45
0.0
1001
ACAD
1000
AcDbSavedByObjectVersion
1070
     0
1000
AcDbSavedByObjectVersion
1070
     0
1000
AcDbSavedByObjectVersion
1070
     0
  0
VISUALSTYLE
  5
2F7
102
{ACAD_REACTORS
330
2E9
102
}
330
2E9
100
AcDbVisualStyle
  2
Linepattern
 70
    14
 71
     2
 72
     2
 73
     0
 90
        0
 40
-0.6
 41
-30.0
 62
     5
 63
     7
 74
     1
 91
        4
 64
     7
 65
   257
 75
     7
175
     7
 42
1.0
 92
        8
 66
     7
 43
1.0
 76
     1
 77
     6
 78
     2
 67
     7
 79
     5
170
     0
171
     0
290
     0
174
     0
 93
        1
 44
0.0
173
     0
291
     1
 45
0.0
1001
ACAD
1000
AcDbSavedByObjectVersion
1070
     0
1000
AcDbSavedByObjectVersion
1070
     0
1000
AcDbSavedByObjectVersion
1070
     0
  0
VISUALSTYLE
  5
2F3
102
{ACAD_REACTORS
330
2E9
102
}
330
2E9
100
AcDbVisualStyle
  2
Realistic
 70
     8
 71
     2
 72
     2
 73
     0
 90
        0
 40
-0.6
 41
-30.0
 62
     5
 63
     7
 74
     1
 91
        0
 64
     7
 65
   257
 75
     1
175
     1
 42
1.0
 92
        8
 66
     8
 43
1.0
 76
     1
 77
     6
 78
     2
 67
     7
 79
     5
170
     0
171
     0
290
     0
174
     0
 93
       13
 44
0.0
173
     0
291
     0
 45
0.0
1001
ACAD
1000
AcDbSavedByObjectVersion
1070
     0
1000
AcDbSavedByObjectVersion
1070
     0
1000
AcDbSavedByObjectVersion
1070
     0
  0
VISUALSTYLE
  5
2F6
102
{ACAD_REACTORS
330
2E9
102
}
330
2E9
100
AcDbVisualStyle
  2
Thicken
 70
    13
 71
     2
 72
     2
 73
     0
 90
        0
 40
-0.6
 41
-30.0
 62
     5
 63
     7
 74
     1
 91
        4
 64
     7
 65
   257
 75
     1
175
     1
 42
1.0
 92
       12
 66
     7
 43
1.0
 76
     1
 77
     6
 78
     2
 67
     7
 79
     5
170
     0
171
     0
290
     0
174
     0
 93
        1
 44
0.0
173
     0
291
     1
 45
0.0
1001
ACAD
1000
AcDbSavedByObjectVersion
1070
     0
1000
AcDbSavedByObjectVersion
1070
     0
1000
AcDbSavedByObjectVersion
1070
     0
  0
DICTIONARYVAR
  5
53E
102
{ACAD_REACTORS
330
53A
102
}
330
53A
100
DictionaryVariables
280
     0
  1
1:1
  0
DICTIONARYVAR
  5
53C
102
{ACAD_REACTORS
330
53A
102
}
330
53A
100
DictionaryVariables
280
     0
  1
STANDARD
  0
DICTIONARYVAR
  5
53B
102
{ACAD_REACTORS
330
53A
102
}
330
53A
100
DictionaryVariables
280
     0
  1
STANDARD
  0
DICTIONARYVAR
  5
543
102
{ACAD_REACTORS
330
53A
102
}
330
53A
100
DictionaryVariables
280
     0
  1
2
  0
DICTIONARYVAR
  5
542
102
{ACAD_REACTORS
330
53A
102
}
330
53A
100
DictionaryVariables
280
     0
  1
1
  0
DICTIONARYVAR
  5
541
102
{ACAD_REACTORS
330
53A
102
}
330
53A
100
DictionaryVariables
280
     0
  1
0
  0
DICTIONARYVAR
  5
53F
102
{ACAD_REACTORS
330
53A
102
}
330
53A
100
DictionaryVariables
280
     0
  1
2
  0
DICTIONARYVAR
  5
53D
102
{ACAD_REACTORS
330
53A
102
}
330
53A
100
DictionaryVariables
280
     0
  1
1
  0
DICTIONARYVAR
  5
540
102
{ACAD_REACTORS
330
53A
102
}
330
53A
100
DictionaryVariables
280
     0
  1
127
  0
DICTIONARY
  5
5F9
330
2CD
100
AcDbDictionary
280
     1
281
     1
  3
ACAD_XREC_ROUNDTRIP
360
5FA
  0
DICTIONARY
  5
5F7
330
2CC
100
AcDbDictionary
280
     1
281
     1
  3
ACAD_XREC_ROUNDTRIP
360
5F8
  0
DICTIONARY
  5
2DA
330
2D9
100
AcDbDictionary
280
     1
281
     1
  3
ACAD_XREC_ROUNDTRIP
360
54F
  3
BUMPTILE
360
2DC
  3
DIFFUSETILE
360
2DB
  3
OPACITYTILE
360
2DF
  3
REFLECTIONTILE
360
2DE
  3
REFRACTIONTILE
360
2E0
  3
SPECULARTILE
360
2DD
  0
DICTIONARY
  5
2D2
330
2D1
100
AcDbDictionary
280
     1
281
     1
  3
ACAD_XREC_ROUNDTRIP
360
54E
  3
BUMPTILE
360
2D4
  3
DIFFUSETILE
360
2D3
  3
OPACITYTILE
360
2D7
  3
REFLECTIONTILE
360
2D6
  3
REFRACTIONTILE
360
2D8
  3
SPECULARTILE
360
2D5
  0
DICTIONARY
  5
2E2
330
2E1
100
AcDbDictionary
280
     1
281
     1
  3
ACAD_XREC_ROUNDTRIP
360
550
  3
BUMPTILE
360
2E4
  3
DIFFUSETILE
360
2E3
  3
OPACITYTILE
360
2E7
  3
REFLECTIONTILE
360
2E6
  3
REFRACTIONTILE
360
2E8
  3
SPECULARTILE
360
2E5
  0
DICTIONARY
  5
544
330
2FC
100
AcDbDictionary
280
     1
281
     1
  3
ACAD_ROUNDTRIP_2008_TABLESTYLE_CELLSTYLEMAP
360
5F3
  3
ACAD_XREC_ROUNDTRIP
360
5FB
  0
XRECORD
  5
5FA
102
{ACAD_REACTORS
330
5F9
102
}
330
5F9
100
AcDbXrecord
280
     1
102
SHADEPLOT
 70
     0
102
SHADEPLOTRESLEVEL
 70
     2
102
SHADEPLOTCUSTOMDPI
 70
   300
  0
XRECORD
  5
5F8
102
{ACAD_REACTORS
330
5F7
102
}
330
5F7
100
AcDbXrecord
280
     1
102
SHADEPLOT
 70
     0
102
SHADEPLOTRESLEVEL
 70
     2
102
SHADEPLOTCUSTOMDPI
 70
   300
  0
XRECORD
  5
54F
102
{ACAD_REACTORS
330
2DA
102
}
330
2DA
100
AcDbXrecord
280
     1
102
MATERIAL
148
0.0
149
0.0
149
0.0
 93
        0
 94
      127
282
     0
 72
     0
 77
     0
171
     0
175
     0
179
     0
273
     0
  0
XRECORD
  5
2DC
102
{ACAD_REACTORS
330
2DA
102
}
330
2DA
100
AcDbXrecord
280
     1
270
     1
271
     1
  0
XRECORD
  5
2DB
102
{ACAD_REACTORS
330
2DA
102
}
330
2DA
100
AcDbXrecord
280
     1
270
     1
271
     1
  0
XRECORD
  5
2DF
102
{ACAD_REACTORS
330
2DA
102
}
330
2DA
100
AcDbXrecord
280
     1
270
     1
271
     1
  0
XRECORD
  5
2DE
102
{ACAD_REACTORS
330
2DA
102
}
330
2DA
100
AcDbXrecord
280
     1
270
     1
271
     1
  0
XRECORD
  5
2E0
102
{ACAD_REACTORS
330
2DA
102
}
330
2DA
100
AcDbXrecord
280
     1
270
     1
271
     1
  0
XRECORD
  5
2DD
102
{ACAD_REACTORS
330
2DA
102
}
330
2DA
100
AcDbXrecord
280
     1
270
     1
271
     1
  0
XRECORD
  5
54E
102
{ACAD_REACTORS
330
2D2
102
}
330
2D2
100
AcDbXrecord
280
     1
102
MATERIAL
148
0.0
149
0.0
149
0.0
 93
        0
 94
      127
282
     0
 72
     0
 77
     0
171
     0
175
     0
179
     0
273
     0
  0
XRECORD
  5
2D4
102
{ACAD_REACTORS
330
2D2
102
}
330
2D2
100
AcDbXrecord
280
     1
270
     1
271
     1
  0
XRECORD
  5
2D3
102
{ACAD_REACTORS
330
2D2
102
}
330
2D2
100
AcDbXrecord
280
     1
270
     1
271
     1
  0
XRECORD
  5
2D7
102
{ACAD_REACTORS
330
2D2
102
}
330
2D2
100
AcDbXrecord
280
     1
270
     1
271
     1
  0
XRECORD
  5
2D6
102
{ACAD_REACTORS
330
2D2
102
}
330
2D2
100
AcDbXrecord
280
     1
270
     1
271
     1
  0
XRECORD
  5
2D8
102
{ACAD_REACTORS
330
2D2
102
}
330
2D2
100
AcDbXrecord
280
     1
270
     1
271
     1
  0
XRECORD
  5
2D5
102
{ACAD_REACTORS
330
2D2
102
}
330
2D2
100
AcDbXrecord
280
     1
270
     1
271
     1
  0
XRECORD
  5
550
102
{ACAD_REACTORS
330
2E2
102
}
330
2E2
100
AcDbXrecord
280
     1
102
MATERIAL
148
0.0
149
0.0
149
0.0
 93
        0
 94
      127
282
     0
 72
     0
 77
     0
171
     0
175
     0
179
     0
273
     0
  0
XRECORD
  5
2E4
102
{ACAD_REACTORS
330
2E2
102
}
330
2E2
100
AcDbXrecord
280
     1
270
     1
271
     1
  0
XRECORD
  5
2E3
102
{ACAD_REACTORS
330
2E2
102
}
330
2E2
100
AcDbXrecord
280
     1
270
     1
271
     1
  0
XRECORD
  5
2E7
102
{ACAD_REACTORS
330
2E2
102
}
330
2E2
100
AcDbXrecord
280
     1
270
     1
271
     1
  0
XRECORD
  5
2E6
102
{ACAD_REACTORS
330
2E2
102
}
330
2E2
100
AcDbXrecord
280
     1
270
     1
271
     1
  0
XRECORD
  5
2E8
102
{ACAD_REACTORS
330
2E2
102
}
330
2E2
100
AcDbXrecord
280
     1
270
     1
271
     1
  0
XRECORD
  5
2E5
102
{ACAD_REACTORS
330
2E2
102
}
330
2E2
100
AcDbXrecord
280
     1
270
     1
271
     1
  0
CELLSTYLEMAP
  5
5F3
102
{ACAD_REACTORS
330
544
102
}
330
544
100
AcDbCellStyleMap
 90
        3
300
CELLSTYLE
  1
TABLEFORMAT_BEGIN
 90
        5
170
     1
 91
        0
 92
    32768
 62
   257
 93
        1
300
CONTENTFORMAT
  1
CONTENTFORMAT_BEGIN
 90
        0
 91
        0
 92
      512
 93
        0
300

 40
0.0
140
1.0
 94
        5
 62
     0
340
11
144
6.0
309
CONTENTFORMAT_END
171
     1
301
MARGIN
  1
CELLMARGIN_BEGIN
 40
1.5
 40
1.5
 40
1.5
 40
1.5
 40
0.18
 40
0.18
309
CELLMARGIN_END
 94
        6
 95
        1
302
GRIDFORMAT
  1
GRIDFORMAT_BEGIN
 90
        0
 91
        1
 62
     0
 92
       -2
340
0
 93
        0
 40
1.125
309
GRIDFORMAT_END
 95
        2
302
GRIDFORMAT
  1
GRIDFORMAT_BEGIN
 90
        0
 91
        1
 62
     0
 92
       -2
340
0
 93
        0
 40
1.125
309
GRIDFORMAT_END
 95
        4
302
GRIDFORMAT
  1
GRIDFORMAT_BEGIN
 90
        0
 91
        1
 62
     0
 92
       -2
340
0
 93
        0
 40
1.125
309
GRIDFORMAT_END
 95
        8
302
GRIDFORMAT
  1
GRIDFORMAT_BEGIN
 90
        0
 91
        1
 62
     0
 92
       -2
340
0
 93
        0
 40
1.125
309
GRIDFORMAT_END
 95
       16
302
GRIDFORMAT
  1
GRIDFORMAT_BEGIN
 90
        0
 91
        1
 62
     0
 92
       -2
340
0
 93
        0
 40
1.125
309
GRIDFORMAT_END
 95
       32
302
GRIDFORMAT
  1
GRIDFORMAT_BEGIN
 90
        0
 91
        1
 62
     0
 92
       -2
340
0
 93
        0
 40
1.125
309
GRIDFORMAT_END
309
TABLEFORMAT_END
  1
CELLSTYLE_BEGIN
 90
        1
 91
        1
300
_TITLE
309
CELLSTYLE_END
300
CELLSTYLE
  1
TABLEFORMAT_BEGIN
 90
        5
170
     1
 91
        0
 92
        0
 62
   257
 93
        1
300
CONTENTFORMAT
  1
CONTENTFORMAT_BEGIN
 90
        0
 91
        0
 92
      512
 93
        0
300

 40
0.0
140
1.0
 94
        5
 62
     0
340
11
144
4.5
309
CONTENTFORMAT_END
171
     1
301
MARGIN
  1
CELLMARGIN_BEGIN
 40
1.5
 40
1.5
 40
1.5
 40
1.5
 40
0.18
 40
0.18
309
CELLMARGIN_END
 94
        6
 95
        1
302
GRIDFORMAT
  1
GRIDFORMAT_BEGIN
 90
        0
 91
        1
 62
     0
 92
       -2
340
0
 93
        0
 40
1.125
309
GRIDFORMAT_END
 95
        2
302
GRIDFORMAT
  1
GRIDFORMAT_BEGIN
 90
        0
 91
        1
 62
     0
 92
       -2
340
0
 93
        0
 40
1.125
309
GRIDFORMAT_END
 95
        4
302
GRIDFORMAT
  1
GRIDFORMAT_BEGIN
 90
        0
 91
        1
 62
     0
 92
       -2
340
0
 93
        0
 40
1.125
309
GRIDFORMAT_END
 95
        8
302
GRIDFORMAT
  1
GRIDFORMAT_BEGIN
 90
        0
 91
        1
 62
     0
 92
       -2
340
0
 93
        0
 40
1.125
309
GRIDFORMAT_END
 95
       16
302
GRIDFORMAT
  1
GRIDFORMAT_BEGIN
 90
        0
 91
        1
 62
     0
 92
       -2
340
0
 93
        0
 40
1.125
309
GRIDFORMAT_END
 95
       32
302
GRIDFORMAT
  1
GRIDFORMAT_BEGIN
 90
        0
 91
        1
 62
     0
 92
       -2
340
0
 93
        0
 40
1.125
309
GRIDFORMAT_END
309
TABLEFORMAT_END
  1
CELLSTYLE_BEGIN
 90
        2
 91
        1
300
_HEADER
309
CELLSTYLE_END
300
CELLSTYLE
  1
TABLEFORMAT_BEGIN
 90
        5
170
     1
 91
        0
 92
        0
 62
   257
 93
        1
300
CONTENTFORMAT
  1
CONTENTFORMAT_BEGIN
 90
        0
 91
        0
 92
      512
 93
        0
300

 40
0.0
140
1.0
 94
        2
 62
     0
340
11
144
4.5
309
CONTENTFORMAT_END
171
     1
301
MARGIN
  1
CELLMARGIN_BEGIN
 40
1.5
 40
1.5
 40
1.5
 40
1.5
 40
0.18
 40
0.18
309
CELLMARGIN_END
 94
        6
 95
        1
302
GRIDFORMAT
  1
GRIDFORMAT_BEGIN
 90
        0
 91
        1
 62
     0
 92
       -2
340
0
 93
        0
 40
1.125
309
GRIDFORMAT_END
 95
        2
302
GRIDFORMAT
  1
GRIDFORMAT_BEGIN
 90
        0
 91
        1
 62
     0
 92
       -2
340
0
 93
        0
 40
1.125
309
GRIDFORMAT_END
 95
        4
302
GRIDFORMAT
  1
GRIDFORMAT_BEGIN
 90
        0
 91
        1
 62
     0
 92
       -2
340
0
 93
        0
 40
1.125
309
GRIDFORMAT_END
 95
        8
302
GRIDFORMAT
  1
GRIDFORMAT_BEGIN
 90
        0
 91
        1
 62
     0
 92
       -2
340
0
 93
        0
 40
1.125
309
GRIDFORMAT_END
 95
       16
302
GRIDFORMAT
  1
GRIDFORMAT_BEGIN
 90
        0
 91
        1
 62
     0
 92
       -2
340
0
 93
        0
 40
1.125
309
GRIDFORMAT_END
 95
       32
302
GRIDFORMAT
  1
GRIDFORMAT_BEGIN
 90
        0
 91
        1
 62
     0
 92
       -2
340
0
 93
        0
 40
1.125
309
GRIDFORMAT_END
309
TABLEFORMAT_END
  1
CELLSTYLE_BEGIN
 90
        3
 91
        2
300
_DATA
309
CELLSTYLE_END
  0
XRECORD
  5
5FB
102
{ACAD_REACTORS
330
544
102
}
330
544
100
AcDbXrecord
280
     1
102
ACAD_ROUNDTRIP_PRE2007_TABLESTYLE
 90
      512
 91
        0
  1

 92
      512
 93
        0
  2

 94
      512
 95
        0
  3

  0
ENDSEC
  0
EOF
