  0
SECTION
  2
HEADER
  9
$ACADVER
  1
AC1015
  9
$ACADMAINTVER
 70
    20
  9
$DWGCODEPAGE
  3
ANSI_936
  9
$INSBASE
 10
0.0
 20
0.0
 30
0.0
  9
$EXTMIN
 10
-3236.162265398161
 20
-2271.672146824708
 30
0.0
  9
$EXTMAX
 10
3309.236940523961
 20
2031.022538197742
 30
0.0
  9
$LIMMIN
 10
0.0
 20
0.0
  9
$LIMMAX
 10
558.8
 20
431.8
  9
$ORTHOMODE
 70
     0
  9
$REGENMODE
 70
     1
  9
$FILLMODE
 70
     1
  9
$QTEXTMODE
 70
     0
  9
$MIRRTEXT
 70
     0
  9
$LTSCALE
 40
30.734
  9
$ATTMODE
 70
     1
  9
$TEXTSIZE
 40
0.2
  9
$TRACEWID
 40
0.05
  9
$TEXTSTYLE
  7
STANDARD
  9
$CLAYER
  8
0
  9
$CELTYPE
  6
BYLAYER
  9
$CECOLOR
 62
   256
  9
$CELTSCALE
 40
1.0
  9
$DISPSILH
 70
     0
  9
$DIMSCALE
 40
1.0
  9
$DIMASZ
 40
3.5
  9
$DIMEXO
 40
3.4925
  9
$DIMDLI
 40
21.2344
  9
$DIMRND
 40
0.0
  9
$DIMDLE
 40
0.0
  9
$DIMEXE
 40
10.0584
  9
$DIMTP
 40
0.01
  9
$DIMTM
 40
0.01
  9
$DIMTXT
 40
3.5
  9
$DIMCEN
 40
5.0292
  9
$DIMTSZ
 40
0.0
  9
$DIMTOL
 70
     1
  9
$DIMLIM
 70
     0
  9
$DIMTIH
 70
     1
  9
$DIMTOH
 70
     1
  9
$DIMSE1
 70
     0
  9
$DIMSE2
 70
     0
  9
$DIMTAD
 70
     0
  9
$DIMZIN
 70
     0
  9
$DIMBLK
  1

  9
$DIMASO
 70
     1
  9
$DIMSHO
 70
     1
  9
$DIMPOST
  1

  9
$DIMAPOST
  1

  9
$DIMALT
 70
     0
  9
$DIMALTD
 70
     2
  9
$DIMALTF
 40
25.4
  9
$DIMLFAC
 40
1.0
  9
$DIMTOFL
 70
     0
  9
$DIMTVP
 40
0.0
  9
$DIMTIX
 70
     0
  9
$DIMSOXD
 70
     0
  9
$DIMSAH
 70
     0
  9
$DIMBLK1
  1

  9
$DIMBLK2
  1

  9
$DIMSTYLE
  2
STANDARD
  9
$DIMCLRD
 70
     0
  9
$DIMCLRE
 70
     0
  9
$DIMCLRT
 70
     0
  9
$DIMTFAC
 40
1.0
  9
$DIMGAP
 40
0.09
  9
$DIMJUST
 70
     0
  9
$DIMSD1
 70
     0
  9
$DIMSD2
 70
     0
  9
$DIMTOLJ
 70
     1
  9
$DIMTZIN
 70
     0
  9
$DIMALTZ
 70
     0
  9
$DIMALTTZ
 70
     0
  9
$DIMUPT
 70
     0
  9
$DIMDEC
 70
     4
  9
$DIMTDEC
 70
     4
  9
$DIMALTU
 70
     2
  9
$DIMALTTD
 70
     2
  9
$DIMTXSTY
  7
STANDARD
  9
$DIMAUNIT
 70
     0
  9
$DIMADEC
 70
     0
  9
$DIMALTRND
 40
0.0
  9
$DIMAZIN
 70
     0
  9
$DIMDSEP
 70
    46
  9
$DIMATFIT
 70
     3
  9
$DIMFRAC
 70
     0
  9
$DIMLDRBLK
  1

  9
$DIMLUNIT
 70
     2
  9
$DIMLWD
 70
    -2
  9
$DIMLWE
 70
    -2
  9
$DIMTMOVE
 70
     0
  9
$LUNITS
 70
     2
  9
$LUPREC
 70
     4
  9
$SKETCHINC
 40
0.1
  9
$FILLETRAD
 40
0.0
  9
$AUNITS
 70
     0
  9
$AUPREC
 70
     0
  9
$MENU
  1
.
  9
$ELEVATION
 40
0.0
  9
$PELEVATION
 40
0.0
  9
$THICKNESS
 40
0.0
  9
$LIMCHECK
 70
     0
  9
$CHAMFERA
 40
0.0
  9
$CHAMFERB
 40
0.0
  9
$CHAMFERC
 40
0.0
  9
$CHAMFERD
 40
0.0
  9
$SKPOLY
 70
     0
  9
$TDCREATE
 40
2458705.616825081
  9
$TDUCREATE
 40
2458705.283491747
  9
$TDUPDATE
 40
2458708.584128693
  9
$TDUUPDATE
 40
2458708.250795359
  9
$TDINDWG
 40
0.0051207292
  9
$TDUSRTIMER
 40
0.0051205440
  9
$USRTIMER
 70
     1
  9
$ANGBASE
 50
0.0
  9
$ANGDIR
 70
     0
  9
$PDMODE
 70
     3
  9
$PDSIZE
 40
8.0
  9
$PLINEWID
 40
0.0
  9
$SPLFRAME
 70
     0
  9
$SPLINETYPE
 70
     6
  9
$SPLINESEGS
 70
     8
  9
$HANDSEED
  5
7D8
  9
$SURFTAB1
 70
     6
  9
$SURFTAB2
 70
     6
  9
$SURFTYPE
 70
     6
  9
$SURFU
 70
     6
  9
$SURFV
 70
     6
  9
$UCSBASE
  2

  9
$UCSNAME
  2

  9
$UCSORG
 10
0.0
 20
0.0
 30
0.0
  9
$UCSXDIR
 10
1.0
 20
0.0
 30
0.0
  9
$UCSYDIR
 10
0.0
 20
1.0
 30
0.0
  9
$UCSORTHOREF
  2

  9
$UCSORTHOVIEW
 70
     0
  9
$UCSORGTOP
 10
0.0
 20
0.0
 30
0.0
  9
$UCSORGBOTTOM
 10
0.0
 20
0.0
 30
0.0
  9
$UCSORGLEFT
 10
0.0
 20
0.0
 30
0.0
  9
$UCSORGRIGHT
 10
0.0
 20
0.0
 30
0.0
  9
$UCSORGFRONT
 10
0.0
 20
0.0
 30
0.0
  9
$UCSORGBACK
 10
0.0
 20
0.0
 30
0.0
  9
$PUCSBASE
  2

  9
$PUCSNAME
  2

  9
$PUCSORG
 10
0.0
 20
0.0
 30
0.0
  9
$PUCSXDIR
 10
1.0
 20
0.0
 30
0.0
  9
$PUCSYDIR
 10
0.0
 20
1.0
 30
0.0
  9
$PUCSORTHOREF
  2

  9
$PUCSORTHOVIEW
 70
     0
  9
$PUCSORGTOP
 10
0.0
 20
0.0
 30
0.0
  9
$PUCSORGBOTTOM
 10
0.0
 20
0.0
 30
0.0
  9
$PUCSORGLEFT
 10
0.0
 20
0.0
 30
0.0
  9
$PUCSORGRIGHT
 10
0.0
 20
0.0
 30
0.0
  9
$PUCSORGFRONT
 10
0.0
 20
0.0
 30
0.0
  9
$PUCSORGBACK
 10
0.0
 20
0.0
 30
0.0
  9
$USERI1
 70
     0
  9
$USERI2
 70
     0
  9
$USERI3
 70
     0
  9
$USERI4
 70
     0
  9
$USERI5
 70
     0
  9
$USERR1
 40
0.0
  9
$USERR2
 40
0.0
  9
$USERR3
 40
0.0
  9
$USERR4
 40
0.0
  9
$USERR5
 40
0.0
  9
$WORLDVIEW
 70
     1
  9
$SHADEDGE
 70
     3
  9
$SHADEDIF
 70
    70
  9
$TILEMODE
 70
     1
  9
$MAXACTVP
 70
    64
  9
$PINSBASE
 10
0.0
 20
0.0
 30
0.0
  9
$PLIMCHECK
 70
     0
  9
$PEXTMIN
 10
1.000000000000000E+20
 20
1.000000000000000E+20
 30
1.000000000000000E+20
  9
$PEXTMAX
 10
-1.000000000000000E+20
 20
-1.000000000000000E+20
 30
-1.000000000000000E+20
  9
$PLIMMIN
 10
0.0
 20
0.0
  9
$PLIMMAX
 10
12.0
 20
9.0
  9
$UNITMODE
 70
     0
  9
$VISRETAIN
 70
     1
  9
$PLINEGEN
 70
     0
  9
$PSLTSCALE
 70
     1
  9
$TREEDEPTH
 70
  3020
  9
$CMLSTYLE
  2
Standard
  9
$CMLJUST
 70
     0
  9
$CMLSCALE
 40
1.0
  9
$PROXYGRAPHICS
 70
     1
  9
$MEASUREMENT
 70
     1
  9
$CELWEIGHT
370
    -1
  9
$ENDCAPS
280
     0
  9
$JOINSTYLE
280
     0
  9
$LWDISPLAY
290
     0
  9
$INSUNITS
 70
     4
  9
$HYPERLINKBASE
  1

  9
$STYLESHEET
  1

  9
$XEDIT
290
     1
  9
$CEPSNTYPE
380
     0
  9
$PSTYLEMODE
290
     1
  9
$FINGERPRINTGUID
  2
{B9B8F33C-52FE-41DF-876D-9F9E4099B8D2}
  9
$VERSIONGUID
  2
{E8D85DE7-3C1A-4FC0-8E80-8353ED5C5175}
  9
$EXTNAMES
290
     1
  9
$PSVPSCALE
 40
0.0
  9
$OLESTARTUP
290
     0
  0
ENDSEC
  0
SECTION
  2
CLASSES
  0
CLASS
  1
ACDBDICTIONARYWDFLT
  2
AcDbDictionaryWithDefault
  3
ObjectDBX Classes
 90
        0
280
     0
281
     0
  0
CLASS
  1
ACDBPLACEHOLDER
  2
AcDbPlaceHolder
  3
ObjectDBX Classes
 90
        0
280
     0
281
     0
  0
CLASS
  1
LAYOUT
  2
AcDbLayout
  3
ObjectDBX Classes
 90
        0
280
     0
281
     0
  0
CLASS
  1
MATERIAL
  2
AcDbMaterial
  3
ObjectDBX Classes
 90
     1153
280
     0
281
     0
  0
CLASS
  1
VISUALSTYLE
  2
AcDbVisualStyle
  3
ObjectDBX Classes
 90
     4095
280
     0
281
     0
  0
CLASS
  1
TABLESTYLE
  2
AcDbTableStyle
  3
ObjectDBX Classes
 90
     4095
280
     0
281
     0
  0
CLASS
  1
SCALE
  2
AcDbScale
  3
ObjectDBX Classes
 90
     1153
280
     0
281
     0
  0
CLASS
  1
MLEADERSTYLE
  2
AcDbMLeaderStyle
  3
ACDB_MLEADERSTYLE_CLASS
 90
     4095
280
     0
281
     0
  0
CLASS
  1
DICTIONARYVAR
  2
AcDbDictionaryVar
  3
ObjectDBX Classes
 90
        0
280
     0
281
     0
  0
CLASS
  1
CELLSTYLEMAP
  2
AcDbCellStyleMap
  3
ObjectDBX Classes
 90
     1152
280
     0
281
     0
  0
CLASS
  1
SORTENTSTABLE
  2
AcDbSortentsTable
  3
ObjectDBX Classes
 90
        0
280
     0
281
     0
  0
ENDSEC
  0
SECTION
  2
TABLES
  0
TABLE
  2
VPORT
  5
8
330
0
100
AcDbSymbolTable
 70
     1
  0
VPORT
  5
1F4
330
8
100
AcDbSymbolTableRecord
100
AcDbViewportTableRecord
  2
*ACTIVE
 70
     0
 10
0.0
 20
0.0
 11
1.0
 21
1.0
 12
244.1739626170439
 22
311.1127443805809
 13
0.0
 23
0.0
 14
1.0
 24
1.0
 15
0.0
 25
0.0
 16
0.0
 26
0.0
 36
1.0
 17
0.0
 27
0.0
 37
0.0
 40
986.0111047954244
 41
1.723970944309927
 42
50.0
 43
0.0
 44
0.0
 50
0.0
 51
0.0
 71
     0
 72
   100
 73
     1
 74
     1
 75
     0
 76
     0
 77
     0
 78
     0
281
     0
 65
     1
110
0.0
120
0.0
130
0.0
111
1.0
121
0.0
131
0.0
112
0.0
122
1.0
132
0.0
 79
     0
146
0.0
  0
ENDTAB
  0
TABLE
  2
LTYPE
  5
5
330
0
100
AcDbSymbolTable
 70
     6
  0
LTYPE
  5
14
330
5
100
AcDbSymbolTableRecord
100
AcDbLinetypeTableRecord
  2
BYBLOCK
 70
     0
  3

 72
    65
 73
     0
 40
0.0
  0
LTYPE
  5
15
330
5
100
AcDbSymbolTableRecord
100
AcDbLinetypeTableRecord
  2
BYLAYER
 70
     0
  3

 72
    65
 73
     0
 40
0.0
  0
LTYPE
  5
16
330
5
100
AcDbSymbolTableRecord
100
AcDbLinetypeTableRecord
  2
CONTINUOUS
 70
     0
  3
Solid line
 72
    65
 73
     0
 40
0.0
  0
LTYPE
  5
1F5
330
5
100
AcDbSymbolTableRecord
100
AcDbLinetypeTableRecord
  2
CENTER
 70
     0
  3
____ _ ____ _ ____ _ ____ _ ____ _ ____ _ ____
 72
    65
 73
     4
 40
0.6
 49
0.375
 74
     0
 49
-0.075
 74
     0
 49
0.075
 74
     0
 49
-0.075
 74
     0
  0
LTYPE
  5
1F6
330
5
100
AcDbSymbolTableRecord
100
AcDbLinetypeTableRecord
  2
HIDDEN
 70
     0
  3
- - - - - - - - - - - - - - - - - - - -
 72
    65
 73
     2
 40
0.2
 49
0.1
 74
     0
 49
-0.1
 74
     0
  0
LTYPE
  5
1F7
330
5
100
AcDbSymbolTableRecord
100
AcDbLinetypeTableRecord
  2
PHANTOM
 70
     0
  3
_____ _ _ _____ _ _ _____ _ _ _____
 72
    65
 73
     6
 40
0.8
 49
0.45
 74
     0
 49
-0.05
 74
     0
 49
0.1
 74
     0
 49
-0.05
 74
     0
 49
0.1
 74
     0
 49
-0.05
 74
     0
  0
LTYPE
  5
1F8
330
5
100
AcDbSymbolTableRecord
100
AcDbLinetypeTableRecord
  2
DOT
 70
     0
  3
. . . . . . . . . . . . . . . . . . . .
 72
    65
 73
     2
 40
0.2
 49
0.1
 74
     0
 49
-0.1
 74
     0
  0
LTYPE
  5
1F9
330
5
100
AcDbSymbolTableRecord
100
AcDbLinetypeTableRecord
  2
DASHED
 70
     0
  3
- - - - - - - - - - - - - - - - - - - -
 72
    65
 73
     2
 40
0.2
 49
0.1
 74
     0
 49
-0.1
 74
     0
  0
ENDTAB
  0
TABLE
  2
LAYER
  5
2
330
0
100
AcDbSymbolTable
 70
     4
  0
LAYER
  5
10
102
{ACAD_XDICTIONARY
360
78A
102
}
330
2
100
AcDbSymbolTableRecord
100
AcDbLayerTableRecord
  2
0
 70
     0
 62
     7
  6
CONTINUOUS
370
    -3
390
F
  0
LAYER
  5
1FA
102
{ACAD_XDICTIONARY
360
78C
102
}
330
2
100
AcDbSymbolTableRecord
100
AcDbLayerTableRecord
  2
DEFAULT_1
 70
     0
 62
     7
  6
CENTER
370
    -3
390
F
  0
LAYER
  5
1FB
102
{ACAD_XDICTIONARY
360
78E
102
}
330
2
100
AcDbSymbolTableRecord
100
AcDbLayerTableRecord
  2
DEFAULT_2
 70
     0
 62
     8
  6
HIDDEN
370
    -3
390
F
  0
LAYER
  5
1FC
102
{ACAD_XDICTIONARY
360
790
102
}
330
2
100
AcDbSymbolTableRecord
100
AcDbLayerTableRecord
  2
DEFAULT_3
 70
     0
 62
     7
  6
PHANTOM
370
    -3
390
F
  0
ENDTAB
  0
TABLE
  2
STYLE
  5
3
330
0
100
AcDbSymbolTable
 70
     3
  0
STYLE
  5
11
330
3
100
AcDbSymbolTableRecord
100
AcDbTextStyleTableRecord
  2
STANDARD
 70
     0
 40
0.0
 41
0.85
 50
0.0
 71
     0
 42
0.2
  3
txt
  4

  0
STYLE
  5
1FD
330
3
100
AcDbSymbolTableRecord
100
AcDbTextStyleTableRecord
  2
TEXTSTYLE_1
 70
     0
 40
0.0
 41
0.8
 50
0.0
 71
     0
 42
0.2
  3
gdt
  4

  0
STYLE
  5
1FE
330
3
100
AcDbSymbolTableRecord
100
AcDbTextStyleTableRecord
  2
TEXTSTYLE_2
 70
     0
 40
0.0
 41
0.8
 50
0.0
 71
     0
 42
0.2
  3
txt
  4

  0
ENDTAB
  0
TABLE
  2
VIEW
  5
6
330
0
100
AcDbSymbolTable
 70
     0
  0
ENDTAB
  0
TABLE
  2
UCS
  5
7
330
0
100
AcDbSymbolTable
 70
     0
  0
ENDTAB
  0
TABLE
  2
APPID
  5
9
330
0
100
AcDbSymbolTable
 70
     3
  0
APPID
  5
1FF
330
9
100
AcDbSymbolTableRecord
100
AcDbRegAppTableRecord
  2
ACAD
 70
     0
  0
APPID
  5
2DB
330
9
100
AcDbSymbolTableRecord
100
AcDbRegAppTableRecord
  2
ACAD_MLEADERVER
 70
     0
  0
APPID
  5
7B5
330
9
100
AcDbSymbolTableRecord
100
AcDbRegAppTableRecord
  2
ACAD_EXEMPT_FROM_CAD_STANDARDS
 70
     0
  0
ENDTAB
  0
TABLE
  2
DIMSTYLE
  5
A
330
0
100
AcDbSymbolTable
 70
     1
100
AcDbDimStyleTable
 71
     1
340
202
  0
DIMSTYLE
105
202
330
A
100
AcDbSymbolTableRecord
100
AcDbDimStyleTableRecord
  2
STANDARD
 70
     0
 41
3.5
 47
0.01
 48
0.01
 71
     1
 73
     0
 74
     0
 77
     1
 78
     8
140
3.5
271
     2
272
     2
284
     8
340
11
  0
ENDTAB
  0
TABLE
  2
BLOCK_RECORD
  5
1
330
0
100
AcDbSymbolTable
 70
     0
  0
BLOCK_RECORD
  5
200
102
{ACAD_XDICTIONARY
360
7B1
102
}
330
1
100
AcDbSymbolTableRecord
100
AcDbBlockTableRecord
  2
*Model_Space
340
286
  0
BLOCK_RECORD
  5
201
330
1
100
AcDbSymbolTableRecord
100
AcDbBlockTableRecord
  2
*Paper_Space
340
287
  0
ENDTAB
  0
ENDSEC
  0
SECTION
  2
BLOCKS
  0
BLOCK
  5
20
330
200
100
AcDbEntity
  8
0
100
AcDbBlockBegin
  2
*Model_Space
 70
     0
 10
0.0
 20
0.0
 30
0.0
  3
*Model_Space
  1

  0
ENDBLK
  5
21
330
200
100
AcDbEntity
  8
0
100
AcDbBlockEnd
  0
BLOCK
  5
1C
330
201
100
AcDbEntity
 67
     1
  8
0
100
AcDbBlockBegin
  2
*Paper_Space
 70
     0
 10
0.0
 20
0.0
 30
0.0
  3
*Paper_Space
  1

  0
ENDBLK
  5
1D
330
201
100
AcDbEntity
 67
     1
  8
0
100
AcDbBlockEnd
  0
ENDSEC
  0
SECTION
  2
ENTITIES
  0
MTEXT
  5
209
102
{ACAD_XDICTIONARY
360
7D1
102
}
330
200
100
AcDbEntity
  8
0
  6
Continuous
 62
     2
100
AcDbMText
 10
36.53733756289876
 20
-2084.882995659153
 30
0.0
 40
137.79527545
 41
1096.2992114802
 71
     3
 72
     1
  1
\U+6BD4\U+4F8B 1,000
 73
     1
 44
0.9
1001
ACAD
1000
MTEXTBEGIN
1070
    73
1070
     1
1070
    44
1040
0.9
1070
    74
1070
     0
1000
MTEXTEND
  0
LINE
  5
20E
330
200
100
AcDbEntity
  8
0
  6
Continuous
 62
     7
100
AcDbLine
 10
-3157.422055506036
 20
2031.022538197742
 30
0.0
 11
-3236.162265398161
 21
1952.282328305617
 31
0.0
  0
LINE
  5
20F
330
200
100
AcDbEntity
  8
0
  6
Continuous
 62
     7
100
AcDbLine
 10
-3236.162265398161
 20
-1827.245174402258
 30
0.0
 11
-3157.422055506036
 21
-1905.985358046353
 31
0.0
  0
LINE
  5
210
330
200
100
AcDbEntity
  8
0
  6
Continuous
 62
     7
100
AcDbLine
 10
-3236.162265398161
 20
-1827.245174402258
 30
0.0
 11
-3236.162265398161
 21
-1060.316054448305
 31
0.0
  0
LINE
  5
211
330
200
100
AcDbEntity
  8
0
  6
Continuous
 62
     7
100
AcDbLine
 10
-3236.162265398161
 20
594.8020540996949
 30
0.0
 11
-3236.162265398161
 21
1952.282328305617
 31
0.0
  0
LINE
  5
212
330
200
100
AcDbEntity
  8
0
  6
Continuous
 62
     7
100
AcDbLine
 10
-3129.863052908161
 20
-1060.316054448305
 30
0.0
 11
-3129.863052908161
 21
594.8020540996949
 31
0.0
  0
LINE
  5
213
330
200
100
AcDbEntity
  8
0
  6
Continuous
 62
     7
100
AcDbLine
 10
3063.050326601841
 20
-1905.985358046353
 30
0.0
 11
-3157.422055506036
 21
-1905.985358046353
 31
0.0
  0
LINE
  5
214
330
200
100
AcDbEntity
  8
0
  6
CENTER
 62
     6
 48
0.2
100
AcDbLine
 10
2443.095209123956
 20
-1336.985358626733
 30
0.0
 11
3063.050326601844
 21
-1336.985358626733
 31
0.0
  0
LINE
  5
218
330
200
100
AcDbEntity
  8
0
  6
Continuous
 62
     7
100
AcDbLine
 10
-3236.162265398161
 20
-1060.316054448305
 30
0.0
 11
-3129.863052908161
 21
-1060.316054448305
 31
0.0
  0
LINE
  5
22B
330
200
100
AcDbEntity
  8
0
  6
Continuous
 62
     7
100
AcDbLine
 10
-3129.863052908161
 20
594.8020540996949
 30
0.0
 11
-3236.162265398161
 21
594.8020540996949
 31
0.0
  0
LINE
  5
235
330
200
100
AcDbEntity
  8
0
  6
CENTER
 62
     6
 48
0.2
100
AcDbLine
 10
3063.050326601844
 20
1463.014638517268
 30
0.0
 11
2443.095209123956
 21
1463.014638517268
 31
0.0
  0
LINE
  5
236
330
200
100
AcDbEntity
  8
0
  6
Continuous
 62
     7
100
AcDbLine
 10
-3157.422055506036
 20
2031.022538197742
 30
0.0
 11
3063.050326601841
 21
2031.022538197742
 31
0.0
  0
LINE
  5
237
330
200
100
AcDbEntity
  8
0
  6
CENTER
 62
     6
 48
0.2
100
AcDbLine
 10
2443.095209123956
 20
1463.014638517268
 30
0.0
 11
2443.095209123956
 21
-1336.985358626733
 31
0.0
  0
LINE
  5
238
330
200
100
AcDbEntity
  8
0
  6
Continuous
 62
     7
100
AcDbLine
 10
3063.050326601841
 20
2031.022538197742
 30
0.0
 11
3063.050326601841
 21
-1905.985358046353
 31
0.0
  0
LINE
  5
23D
330
200
100
AcDbEntity
  8
0
  6
Continuous
 62
     7
100
AcDbLine
 10
3309.236940523958
 20
-1336.985358626733
 30
0.0
 11
3309.236940523958
 21
1463.014638517268
 31
0.0
  0
CIRCLE
  5
23E
330
200
100
AcDbEntity
  8
0
  6
Continuous
 62
     7
100
AcDbCircle
 10
-3015.68982467816
 20
-882.3632987243055
 30
0.0
 40
55.11811017999995
  0
CIRCLE
  5
23F
330
200
100
AcDbEntity
  8
0
  6
Continuous
 62
     7
100
AcDbCircle
 10
-2915.689824780161
 20
-682.7569997153059
 30
0.0
 40
17.716535415
  0
CIRCLE
  5
240
330
200
100
AcDbEntity
  8
0
  6
Continuous
 62
     7
100
AcDbCircle
 10
-2915.689824780161
 20
-582.7569998173057
 30
0.0
 40
17.716535415
  0
CIRCLE
  5
241
330
200
100
AcDbEntity
  8
0
  6
Continuous
 62
     7
100
AcDbCircle
 10
-2915.689824780161
 20
-482.7569999193038
 30
0.0
 40
17.716535415
  0
CIRCLE
  5
242
330
200
100
AcDbEntity
  8
0
  6
Continuous
 62
     7
100
AcDbCircle
 10
-2815.689824882161
 20
-482.7569999193038
 30
0.0
 40
17.716535415
  0
CIRCLE
  5
243
330
200
100
AcDbEntity
  8
0
  6
Continuous
 62
     7
100
AcDbCircle
 10
-2815.689824882161
 20
-582.7569998173057
 30
0.0
 40
17.716535415
  0
CIRCLE
  5
244
330
200
100
AcDbEntity
  8
0
  6
Continuous
 62
     7
100
AcDbCircle
 10
-2815.689824882161
 20
-682.7569997153059
 30
0.0
 40
17.716535415
  0
CIRCLE
  5
245
330
200
100
AcDbEntity
  8
0
  6
Continuous
 62
     7
100
AcDbCircle
 10
-2915.689824780161
 20
-382.7570000213054
 30
0.0
 40
17.716535415
  0
CIRCLE
  5
246
330
200
100
AcDbEntity
  8
0
  6
Continuous
 62
     7
100
AcDbCircle
 10
-2915.689824780161
 20
-282.7570001233052
 30
0.0
 40
17.716535415
  0
CIRCLE
  5
247
330
200
100
AcDbEntity
  8
0
  6
Continuous
 62
     7
100
AcDbCircle
 10
-2915.689824780161
 20
-182.7570002253051
 30
0.0
 40
17.716535415
  0
CIRCLE
  5
248
330
200
100
AcDbEntity
  8
0
  6
Continuous
 62
     7
100
AcDbCircle
 10
-2915.689824780161
 20
-82.75700032730492
 30
0.0
 40
17.716535415
  0
CIRCLE
  5
249
330
200
100
AcDbEntity
  8
0
  6
Continuous
 62
     7
100
AcDbCircle
 10
-2915.689824780161
 20
17.24299957069343
 30
0.0
 40
17.716535415
  0
CIRCLE
  5
24A
330
200
100
AcDbEntity
  8
0
  6
Continuous
 62
     7
100
AcDbCircle
 10
-2815.689824882161
 20
-282.7570001233052
 30
0.0
 40
17.716535415
  0
CIRCLE
  5
24B
330
200
100
AcDbEntity
  8
0
  6
Continuous
 62
     7
100
AcDbCircle
 10
-2815.689824882161
 20
-382.7570000213054
 30
0.0
 40
17.716535415
  0
CIRCLE
  5
24C
330
200
100
AcDbEntity
  8
0
  6
Continuous
 62
     7
100
AcDbCircle
 10
-2815.689824882161
 20
17.24299957069343
 30
0.0
 40
17.716535415
  0
CIRCLE
  5
24D
330
200
100
AcDbEntity
  8
0
  6
Continuous
 62
     7
100
AcDbCircle
 10
-2815.689824882161
 20
-82.75700032730492
 30
0.0
 40
17.716535415
  0
CIRCLE
  5
24E
330
200
100
AcDbEntity
  8
0
  6
Continuous
 62
     7
100
AcDbCircle
 10
-2815.689824882161
 20
-182.7570002253051
 30
0.0
 40
17.716535415
  0
CIRCLE
  5
24F
330
200
100
AcDbEntity
  8
0
  6
Continuous
 62
     7
100
AcDbCircle
 10
-3015.68982467816
 20
416.8492983756951
 30
0.0
 40
55.11811017999995
  0
CIRCLE
  5
250
330
200
100
AcDbEntity
  8
0
  6
Continuous
 62
     7
100
AcDbCircle
 10
-2915.689824780161
 20
117.2429994686954
 30
0.0
 40
17.716535415
  0
CIRCLE
  5
251
330
200
100
AcDbEntity
  8
0
  6
Continuous
 62
     7
100
AcDbCircle
 10
-2915.689824780161
 20
217.2429993666956
 30
0.0
 40
17.716535415
  0
CIRCLE
  5
252
330
200
100
AcDbEntity
  8
0
  6
Continuous
 62
     7
100
AcDbCircle
 10
-2815.689824882161
 20
217.2429993666956
 30
0.0
 40
17.716535415
  0
CIRCLE
  5
253
330
200
100
AcDbEntity
  8
0
  6
Continuous
 62
     7
100
AcDbCircle
 10
-2815.689824882161
 20
117.2429994686954
 30
0.0
 40
17.716535415
  0
CIRCLE
  5
254
330
200
100
AcDbEntity
  8
0
  6
Continuous
 62
     7
100
AcDbCircle
 10
2513.961350783957
 20
-1036.985358932734
 30
0.0
 40
23.62204722
  0
CIRCLE
  5
255
330
200
100
AcDbEntity
  8
0
  6
Continuous
 62
     7
100
AcDbCircle
 10
2513.961350783957
 20
-1036.985358932734
 30
0.0
 40
19.68503935
  0
CIRCLE
  5
256
330
200
100
AcDbEntity
  8
0
  6
Continuous
 62
     7
100
AcDbCircle
 10
2513.961350783957
 20
-836.9853591367318
 30
0.0
 40
23.62204722
  0
CIRCLE
  5
257
330
200
100
AcDbEntity
  8
0
  6
Continuous
 62
     7
100
AcDbCircle
 10
2513.961350783957
 20
-636.9853593407333
 30
0.0
 40
23.62204722
  0
CIRCLE
  5
258
330
200
100
AcDbEntity
  8
0
  6
Continuous
 62
     7
100
AcDbCircle
 10
2513.961350783957
 20
-436.985359544733
 30
0.0
 40
23.62204722
  0
CIRCLE
  5
259
330
200
100
AcDbEntity
  8
0
  6
Continuous
 62
     7
100
AcDbCircle
 10
2513.961350783957
 20
-236.9853597487327
 30
0.0
 40
23.62204722
  0
CIRCLE
  5
25A
330
200
100
AcDbEntity
  8
0
  6
Continuous
 62
     7
100
AcDbCircle
 10
2513.961350783957
 20
-36.98535995273232
 30
0.0
 40
23.62204722
  0
CIRCLE
  5
25B
330
200
100
AcDbEntity
  8
0
  6
Continuous
 62
     7
100
AcDbCircle
 10
2513.961350783957
 20
-836.9853591367318
 30
0.0
 40
19.68503935
  0
CIRCLE
  5
25C
330
200
100
AcDbEntity
  8
0
  6
Continuous
 62
     7
100
AcDbCircle
 10
2513.961350783957
 20
-636.9853593407333
 30
0.0
 40
19.68503935
  0
CIRCLE
  5
25D
330
200
100
AcDbEntity
  8
0
  6
Continuous
 62
     7
100
AcDbCircle
 10
2513.961350783957
 20
-436.985359544733
 30
0.0
 40
19.68503935
  0
CIRCLE
  5
25E
330
200
100
AcDbEntity
  8
0
  6
Continuous
 62
     7
100
AcDbCircle
 10
2513.961350783957
 20
-236.9853597487327
 30
0.0
 40
19.68503935
  0
CIRCLE
  5
25F
330
200
100
AcDbEntity
  8
0
  6
Continuous
 62
     7
100
AcDbCircle
 10
2513.961350783957
 20
-36.98535995273232
 30
0.0
 40
19.68503935
  0
CIRCLE
  5
260
330
200
100
AcDbEntity
  8
0
  6
Continuous
 62
     7
100
AcDbCircle
 10
2922.49914564284
 20
-1687.481421261353
 30
0.0
 40
55.11811017999995
  0
CIRCLE
  5
261
330
200
100
AcDbEntity
  8
0
  6
Continuous
 62
     7
100
AcDbCircle
 10
2907.662137783957
 20
-1036.985358932734
 30
0.0
 40
23.62204722
  0
CIRCLE
  5
262
330
200
100
AcDbEntity
  8
0
  6
Continuous
 62
     7
100
AcDbCircle
 10
2907.662137783957
 20
-1036.985358932734
 30
0.0
 40
19.68503935
  0
CIRCLE
  5
263
330
200
100
AcDbEntity
  8
0
  6
Continuous
 62
     7
100
AcDbCircle
 10
2907.662137783957
 20
-36.98535995273232
 30
0.0
 40
23.62204722
  0
CIRCLE
  5
264
330
200
100
AcDbEntity
  8
0
  6
Continuous
 62
     7
100
AcDbCircle
 10
2907.662137783957
 20
-236.9853597487327
 30
0.0
 40
23.62204722
  0
CIRCLE
  5
265
330
200
100
AcDbEntity
  8
0
  6
Continuous
 62
     7
100
AcDbCircle
 10
2907.662137783957
 20
-436.985359544733
 30
0.0
 40
23.62204722
  0
CIRCLE
  5
266
330
200
100
AcDbEntity
  8
0
  6
Continuous
 62
     7
100
AcDbCircle
 10
2907.662137783957
 20
-636.9853593407333
 30
0.0
 40
23.62204722
  0
CIRCLE
  5
267
330
200
100
AcDbEntity
  8
0
  6
Continuous
 62
     7
100
AcDbCircle
 10
2907.662137783957
 20
-836.9853591367318
 30
0.0
 40
23.62204722
  0
CIRCLE
  5
268
330
200
100
AcDbEntity
  8
0
  6
Continuous
 62
     7
100
AcDbCircle
 10
2907.662137783957
 20
-36.98535995273232
 30
0.0
 40
19.68503935
  0
CIRCLE
  5
269
330
200
100
AcDbEntity
  8
0
  6
Continuous
 62
     7
100
AcDbCircle
 10
2907.662137783957
 20
-236.9853597487327
 30
0.0
 40
19.68503935
  0
CIRCLE
  5
26A
330
200
100
AcDbEntity
  8
0
  6
Continuous
 62
     7
100
AcDbCircle
 10
2907.662137783957
 20
-436.985359544733
 30
0.0
 40
19.68503935
  0
CIRCLE
  5
26B
330
200
100
AcDbEntity
  8
0
  6
Continuous
 62
     7
100
AcDbCircle
 10
2907.662137783957
 20
-636.9853593407333
 30
0.0
 40
19.68503935
  0
CIRCLE
  5
26C
330
200
100
AcDbEntity
  8
0
  6
Continuous
 62
     7
100
AcDbCircle
 10
2907.662137783957
 20
-836.9853591367318
 30
0.0
 40
19.68503935
  0
CIRCLE
  5
26D
330
200
100
AcDbEntity
  8
0
  6
Continuous
 62
     7
100
AcDbCircle
 10
2513.961350783957
 20
963.0146390272656
 30
0.0
 40
23.62204722
  0
CIRCLE
  5
26E
330
200
100
AcDbEntity
  8
0
  6
Continuous
 62
     7
100
AcDbCircle
 10
2513.961350783957
 20
763.0146392312671
 30
0.0
 40
23.62204722
  0
CIRCLE
  5
26F
330
200
100
AcDbEntity
  8
0
  6
Continuous
 62
     7
100
AcDbCircle
 10
2513.961350783957
 20
563.0146394352668
 30
0.0
 40
23.62204722
  0
CIRCLE
  5
270
330
200
100
AcDbEntity
  8
0
  6
Continuous
 62
     7
100
AcDbCircle
 10
2513.961350783957
 20
363.0146396392683
 30
0.0
 40
23.62204722
  0
CIRCLE
  5
271
330
200
100
AcDbEntity
  8
0
  6
Continuous
 62
     7
100
AcDbCircle
 10
2513.961350783957
 20
163.0146398432662
 30
0.0
 40
23.62204722
  0
CIRCLE
  5
272
330
200
100
AcDbEntity
  8
0
  6
Continuous
 62
     7
100
AcDbCircle
 10
2513.961350783957
 20
963.0146390272656
 30
0.0
 40
19.68503935
  0
CIRCLE
  5
273
330
200
100
AcDbEntity
  8
0
  6
Continuous
 62
     7
100
AcDbCircle
 10
2513.961350783957
 20
763.0146392312671
 30
0.0
 40
19.68503935
  0
CIRCLE
  5
274
330
200
100
AcDbEntity
  8
0
  6
Continuous
 62
     7
100
AcDbCircle
 10
2513.961350783957
 20
563.0146394352668
 30
0.0
 40
19.68503935
  0
CIRCLE
  5
275
330
200
100
AcDbEntity
  8
0
  6
Continuous
 62
     7
100
AcDbCircle
 10
2513.961350783957
 20
363.0146396392683
 30
0.0
 40
19.68503935
  0
CIRCLE
  5
276
330
200
100
AcDbEntity
  8
0
  6
Continuous
 62
     7
100
AcDbCircle
 10
2513.961350783957
 20
163.0146398432662
 30
0.0
 40
19.68503935
  0
CIRCLE
  5
277
330
200
100
AcDbEntity
  8
0
  6
Continuous
 62
     7
100
AcDbCircle
 10
2513.961350783957
 20
1163.014638823268
 30
0.0
 40
23.62204722
  0
CIRCLE
  5
278
330
200
100
AcDbEntity
  8
0
  6
Continuous
 62
     7
100
AcDbCircle
 10
2513.961350783957
 20
1163.014638823268
 30
0.0
 40
19.68503935
  0
CIRCLE
  5
279
330
200
100
AcDbEntity
  8
0
  6
Continuous
 62
     7
100
AcDbCircle
 10
2907.662137783957
 20
963.0146390272656
 30
0.0
 40
23.62204722
  0
CIRCLE
  5
27A
330
200
100
AcDbEntity
  8
0
  6
Continuous
 62
     7
100
AcDbCircle
 10
2907.662137783957
 20
763.0146392312671
 30
0.0
 40
23.62204722
  0
CIRCLE
  5
27B
330
200
100
AcDbEntity
  8
0
  6
Continuous
 62
     7
100
AcDbCircle
 10
2907.662137783957
 20
563.0146394352668
 30
0.0
 40
23.62204722
  0
CIRCLE
  5
27C
330
200
100
AcDbEntity
  8
0
  6
Continuous
 62
     7
100
AcDbCircle
 10
2907.662137783957
 20
363.0146396392683
 30
0.0
 40
23.62204722
  0
CIRCLE
  5
27D
330
200
100
AcDbEntity
  8
0
  6
Continuous
 62
     7
100
AcDbCircle
 10
2907.662137783957
 20
163.0146398432662
 30
0.0
 40
23.62204722
  0
CIRCLE
  5
27E
330
200
100
AcDbEntity
  8
0
  6
Continuous
 62
     7
100
AcDbCircle
 10
2907.662137783957
 20
963.0146390272656
 30
0.0
 40
19.68503935
  0
CIRCLE
  5
27F
330
200
100
AcDbEntity
  8
0
  6
Continuous
 62
     7
100
AcDbCircle
 10
2907.662137783957
 20
763.0146392312671
 30
0.0
 40
19.68503935
  0
CIRCLE
  5
280
330
200
100
AcDbEntity
  8
0
  6
Continuous
 62
     7
100
AcDbCircle
 10
2907.662137783957
 20
563.0146394352668
 30
0.0
 40
19.68503935
  0
CIRCLE
  5
281
330
200
100
AcDbEntity
  8
0
  6
Continuous
 62
     7
100
AcDbCircle
 10
2907.662137783957
 20
363.0146396392683
 30
0.0
 40
19.68503935
  0
CIRCLE
  5
282
330
200
100
AcDbEntity
  8
0
  6
Continuous
 62
     7
100
AcDbCircle
 10
2907.662137783957
 20
163.0146398432662
 30
0.0
 40
19.68503935
  0
CIRCLE
  5
283
330
200
100
AcDbEntity
  8
0
  6
Continuous
 62
     7
100
AcDbCircle
 10
2922.49914564284
 20
1812.518601416679
 30
0.0
 40
55.11811017999995
  0
CIRCLE
  5
284
330
200
100
AcDbEntity
  8
0
  6
Continuous
 62
     7
100
AcDbCircle
 10
2907.662137783957
 20
1163.014638823268
 30
0.0
 40
23.62204722
  0
CIRCLE
  5
285
330
200
100
AcDbEntity
  8
0
  6
Continuous
 62
     7
100
AcDbCircle
 10
2907.662137783957
 20
1163.014638823268
 30
0.0
 40
19.68503935
  0
LINE
  5
44E
330
200
100
AcDbEntity
  8
0
  6
CENTER
 62
     1
 48
0.1
100
AcDbLine
 10
2815.987979908121
 20
1163.014638823268
 30
0.0
 11
2999.336295659792
 21
1163.014638823268
 31
0.0
  0
LINE
  5
44F
330
200
100
AcDbEntity
  8
0
  6
CENTER
 62
     1
 48
0.1
100
AcDbLine
 10
2907.662137783957
 20
1071.340480947428
 30
0.0
 11
2907.662137783957
 21
1254.688796699105
 31
0.0
  0
LINE
  5
450
330
200
100
AcDbEntity
  8
0
  6
CENTER
 62
     1
 48
0.1
100
AcDbLine
 10
2422.287192908121
 20
1163.014638823268
 30
0.0
 11
2605.635508659796
 21
1163.014638823268
 31
0.0
  0
LINE
  5
451
330
200
100
AcDbEntity
  8
0
  6
CENTER
 62
     1
 48
0.1
100
AcDbLine
 10
2513.961350783957
 20
1071.340480947428
 30
0.0
 11
2513.961350783957
 21
1254.688796699105
 31
0.0
  0
LINE
  5
452
330
200
100
AcDbEntity
  8
0
  6
CENTER
 62
     1
 48
0.1
100
AcDbLine
 10
2815.987979908121
 20
963.0146390272656
 30
0.0
 11
2999.336295659792
 21
963.0146390272656
 31
0.0
  0
LINE
  5
453
330
200
100
AcDbEntity
  8
0
  6
CENTER
 62
     1
 48
0.1
100
AcDbLine
 10
2907.662137783957
 20
871.3404811514319
 30
0.0
 11
2907.662137783957
 21
1054.688796903105
 31
0.0
  0
LINE
  5
454
330
200
100
AcDbEntity
  8
0
  6
CENTER
 62
     1
 48
0.1
100
AcDbLine
 10
2422.287192908121
 20
963.0146390272656
 30
0.0
 11
2605.635508659796
 21
963.0146390272656
 31
0.0
  0
LINE
  5
455
330
200
100
AcDbEntity
  8
0
  6
CENTER
 62
     1
 48
0.1
100
AcDbLine
 10
2513.961350783957
 20
871.3404811514319
 30
0.0
 11
2513.961350783957
 21
1054.688796903105
 31
0.0
  0
LINE
  5
456
330
200
100
AcDbEntity
  8
0
  6
CENTER
 62
     1
 48
0.1
100
AcDbLine
 10
2815.987979908121
 20
763.0146392312727
 30
0.0
 11
2999.336295659792
 21
763.0146392312727
 31
0.0
  0
LINE
  5
457
330
200
100
AcDbEntity
  8
0
  6
CENTER
 62
     1
 48
0.1
100
AcDbLine
 10
2907.662137783957
 20
671.3404813554316
 30
0.0
 11
2907.662137783957
 21
854.6887971071065
 31
0.0
  0
LINE
  5
458
330
200
100
AcDbEntity
  8
0
  6
CENTER
 62
     1
 48
0.1
100
AcDbLine
 10
2422.287192908121
 20
763.0146392312727
 30
0.0
 11
2605.635508659796
 21
763.0146392312727
 31
0.0
  0
LINE
  5
459
330
200
100
AcDbEntity
  8
0
  6
CENTER
 62
     1
 48
0.1
100
AcDbLine
 10
2513.961350783957
 20
671.3404813554316
 30
0.0
 11
2513.961350783957
 21
854.6887971071065
 31
0.0
  0
LINE
  5
45A
330
200
100
AcDbEntity
  8
0
  6
CENTER
 62
     1
 48
0.1
100
AcDbLine
 10
2422.287192908121
 20
563.0146394352668
 30
0.0
 11
2605.635508659796
 21
563.0146394352668
 31
0.0
  0
LINE
  5
45B
330
200
100
AcDbEntity
  8
0
  6
CENTER
 62
     1
 48
0.1
100
AcDbLine
 10
2513.961350783957
 20
471.3404815594331
 30
0.0
 11
2513.961350783957
 21
654.688797311106
 31
0.0
  0
LINE
  5
45C
330
200
100
AcDbEntity
  8
0
  6
CENTER
 62
     1
 48
0.1
100
AcDbLine
 10
2815.987979908121
 20
563.0146394352668
 30
0.0
 11
2999.336295659792
 21
563.0146394352668
 31
0.0
  0
LINE
  5
45D
330
200
100
AcDbEntity
  8
0
  6
CENTER
 62
     1
 48
0.1
100
AcDbLine
 10
2907.662137783957
 20
471.3404815594331
 30
0.0
 11
2907.662137783957
 21
654.688797311106
 31
0.0
  0
LINE
  5
45E
330
200
100
AcDbEntity
  8
0
  6
CENTER
 62
     1
 48
0.1
100
AcDbLine
 10
2815.987979908121
 20
363.0146396392683
 30
0.0
 11
2999.336295659792
 21
363.0146396392683
 31
0.0
  0
LINE
  5
45F
330
200
100
AcDbEntity
  8
0
  6
CENTER
 62
     1
 48
0.1
100
AcDbLine
 10
2907.662137783957
 20
271.3404817634309
 30
0.0
 11
2907.662137783957
 21
454.6887975151076
 31
0.0
  0
LINE
  5
460
330
200
100
AcDbEntity
  8
0
  6
CENTER
 62
     1
 48
0.1
100
AcDbLine
 10
2422.287192908121
 20
363.0146396392683
 30
0.0
 11
2605.635508659796
 21
363.0146396392683
 31
0.0
  0
LINE
  5
461
330
200
100
AcDbEntity
  8
0
  6
CENTER
 62
     1
 48
0.1
100
AcDbLine
 10
2513.961350783957
 20
271.3404817634309
 30
0.0
 11
2513.961350783957
 21
454.6887975151076
 31
0.0
  0
LINE
  5
462
330
200
100
AcDbEntity
  8
0
  6
CENTER
 62
     1
 48
0.1
100
AcDbLine
 10
2815.987979908121
 20
163.0146398432716
 30
0.0
 11
2999.336295659792
 21
163.0146398432716
 31
0.0
  0
LINE
  5
463
330
200
100
AcDbEntity
  8
0
  6
CENTER
 62
     1
 48
0.1
100
AcDbLine
 10
2907.662137783957
 20
71.34048196743242
 30
0.0
 11
2907.662137783957
 21
254.6887977191054
 31
0.0
  0
LINE
  5
464
330
200
100
AcDbEntity
  8
0
  6
CENTER
 62
     1
 48
0.1
100
AcDbLine
 10
2422.287192908121
 20
163.0146398432716
 30
0.0
 11
2605.635508659796
 21
163.0146398432716
 31
0.0
  0
LINE
  5
465
330
200
100
AcDbEntity
  8
0
  6
CENTER
 62
     1
 48
0.1
100
AcDbLine
 10
2513.961350783957
 20
71.34048196743242
 30
0.0
 11
2513.961350783957
 21
254.6887977191054
 31
0.0
  0
LINE
  5
466
330
200
100
AcDbEntity
  8
0
  6
CENTER
 62
     1
 48
0.1
100
AcDbLine
 10
2422.287192908121
 20
-36.98535995273232
 30
0.0
 11
2605.635508659796
 21
-36.98535995273232
 31
0.0
  0
LINE
  5
467
330
200
100
AcDbEntity
  8
0
  6
CENTER
 62
     1
 48
0.1
100
AcDbLine
 10
2513.961350783957
 20
-128.6595178285679
 30
0.0
 11
2513.961350783957
 21
54.68879792310691
 31
0.0
  0
LINE
  5
468
330
200
100
AcDbEntity
  8
0
  6
CENTER
 62
     1
 48
0.1
100
AcDbLine
 10
2815.987979908121
 20
-36.98535995273232
 30
0.0
 11
2999.336295659792
 21
-36.98535995273232
 31
0.0
  0
LINE
  5
469
330
200
100
AcDbEntity
  8
0
  6
CENTER
 62
     1
 48
0.1
100
AcDbLine
 10
2907.662137783957
 20
-128.6595178285679
 30
0.0
 11
2907.662137783957
 21
54.68879792310691
 31
0.0
  0
LINE
  5
46A
330
200
100
AcDbEntity
  8
0
  6
CENTER
 62
     1
 48
0.1
100
AcDbLine
 10
2422.287192908121
 20
-236.9853597487327
 30
0.0
 11
2605.635508659796
 21
-236.9853597487327
 31
0.0
  0
LINE
  5
46B
330
200
100
AcDbEntity
  8
0
  6
CENTER
 62
     1
 48
0.1
100
AcDbLine
 10
2513.961350783957
 20
-328.6595176245683
 30
0.0
 11
2513.961350783957
 21
-145.3112018728934
 31
0.0
  0
LINE
  5
46C
330
200
100
AcDbEntity
  8
0
  6
CENTER
 62
     1
 48
0.1
100
AcDbLine
 10
2815.987979908121
 20
-236.9853597487327
 30
0.0
 11
2999.336295659792
 21
-236.9853597487327
 31
0.0
  0
LINE
  5
46D
330
200
100
AcDbEntity
  8
0
  6
CENTER
 62
     1
 48
0.1
100
AcDbLine
 10
2907.662137783957
 20
-328.6595176245683
 30
0.0
 11
2907.662137783957
 21
-145.3112018728934
 31
0.0
  0
LINE
  5
46E
330
200
100
AcDbEntity
  8
0
  6
CENTER
 62
     1
 48
0.1
100
AcDbLine
 10
2422.287192908121
 20
-436.985359544733
 30
0.0
 11
2605.635508659796
 21
-436.985359544733
 31
0.0
  0
LINE
  5
46F
330
200
100
AcDbEntity
  8
0
  6
CENTER
 62
     1
 48
0.1
100
AcDbLine
 10
2513.961350783957
 20
-528.6595174205685
 30
0.0
 11
2513.961350783957
 21
-345.3112016688938
 31
0.0
  0
LINE
  5
470
330
200
100
AcDbEntity
  8
0
  6
CENTER
 62
     1
 48
0.1
100
AcDbLine
 10
2815.987979908121
 20
-436.985359544733
 30
0.0
 11
2999.336295659792
 21
-436.985359544733
 31
0.0
  0
LINE
  5
471
330
200
100
AcDbEntity
  8
0
  6
CENTER
 62
     1
 48
0.1
100
AcDbLine
 10
2907.662137783957
 20
-528.6595174205685
 30
0.0
 11
2907.662137783957
 21
-345.3112016688938
 31
0.0
  0
LINE
  5
472
330
200
100
AcDbEntity
  8
0
  6
CENTER
 62
     1
 48
0.1
100
AcDbLine
 10
2422.287192908121
 20
-636.9853593407333
 30
0.0
 11
2605.635508659796
 21
-636.9853593407333
 31
0.0
  0
LINE
  5
473
330
200
100
AcDbEntity
  8
0
  6
CENTER
 62
     1
 48
0.1
100
AcDbLine
 10
2513.961350783957
 20
-728.6595172165671
 30
0.0
 11
2513.961350783957
 21
-545.3112014648922
 31
0.0
  0
LINE
  5
474
330
200
100
AcDbEntity
  8
0
  6
CENTER
 62
     1
 48
0.1
100
AcDbLine
 10
2815.987979908121
 20
-636.9853593407333
 30
0.0
 11
2999.336295659792
 21
-636.9853593407333
 31
0.0
  0
LINE
  5
475
330
200
100
AcDbEntity
  8
0
  6
CENTER
 62
     1
 48
0.1
100
AcDbLine
 10
2907.662137783957
 20
-728.6595172165671
 30
0.0
 11
2907.662137783957
 21
-545.3112014648922
 31
0.0
  0
LINE
  5
476
330
200
100
AcDbEntity
  8
0
  6
CENTER
 62
     1
 48
0.1
100
AcDbLine
 10
2422.287192908121
 20
-836.9853591367318
 30
0.0
 11
2605.635508659796
 21
-836.9853591367318
 31
0.0
  0
LINE
  5
477
330
200
100
AcDbEntity
  8
0
  6
CENTER
 62
     1
 48
0.1
100
AcDbLine
 10
2513.961350783957
 20
-928.6595170125693
 30
0.0
 11
2513.961350783957
 21
-745.3112012608944
 31
0.0
  0
LINE
  5
478
330
200
100
AcDbEntity
  8
0
  6
CENTER
 62
     1
 48
0.1
100
AcDbLine
 10
2815.987979908121
 20
-836.9853591367318
 30
0.0
 11
2999.336295659792
 21
-836.9853591367318
 31
0.0
  0
LINE
  5
479
330
200
100
AcDbEntity
  8
0
  6
CENTER
 62
     1
 48
0.1
100
AcDbLine
 10
2907.662137783957
 20
-928.6595170125693
 30
0.0
 11
2907.662137783957
 21
-745.3112012608944
 31
0.0
  0
LINE
  5
47A
330
200
100
AcDbEntity
  8
0
  6
CENTER
 62
     1
 48
0.1
100
AcDbLine
 10
2815.987979908121
 20
-1036.985358932728
 30
0.0
 11
2999.336295659792
 21
-1036.985358932728
 31
0.0
  0
LINE
  5
47B
330
200
100
AcDbEntity
  8
0
  6
CENTER
 62
     1
 48
0.1
100
AcDbLine
 10
2907.662137783957
 20
-1128.659516808568
 30
0.0
 11
2907.662137783957
 21
-945.3112010568947
 31
0.0
  0
LINE
  5
47C
330
200
100
AcDbEntity
  8
0
  6
CENTER
 62
     1
 48
0.1
100
AcDbLine
 10
2422.287192908121
 20
-1036.985358932728
 30
0.0
 11
2605.635508659796
 21
-1036.985358932728
 31
0.0
  0
LINE
  5
47D
330
200
100
AcDbEntity
  8
0
  6
CENTER
 62
     1
 48
0.1
100
AcDbLine
 10
2513.961350783957
 20
-1128.659516808568
 30
0.0
 11
2513.961350783957
 21
-945.3112010568947
 31
0.0
  0
LINE
  5
47E
330
200
100
AcDbEntity
  8
0
  6
CENTER
 62
     1
 48
0.1
100
AcDbLine
 10
-2907.363982757996
 20
-682.7569997153059
 30
0.0
 11
-2724.015667006324
 21
-682.7569997153059
 31
0.0
  0
LINE
  5
47F
330
200
100
AcDbEntity
  8
0
  6
CENTER
 62
     1
 48
0.1
100
AcDbLine
 10
-2815.689824882161
 20
-774.4311575911397
 30
0.0
 11
-2815.689824882161
 21
-591.0828418394666
 31
0.0
  0
LINE
  5
480
330
200
100
AcDbEntity
  8
0
  6
CENTER
 62
     1
 48
0.1
100
AcDbLine
 10
-3007.363982656
 20
-682.7569997153059
 30
0.0
 11
-2824.015666904323
 21
-682.7569997153059
 31
0.0
  0
LINE
  5
481
330
200
100
AcDbEntity
  8
0
  6
CENTER
 62
     1
 48
0.1
100
AcDbLine
 10
-2915.689824780161
 20
-774.4311575911397
 30
0.0
 11
-2915.689824780161
 21
-591.0828418394666
 31
0.0
  0
LINE
  5
482
330
200
100
AcDbEntity
  8
0
  6
CENTER
 62
     1
 48
0.1
100
AcDbLine
 10
-3007.363982656
 20
-582.7569998173057
 30
0.0
 11
-2824.015666904323
 21
-582.7569998173057
 31
0.0
  0
LINE
  5
483
330
200
100
AcDbEntity
  8
0
  6
CENTER
 62
     1
 48
0.1
100
AcDbLine
 10
-2915.689824780161
 20
-674.4311576931449
 30
0.0
 11
-2915.689824780161
 21
-491.0828419414701
 31
0.0
  0
LINE
  5
484
330
200
100
AcDbEntity
  8
0
  6
CENTER
 62
     1
 48
0.1
100
AcDbLine
 10
-2907.363982757996
 20
-582.7569998173057
 30
0.0
 11
-2724.015667006324
 21
-582.7569998173057
 31
0.0
  0
LINE
  5
485
330
200
100
AcDbEntity
  8
0
  6
CENTER
 62
     1
 48
0.1
100
AcDbLine
 10
-2815.689824882161
 20
-674.4311576931449
 30
0.0
 11
-2815.689824882161
 21
-491.0828419414701
 31
0.0
  0
LINE
  5
486
330
200
100
AcDbEntity
  8
0
  6
CENTER
 62
     1
 48
0.1
100
AcDbLine
 10
-2907.363982757996
 20
-482.7569999193038
 30
0.0
 11
-2724.015667006324
 21
-482.7569999193038
 31
0.0
  0
LINE
  5
487
330
200
100
AcDbEntity
  8
0
  6
CENTER
 62
     1
 48
0.1
100
AcDbLine
 10
-2815.689824882161
 20
-574.4311577951448
 30
0.0
 11
-2815.689824882161
 21
-391.08284204347
 31
0.0
  0
LINE
  5
488
330
200
100
AcDbEntity
  8
0
  6
CENTER
 62
     1
 48
0.1
100
AcDbLine
 10
-3007.363982656
 20
-482.7569999193038
 30
0.0
 11
-2824.015666904323
 21
-482.7569999193038
 31
0.0
  0
LINE
  5
489
330
200
100
AcDbEntity
  8
0
  6
CENTER
 62
     1
 48
0.1
100
AcDbLine
 10
-2915.689824780161
 20
-574.4311577951448
 30
0.0
 11
-2915.689824780161
 21
-391.08284204347
 31
0.0
  0
LINE
  5
48A
330
200
100
AcDbEntity
  8
0
  6
CENTER
 62
     1
 48
0.1
100
AcDbLine
 10
-3007.363982656
 20
-382.7570000213054
 30
0.0
 11
-2824.015666904323
 21
-382.7570000213054
 31
0.0
  0
LINE
  5
48B
330
200
100
AcDbEntity
  8
0
  6
CENTER
 62
     1
 48
0.1
100
AcDbLine
 10
-2915.689824780161
 20
-474.4311578971392
 30
0.0
 11
-2915.689824780161
 21
-291.0828421454662
 31
0.0
  0
LINE
  5
48C
330
200
100
AcDbEntity
  8
0
  6
CENTER
 62
     1
 48
0.1
100
AcDbLine
 10
-2907.363982757996
 20
-382.7570000213054
 30
0.0
 11
-2724.015667006324
 21
-382.7570000213054
 31
0.0
  0
LINE
  5
48D
330
200
100
AcDbEntity
  8
0
  6
CENTER
 62
     1
 48
0.1
100
AcDbLine
 10
-2815.689824882161
 20
-474.4311578971392
 30
0.0
 11
-2815.689824882161
 21
-291.0828421454662
 31
0.0
  0
LINE
  5
48E
330
200
100
AcDbEntity
  8
0
  6
CENTER
 62
     1
 48
0.1
100
AcDbLine
 10
-2907.363982757996
 20
-282.7570001233052
 30
0.0
 11
-2724.015667006324
 21
-282.7570001233052
 31
0.0
  0
LINE
  5
48F
330
200
100
AcDbEntity
  8
0
  6
CENTER
 62
     1
 48
0.1
100
AcDbLine
 10
-2815.689824882161
 20
-374.4311579991445
 30
0.0
 11
-2815.689824882161
 21
-191.0828422474697
 31
0.0
  0
LINE
  5
490
330
200
100
AcDbEntity
  8
0
  6
CENTER
 62
     1
 48
0.1
100
AcDbLine
 10
-3007.363982656
 20
-282.7570001233052
 30
0.0
 11
-2824.015666904323
 21
-282.7570001233052
 31
0.0
  0
LINE
  5
491
330
200
100
AcDbEntity
  8
0
  6
CENTER
 62
     1
 48
0.1
100
AcDbLine
 10
-2915.689824780161
 20
-374.4311579991445
 30
0.0
 11
-2915.689824780161
 21
-191.0828422474697
 31
0.0
  0
LINE
  5
492
330
200
100
AcDbEntity
  8
0
  6
CENTER
 62
     1
 48
0.1
100
AcDbLine
 10
-3007.363982656
 20
-182.7570002253051
 30
0.0
 11
-2824.015666904323
 21
-182.7570002253051
 31
0.0
  0
LINE
  5
493
330
200
100
AcDbEntity
  8
0
  6
CENTER
 62
     1
 48
0.1
100
AcDbLine
 10
-2915.689824780161
 20
-274.4311581011443
 30
0.0
 11
-2915.689824780161
 21
-91.08284234947133
 31
0.0
  0
LINE
  5
494
330
200
100
AcDbEntity
  8
0
  6
CENTER
 62
     1
 48
0.1
100
AcDbLine
 10
-2907.363982757996
 20
-182.7570002253051
 30
0.0
 11
-2724.015667006324
 21
-182.7570002253051
 31
0.0
  0
LINE
  5
495
330
200
100
AcDbEntity
  8
0
  6
CENTER
 62
     1
 48
0.1
100
AcDbLine
 10
-2815.689824882161
 20
-274.4311581011443
 30
0.0
 11
-2815.689824882161
 21
-91.08284234947133
 31
0.0
  0
LINE
  5
496
330
200
100
AcDbEntity
  8
0
  6
CENTER
 62
     1
 48
0.1
100
AcDbLine
 10
-3007.363982656
 20
-82.75700032730492
 30
0.0
 11
-2824.015666904323
 21
-82.75700032730492
 31
0.0
  0
LINE
  5
497
330
200
100
AcDbEntity
  8
0
  6
CENTER
 62
     1
 48
0.1
100
AcDbLine
 10
-2915.689824780161
 20
-174.4311582031387
 30
0.0
 11
-2915.689824780161
 21
8.917157548534305
 31
0.0
  0
LINE
  5
498
330
200
100
AcDbEntity
  8
0
  6
CENTER
 62
     1
 48
0.1
100
AcDbLine
 10
-2907.363982757996
 20
-82.75700032730492
 30
0.0
 11
-2724.015667006324
 21
-82.75700032730492
 31
0.0
  0
LINE
  5
499
330
200
100
AcDbEntity
  8
0
  6
CENTER
 62
     1
 48
0.1
100
AcDbLine
 10
-2815.689824882161
 20
-174.4311582031387
 30
0.0
 11
-2815.689824882161
 21
8.917157548534305
 31
0.0
  0
LINE
  5
49A
330
200
100
AcDbEntity
  8
0
  6
CENTER
 62
     1
 48
0.1
100
AcDbLine
 10
-2907.363982757996
 20
17.24299957069343
 30
0.0
 11
-2724.015667006324
 21
17.24299957069343
 31
0.0
  0
LINE
  5
49B
330
200
100
AcDbEntity
  8
0
  6
CENTER
 62
     1
 48
0.1
100
AcDbLine
 10
-2815.689824882161
 20
-74.4311583051458
 30
0.0
 11
-2815.689824882161
 21
108.9171574465308
 31
0.0
  0
LINE
  5
49C
330
200
100
AcDbEntity
  8
0
  6
CENTER
 62
     1
 48
0.1
100
AcDbLine
 10
-3007.363982656
 20
17.24299957069343
 30
0.0
 11
-2824.015666904323
 21
17.24299957069343
 31
0.0
  0
LINE
  5
49D
330
200
100
AcDbEntity
  8
0
  6
CENTER
 62
     1
 48
0.1
100
AcDbLine
 10
-2915.689824780161
 20
-74.4311583051458
 30
0.0
 11
-2915.689824780161
 21
108.9171574465308
 31
0.0
  0
LINE
  5
49E
330
200
100
AcDbEntity
  8
0
  6
CENTER
 62
     1
 48
0.1
100
AcDbLine
 10
-3007.363982656
 20
117.2429994686954
 30
0.0
 11
-2824.015666904323
 21
117.2429994686954
 31
0.0
  0
LINE
  5
49F
330
200
100
AcDbEntity
  8
0
  6
CENTER
 62
     1
 48
0.1
100
AcDbLine
 10
-2915.689824780161
 20
25.56884159285983
 30
0.0
 11
-2915.689824780161
 21
208.9171573445328
 31
0.0
  0
LINE
  5
4A0
330
200
100
AcDbEntity
  8
0
  6
CENTER
 62
     1
 48
0.1
100
AcDbLine
 10
-2907.363982757996
 20
117.2429994686954
 30
0.0
 11
-2724.015667006324
 21
117.2429994686954
 31
0.0
  0
LINE
  5
4A1
330
200
100
AcDbEntity
  8
0
  6
CENTER
 62
     1
 48
0.1
100
AcDbLine
 10
-2815.689824882161
 20
25.56884159285983
 30
0.0
 11
-2815.689824882161
 21
208.9171573445328
 31
0.0
  0
LINE
  5
4A2
330
200
100
AcDbEntity
  8
0
  6
CENTER
 62
     1
 48
0.1
100
AcDbLine
 10
-2907.363982757996
 20
217.2429993666956
 30
0.0
 11
-2724.015667006324
 21
217.2429993666956
 31
0.0
  0
LINE
  5
4A3
330
200
100
AcDbEntity
  8
0
  6
CENTER
 62
     1
 48
0.1
100
AcDbLine
 10
-2815.689824882161
 20
125.56884149086
 30
0.0
 11
-2815.689824882161
 21
308.9171572425348
 31
0.0
  0
LINE
  5
4A4
330
200
100
AcDbEntity
  8
0
  6
CENTER
 62
     1
 48
0.1
100
AcDbLine
 10
-3007.363982656
 20
217.2429993666956
 30
0.0
 11
-2824.015666904323
 21
217.2429993666956
 31
0.0
  0
LINE
  5
4A5
330
200
100
AcDbEntity
  8
0
  6
CENTER
 62
     1
 48
0.1
100
AcDbLine
 10
-2915.689824780161
 20
125.56884149086
 30
0.0
 11
-2915.689824780161
 21
308.9171572425348
 31
0.0
  0
LINE
  5
4A6
330
200
100
AcDbEntity
  8
0
  6
CENTER
 62
     1
 48
0.1
100
AcDbLine
 10
-3107.363982554
 20
416.8492983756951
 30
0.0
 11
-2924.015666802326
 21
416.8492983756951
 31
0.0
  0
LINE
  5
4A7
330
200
100
AcDbEntity
  8
0
  6
CENTER
 62
     1
 48
0.1
100
AcDbLine
 10
-3015.68982467816
 20
325.1751404998613
 30
0.0
 11
-3015.68982467816
 21
508.5234562515343
 31
0.0
  0
LINE
  5
4A8
330
200
100
AcDbEntity
  8
0
  6
CENTER
 62
     1
 48
0.1
100
AcDbLine
 10
-3107.363982554
 20
-882.3632987243055
 30
0.0
 11
-2924.015666802326
 21
-882.3632987243055
 31
0.0
  0
LINE
  5
4A9
330
200
100
AcDbEntity
  8
0
  6
CENTER
 62
     1
 48
0.1
100
AcDbLine
 10
-3015.68982467816
 20
-974.0374566001447
 30
0.0
 11
-3015.68982467816
 21
-790.6891408484698
 31
0.0
  0
LINE
  5
618
330
200
100
AcDbEntity
  8
0
  6
Continuous
 62
     7
100
AcDbLine
 10
3230.496783123961
 20
-1336.985358626729
 30
0.0
 11
3230.496783123961
 21
1463.014638517272
 31
0.0
  0
LINE
  5
619
330
200
100
AcDbEntity
  8
0
  6
Continuous
 62
     7
100
AcDbLine
 10
3309.236940523961
 20
-1336.985358626729
 30
0.0
 11
3309.236940523961
 21
1463.014638517272
 31
0.0
  0
LINE
  5
61A
330
200
100
AcDbEntity
  8
0
100
AcDbLine
 10
3309.236940523961
 20
1463.014638517272
 30
0.0
 11
3063.050326601844
 21
1463.014638517268
 31
0.0
  0
LINE
  5
61B
330
200
100
AcDbEntity
  8
0
100
AcDbLine
 10
3309.236940523961
 20
-1336.985358626729
 30
0.0
 11
3063.050326601844
 21
-1336.985358626729
 31
0.0
  0
CIRCLE
  5
7BB
330
200
100
AcDbEntity
  8
0
100
AcDbCircle
 10
2826.82985440184
 20
1598.447709245267
 30
0.0
 40
98.42519675
  0
CIRCLE
  5
7BE
330
200
100
AcDbEntity
  8
0
100
AcDbCircle
 10
2826.82985440184
 20
1550.436525602832
 30
0.0
 40
19.68503935
  0
CIRCLE
  5
7BF
330
200
100
AcDbEntity
  8
0
100
AcDbCircle
 10
2826.82985440184
 20
1648.447709194266
 30
0.0
 40
19.68503935
  0
ENDSEC
  0
SECTION
  2
OBJECTS
  0
DICTIONARY
  5
C
330
0
100
AcDbDictionary
281
     1
  3
ACAD_COLOR
350
2B4
  3
ACAD_GROUP
350
D
  3
ACAD_LAYOUT
350
1A
  3
ACAD_MATERIAL
350
28A
  3
ACAD_MLEADERSTYLE
350
2D9
  3
ACAD_MLINESTYLE
350
17
  3
ACAD_PLOTSETTINGS
350
19
  3
ACAD_PLOTSTYLENAME
350
E
  3
ACAD_SCALELIST
350
2B7
  3
ACAD_TABLESTYLE
350
2B5
  3
ACAD_VISUALSTYLE
350
2A3
  3
ACDB_RECOMPOSE_DATA
350
79E
  3
AcDbVariableDictionary
350
792
  3
DWGPROPS
350
7D0
  0
DICTIONARY
  5
78A
330
10
100
AcDbDictionary
280
     1
281
     1
  3
ADSK_XREC_LAYER_RECONCILED
360
78B
  0
DICTIONARY
  5
78C
330
1FA
100
AcDbDictionary
280
     1
281
     1
  3
ADSK_XREC_LAYER_RECONCILED
360
78D
  0
DICTIONARY
  5
78E
330
1FB
100
AcDbDictionary
280
     1
281
     1
  3
ADSK_XREC_LAYER_RECONCILED
360
78F
  0
DICTIONARY
  5
790
330
1FC
100
AcDbDictionary
280
     1
281
     1
  3
ADSK_XREC_LAYER_RECONCILED
360
791
  0
DICTIONARY
  5
7B1
330
200
100
AcDbDictionary
280
     1
281
     1
  3
ACAD_SORTENTS
360
7B2
  0
DICTIONARY
  5
7D1
330
209
100
AcDbDictionary
280
     1
281
     1
  3
ACAD_MTEXT_RT
360
7D2
  0
DICTIONARY
  5
2B4
102
{ACAD_REACTORS
330
C
102
}
330
C
100
AcDbDictionary
281
     1
  0
DICTIONARY
  5
D
102
{ACAD_REACTORS
330
C
102
}
330
C
100
AcDbDictionary
281
     1
  0
DICTIONARY
  5
1A
102
{ACAD_REACTORS
330
C
102
}
330
C
100
AcDbDictionary
281
     1
  3
Layout1
350
287
  3
Model
350
286
  0
DICTIONARY
  5
28A
102
{ACAD_REACTORS
330
C
102
}
330
C
100
AcDbDictionary
281
     1
  3
ByBlock
350
293
  3
ByLayer
350
28B
  3
Global
350
29B
  0
DICTIONARY
  5
2D9
102
{ACAD_REACTORS
330
C
102
}
330
C
100
AcDbDictionary
281
     1
  3
Standard
350
2DA
  0
DICTIONARY
  5
17
102
{ACAD_REACTORS
330
C
102
}
330
C
100
AcDbDictionary
281
     1
  3
Standard
350
18
  0
DICTIONARY
  5
19
102
{ACAD_REACTORS
330
C
102
}
330
C
100
AcDbDictionary
281
     1
  0
ACDBDICTIONARYWDFLT
  5
E
102
{ACAD_REACTORS
330
C
102
}
330
C
100
AcDbDictionary
281
     1
  3
Normal
350
F
100
AcDbDictionaryWithDefault
340
F
  0
DICTIONARY
  5
2B7
102
{ACAD_REACTORS
330
C
102
}
330
C
100
AcDbDictionary
281
     1
  3
A0
350
2B8
  3
A1
350
2B9
  3
A2
350
2BA
  3
A3
350
2BB
  3
A4
350
2BC
  3
A5
350
2BD
  3
A6
350
2BE
  3
A7
350
2BF
  3
A8
350
2C0
  3
A9
350
2C1
  3
B0
350
2C2
  3
B1
350
2C3
  3
B2
350
2C4
  3
B3
350
2C5
  3
B4
350
2C6
  3
B5
350
2C7
  3
B6
350
2C8
  3
B7
350
2C9
  3
B8
350
2CA
  3
B9
350
2CB
  3
C0
350
2CC
  3
C1
350
2CD
  3
C2
350
2CE
  3
C3
350
2CF
  3
C4
350
2D0
  3
C5
350
2D1
  3
C6
350
2D2
  3
C7
350
2D3
  3
C8
350
2D4
  3
C9
350
2D5
  3
D0
350
2D6
  3
D1
350
2D7
  3
D2
350
2D8
  0
DICTIONARY
  5
2B5
102
{ACAD_REACTORS
330
C
102
}
330
C
100
AcDbDictionary
281
     1
  3
Standard
350
2B6
  0
DICTIONARY
  5
2A3
102
{ACAD_REACTORS
330
C
102
}
330
C
100
AcDbDictionary
281
     1
  3
2dWireframe
350
2A9
  3
3D Hidden
350
2AB
  3
3dWireframe
350
2AA
  3
Basic
350
2A8
  3
Brighten
350
2AF
  3
ColorChange
350
2B3
  3
Conceptual
350
2AC
  3
Dim
350
2AE
  3
Facepattern
350
2B2
  3
Flat
350
2A4
  3
FlatWithEdges
350
2A5
  3
Gouraud
350
2A6
  3
GouraudWithEdges
350
2A7
  3
Linepattern
350
2B1
  3
Realistic
350
2AD
  3
Thicken
350
2B0
  0
XRECORD
  5
79E
102
{ACAD_REACTORS
330
C
102
}
330
C
100
AcDbXrecord
280
     1
 90
        1
330
2B6
  0
DICTIONARY
  5
792
102
{ACAD_REACTORS
330
C
102
}
330
C
100
AcDbDictionary
281
     1
  3
CANNOSCALE
350
796
  3
CMLEADERSTYLE
350
794
  3
CTABLESTYLE
350
793
  3
DIMASSOC
350
79B
  3
HIDETEXT
350
79A
  3
INDEXCTL
350
799
  3
LIGHTINGUNITS
350
797
  3
MSLTSCALE
350
795
  3
SORTENTS
350
798
  0
XRECORD
  5
7D0
102
{ACAD_REACTORS
330
C
102
}
330
C
100
AcDbXrecord
280
     1
  1
DWGPROPS COOKIE
  2

  3

  4

  6

  7

  8
01
  9

300
=
301
=
302
=
303
=
304
=
305
=
306
=
307
=
308
=
309
=
 40
0.0051207175925926
 41
2458705.616825081
 42
2458708.584128693
  1

 90
        0
  0
XRECORD
  5
78B
102
{ACAD_REACTORS
330
78A
102
}
330
78A
100
AcDbXrecord
280
     1
290
     1
  0
XRECORD
  5
78D
102
{ACAD_REACTORS
330
78C
102
}
330
78C
100
AcDbXrecord
280
     1
290
     1
  0
XRECORD
  5
78F
102
{ACAD_REACTORS
330
78E
102
}
330
78E
100
AcDbXrecord
280
     1
290
     1
  0
XRECORD
  5
791
102
{ACAD_REACTORS
330
790
102
}
330
790
100
AcDbXrecord
280
     1
290
     1
  0
SORTENTSTABLE
  5
7B2
102
{ACAD_REACTORS
330
7B1
102
}
330
7B1
100
AcDbSortentsTable
330
200
331
278
  5
27C
331
241
  5
245
331
47D
  5
481
331
20E
  5
20E
331
249
  5
24D
331
450
  5
454
331
485
  5
489
331
48D
  5
491
331
251
  5
255
331
495
  5
499
331
259
  5
25D
331
261
  5
265
331
45E
  5
462
331
49D
  5
4A1
331
269
  5
26D
331
466
  5
46A
331
4A5
  5
4A9
331
271
  5
275
331
46E
  5
472
331
476
  5
47A
331
279
  5
27D
331
47E
  5
482
331
242
  5
246
331
20F
  5
20F
331
451
  5
455
331
486
  5
48A
331
24A
  5
24E
331
252
  5
256
331
48E
  5
492
331
496
  5
49A
331
25A
  5
25E
331
49E
  5
4A2
331
280
  5
284
331
262
  5
266
331
45F
  5
463
331
4A6
  5
618
331
22B
  5
22B
331
26A
  5
26E
331
467
  5
46B
331
272
  5
276
331
46F
  5
473
331
477
  5
47B
331
27A
  5
27E
331
243
  5
247
331
47F
  5
483
331
210
  5
210
331
24B
  5
24F
331
452
  5
456
331
487
  5
48B
331
48F
  5
493
331
253
  5
257
331
497
  5
49B
331
458
  5
45C
331
25B
  5
25F
331
460
  5
464
331
49F
  5
4A3
331
263
  5
267
331
281
  5
285
331
26B
  5
26F
331
468
  5
46C
331
4A7
  5
619
331
273
  5
277
331
470
  5
474
331
27B
  5
27F
331
478
  5
47C
331
480
  5
484
331
244
  5
248
331
209
  5
209
331
211
  5
211
331
24C
  5
250
331
453
  5
457
331
488
  5
48C
331
254
  5
258
331
490
  5
494
331
25C
  5
260
331
459
  5
45D
331
498
  5
49C
331
4A0
  5
4A4
331
282
  5
44E
331
264
  5
268
331
461
  5
465
331
469
  5
46D
331
4A8
  5
61A
331
26C
  5
270
331
274
  5
278
331
471
  5
475
331
618
  5
7B0
331
235
  5
235
331
23D
  5
241
331
27C
  5
280
331
479
  5
47D
331
245
  5
249
331
481
  5
485
331
212
  5
212
331
24D
  5
251
331
454
  5
458
331
489
  5
48D
331
491
  5
495
331
255
  5
259
331
25D
  5
261
331
45A
  5
45E
331
499
  5
49D
331
462
  5
466
331
4A1
  5
4A5
331
265
  5
269
331
283
  5
44F
331
26D
  5
271
331
46A
  5
46E
331
4A9
  5
61B
331
619
  5
7B3
331
236
  5
23D
331
275
  5
279
331
472
  5
476
331
47A
  5
47E
331
23E
  5
242
331
27D
  5
281
331
482
  5
486
331
246
  5
24A
331
213
  5
213
331
24E
  5
252
331
455
  5
459
331
48A
  5
48E
331
256
  5
25A
331
492
  5
496
331
25E
  5
262
331
45B
  5
45F
331
49A
  5
49E
331
4A2
  5
4A6
331
284
  5
450
331
266
  5
26A
331
463
  5
467
331
26E
  5
272
331
46B
  5
46F
331
276
  5
27A
331
473
  5
477
331
61A
  5
7BB
331
237
  5
23E
331
23F
  5
243
331
27E
  5
282
331
47B
  5
47F
331
247
  5
24B
331
44E
  5
452
331
483
  5
487
331
48B
  5
48F
331
214
  5
214
331
24F
  5
253
331
456
  5
45A
331
493
  5
497
331
257
  5
25B
331
25F
  5
263
331
45C
  5
460
331
49B
  5
49F
331
218
  5
218
331
285
  5
451
331
267
  5
26B
331
464
  5
468
331
4A3
  5
4A7
331
26F
  5
273
331
46C
  5
470
331
61B
  5
7BC
331
277
  5
27B
331
474
  5
478
331
238
  5
23F
331
27F
  5
283
331
47C
  5
480
331
7BB
  5
7BD
331
240
  5
244
331
44F
  5
453
331
484
  5
488
331
248
  5
24C
331
250
  5
254
331
457
  5
45B
331
48C
  5
490
331
494
  5
498
331
258
  5
25C
331
49C
  5
4A0
331
260
  5
264
331
45D
  5
461
331
4A4
  5
4A8
331
268
  5
26C
331
465
  5
469
331
270
  5
274
331
46D
  5
471
331
475
  5
479
  0
XRECORD
  5
7D2
102
{ACAD_REACTORS
330
7D1
102
}
330
7D1
100
AcDbXrecord
280
     1
 40
11452.0
  1
 1,000
  0
LAYOUT
  5
287
102
{ACAD_XDICTIONARY
360
7D5
102
}
102
{ACAD_REACTORS
330
1A
102
}
330
1A
100
AcDbPlotSettings
  1

  2
none_device
  4
ANSI_C_(22.00_x_17.00_Inches)
  6

 40
0.0
 41
0.0
 42
0.0
 43
0.0
 44
558.8
 45
431.8
 46
0.0
 47
0.0
 48
0.0
 49
0.0
140
0.0
141
0.0
142
1.0
143
1.0
 70
     0
 72
     1
 73
     0
 74
     0
  7

 75
     0
147
1.0
148
0.0
149
0.0
100
AcDbLayout
  1
Layout1
 70
     1
 71
     1
 10
0.0
 20
0.0
 11
12.0
 21
9.0
 12
0.0
 22
0.0
 32
0.0
 14
1.000000000000000E+20
 24
1.000000000000000E+20
 34
1.000000000000000E+20
 15
-1.000000000000000E+20
 25
-1.000000000000000E+20
 35
-1.000000000000000E+20
146
0.0
 13
0.0
 23
0.0
 33
0.0
 16
1.0
 26
0.0
 36
0.0
 17
0.0
 27
1.0
 37
0.0
 76
     0
330
201
  0
LAYOUT
  5
286
102
{ACAD_XDICTIONARY
360
7D3
102
}
102
{ACAD_REACTORS
330
1A
102
}
330
1A
100
AcDbPlotSettings
  1

  2
none_device
  4
ANSI_C_(22.00_x_17.00_Inches)
  6

 40
0.0
 41
0.0
 42
0.0
 43
0.0
 44
558.8
 45
431.8
 46
0.0
 47
0.0
 48
0.0
 49
0.0
140
0.0
141
0.0
142
1.0
143
1.0
 70
  1024
 72
     1
 73
     0
 74
     0
  7

 75
     0
147
1.0
148
0.0
149
0.0
100
AcDbLayout
  1
Model
 70
     0
 71
     0
 10
0.0
 20
0.0
 11
558.8
 21
431.8
 12
0.0
 22
0.0
 32
0.0
 14
0.0
 24
0.0
 34
0.0
 15
0.0
 25
0.0
 35
0.0
146
0.0
 13
0.0
 23
0.0
 33
0.0
 16
1.0
 26
0.0
 36
0.0
 17
0.0
 27
1.0
 37
0.0
 76
     0
330
200
331
1F4
  0
MATERIAL
  5
293
102
{ACAD_XDICTIONARY
360
294
102
}
102
{ACAD_REACTORS
330
28A
102
}
330
28A
100
AcDbMaterial
  1
ByBlock
 72
     0
 43
0.0008202099737533
 43
0.0
 43
0.0
 43
0.0
 43
0.0
 43
0.0008202099737533
 43
0.0
 43
0.0
 43
0.0
 43
0.0
 43
1.0
 43
0.0
 43
0.0
 43
0.0
 43
0.0
 43
1.0
 77
     0
 47
0.0008202099737533
 47
0.0
 47
0.0
 47
0.0
 47
0.0
 47
0.0008202099737533
 47
0.0
 47
0.0
 47
0.0
 47
0.0
 47
1.0
 47
0.0
 47
0.0
 47
0.0
 47
0.0
 47
1.0
171
     0
 49
0.0008202099737533
 49
0.0
 49
0.0
 49
0.0
 49
0.0
 49
0.0008202099737533
 49
0.0
 49
0.0
 49
0.0
 49
0.0
 49
1.0
 49
0.0
 49
0.0
 49
0.0
 49
0.0
 49
1.0
175
     0
142
0.0008202099737533
142
0.0
142
0.0
142
0.0
142
0.0
142
0.0008202099737533
142
0.0
142
0.0
142
0.0
142
0.0
142
1.0
142
0.0
142
0.0
142
0.0
142
0.0
142
1.0
179
     0
144
0.0008202099737533
144
0.0
144
0.0
144
0.0
144
0.0
144
0.0008202099737533
144
0.0
144
0.0
144
0.0
144
0.0
144
1.0
144
0.0
144
0.0
144
0.0
144
0.0
144
1.0
147
0.0008202099737533
147
0.0
147
0.0
147
0.0
147
0.0
147
0.0008202099737533
147
0.0
147
0.0
147
0.0
147
0.0
147
1.0
147
0.0
147
0.0
147
0.0
147
0.0
147
1.0
  0
MATERIAL
  5
28B
102
{ACAD_XDICTIONARY
360
28C
102
}
102
{ACAD_REACTORS
330
28A
102
}
330
28A
100
AcDbMaterial
  1
ByLayer
 72
     0
 43
0.0008202099737533
 43
0.0
 43
0.0
 43
0.0
 43
0.0
 43
0.0008202099737533
 43
0.0
 43
0.0
 43
0.0
 43
0.0
 43
1.0
 43
0.0
 43
0.0
 43
0.0
 43
0.0
 43
1.0
 77
     0
 47
0.0008202099737533
 47
0.0
 47
0.0
 47
0.0
 47
0.0
 47
0.0008202099737533
 47
0.0
 47
0.0
 47
0.0
 47
0.0
 47
1.0
 47
0.0
 47
0.0
 47
0.0
 47
0.0
 47
1.0
171
     0
 49
0.0008202099737533
 49
0.0
 49
0.0
 49
0.0
 49
0.0
 49
0.0008202099737533
 49
0.0
 49
0.0
 49
0.0
 49
0.0
 49
1.0
 49
0.0
 49
0.0
 49
0.0
 49
0.0
 49
1.0
175
     0
142
0.0008202099737533
142
0.0
142
0.0
142
0.0
142
0.0
142
0.0008202099737533
142
0.0
142
0.0
142
0.0
142
0.0
142
1.0
142
0.0
142
0.0
142
0.0
142
0.0
142
1.0
179
     0
144
0.0008202099737533
144
0.0
144
0.0
144
0.0
144
0.0
144
0.0008202099737533
144
0.0
144
0.0
144
0.0
144
0.0
144
1.0
144
0.0
144
0.0
144
0.0
144
0.0
144
1.0
147
0.0008202099737533
147
0.0
147
0.0
147
0.0
147
0.0
147
0.0008202099737533
147
0.0
147
0.0
147
0.0
147
0.0
147
1.0
147
0.0
147
0.0
147
0.0
147
0.0
147
1.0
  0
MATERIAL
  5
29B
102
{ACAD_XDICTIONARY
360
29C
102
}
102
{ACAD_REACTORS
330
28A
102
}
330
28A
100
AcDbMaterial
  1
Global
 72
     0
 43
0.0008202099737533
 43
0.0
 43
0.0
 43
0.0
 43
0.0
 43
0.0008202099737533
 43
0.0
 43
0.0
 43
0.0
 43
0.0
 43
1.0
 43
0.0
 43
0.0
 43
0.0
 43
0.0
 43
1.0
 77
     0
 47
0.0008202099737533
 47
0.0
 47
0.0
 47
0.0
 47
0.0
 47
0.0008202099737533
 47
0.0
 47
0.0
 47
0.0
 47
0.0
 47
1.0
 47
0.0
 47
0.0
 47
0.0
 47
0.0
 47
1.0
171
     0
 49
0.0008202099737533
 49
0.0
 49
0.0
 49
0.0
 49
0.0
 49
0.0008202099737533
 49
0.0
 49
0.0
 49
0.0
 49
0.0
 49
1.0
 49
0.0
 49
0.0
 49
0.0
 49
0.0
 49
1.0
175
     0
142
0.0008202099737533
142
0.0
142
0.0
142
0.0
142
0.0
142
0.0008202099737533
142
0.0
142
0.0
142
0.0
142
0.0
142
1.0
142
0.0
142
0.0
142
0.0
142
0.0
142
1.0
179
     0
144
0.0008202099737533
144
0.0
144
0.0
144
0.0
144
0.0
144
0.0008202099737533
144
0.0
144
0.0
144
0.0
144
0.0
144
1.0
144
0.0
144
0.0
144
0.0
144
0.0
144
1.0
147
0.0008202099737533
147
0.0
147
0.0
147
0.0
147
0.0
147
0.0008202099737533
147
0.0
147
0.0
147
0.0
147
0.0
147
1.0
147
0.0
147
0.0
147
0.0
147
0.0
147
1.0
  0
MLEADERSTYLE
  5
2DA
102
{ACAD_REACTORS
330
2D9
102
}
330
2D9
100
AcDbMLeaderStyle
170
     2
171
     1
172
     0
 90
        2
 40
0.0
 41
0.0
173
     1
 91
-1056964608
340
14
 92
       -2
290
     1
 42
2.0
291
     1
 43
0.36
  3
Standard
 44
4.0
300

342
11
174
     1
178
     6
175
     1
176
     0
 93
-1056964608
 45
4.0
292
     0
297
     0
 46
4.0
 94
-1056964608
 47
1.0
 49
1.0
140
1.0
293
     1
141
0.0
294
     1
177
     0
142
1.0
295
     0
296
     0
143
0.125
1001
ACAD_MLEADERVER
1070
     2
  0
MLINESTYLE
  5
18
102
{ACAD_REACTORS
330
17
102
}
330
17
100
AcDbMlineStyle
  2
STANDARD
 70
     0
  3

 62
   256
 51
90.0
 52
90.0
 71
     2
 49
0.5
 62
   256
  6
BYLAYER
 49
-0.5
 62
   256
  6
BYLAYER
  0
ACDBPLACEHOLDER
  5
F
102
{ACAD_REACTORS
330
E
102
}
330
E
  0
SCALE
  5
2B8
102
{ACAD_REACTORS
330
2B7
102
}
330
2B7
100
AcDbScale
 70
     0
300
1:1
140
1.0
141
1.0
290
     1
  0
SCALE
  5
2B9
102
{ACAD_REACTORS
330
2B7
102
}
330
2B7
100
AcDbScale
 70
     0
300
1:2
140
1.0
141
2.0
290
     0
  0
SCALE
  5
2BA
102
{ACAD_REACTORS
330
2B7
102
}
330
2B7
100
AcDbScale
 70
     0
300
1:4
140
1.0
141
4.0
290
     0
  0
SCALE
  5
2BB
102
{ACAD_REACTORS
330
2B7
102
}
330
2B7
100
AcDbScale
 70
     0
300
1:5
140
1.0
141
5.0
290
     0
  0
SCALE
  5
2BC
102
{ACAD_REACTORS
330
2B7
102
}
330
2B7
100
AcDbScale
 70
     0
300
1:8
140
1.0
141
8.0
290
     0
  0
SCALE
  5
2BD
102
{ACAD_REACTORS
330
2B7
102
}
330
2B7
100
AcDbScale
 70
     0
300
1:10
140
1.0
141
10.0
290
     0
  0
SCALE
  5
2BE
102
{ACAD_REACTORS
330
2B7
102
}
330
2B7
100
AcDbScale
 70
     0
300
1:16
140
1.0
141
16.0
290
     0
  0
SCALE
  5
2BF
102
{ACAD_REACTORS
330
2B7
102
}
330
2B7
100
AcDbScale
 70
     0
300
1:20
140
1.0
141
20.0
290
     0
  0
SCALE
  5
2C0
102
{ACAD_REACTORS
330
2B7
102
}
330
2B7
100
AcDbScale
 70
     0
300
1:30
140
1.0
141
30.0
290
     0
  0
SCALE
  5
2C1
102
{ACAD_REACTORS
330
2B7
102
}
330
2B7
100
AcDbScale
 70
     0
300
1:40
140
1.0
141
40.0
290
     0
  0
SCALE
  5
2C2
102
{ACAD_REACTORS
330
2B7
102
}
330
2B7
100
AcDbScale
 70
     0
300
1:50
140
1.0
141
50.0
290
     0
  0
SCALE
  5
2C3
102
{ACAD_REACTORS
330
2B7
102
}
330
2B7
100
AcDbScale
 70
     0
300
1:100
140
1.0
141
100.0
290
     0
  0
SCALE
  5
2C4
102
{ACAD_REACTORS
330
2B7
102
}
330
2B7
100
AcDbScale
 70
     0
300
2:1
140
2.0
141
1.0
290
     0
  0
SCALE
  5
2C5
102
{ACAD_REACTORS
330
2B7
102
}
330
2B7
100
AcDbScale
 70
     0
300
4:1
140
4.0
141
1.0
290
     0
  0
SCALE
  5
2C6
102
{ACAD_REACTORS
330
2B7
102
}
330
2B7
100
AcDbScale
 70
     0
300
8:1
140
8.0
141
1.0
290
     0
  0
SCALE
  5
2C7
102
{ACAD_REACTORS
330
2B7
102
}
330
2B7
100
AcDbScale
 70
     0
300
10:1
140
10.0
141
1.0
290
     0
  0
SCALE
  5
2C8
102
{ACAD_REACTORS
330
2B7
102
}
330
2B7
100
AcDbScale
 70
     0
300
100:1
140
100.0
141
1.0
290
     0
  0
SCALE
  5
2C9
102
{ACAD_REACTORS
330
2B7
102
}
330
2B7
100
AcDbScale
 70
     0
300
1/128" = 1'-0"
140
0.0078125
141
12.0
290
     0
  0
SCALE
  5
2CA
102
{ACAD_REACTORS
330
2B7
102
}
330
2B7
100
AcDbScale
 70
     0
300
1/64" = 1'-0"
140
0.015625
141
12.0
290
     0
  0
SCALE
  5
2CB
102
{ACAD_REACTORS
330
2B7
102
}
330
2B7
100
AcDbScale
 70
     0
300
1/32" = 1'-0"
140
0.03125
141
12.0
290
     0
  0
SCALE
  5
2CC
102
{ACAD_REACTORS
330
2B7
102
}
330
2B7
100
AcDbScale
 70
     0
300
1/16" = 1'-0"
140
0.0625
141
12.0
290
     0
  0
SCALE
  5
2CD
102
{ACAD_REACTORS
330
2B7
102
}
330
2B7
100
AcDbScale
 70
     0
300
3/32" = 1'-0"
140
0.09375
141
12.0
290
     0
  0
SCALE
  5
2CE
102
{ACAD_REACTORS
330
2B7
102
}
330
2B7
100
AcDbScale
 70
     0
300
1/8" = 1'-0"
140
0.125
141
12.0
290
     0
  0
SCALE
  5
2CF
102
{ACAD_REACTORS
330
2B7
102
}
330
2B7
100
AcDbScale
 70
     0
300
3/16" = 1'-0"
140
0.1875
141
12.0
290
     0
  0
SCALE
  5
2D0
102
{ACAD_REACTORS
330
2B7
102
}
330
2B7
100
AcDbScale
 70
     0
300
1/4" = 1'-0"
140
0.25
141
12.0
290
     0
  0
SCALE
  5
2D1
102
{ACAD_REACTORS
330
2B7
102
}
330
2B7
100
AcDbScale
 70
     0
300
3/8" = 1'-0"
140
0.375
141
12.0
290
     0
  0
SCALE
  5
2D2
102
{ACAD_REACTORS
330
2B7
102
}
330
2B7
100
AcDbScale
 70
     0
300
1/2" = 1'-0"
140
0.5
141
12.0
290
     0
  0
SCALE
  5
2D3
102
{ACAD_REACTORS
330
2B7
102
}
330
2B7
100
AcDbScale
 70
     0
300
3/4" = 1'-0"
140
0.75
141
12.0
290
     0
  0
SCALE
  5
2D4
102
{ACAD_REACTORS
330
2B7
102
}
330
2B7
100
AcDbScale
 70
     0
300
1" = 1'-0"
140
1.0
141
12.0
290
     0
  0
SCALE
  5
2D5
102
{ACAD_REACTORS
330
2B7
102
}
330
2B7
100
AcDbScale
 70
     0
300
1-1/2" = 1'-0"
140
1.5
141
12.0
290
     0
  0
SCALE
  5
2D6
102
{ACAD_REACTORS
330
2B7
102
}
330
2B7
100
AcDbScale
 70
     0
300
3" = 1'-0"
140
3.0
141
12.0
290
     0
  0
SCALE
  5
2D7
102
{ACAD_REACTORS
330
2B7
102
}
330
2B7
100
AcDbScale
 70
     0
300
6" = 1'-0"
140
6.0
141
12.0
290
     0
  0
SCALE
  5
2D8
102
{ACAD_REACTORS
330
2B7
102
}
330
2B7
100
AcDbScale
 70
     0
300
1'-0" = 1'-0"
140
12.0
141
12.0
290
     0
  0
TABLESTYLE
  5
2B6
102
{ACAD_XDICTIONARY
360
79C
102
}
102
{ACAD_REACTORS
330
2B5
102
}
330
2B5
100
AcDbTableStyle
  3
Standard
 70
     0
 71
     0
 40
1.5
 41
1.5
280
     0
281
     0
  7
STANDARD
140
4.5
170
     2
 62
     0
 63
     7
283
     0
274
    -2
284
     1
 64
     0
275
    -2
285
     1
 65
     0
276
    -2
286
     1
 66
     0
277
    -2
287
     1
 67
     0
278
    -2
288
     1
 68
     0
279
    -2
289
     1
 69
     0
  7
STANDARD
140
6.0
170
     5
 62
     0
 63
     7
283
     0
274
    -2
284
     1
 64
     0
275
    -2
285
     1
 65
     0
276
    -2
286
     1
 66
     0
277
    -2
287
     1
 67
     0
278
    -2
288
     1
 68
     0
279
    -2
289
     1
 69
     0
  7
STANDARD
140
4.5
170
     5
 62
     0
 63
     7
283
     0
274
    -2
284
     1
 64
     0
275
    -2
285
     1
 65
     0
276
    -2
286
     1
 66
     0
277
    -2
287
     1
 67
     0
278
    -2
288
     1
 68
     0
279
    -2
289
     1
 69
     0
  0
VISUALSTYLE
  5
2A9
102
{ACAD_REACTORS
330
2A3
102
}
330
2A3
100
AcDbVisualStyle
  2
2dWireframe
 70
     4
 71
     0
 72
     2
 73
     0
 90
        0
 40
-0.6
 41
-30.0
 62
     5
 63
     7
 74
     1
 91
        4
 64
     7
 65
   257
 75
     1
175
     1
 42
1.0
 92
        0
 66
   257
 43
1.0
 76
     1
 77
     6
 78
     2
 67
     7
 79
     5
170
     0
171
     0
290
     0
174
     0
 93
        1
 44
0.0
173
     0
291
     0
 45
0.0
1001
ACAD
1000
AcDbSavedByObjectVersion
1070
     0
1000
AcDbSavedByObjectVersion
1070
     0
1000
AcDbSavedByObjectVersion
1070
     0
  0
VISUALSTYLE
  5
2AB
102
{ACAD_REACTORS
330
2A3
102
}
330
2A3
100
AcDbVisualStyle
  2
3D Hidden
 70
     6
 71
     1
 72
     2
 73
     2
 90
        0
 40
-0.6
 41
-30.0
 62
     5
 63
     7
 74
     2
 91
        2
 64
     7
 65
   257
 75
     2
175
     1
 42
40.0
 92
        0
 66
   257
 43
1.0
 76
     1
 77
     6
 78
     2
 67
     7
 79
     3
170
     0
171
     0
290
     0
174
     0
 93
        1
 44
0.0
173
     0
291
     0
 45
0.0
1001
ACAD
1000
AcDbSavedByObjectVersion
1070
     0
1000
AcDbSavedByObjectVersion
1070
     0
1000
AcDbSavedByObjectVersion
1070
     0
  0
VISUALSTYLE
  5
2AA
102
{ACAD_REACTORS
330
2A3
102
}
330
2A3
100
AcDbVisualStyle
  2
3dWireframe
 70
     5
 71
     0
 72
     2
 73
     0
 90
        0
 40
-0.6
 41
-30.0
 62
     5
 63
     7
 74
     1
 91
        4
 64
     7
 65
   257
 75
     1
175
     1
 42
1.0
 92
        0
 66
   257
 43
1.0
 76
     1
 77
     6
 78
     2
 67
     7
 79
     5
170
     0
171
     0
290
     0
174
     0
 93
        1
 44
0.0
173
     0
291
     0
 45
0.0
1001
ACAD
1000
AcDbSavedByObjectVersion
1070
     0
1000
AcDbSavedByObjectVersion
1070
     0
1000
AcDbSavedByObjectVersion
1070
     0
  0
VISUALSTYLE
  5
2A8
102
{ACAD_REACTORS
330
2A3
102
}
330
2A3
100
AcDbVisualStyle
  2
Basic
 70
     7
 71
     1
 72
     0
 73
     1
 90
        0
 40
-0.6
 41
-30.0
 62
     5
 63
     7
 74
     0
 91
        4
 64
     7
 65
   257
 75
     1
175
     1
 42
1.0
 92
        8
 66
     7
 43
1.0
 76
     1
 77
     6
 78
     2
 67
     7
 79
     5
170
     0
171
     0
290
     0
174
     0
 93
        1
 44
0.0
173
     0
291
     1
 45
0.0
1001
ACAD
1000
AcDbSavedByObjectVersion
1070
     0
1000
AcDbSavedByObjectVersion
1070
     0
1000
AcDbSavedByObjectVersion
1070
     0
  0
VISUALSTYLE
  5
2AF
102
{ACAD_REACTORS
330
2A3
102
}
330
2A3
100
AcDbVisualStyle
  2
Brighten
 70
    12
 71
     2
 72
     2
 73
     0
 90
        0
 40
-0.6
 41
-30.0
 62
     5
 63
     7
 74
     1
 91
        4
 64
     7
 65
   257
 75
     1
175
     1
 42
1.0
 92
        8
 66
     7
 43
1.0
 76
     1
 77
     6
 78
     2
 67
     7
 79
     5
170
     0
171
     0
290
     0
174
     0
 93
        1
 44
50.0
173
     0
291
     1
 45
0.0
1001
ACAD
1000
AcDbSavedByObjectVersion
1070
     0
1000
AcDbSavedByObjectVersion
1070
     0
1000
AcDbSavedByObjectVersion
1070
     0
  0
VISUALSTYLE
  5
2B3
102
{ACAD_REACTORS
330
2A3
102
}
330
2A3
100
AcDbVisualStyle
  2
ColorChange
 70
    16
 71
     2
 72
     2
 73
     3
 90
        0
 40
-0.6
 41
-30.0
 62
     5
 63
     8
 74
     1
 91
        4
 64
     7
 65
   257
 75
     1
175
     1
 42
1.0
 92
        8
 66
     8
 43
1.0
 76
     1
 77
     6
 78
     2
 67
     7
 79
     5
170
     0
171
     0
290
     0
174
     0
 93
        1
 44
0.0
173
     0
291
     1
 45
0.0
1001
ACAD
1000
AcDbSavedByObjectVersion
1070
     0
1000
AcDbSavedByObjectVersion
1070
     0
1000
AcDbSavedByObjectVersion
1070
     0
  0
VISUALSTYLE
  5
2AC
102
{ACAD_REACTORS
330
2A3
102
}
330
2A3
100
AcDbVisualStyle
  2
Conceptual
 70
     9
 71
     3
 72
     2
 73
     0
 90
        0
 40
-0.6
 41
-30.0
 62
     5
 63
     7
 74
     2
 91
        2
 64
     7
 65
   257
 75
     1
175
     1
 42
40.0
 92
        8
 66
     7
 43
1.0
 76
     1
 77
     6
 78
     2
 67
     7
 79
     3
170
     0
171
     0
290
     0
174
     0
 93
        1
 44
0.0
173
     0
291
     0
 45
0.0
1001
ACAD
1000
AcDbSavedByObjectVersion
1070
     0
1000
AcDbSavedByObjectVersion
1070
     0
1000
AcDbSavedByObjectVersion
1070
     0
  0
VISUALSTYLE
  5
2AE
102
{ACAD_REACTORS
330
2A3
102
}
330
2A3
100
AcDbVisualStyle
  2
Dim
 70
    11
 71
     2
 72
     2
 73
     0
 90
        0
 40
-0.6
 41
-30.0
 62
     5
 63
     7
 74
     1
 91
        4
 64
     7
 65
   257
 75
     1
175
     1
 42
1.0
 92
        8
 66
     7
 43
1.0
 76
     1
 77
     6
 78
     2
 67
     7
 79
     5
170
     0
171
     0
290
     0
174
     0
 93
        1
 44
-50.0
173
     0
291
     1
 45
0.0
1001
ACAD
1000
AcDbSavedByObjectVersion
1070
     0
1000
AcDbSavedByObjectVersion
1070
     0
1000
AcDbSavedByObjectVersion
1070
     0
  0
VISUALSTYLE
  5
2B2
102
{ACAD_REACTORS
330
2A3
102
}
330
2A3
100
AcDbVisualStyle
  2
Facepattern
 70
    15
 71
     2
 72
     2
 73
     0
 90
        0
 40
-0.6
 41
-30.0
 62
     5
 63
     7
 74
     1
 91
        4
 64
     7
 65
   257
 75
     1
175
     1
 42
1.0
 92
        8
 66
     7
 43
1.0
 76
     1
 77
     6
 78
     2
 67
     7
 79
     5
170
     0
171
     0
290
     0
174
     0
 93
        1
 44
0.0
173
     0
291
     1
 45
0.0
1001
ACAD
1000
AcDbSavedByObjectVersion
1070
     0
1000
AcDbSavedByObjectVersion
1070
     0
1000
AcDbSavedByObjectVersion
1070
     0
  0
VISUALSTYLE
  5
2A4
102
{ACAD_REACTORS
330
2A3
102
}
330
2A3
100
AcDbVisualStyle
  2
Flat
 70
     0
 71
     2
 72
     1
 73
     1
 90
        2
 40
-0.6
 41
30.0
 62
     5
 63
     7
 74
     0
 91
        4
 64
     7
 65
   257
 75
     1
175
     1
 42
1.0
 92
        8
 66
     7
 43
1.0
 76
     1
 77
     6
 78
     2
 67
     7
 79
     5
170
     0
171
     0
290
     0
174
     0
 93
       13
 44
0.0
173
     0
291
     1
 45
0.0
1001
ACAD
1000
AcDbSavedByObjectVersion
1070
     0
1000
AcDbSavedByObjectVersion
1070
     0
1000
AcDbSavedByObjectVersion
1070
     0
  0
VISUALSTYLE
  5
2A5
102
{ACAD_REACTORS
330
2A3
102
}
330
2A3
100
AcDbVisualStyle
  2
FlatWithEdges
 70
     1
 71
     2
 72
     1
 73
     1
 90
        2
 40
-0.6
 41
30.0
 62
     5
 63
     7
 74
     1
 91
        4
 64
     7
 65
   257
 75
     1
175
     1
 42
1.0
 92
        0
 66
   257
 43
1.0
 76
     1
 77
     6
 78
     2
 67
     7
 79
     5
170
     0
171
     0
290
     0
174
     0
 93
       13
 44
0.0
173
     0
291
     1
 45
0.0
1001
ACAD
1000
AcDbSavedByObjectVersion
1070
     0
1000
AcDbSavedByObjectVersion
1070
     0
1000
AcDbSavedByObjectVersion
1070
     0
  0
VISUALSTYLE
  5
2A6
102
{ACAD_REACTORS
330
2A3
102
}
330
2A3
100
AcDbVisualStyle
  2
Gouraud
 70
     2
 71
     2
 72
     2
 73
     1
 90
        2
 40
-0.6
 41
30.0
 62
     5
 63
     7
 74
     0
 91
        4
 64
     7
 65
   257
 75
     1
175
     1
 42
1.0
 92
        0
 66
     7
 43
1.0
 76
     1
 77
     6
 78
     2
 67
     7
 79
     5
170
     0
171
     0
290
     0
174
     0
 93
       13
 44
0.0
173
     0
291
     1
 45
0.0
1001
ACAD
1000
AcDbSavedByObjectVersion
1070
     0
1000
AcDbSavedByObjectVersion
1070
     0
1000
AcDbSavedByObjectVersion
1070
     0
  0
VISUALSTYLE
  5
2A7
102
{ACAD_REACTORS
330
2A3
102
}
330
2A3
100
AcDbVisualStyle
  2
GouraudWithEdges
 70
     3
 71
     2
 72
     2
 73
     1
 90
        2
 40
-0.6
 41
30.0
 62
     5
 63
     7
 74
     1
 91
        4
 64
     7
 65
   257
 75
     1
175
     1
 42
1.0
 92
        0
 66
   257
 43
1.0
 76
     1
 77
     6
 78
     2
 67
     7
 79
     5
170
     0
171
     0
290
     0
174
     0
 93
       13
 44
0.0
173
     0
291
     1
 45
0.0
1001
ACAD
1000
AcDbSavedByObjectVersion
1070
     0
1000
AcDbSavedByObjectVersion
1070
     0
1000
AcDbSavedByObjectVersion
1070
     0
  0
VISUALSTYLE
  5
2B1
102
{ACAD_REACTORS
330
2A3
102
}
330
2A3
100
AcDbVisualStyle
  2
Linepattern
 70
    14
 71
     2
 72
     2
 73
     0
 90
        0
 40
-0.6
 41
-30.0
 62
     5
 63
     7
 74
     1
 91
        4
 64
     7
 65
   257
 75
     7
175
     7
 42
1.0
 92
        8
 66
     7
 43
1.0
 76
     1
 77
     6
 78
     2
 67
     7
 79
     5
170
     0
171
     0
290
     0
174
     0
 93
        1
 44
0.0
173
     0
291
     1
 45
0.0
1001
ACAD
1000
AcDbSavedByObjectVersion
1070
     0
1000
AcDbSavedByObjectVersion
1070
     0
1000
AcDbSavedByObjectVersion
1070
     0
  0
VISUALSTYLE
  5
2AD
102
{ACAD_REACTORS
330
2A3
102
}
330
2A3
100
AcDbVisualStyle
  2
Realistic
 70
     8
 71
     2
 72
     2
 73
     0
 90
        0
 40
-0.6
 41
-30.0
 62
     5
 63
     7
 74
     1
 91
        0
 64
     7
 65
   257
 75
     1
175
     1
 42
1.0
 92
        8
 66
     8
 43
1.0
 76
     1
 77
     6
 78
     2
 67
     7
 79
     5
170
     0
171
     0
290
     0
174
     0
 93
       13
 44
0.0
173
     0
291
     0
 45
0.0
1001
ACAD
1000
AcDbSavedByObjectVersion
1070
     0
1000
AcDbSavedByObjectVersion
1070
     0
1000
AcDbSavedByObjectVersion
1070
     0
  0
VISUALSTYLE
  5
2B0
102
{ACAD_REACTORS
330
2A3
102
}
330
2A3
100
AcDbVisualStyle
  2
Thicken
 70
    13
 71
     2
 72
     2
 73
     0
 90
        0
 40
-0.6
 41
-30.0
 62
     5
 63
     7
 74
     1
 91
        4
 64
     7
 65
   257
 75
     1
175
     1
 42
1.0
 92
       12
 66
     7
 43
1.0
 76
     1
 77
     6
 78
     2
 67
     7
 79
     5
170
     0
171
     0
290
     0
174
     0
 93
        1
 44
0.0
173
     0
291
     1
 45
0.0
1001
ACAD
1000
AcDbSavedByObjectVersion
1070
     0
1000
AcDbSavedByObjectVersion
1070
     0
1000
AcDbSavedByObjectVersion
1070
     0
  0
DICTIONARYVAR
  5
796
102
{ACAD_REACTORS
330
792
102
}
330
792
100
DictionaryVariables
280
     0
  1
1:1
  0
DICTIONARYVAR
  5
794
102
{ACAD_REACTORS
330
792
102
}
330
792
100
DictionaryVariables
280
     0
  1
STANDARD
  0
DICTIONARYVAR
  5
793
102
{ACAD_REACTORS
330
792
102
}
330
792
100
DictionaryVariables
280
     0
  1
STANDARD
  0
DICTIONARYVAR
  5
79B
102
{ACAD_REACTORS
330
792
102
}
330
792
100
DictionaryVariables
280
     0
  1
2
  0
DICTIONARYVAR
  5
79A
102
{ACAD_REACTORS
330
792
102
}
330
792
100
DictionaryVariables
280
     0
  1
1
  0
DICTIONARYVAR
  5
799
102
{ACAD_REACTORS
330
792
102
}
330
792
100
DictionaryVariables
280
     0
  1
0
  0
DICTIONARYVAR
  5
797
102
{ACAD_REACTORS
330
792
102
}
330
792
100
DictionaryVariables
280
     0
  1
2
  0
DICTIONARYVAR
  5
795
102
{ACAD_REACTORS
330
792
102
}
330
792
100
DictionaryVariables
280
     0
  1
1
  0
DICTIONARYVAR
  5
798
102
{ACAD_REACTORS
330
792
102
}
330
792
100
DictionaryVariables
280
     0
  1
127
  0
DICTIONARY
  5
7D5
330
287
100
AcDbDictionary
280
     1
281
     1
  3
ACAD_XREC_ROUNDTRIP
360
7D6
  0
DICTIONARY
  5
7D3
330
286
100
AcDbDictionary
280
     1
281
     1
  3
ACAD_XREC_ROUNDTRIP
360
7D4
  0
DICTIONARY
  5
294
330
293
100
AcDbDictionary
280
     1
281
     1
  3
ACAD_XREC_ROUNDTRIP
360
7A7
  3
BUMPTILE
360
296
  3
DIFFUSETILE
360
295
  3
OPACITYTILE
360
299
  3
REFLECTIONTILE
360
298
  3
REFRACTIONTILE
360
29A
  3
SPECULARTILE
360
297
  0
DICTIONARY
  5
28C
330
28B
100
AcDbDictionary
280
     1
281
     1
  3
ACAD_XREC_ROUNDTRIP
360
7A6
  3
BUMPTILE
360
28E
  3
DIFFUSETILE
360
28D
  3
OPACITYTILE
360
291
  3
REFLECTIONTILE
360
290
  3
REFRACTIONTILE
360
292
  3
SPECULARTILE
360
28F
  0
DICTIONARY
  5
29C
330
29B
100
AcDbDictionary
280
     1
281
     1
  3
ACAD_XREC_ROUNDTRIP
360
7A8
  3
BUMPTILE
360
29E
  3
DIFFUSETILE
360
29D
  3
OPACITYTILE
360
2A1
  3
REFLECTIONTILE
360
2A0
  3
REFRACTIONTILE
360
2A2
  3
SPECULARTILE
360
29F
  0
DICTIONARY
  5
79C
330
2B6
100
AcDbDictionary
280
     1
281
     1
  3
ACAD_ROUNDTRIP_2008_TABLESTYLE_CELLSTYLEMAP
360
7CF
  3
ACAD_XREC_ROUNDTRIP
360
7D7
  0
XRECORD
  5
7D6
102
{ACAD_REACTORS
330
7D5
102
}
330
7D5
100
AcDbXrecord
280
     1
102
SHADEPLOT
 70
     0
102
SHADEPLOTRESLEVEL
 70
     2
102
SHADEPLOTCUSTOMDPI
 70
   300
  0
XRECORD
  5
7D4
102
{ACAD_REACTORS
330
7D3
102
}
330
7D3
100
AcDbXrecord
280
     1
102
SHADEPLOT
 70
     0
102
SHADEPLOTRESLEVEL
 70
     2
102
SHADEPLOTCUSTOMDPI
 70
   300
  0
XRECORD
  5
7A7
102
{ACAD_REACTORS
330
294
102
}
330
294
100
AcDbXrecord
280
     1
102
MATERIAL
148
0.0
149
0.0
149
0.0
 93
        0
 94
      127
282
     0
 72
     0
 77
     0
171
     0
175
     0
179
     0
273
     0
  0
XRECORD
  5
296
102
{ACAD_REACTORS
330
294
102
}
330
294
100
AcDbXrecord
280
     1
270
     1
271
     1
  0
XRECORD
  5
295
102
{ACAD_REACTORS
330
294
102
}
330
294
100
AcDbXrecord
280
     1
270
     1
271
     1
  0
XRECORD
  5
299
102
{ACAD_REACTORS
330
294
102
}
330
294
100
AcDbXrecord
280
     1
270
     1
271
     1
  0
XRECORD
  5
298
102
{ACAD_REACTORS
330
294
102
}
330
294
100
AcDbXrecord
280
     1
270
     1
271
     1
  0
XRECORD
  5
29A
102
{ACAD_REACTORS
330
294
102
}
330
294
100
AcDbXrecord
280
     1
270
     1
271
     1
  0
XRECORD
  5
297
102
{ACAD_REACTORS
330
294
102
}
330
294
100
AcDbXrecord
280
     1
270
     1
271
     1
  0
XRECORD
  5
7A6
102
{ACAD_REACTORS
330
28C
102
}
330
28C
100
AcDbXrecord
280
     1
102
MATERIAL
148
0.0
149
0.0
149
0.0
 93
        0
 94
      127
282
     0
 72
     0
 77
     0
171
     0
175
     0
179
     0
273
     0
  0
XRECORD
  5
28E
102
{ACAD_REACTORS
330
28C
102
}
330
28C
100
AcDbXrecord
280
     1
270
     1
271
     1
  0
XRECORD
  5
28D
102
{ACAD_REACTORS
330
28C
102
}
330
28C
100
AcDbXrecord
280
     1
270
     1
271
     1
  0
XRECORD
  5
291
102
{ACAD_REACTORS
330
28C
102
}
330
28C
100
AcDbXrecord
280
     1
270
     1
271
     1
  0
XRECORD
  5
290
102
{ACAD_REACTORS
330
28C
102
}
330
28C
100
AcDbXrecord
280
     1
270
     1
271
     1
  0
XRECORD
  5
292
102
{ACAD_REACTORS
330
28C
102
}
330
28C
100
AcDbXrecord
280
     1
270
     1
271
     1
  0
XRECORD
  5
28F
102
{ACAD_REACTORS
330
28C
102
}
330
28C
100
AcDbXrecord
280
     1
270
     1
271
     1
  0
XRECORD
  5
7A8
102
{ACAD_REACTORS
330
29C
102
}
330
29C
100
AcDbXrecord
280
     1
102
MATERIAL
148
0.0
149
0.0
149
0.0
 93
        0
 94
      127
282
     0
 72
     0
 77
     0
171
     0
175
     0
179
     0
273
     0
  0
XRECORD
  5
29E
102
{ACAD_REACTORS
330
29C
102
}
330
29C
100
AcDbXrecord
280
     1
270
     1
271
     1
  0
XRECORD
  5
29D
102
{ACAD_REACTORS
330
29C
102
}
330
29C
100
AcDbXrecord
280
     1
270
     1
271
     1
  0
XRECORD
  5
2A1
102
{ACAD_REACTORS
330
29C
102
}
330
29C
100
AcDbXrecord
280
     1
270
     1
271
     1
  0
XRECORD
  5
2A0
102
{ACAD_REACTORS
330
29C
102
}
330
29C
100
AcDbXrecord
280
     1
270
     1
271
     1
  0
XRECORD
  5
2A2
102
{ACAD_REACTORS
330
29C
102
}
330
29C
100
AcDbXrecord
280
     1
270
     1
271
     1
  0
XRECORD
  5
29F
102
{ACAD_REACTORS
330
29C
102
}
330
29C
100
AcDbXrecord
280
     1
270
     1
271
     1
  0
CELLSTYLEMAP
  5
7CF
102
{ACAD_REACTORS
330
79C
102
}
330
79C
100
AcDbCellStyleMap
 90
        3
300
CELLSTYLE
  1
TABLEFORMAT_BEGIN
 90
        5
170
     1
 91
        0
 92
    32768
 62
   257
 93
        1
300
CONTENTFORMAT
  1
CONTENTFORMAT_BEGIN
 90
        0
 91
        0
 92
      512
 93
        0
300

 40
0.0
140
1.0
 94
        5
 62
     0
340
11
144
6.0
309
CONTENTFORMAT_END
171
     1
301
MARGIN
  1
CELLMARGIN_BEGIN
 40
1.5
 40
1.5
 40
1.5
 40
1.5
 40
0.18
 40
0.18
309
CELLMARGIN_END
 94
        6
 95
        1
302
GRIDFORMAT
  1
GRIDFORMAT_BEGIN
 90
        0
 91
        1
 62
     0
 92
       -2
340
0
 93
        0
 40
1.125
309
GRIDFORMAT_END
 95
        2
302
GRIDFORMAT
  1
GRIDFORMAT_BEGIN
 90
        0
 91
        1
 62
     0
 92
       -2
340
0
 93
        0
 40
1.125
309
GRIDFORMAT_END
 95
        4
302
GRIDFORMAT
  1
GRIDFORMAT_BEGIN
 90
        0
 91
        1
 62
     0
 92
       -2
340
0
 93
        0
 40
1.125
309
GRIDFORMAT_END
 95
        8
302
GRIDFORMAT
  1
GRIDFORMAT_BEGIN
 90
        0
 91
        1
 62
     0
 92
       -2
340
0
 93
        0
 40
1.125
309
GRIDFORMAT_END
 95
       16
302
GRIDFORMAT
  1
GRIDFORMAT_BEGIN
 90
        0
 91
        1
 62
     0
 92
       -2
340
0
 93
        0
 40
1.125
309
GRIDFORMAT_END
 95
       32
302
GRIDFORMAT
  1
GRIDFORMAT_BEGIN
 90
        0
 91
        1
 62
     0
 92
       -2
340
0
 93
        0
 40
1.125
309
GRIDFORMAT_END
309
TABLEFORMAT_END
  1
CELLSTYLE_BEGIN
 90
        1
 91
        1
300
_TITLE
309
CELLSTYLE_END
300
CELLSTYLE
  1
TABLEFORMAT_BEGIN
 90
        5
170
     1
 91
        0
 92
        0
 62
   257
 93
        1
300
CONTENTFORMAT
  1
CONTENTFORMAT_BEGIN
 90
        0
 91
        0
 92
      512
 93
        0
300

 40
0.0
140
1.0
 94
        5
 62
     0
340
11
144
4.5
309
CONTENTFORMAT_END
171
     1
301
MARGIN
  1
CELLMARGIN_BEGIN
 40
1.5
 40
1.5
 40
1.5
 40
1.5
 40
0.18
 40
0.18
309
CELLMARGIN_END
 94
        6
 95
        1
302
GRIDFORMAT
  1
GRIDFORMAT_BEGIN
 90
        0
 91
        1
 62
     0
 92
       -2
340
0
 93
        0
 40
1.125
309
GRIDFORMAT_END
 95
        2
302
GRIDFORMAT
  1
GRIDFORMAT_BEGIN
 90
        0
 91
        1
 62
     0
 92
       -2
340
0
 93
        0
 40
1.125
309
GRIDFORMAT_END
 95
        4
302
GRIDFORMAT
  1
GRIDFORMAT_BEGIN
 90
        0
 91
        1
 62
     0
 92
       -2
340
0
 93
        0
 40
1.125
309
GRIDFORMAT_END
 95
        8
302
GRIDFORMAT
  1
GRIDFORMAT_BEGIN
 90
        0
 91
        1
 62
     0
 92
       -2
340
0
 93
        0
 40
1.125
309
GRIDFORMAT_END
 95
       16
302
GRIDFORMAT
  1
GRIDFORMAT_BEGIN
 90
        0
 91
        1
 62
     0
 92
       -2
340
0
 93
        0
 40
1.125
309
GRIDFORMAT_END
 95
       32
302
GRIDFORMAT
  1
GRIDFORMAT_BEGIN
 90
        0
 91
        1
 62
     0
 92
       -2
340
0
 93
        0
 40
1.125
309
GRIDFORMAT_END
309
TABLEFORMAT_END
  1
CELLSTYLE_BEGIN
 90
        2
 91
        1
300
_HEADER
309
CELLSTYLE_END
300
CELLSTYLE
  1
TABLEFORMAT_BEGIN
 90
        5
170
     1
 91
        0
 92
        0
 62
   257
 93
        1
300
CONTENTFORMAT
  1
CONTENTFORMAT_BEGIN
 90
        0
 91
        0
 92
      512
 93
        0
300

 40
0.0
140
1.0
 94
        2
 62
     0
340
11
144
4.5
309
CONTENTFORMAT_END
171
     1
301
MARGIN
  1
CELLMARGIN_BEGIN
 40
1.5
 40
1.5
 40
1.5
 40
1.5
 40
0.18
 40
0.18
309
CELLMARGIN_END
 94
        6
 95
        1
302
GRIDFORMAT
  1
GRIDFORMAT_BEGIN
 90
        0
 91
        1
 62
     0
 92
       -2
340
0
 93
        0
 40
1.125
309
GRIDFORMAT_END
 95
        2
302
GRIDFORMAT
  1
GRIDFORMAT_BEGIN
 90
        0
 91
        1
 62
     0
 92
       -2
340
0
 93
        0
 40
1.125
309
GRIDFORMAT_END
 95
        4
302
GRIDFORMAT
  1
GRIDFORMAT_BEGIN
 90
        0
 91
        1
 62
     0
 92
       -2
340
0
 93
        0
 40
1.125
309
GRIDFORMAT_END
 95
        8
302
GRIDFORMAT
  1
GRIDFORMAT_BEGIN
 90
        0
 91
        1
 62
     0
 92
       -2
340
0
 93
        0
 40
1.125
309
GRIDFORMAT_END
 95
       16
302
GRIDFORMAT
  1
GRIDFORMAT_BEGIN
 90
        0
 91
        1
 62
     0
 92
       -2
340
0
 93
        0
 40
1.125
309
GRIDFORMAT_END
 95
       32
302
GRIDFORMAT
  1
GRIDFORMAT_BEGIN
 90
        0
 91
        1
 62
     0
 92
       -2
340
0
 93
        0
 40
1.125
309
GRIDFORMAT_END
309
TABLEFORMAT_END
  1
CELLSTYLE_BEGIN
 90
        3
 91
        2
300
_DATA
309
CELLSTYLE_END
  0
XRECORD
  5
7D7
102
{ACAD_REACTORS
330
79C
102
}
330
79C
100
AcDbXrecord
280
     1
102
ACAD_ROUNDTRIP_PRE2007_TABLESTYLE
 90
      512
 91
        0
  1

 92
      512
 93
        0
  2

 94
      512
 95
        0
  3

  0
ENDSEC
  0
EOF
