  0
SECTION
  2
HEADER
  9
$ACADVER
  1
AC1015
  9
$ACADMAINTVER
 70
    20
  9
$DWGCODEPAGE
  3
ANSI_936
  9
$INSBASE
 10
0.0
 20
0.0
 30
0.0
  9
$EXTMIN
 10
-2094.583445008884
 20
-1710.407042597916
 30
0.0
  9
$EXTMAX
 10
4450.81576091323
 20
2226.60085364618
 30
0.0
  9
$LIMMIN
 10
0.0
 20
0.0
  9
$LIMMAX
 10
558.8
 20
431.8
  9
$ORTHOMODE
 70
     0
  9
$REGENMODE
 70
     1
  9
$FILLMODE
 70
     1
  9
$QTEXTMODE
 70
     0
  9
$MIRRTEXT
 70
     0
  9
$LTSCALE
 40
30.734
  9
$ATTMODE
 70
     1
  9
$TEXTSIZE
 40
0.2
  9
$TRACEWID
 40
0.05
  9
$TEXTSTYLE
  7
STANDARD
  9
$CLAYER
  8
0
  9
$CELTYPE
  6
BYLAYER
  9
$CECOLOR
 62
   256
  9
$CELTSCALE
 40
1.0
  9
$DISPSILH
 70
     0
  9
$DIMSCALE
 40
1.0
  9
$DIMASZ
 40
3.5
  9
$DIMEXO
 40
3.4925
  9
$DIMDLI
 40
21.2344
  9
$DIMRND
 40
0.0
  9
$DIMDLE
 40
0.0
  9
$DIMEXE
 40
10.0584
  9
$DIMTP
 40
0.01
  9
$DIMTM
 40
0.01
  9
$DIMTXT
 40
3.5
  9
$DIMCEN
 40
5.0292
  9
$DIMTSZ
 40
0.0
  9
$DIMTOL
 70
     1
  9
$DIMLIM
 70
     0
  9
$DIMTIH
 70
     1
  9
$DIMTOH
 70
     1
  9
$DIMSE1
 70
     0
  9
$DIMSE2
 70
     0
  9
$DIMTAD
 70
     0
  9
$DIMZIN
 70
     0
  9
$DIMBLK
  1

  9
$DIMASO
 70
     1
  9
$DIMSHO
 70
     1
  9
$DIMPOST
  1

  9
$DIMAPOST
  1

  9
$DIMALT
 70
     0
  9
$DIMALTD
 70
     2
  9
$DIMALTF
 40
25.4
  9
$DIMLFAC
 40
1.0
  9
$DIMTOFL
 70
     0
  9
$DIMTVP
 40
0.0
  9
$DIMTIX
 70
     0
  9
$DIMSOXD
 70
     0
  9
$DIMSAH
 70
     0
  9
$DIMBLK1
  1

  9
$DIMBLK2
  1

  9
$DIMSTYLE
  2
STANDARD
  9
$DIMCLRD
 70
     0
  9
$DIMCLRE
 70
     0
  9
$DIMCLRT
 70
     0
  9
$DIMTFAC
 40
1.0
  9
$DIMGAP
 40
0.09
  9
$DIMJUST
 70
     0
  9
$DIMSD1
 70
     0
  9
$DIMSD2
 70
     0
  9
$DIMTOLJ
 70
     1
  9
$DIMTZIN
 70
     0
  9
$DIMALTZ
 70
     0
  9
$DIMALTTZ
 70
     0
  9
$DIMUPT
 70
     0
  9
$DIMDEC
 70
     4
  9
$DIMTDEC
 70
     4
  9
$DIMALTU
 70
     2
  9
$DIMALTTD
 70
     2
  9
$DIMTXSTY
  7
STANDARD
  9
$DIMAUNIT
 70
     0
  9
$DIMADEC
 70
     0
  9
$DIMALTRND
 40
0.0
  9
$DIMAZIN
 70
     0
  9
$DIMDSEP
 70
    46
  9
$DIMATFIT
 70
     3
  9
$DIMFRAC
 70
     0
  9
$DIMLDRBLK
  1

  9
$DIMLUNIT
 70
     2
  9
$DIMLWD
 70
    -2
  9
$DIMLWE
 70
    -2
  9
$DIMTMOVE
 70
     0
  9
$LUNITS
 70
     2
  9
$LUPREC
 70
     4
  9
$SKETCHINC
 40
0.1
  9
$FILLETRAD
 40
0.0
  9
$AUNITS
 70
     0
  9
$AUPREC
 70
     0
  9
$MENU
  1
.
  9
$ELEVATION
 40
0.0
  9
$PELEVATION
 40
0.0
  9
$THICKNESS
 40
0.0
  9
$LIMCHECK
 70
     0
  9
$CHAMFERA
 40
0.0
  9
$CHAMFERB
 40
0.0
  9
$CHAMFERC
 40
0.0
  9
$CHAMFERD
 40
0.0
  9
$SKPOLY
 70
     0
  9
$TDCREATE
 40
2458705.611584028
  9
$TDUCREATE
 40
2458705.278250695
  9
$TDUPDATE
 40
2458708.583571725
  9
$TDUUPDATE
 40
2458708.250238391
  9
$TDINDWG
 40
0.0114917361
  9
$TDUSRTIMER
 40
0.0114915394
  9
$USRTIMER
 70
     1
  9
$ANGBASE
 50
0.0
  9
$ANGDIR
 70
     0
  9
$PDMODE
 70
     3
  9
$PDSIZE
 40
8.0
  9
$PLINEWID
 40
0.0
  9
$SPLFRAME
 70
     0
  9
$SPLINETYPE
 70
     6
  9
$SPLINESEGS
 70
     8
  9
$HANDSEED
  5
47D
  9
$SURFTAB1
 70
     6
  9
$SURFTAB2
 70
     6
  9
$SURFTYPE
 70
     6
  9
$SURFU
 70
     6
  9
$SURFV
 70
     6
  9
$UCSBASE
  2

  9
$UCSNAME
  2

  9
$UCSORG
 10
0.0
 20
0.0
 30
0.0
  9
$UCSXDIR
 10
1.0
 20
0.0
 30
0.0
  9
$UCSYDIR
 10
0.0
 20
1.0
 30
0.0
  9
$UCSORTHOREF
  2

  9
$UCSORTHOVIEW
 70
     0
  9
$UCSORGTOP
 10
0.0
 20
0.0
 30
0.0
  9
$UCSORGBOTTOM
 10
0.0
 20
0.0
 30
0.0
  9
$UCSORGLEFT
 10
0.0
 20
0.0
 30
0.0
  9
$UCSORGRIGHT
 10
0.0
 20
0.0
 30
0.0
  9
$UCSORGFRONT
 10
0.0
 20
0.0
 30
0.0
  9
$UCSORGBACK
 10
0.0
 20
0.0
 30
0.0
  9
$PUCSBASE
  2

  9
$PUCSNAME
  2

  9
$PUCSORG
 10
0.0
 20
0.0
 30
0.0
  9
$PUCSXDIR
 10
1.0
 20
0.0
 30
0.0
  9
$PUCSYDIR
 10
0.0
 20
1.0
 30
0.0
  9
$PUCSORTHOREF
  2

  9
$PUCSORTHOVIEW
 70
     0
  9
$PUCSORGTOP
 10
0.0
 20
0.0
 30
0.0
  9
$PUCSORGBOTTOM
 10
0.0
 20
0.0
 30
0.0
  9
$PUCSORGLEFT
 10
0.0
 20
0.0
 30
0.0
  9
$PUCSORGRIGHT
 10
0.0
 20
0.0
 30
0.0
  9
$PUCSORGFRONT
 10
0.0
 20
0.0
 30
0.0
  9
$PUCSORGBACK
 10
0.0
 20
0.0
 30
0.0
  9
$USERI1
 70
     0
  9
$USERI2
 70
     0
  9
$USERI3
 70
     0
  9
$USERI4
 70
     0
  9
$USERI5
 70
     0
  9
$USERR1
 40
0.0
  9
$USERR2
 40
0.0
  9
$USERR3
 40
0.0
  9
$USERR4
 40
0.0
  9
$USERR5
 40
0.0
  9
$WORLDVIEW
 70
     1
  9
$SHADEDGE
 70
     3
  9
$SHADEDIF
 70
    70
  9
$TILEMODE
 70
     1
  9
$MAXACTVP
 70
    64
  9
$PINSBASE
 10
0.0
 20
0.0
 30
0.0
  9
$PLIMCHECK
 70
     0
  9
$PEXTMIN
 10
1.000000000000000E+20
 20
1.000000000000000E+20
 30
1.000000000000000E+20
  9
$PEXTMAX
 10
-1.000000000000000E+20
 20
-1.000000000000000E+20
 30
-1.000000000000000E+20
  9
$PLIMMIN
 10
0.0
 20
0.0
  9
$PLIMMAX
 10
12.0
 20
9.0
  9
$UNITMODE
 70
     0
  9
$VISRETAIN
 70
     1
  9
$PLINEGEN
 70
     0
  9
$PSLTSCALE
 70
     1
  9
$TREEDEPTH
 70
  3020
  9
$CMLSTYLE
  2
Standard
  9
$CMLJUST
 70
     0
  9
$CMLSCALE
 40
1.0
  9
$PROXYGRAPHICS
 70
     1
  9
$MEASUREMENT
 70
     1
  9
$CELWEIGHT
370
    -1
  9
$ENDCAPS
280
     0
  9
$JOINSTYLE
280
     0
  9
$LWDISPLAY
290
     0
  9
$INSUNITS
 70
     4
  9
$HYPERLINKBASE
  1

  9
$STYLESHEET
  1

  9
$XEDIT
290
     1
  9
$CEPSNTYPE
380
     0
  9
$PSTYLEMODE
290
     1
  9
$FINGERPRINTGUID
  2
{02F2165D-1932-4AA4-AE00-51E4916255A2}
  9
$VERSIONGUID
  2
{C2FD3C0A-EE7B-462B-AF0F-F83769710511}
  9
$EXTNAMES
290
     1
  9
$PSVPSCALE
 40
0.0
  9
$OLESTARTUP
290
     0
  0
ENDSEC
  0
SECTION
  2
CLASSES
  0
CLASS
  1
ACDBDICTIONARYWDFLT
  2
AcDbDictionaryWithDefault
  3
ObjectDBX Classes
 90
        0
280
     0
281
     0
  0
CLASS
  1
ACDBPLACEHOLDER
  2
AcDbPlaceHolder
  3
ObjectDBX Classes
 90
        0
280
     0
281
     0
  0
CLASS
  1
LAYOUT
  2
AcDbLayout
  3
ObjectDBX Classes
 90
        0
280
     0
281
     0
  0
CLASS
  1
MATERIAL
  2
AcDbMaterial
  3
ObjectDBX Classes
 90
     1153
280
     0
281
     0
  0
CLASS
  1
VISUALSTYLE
  2
AcDbVisualStyle
  3
ObjectDBX Classes
 90
     4095
280
     0
281
     0
  0
CLASS
  1
TABLESTYLE
  2
AcDbTableStyle
  3
ObjectDBX Classes
 90
     4095
280
     0
281
     0
  0
CLASS
  1
SCALE
  2
AcDbScale
  3
ObjectDBX Classes
 90
     1153
280
     0
281
     0
  0
CLASS
  1
MLEADERSTYLE
  2
AcDbMLeaderStyle
  3
ACDB_MLEADERSTYLE_CLASS
 90
     4095
280
     0
281
     0
  0
CLASS
  1
CELLSTYLEMAP
  2
AcDbCellStyleMap
  3
ObjectDBX Classes
 90
     1152
280
     0
281
     0
  0
CLASS
  1
DICTIONARYVAR
  2
AcDbDictionaryVar
  3
ObjectDBX Classes
 90
        0
280
     0
281
     0
  0
CLASS
  1
SORTENTSTABLE
  2
AcDbSortentsTable
  3
ObjectDBX Classes
 90
        0
280
     0
281
     0
  0
ENDSEC
  0
SECTION
  2
TABLES
  0
TABLE
  2
VPORT
  5
8
330
0
100
AcDbSymbolTable
 70
     1
  0
VPORT
  5
1F4
330
8
100
AcDbSymbolTableRecord
100
AcDbViewportTableRecord
  2
*ACTIVE
 70
     0
 10
0.0
 20
0.0
 11
1.0
 21
1.0
 12
719.8384798643383
 22
1093.965897492051
 13
0.0
 23
0.0
 14
1.0
 24
1.0
 15
0.0
 25
0.0
 16
0.0
 26
0.0
 36
1.0
 17
0.0
 27
0.0
 37
0.0
 40
9882.732911328762
 41
1.723970944309927
 42
50.0
 43
0.0
 44
0.0
 50
0.0
 51
0.0
 71
     0
 72
   100
 73
     1
 74
     1
 75
     0
 76
     0
 77
     0
 78
     0
281
     0
 65
     1
110
0.0
120
0.0
130
0.0
111
1.0
121
0.0
131
0.0
112
0.0
122
1.0
132
0.0
 79
     0
146
0.0
  0
ENDTAB
  0
TABLE
  2
LTYPE
  5
5
330
0
100
AcDbSymbolTable
 70
     6
  0
LTYPE
  5
14
330
5
100
AcDbSymbolTableRecord
100
AcDbLinetypeTableRecord
  2
BYBLOCK
 70
     0
  3

 72
    65
 73
     0
 40
0.0
  0
LTYPE
  5
15
330
5
100
AcDbSymbolTableRecord
100
AcDbLinetypeTableRecord
  2
BYLAYER
 70
     0
  3

 72
    65
 73
     0
 40
0.0
  0
LTYPE
  5
16
330
5
100
AcDbSymbolTableRecord
100
AcDbLinetypeTableRecord
  2
CONTINUOUS
 70
     0
  3
Solid line
 72
    65
 73
     0
 40
0.0
  0
LTYPE
  5
1F5
330
5
100
AcDbSymbolTableRecord
100
AcDbLinetypeTableRecord
  2
CENTER
 70
     0
  3
____ _ ____ _ ____ _ ____ _ ____ _ ____ _ ____
 72
    65
 73
     4
 40
0.6
 49
0.375
 74
     0
 49
-0.075
 74
     0
 49
0.075
 74
     0
 49
-0.075
 74
     0
  0
LTYPE
  5
1F6
330
5
100
AcDbSymbolTableRecord
100
AcDbLinetypeTableRecord
  2
HIDDEN
 70
     0
  3
- - - - - - - - - - - - - - - - - - - -
 72
    65
 73
     2
 40
0.2
 49
0.1
 74
     0
 49
-0.1
 74
     0
  0
LTYPE
  5
1F7
330
5
100
AcDbSymbolTableRecord
100
AcDbLinetypeTableRecord
  2
PHANTOM
 70
     0
  3
_____ _ _ _____ _ _ _____ _ _ _____
 72
    65
 73
     6
 40
0.8
 49
0.45
 74
     0
 49
-0.05
 74
     0
 49
0.1
 74
     0
 49
-0.05
 74
     0
 49
0.1
 74
     0
 49
-0.05
 74
     0
  0
LTYPE
  5
1F8
330
5
100
AcDbSymbolTableRecord
100
AcDbLinetypeTableRecord
  2
DOT
 70
     0
  3
. . . . . . . . . . . . . . . . . . . .
 72
    65
 73
     2
 40
0.2
 49
0.1
 74
     0
 49
-0.1
 74
     0
  0
LTYPE
  5
1F9
330
5
100
AcDbSymbolTableRecord
100
AcDbLinetypeTableRecord
  2
DASHED
 70
     0
  3
- - - - - - - - - - - - - - - - - - - -
 72
    65
 73
     2
 40
0.2
 49
0.1
 74
     0
 49
-0.1
 74
     0
  0
ENDTAB
  0
TABLE
  2
LAYER
  5
2
330
0
100
AcDbSymbolTable
 70
     4
  0
LAYER
  5
10
102
{ACAD_XDICTIONARY
360
438
102
}
330
2
100
AcDbSymbolTableRecord
100
AcDbLayerTableRecord
  2
0
 70
     0
 62
     7
  6
CONTINUOUS
370
    -3
390
F
  0
LAYER
  5
1FA
102
{ACAD_XDICTIONARY
360
43A
102
}
330
2
100
AcDbSymbolTableRecord
100
AcDbLayerTableRecord
  2
DEFAULT_1
 70
     0
 62
     7
  6
CENTER
370
    -3
390
F
  0
LAYER
  5
1FB
102
{ACAD_XDICTIONARY
360
43C
102
}
330
2
100
AcDbSymbolTableRecord
100
AcDbLayerTableRecord
  2
DEFAULT_2
 70
     0
 62
     8
  6
HIDDEN
370
    -3
390
F
  0
LAYER
  5
1FC
102
{ACAD_XDICTIONARY
360
43E
102
}
330
2
100
AcDbSymbolTableRecord
100
AcDbLayerTableRecord
  2
DEFAULT_3
 70
     0
 62
     7
  6
PHANTOM
370
    -3
390
F
  0
ENDTAB
  0
TABLE
  2
STYLE
  5
3
330
0
100
AcDbSymbolTable
 70
     3
  0
STYLE
  5
11
330
3
100
AcDbSymbolTableRecord
100
AcDbTextStyleTableRecord
  2
STANDARD
 70
     0
 40
0.0
 41
0.85
 50
0.0
 71
     0
 42
0.2
  3
txt
  4

  0
STYLE
  5
1FD
330
3
100
AcDbSymbolTableRecord
100
AcDbTextStyleTableRecord
  2
TEXTSTYLE_1
 70
     0
 40
0.0
 41
0.8
 50
0.0
 71
     0
 42
0.2
  3
gdt
  4

  0
STYLE
  5
1FE
330
3
100
AcDbSymbolTableRecord
100
AcDbTextStyleTableRecord
  2
TEXTSTYLE_2
 70
     0
 40
0.0
 41
0.8
 50
0.0
 71
     0
 42
0.2
  3
txt
  4

  0
ENDTAB
  0
TABLE
  2
VIEW
  5
6
330
0
100
AcDbSymbolTable
 70
     0
  0
ENDTAB
  0
TABLE
  2
UCS
  5
7
330
0
100
AcDbSymbolTable
 70
     0
  0
ENDTAB
  0
TABLE
  2
APPID
  5
9
330
0
100
AcDbSymbolTable
 70
     3
  0
APPID
  5
1FF
330
9
100
AcDbSymbolTableRecord
100
AcDbRegAppTableRecord
  2
ACAD
 70
     0
  0
APPID
  5
2DB
330
9
100
AcDbSymbolTableRecord
100
AcDbRegAppTableRecord
  2
ACAD_MLEADERVER
 70
     0
  0
APPID
  5
3CD
330
9
100
AcDbSymbolTableRecord
100
AcDbRegAppTableRecord
  2
ACAD_EXEMPT_FROM_CAD_STANDARDS
 70
     0
  0
ENDTAB
  0
TABLE
  2
DIMSTYLE
  5
A
330
0
100
AcDbSymbolTable
 70
     1
100
AcDbDimStyleTable
 71
     1
340
202
  0
DIMSTYLE
105
202
330
A
100
AcDbSymbolTableRecord
100
AcDbDimStyleTableRecord
  2
STANDARD
 70
     0
 41
3.5
 47
0.01
 48
0.01
 71
     1
 73
     0
 74
     0
 77
     1
 78
     8
140
3.5
271
     2
272
     2
284
     8
340
11
  0
ENDTAB
  0
TABLE
  2
BLOCK_RECORD
  5
1
330
0
100
AcDbSymbolTable
 70
     0
  0
BLOCK_RECORD
  5
200
102
{ACAD_XDICTIONARY
360
45C
102
}
330
1
100
AcDbSymbolTableRecord
100
AcDbBlockTableRecord
  2
*Model_Space
340
286
  0
BLOCK_RECORD
  5
201
330
1
100
AcDbSymbolTableRecord
100
AcDbBlockTableRecord
  2
*Paper_Space
340
287
  0
ENDTAB
  0
ENDSEC
  0
SECTION
  2
BLOCKS
  0
BLOCK
  5
20
330
200
100
AcDbEntity
  8
0
100
AcDbBlockBegin
  2
*Model_Space
 70
     0
 10
0.0
 20
0.0
 30
0.0
  3
*Model_Space
  1

  0
ENDBLK
  5
21
330
200
100
AcDbEntity
  8
0
100
AcDbBlockEnd
  0
BLOCK
  5
1C
330
201
100
AcDbEntity
 67
     1
  8
0
100
AcDbBlockBegin
  2
*Paper_Space
 70
     0
 10
0.0
 20
0.0
 30
0.0
  3
*Paper_Space
  1

  0
ENDBLK
  5
1D
330
201
100
AcDbEntity
 67
     1
  8
0
100
AcDbBlockEnd
  0
ENDSEC
  0
SECTION
  2
ENTITIES
  0
LINE
  5
20E
330
200
100
AcDbEntity
  8
0
  6
Continuous
 62
     7
100
AcDbLine
 10
-2015.84323511676
 20
2226.60085364618
 30
0.0
 11
-2094.583445008884
 21
2147.860643754055
 31
0.0
  0
LINE
  5
20F
330
200
100
AcDbEntity
  8
0
  6
Continuous
 62
     7
100
AcDbLine
 10
-2015.84323511676
 20
-1710.407042597916
 30
0.0
 11
-2094.583445008884
 21
-1631.666858953821
 31
0.0
  0
LINE
  5
210
330
200
100
AcDbEntity
  8
0
  6
Continuous
 62
     7
100
AcDbLine
 10
-2094.583445008884
 20
2147.860643754055
 30
0.0
 11
-2094.583445008884
 21
1184.081156548132
 31
0.0
  0
LINE
  5
211
330
200
100
AcDbEntity
  8
0
  6
Continuous
 62
     7
100
AcDbLine
 10
-2094.583445008884
 20
-471.0369519998676
 30
0.0
 11
-2094.583445008884
 21
-1631.666858953821
 31
0.0
  0
LINE
  5
212
330
200
100
AcDbEntity
  8
0
  6
Continuous
 62
     7
100
AcDbLine
 10
-1988.284232518885
 20
1184.081156548132
 30
0.0
 11
-1988.284232518885
 21
-471.0369519998676
 31
0.0
  0
LINE
  5
213
330
200
100
AcDbEntity
  8
0
  6
Continuous
 62
     7
100
AcDbLine
 10
-2015.84323511676
 20
-1710.407042597916
 30
0.0
 11
4204.629146991115
 21
-1710.407042597916
 31
0.0
  0
LINE
  5
214
330
200
100
AcDbEntity
  8
0
  6
CENTER
 62
     6
 48
0.2
100
AcDbLine
 10
3584.674029513229
 20
-1141.407043178294
 30
0.0
 11
4204.629146991112
 21
-1141.407043178294
 31
0.0
  0
LINE
  5
21C
330
200
100
AcDbEntity
  8
0
  6
Continuous
 62
     7
100
AcDbLine
 10
-1988.284232518885
 20
-471.0369519998676
 30
0.0
 11
-2094.583445008884
 21
-471.0369519998676
 31
0.0
  0
LINE
  5
22F
330
200
100
AcDbEntity
  8
0
  6
Continuous
 62
     7
100
AcDbLine
 10
-1988.284232518885
 20
1184.081156548132
 30
0.0
 11
-2094.583445008884
 21
1184.081156548132
 31
0.0
  0
LINE
  5
235
330
200
100
AcDbEntity
  8
0
  6
CENTER
 62
     6
 48
0.2
100
AcDbLine
 10
4204.629146991112
 20
1658.592953965699
 30
0.0
 11
3584.674029513229
 21
1658.592953965704
 31
0.0
  0
LINE
  5
236
330
200
100
AcDbEntity
  8
0
  6
Continuous
 62
     7
100
AcDbLine
 10
4204.629146991115
 20
2226.60085364618
 30
0.0
 11
-2015.84323511676
 21
2226.60085364618
 31
0.0
  0
LINE
  5
237
330
200
100
AcDbEntity
  8
0
  6
CENTER
 62
     6
 48
0.2
100
AcDbLine
 10
3584.674029513229
 20
1658.592953965704
 30
0.0
 11
3584.674029513229
 21
-1141.407043178294
 31
0.0
  0
LINE
  5
238
330
200
100
AcDbEntity
  8
0
  6
Continuous
 62
     7
100
AcDbLine
 10
4204.629146991115
 20
-1710.407042597916
 30
0.0
 11
4204.629146991115
 21
2226.60085364618
 31
0.0
  0
LINE
  5
23C
330
200
100
AcDbEntity
  8
0
  6
Continuous
 62
     7
100
AcDbLine
 10
4372.075603513229
 20
-1141.407043178294
 30
0.0
 11
4372.075603513229
 21
1658.592953965704
 31
0.0
  0
LINE
  5
23D
330
200
100
AcDbEntity
  8
0
  6
Continuous
 62
     7
100
AcDbLine
 10
4450.81576091323
 20
-1141.407043178294
 30
0.0
 11
4450.81576091323
 21
1658.592953965704
 31
0.0
  0
CIRCLE
  5
23E
330
200
100
AcDbEntity
  8
0
  6
Continuous
 62
     7
100
AcDbCircle
 10
-1874.111004288885
 20
-293.0841962758677
 30
0.0
 40
55.11811017999995
  0
CIRCLE
  5
23F
330
200
100
AcDbEntity
  8
0
  6
Continuous
 62
     7
100
AcDbCircle
 10
-1674.111004492884
 20
206.5221024271323
 30
0.0
 40
17.716535415
  0
CIRCLE
  5
240
330
200
100
AcDbEntity
  8
0
  6
Continuous
 62
     7
100
AcDbCircle
 10
-1774.111004390883
 20
206.5221024271323
 30
0.0
 40
17.716535415
  0
CIRCLE
  5
241
330
200
100
AcDbEntity
  8
0
  6
Continuous
 62
     7
100
AcDbCircle
 10
-1774.111004390883
 20
106.5221025291321
 30
0.0
 40
17.716535415
  0
CIRCLE
  5
242
330
200
100
AcDbEntity
  8
0
  6
Continuous
 62
     7
100
AcDbCircle
 10
-1674.111004492884
 20
106.5221025291321
 30
0.0
 40
17.716535415
  0
CIRCLE
  5
243
330
200
100
AcDbEntity
  8
0
  6
Continuous
 62
     7
100
AcDbCircle
 10
-1674.111004492884
 20
6.522102631131929
 30
0.0
 40
17.716535415
  0
CIRCLE
  5
244
330
200
100
AcDbEntity
  8
0
  6
Continuous
 62
     7
100
AcDbCircle
 10
-1774.111004390883
 20
6.522102631131929
 30
0.0
 40
17.716535415
  0
CIRCLE
  5
245
330
200
100
AcDbEntity
  8
0
  6
Continuous
 62
     7
100
AcDbCircle
 10
-1774.111004390883
 20
-93.47789726686642
 30
0.0
 40
17.716535415
  0
CIRCLE
  5
246
330
200
100
AcDbEntity
  8
0
  6
Continuous
 62
     7
100
AcDbCircle
 10
-1674.111004492884
 20
-93.47789726686642
 30
0.0
 40
17.716535415
  0
CIRCLE
  5
247
330
200
100
AcDbEntity
  8
0
  6
Continuous
 62
     7
100
AcDbCircle
 10
-1874.111004288885
 20
1006.128400824133
 30
0.0
 40
55.11811017999995
  0
CIRCLE
  5
248
330
200
100
AcDbEntity
  8
0
  6
Continuous
 62
     7
100
AcDbCircle
 10
-1674.111004492884
 20
606.5221020191311
 30
0.0
 40
17.716535415
  0
CIRCLE
  5
249
330
200
100
AcDbEntity
  8
0
  6
Continuous
 62
     7
100
AcDbCircle
 10
-1774.111004390883
 20
606.5221020191311
 30
0.0
 40
17.716535415
  0
CIRCLE
  5
24A
330
200
100
AcDbEntity
  8
0
  6
Continuous
 62
     7
100
AcDbCircle
 10
-1674.111004492884
 20
506.5221021211328
 30
0.0
 40
17.716535415
  0
CIRCLE
  5
24B
330
200
100
AcDbEntity
  8
0
  6
Continuous
 62
     7
100
AcDbCircle
 10
-1774.111004390883
 20
506.5221021211328
 30
0.0
 40
17.716535415
  0
CIRCLE
  5
24C
330
200
100
AcDbEntity
  8
0
  6
Continuous
 62
     7
100
AcDbCircle
 10
-1674.111004492884
 20
406.5221022231326
 30
0.0
 40
17.716535415
  0
CIRCLE
  5
24D
330
200
100
AcDbEntity
  8
0
  6
Continuous
 62
     7
100
AcDbCircle
 10
-1774.111004390883
 20
406.5221022231326
 30
0.0
 40
17.716535415
  0
CIRCLE
  5
24E
330
200
100
AcDbEntity
  8
0
  6
Continuous
 62
     7
100
AcDbCircle
 10
-1774.111004390883
 20
306.5221023251325
 30
0.0
 40
17.716535415
  0
CIRCLE
  5
24F
330
200
100
AcDbEntity
  8
0
  6
Continuous
 62
     7
100
AcDbCircle
 10
-1674.111004492884
 20
306.5221023251325
 30
0.0
 40
17.716535415
  0
CIRCLE
  5
250
330
200
100
AcDbEntity
  8
0
  6
Continuous
 62
     7
100
AcDbCircle
 10
-1774.111004390883
 20
806.5221018151332
 30
0.0
 40
17.716535415
  0
CIRCLE
  5
251
330
200
100
AcDbEntity
  8
0
  6
Continuous
 62
     7
100
AcDbCircle
 10
-1674.111004492884
 20
806.5221018151332
 30
0.0
 40
17.716535415
  0
CIRCLE
  5
252
330
200
100
AcDbEntity
  8
0
  6
Continuous
 62
     7
100
AcDbCircle
 10
-1674.111004492884
 20
706.5221019171331
 30
0.0
 40
17.716535415
  0
CIRCLE
  5
253
330
200
100
AcDbEntity
  8
0
  6
Continuous
 62
     7
100
AcDbCircle
 10
-1774.111004390883
 20
706.5221019171331
 30
0.0
 40
17.716535415
  0
CIRCLE
  5
254
330
200
100
AcDbEntity
  8
0
  6
Continuous
 62
     7
100
AcDbCircle
 10
3655.540171173232
 20
-841.407043484296
 30
0.0
 40
23.62204722
  0
CIRCLE
  5
255
330
200
100
AcDbEntity
  8
0
  6
Continuous
 62
     7
100
AcDbCircle
 10
3655.540171173232
 20
-841.407043484296
 30
0.0
 40
19.68503935
  0
CIRCLE
  5
256
330
200
100
AcDbEntity
  8
0
  6
Continuous
 62
     7
100
AcDbCircle
 10
3655.540171173232
 20
158.5929554957038
 30
0.0
 40
23.62204722
  0
CIRCLE
  5
257
330
200
100
AcDbEntity
  8
0
  6
Continuous
 62
     7
100
AcDbCircle
 10
3655.540171173232
 20
-641.4070436882957
 30
0.0
 40
23.62204722
  0
CIRCLE
  5
258
330
200
100
AcDbEntity
  8
0
  6
Continuous
 62
     7
100
AcDbCircle
 10
3655.540171173232
 20
-41.40704430029472
 30
0.0
 40
23.62204722
  0
CIRCLE
  5
259
330
200
100
AcDbEntity
  8
0
  6
Continuous
 62
     7
100
AcDbCircle
 10
3655.540171173232
 20
-241.4070440962951
 30
0.0
 40
23.62204722
  0
CIRCLE
  5
25A
330
200
100
AcDbEntity
  8
0
  6
Continuous
 62
     7
100
AcDbCircle
 10
3655.540171173232
 20
-441.4070438922954
 30
0.0
 40
23.62204722
  0
CIRCLE
  5
25B
330
200
100
AcDbEntity
  8
0
  6
Continuous
 62
     7
100
AcDbCircle
 10
3655.540171173232
 20
158.5929554957038
 30
0.0
 40
19.68503935
  0
CIRCLE
  5
25C
330
200
100
AcDbEntity
  8
0
  6
Continuous
 62
     7
100
AcDbCircle
 10
3655.540171173232
 20
-641.4070436882957
 30
0.0
 40
19.68503935
  0
CIRCLE
  5
25D
330
200
100
AcDbEntity
  8
0
  6
Continuous
 62
     7
100
AcDbCircle
 10
3655.540171173232
 20
-41.40704430029472
 30
0.0
 40
19.68503935
  0
CIRCLE
  5
25E
330
200
100
AcDbEntity
  8
0
  6
Continuous
 62
     7
100
AcDbCircle
 10
3655.540171173232
 20
-241.4070440962951
 30
0.0
 40
19.68503935
  0
CIRCLE
  5
25F
330
200
100
AcDbEntity
  8
0
  6
Continuous
 62
     7
100
AcDbCircle
 10
3655.540171173232
 20
-441.4070438922954
 30
0.0
 40
19.68503935
  0
CIRCLE
  5
260
330
200
100
AcDbEntity
  8
0
  6
Continuous
 62
     7
100
AcDbCircle
 10
4064.077966032114
 20
-1491.903105812916
 30
0.0
 40
55.11811017999995
  0
CIRCLE
  5
261
330
200
100
AcDbEntity
  8
0
  6
Continuous
 62
     7
100
AcDbCircle
 10
4049.240958173231
 20
-841.407043484296
 30
0.0
 40
23.62204722
  0
CIRCLE
  5
262
330
200
100
AcDbEntity
  8
0
  6
Continuous
 62
     7
100
AcDbCircle
 10
4049.240958173231
 20
-841.407043484296
 30
0.0
 40
19.68503935
  0
CIRCLE
  5
263
330
200
100
AcDbEntity
  8
0
  6
Continuous
 62
     7
100
AcDbCircle
 10
4049.240958173231
 20
158.5929554957038
 30
0.0
 40
23.62204722
  0
CIRCLE
  5
264
330
200
100
AcDbEntity
  8
0
  6
Continuous
 62
     7
100
AcDbCircle
 10
4049.240958173231
 20
-41.40704430029472
 30
0.0
 40
23.62204722
  0
CIRCLE
  5
265
330
200
100
AcDbEntity
  8
0
  6
Continuous
 62
     7
100
AcDbCircle
 10
4049.240958173231
 20
-241.4070440962951
 30
0.0
 40
23.62204722
  0
CIRCLE
  5
266
330
200
100
AcDbEntity
  8
0
  6
Continuous
 62
     7
100
AcDbCircle
 10
4049.240958173231
 20
-441.4070438922954
 30
0.0
 40
23.62204722
  0
CIRCLE
  5
267
330
200
100
AcDbEntity
  8
0
  6
Continuous
 62
     7
100
AcDbCircle
 10
4049.240958173231
 20
-641.4070436882957
 30
0.0
 40
23.62204722
  0
CIRCLE
  5
268
330
200
100
AcDbEntity
  8
0
  6
Continuous
 62
     7
100
AcDbCircle
 10
4049.240958173231
 20
158.5929554957038
 30
0.0
 40
19.68503935
  0
CIRCLE
  5
269
330
200
100
AcDbEntity
  8
0
  6
Continuous
 62
     7
100
AcDbCircle
 10
4049.240958173231
 20
-41.40704430029472
 30
0.0
 40
19.68503935
  0
CIRCLE
  5
26A
330
200
100
AcDbEntity
  8
0
  6
Continuous
 62
     7
100
AcDbCircle
 10
4049.240958173231
 20
-241.4070440962951
 30
0.0
 40
19.68503935
  0
CIRCLE
  5
26B
330
200
100
AcDbEntity
  8
0
  6
Continuous
 62
     7
100
AcDbCircle
 10
4049.240958173231
 20
-441.4070438922954
 30
0.0
 40
19.68503935
  0
CIRCLE
  5
26C
330
200
100
AcDbEntity
  8
0
  6
Continuous
 62
     7
100
AcDbCircle
 10
4049.240958173231
 20
-641.4070436882957
 30
0.0
 40
19.68503935
  0
CIRCLE
  5
26D
330
200
100
AcDbEntity
  8
0
  6
Continuous
 62
     7
100
AcDbCircle
 10
3655.540171173232
 20
1158.592954475703
 30
0.0
 40
23.62204722
  0
CIRCLE
  5
26E
330
200
100
AcDbEntity
  8
0
  6
Continuous
 62
     7
100
AcDbCircle
 10
3655.540171173232
 20
958.5929546797052
 30
0.0
 40
23.62204722
  0
CIRCLE
  5
26F
330
200
100
AcDbEntity
  8
0
  6
Continuous
 62
     7
100
AcDbCircle
 10
3655.540171173232
 20
358.5929552917041
 30
0.0
 40
23.62204722
  0
CIRCLE
  5
270
330
200
100
AcDbEntity
  8
0
  6
Continuous
 62
     7
100
AcDbCircle
 10
3655.540171173232
 20
558.5929550877044
 30
0.0
 40
23.62204722
  0
CIRCLE
  5
271
330
200
100
AcDbEntity
  8
0
  6
Continuous
 62
     7
100
AcDbCircle
 10
3655.540171173232
 20
758.5929548837047
 30
0.0
 40
23.62204722
  0
CIRCLE
  5
272
330
200
100
AcDbEntity
  8
0
  6
Continuous
 62
     7
100
AcDbCircle
 10
3655.540171173232
 20
1158.592954475703
 30
0.0
 40
19.68503935
  0
CIRCLE
  5
273
330
200
100
AcDbEntity
  8
0
  6
Continuous
 62
     7
100
AcDbCircle
 10
3655.540171173232
 20
958.5929546797052
 30
0.0
 40
19.68503935
  0
CIRCLE
  5
274
330
200
100
AcDbEntity
  8
0
  6
Continuous
 62
     7
100
AcDbCircle
 10
3655.540171173232
 20
358.5929552917041
 30
0.0
 40
19.68503935
  0
CIRCLE
  5
275
330
200
100
AcDbEntity
  8
0
  6
Continuous
 62
     7
100
AcDbCircle
 10
3655.540171173232
 20
558.5929550877044
 30
0.0
 40
19.68503935
  0
CIRCLE
  5
276
330
200
100
AcDbEntity
  8
0
  6
Continuous
 62
     7
100
AcDbCircle
 10
3655.540171173232
 20
758.5929548837047
 30
0.0
 40
19.68503935
  0
CIRCLE
  5
277
330
200
100
AcDbEntity
  8
0
  6
Continuous
 62
     7
100
AcDbCircle
 10
3655.540171173232
 20
1358.592954271702
 30
0.0
 40
23.62204722
  0
CIRCLE
  5
278
330
200
100
AcDbEntity
  8
0
  6
Continuous
 62
     7
100
AcDbCircle
 10
3655.540171173232
 20
1358.592954271702
 30
0.0
 40
19.68503935
  0
CIRCLE
  5
279
330
200
100
AcDbEntity
  8
0
  6
Continuous
 62
     7
100
AcDbCircle
 10
4049.240958173231
 20
1158.592954475703
 30
0.0
 40
23.62204722
  0
CIRCLE
  5
27A
330
200
100
AcDbEntity
  8
0
  6
Continuous
 62
     7
100
AcDbCircle
 10
4049.240958173231
 20
958.5929546797052
 30
0.0
 40
23.62204722
  0
CIRCLE
  5
27B
330
200
100
AcDbEntity
  8
0
  6
Continuous
 62
     7
100
AcDbCircle
 10
4049.240958173231
 20
758.5929548837047
 30
0.0
 40
23.62204722
  0
CIRCLE
  5
27C
330
200
100
AcDbEntity
  8
0
  6
Continuous
 62
     7
100
AcDbCircle
 10
4049.240958173231
 20
558.5929550877044
 30
0.0
 40
23.62204722
  0
CIRCLE
  5
27D
330
200
100
AcDbEntity
  8
0
  6
Continuous
 62
     7
100
AcDbCircle
 10
4049.240958173231
 20
358.5929552917041
 30
0.0
 40
23.62204722
  0
CIRCLE
  5
27E
330
200
100
AcDbEntity
  8
0
  6
Continuous
 62
     7
100
AcDbCircle
 10
4049.240958173231
 20
1158.592954475703
 30
0.0
 40
19.68503935
  0
CIRCLE
  5
27F
330
200
100
AcDbEntity
  8
0
  6
Continuous
 62
     7
100
AcDbCircle
 10
4049.240958173231
 20
958.5929546797052
 30
0.0
 40
19.68503935
  0
CIRCLE
  5
280
330
200
100
AcDbEntity
  8
0
  6
Continuous
 62
     7
100
AcDbCircle
 10
4049.240958173231
 20
758.5929548837047
 30
0.0
 40
19.68503935
  0
CIRCLE
  5
281
330
200
100
AcDbEntity
  8
0
  6
Continuous
 62
     7
100
AcDbCircle
 10
4049.240958173231
 20
558.5929550877044
 30
0.0
 40
19.68503935
  0
CIRCLE
  5
282
330
200
100
AcDbEntity
  8
0
  6
Continuous
 62
     7
100
AcDbCircle
 10
4049.240958173231
 20
358.5929552917041
 30
0.0
 40
19.68503935
  0
CIRCLE
  5
283
330
200
100
AcDbEntity
  8
0
  6
Continuous
 62
     7
100
AcDbCircle
 10
4064.077966032114
 20
2008.096916865117
 30
0.0
 40
55.11811017999995
  0
CIRCLE
  5
284
330
200
100
AcDbEntity
  8
0
  6
Continuous
 62
     7
100
AcDbCircle
 10
4049.240958173231
 20
1358.592954271702
 30
0.0
 40
23.62204722
  0
CIRCLE
  5
285
330
200
100
AcDbEntity
  8
0
  6
Continuous
 62
     7
100
AcDbCircle
 10
4049.240958173231
 20
1358.592954271702
 30
0.0
 40
19.68503935
  0
LINE
  5
3D3
330
200
100
AcDbEntity
  8
0
100
AcDbLine
 10
4450.81576091323
 20
1658.592953965704
 30
0.0
 11
4204.629146991115
 21
1658.592953965699
 31
0.0
  0
LINE
  5
3D4
330
200
100
AcDbEntity
  8
0
100
AcDbLine
 10
4450.81576091323
 20
-1141.407043178294
 30
0.0
 11
4204.629146991115
 21
-1141.407043178294
 31
0.0
  0
LINE
  5
3D5
330
200
100
AcDbEntity
  8
0
  6
CENTER
 62
     1
 48
0.1
100
AcDbLine
 10
3957.566800297396
 20
1358.592954271702
 30
0.0
 11
4140.915116049069
 21
1358.592954271702
 31
0.0
  0
LINE
  5
3D6
330
200
100
AcDbEntity
  8
0
  6
CENTER
 62
     1
 48
0.1
100
AcDbLine
 10
4049.240958173231
 20
1266.918796395867
 30
0.0
 11
4049.240958173231
 21
1450.267112147539
 31
0.0
  0
LINE
  5
3D7
330
200
100
AcDbEntity
  8
0
  6
CENTER
 62
     1
 48
0.1
100
AcDbLine
 10
3563.866013297395
 20
1358.592954271702
 30
0.0
 11
3747.214329049069
 21
1358.592954271702
 31
0.0
  0
LINE
  5
3D8
330
200
100
AcDbEntity
  8
0
  6
CENTER
 62
     1
 48
0.1
100
AcDbLine
 10
3655.540171173232
 20
1266.918796395867
 30
0.0
 11
3655.540171173232
 21
1450.267112147539
 31
0.0
  0
LINE
  5
3D9
330
200
100
AcDbEntity
  8
0
  6
CENTER
 62
     1
 48
0.1
100
AcDbLine
 10
3957.566800297396
 20
1158.592954475703
 30
0.0
 11
4140.915116049069
 21
1158.592954475703
 31
0.0
  0
LINE
  5
3DA
330
200
100
AcDbEntity
  8
0
  6
CENTER
 62
     1
 48
0.1
100
AcDbLine
 10
4049.240958173231
 20
1066.918796599868
 30
0.0
 11
4049.240958173231
 21
1250.267112351541
 31
0.0
  0
LINE
  5
3DB
330
200
100
AcDbEntity
  8
0
  6
CENTER
 62
     1
 48
0.1
100
AcDbLine
 10
3563.866013297395
 20
1158.592954475703
 30
0.0
 11
3747.214329049069
 21
1158.592954475703
 31
0.0
  0
LINE
  5
3DC
330
200
100
AcDbEntity
  8
0
  6
CENTER
 62
     1
 48
0.1
100
AcDbLine
 10
3655.540171173232
 20
1066.918796599868
 30
0.0
 11
3655.540171173232
 21
1250.267112351541
 31
0.0
  0
LINE
  5
3DD
330
200
100
AcDbEntity
  8
0
  6
CENTER
 62
     1
 48
0.1
100
AcDbLine
 10
3957.566800297396
 20
958.5929546797052
 30
0.0
 11
4140.915116049069
 21
958.5929546797052
 31
0.0
  0
LINE
  5
3DE
330
200
100
AcDbEntity
  8
0
  6
CENTER
 62
     1
 48
0.1
100
AcDbLine
 10
4049.240958173231
 20
866.9187968038659
 30
0.0
 11
4049.240958173231
 21
1050.267112555544
 31
0.0
  0
LINE
  5
3DF
330
200
100
AcDbEntity
  8
0
  6
CENTER
 62
     1
 48
0.1
100
AcDbLine
 10
3563.866013297395
 20
958.5929546797052
 30
0.0
 11
3747.214329049069
 21
958.5929546797052
 31
0.0
  0
LINE
  5
3E0
330
200
100
AcDbEntity
  8
0
  6
CENTER
 62
     1
 48
0.1
100
AcDbLine
 10
3655.540171173232
 20
866.9187968038659
 30
0.0
 11
3655.540171173232
 21
1050.267112555544
 31
0.0
  0
LINE
  5
3E1
330
200
100
AcDbEntity
  8
0
  6
CENTER
 62
     1
 48
0.1
100
AcDbLine
 10
3563.866013297395
 20
758.5929548837047
 30
0.0
 11
3747.214329049069
 21
758.5929548837047
 31
0.0
  0
LINE
  5
3E2
330
200
100
AcDbEntity
  8
0
  6
CENTER
 62
     1
 48
0.1
100
AcDbLine
 10
3655.540171173232
 20
666.9187970078692
 30
0.0
 11
3655.540171173232
 21
850.2671127595441
 31
0.0
  0
LINE
  5
3E3
330
200
100
AcDbEntity
  8
0
  6
CENTER
 62
     1
 48
0.1
100
AcDbLine
 10
3957.566800297396
 20
758.5929548837047
 30
0.0
 11
4140.915116049069
 21
758.5929548837047
 31
0.0
  0
LINE
  5
3E4
330
200
100
AcDbEntity
  8
0
  6
CENTER
 62
     1
 48
0.1
100
AcDbLine
 10
4049.240958173231
 20
666.9187970078692
 30
0.0
 11
4049.240958173231
 21
850.2671127595441
 31
0.0
  0
LINE
  5
3E5
330
200
100
AcDbEntity
  8
0
  6
CENTER
 62
     1
 48
0.1
100
AcDbLine
 10
3957.566800297396
 20
558.5929550877044
 30
0.0
 11
4140.915116049069
 21
558.5929550877044
 31
0.0
  0
LINE
  5
3E6
330
200
100
AcDbEntity
  8
0
  6
CENTER
 62
     1
 48
0.1
100
AcDbLine
 10
4049.240958173231
 20
466.918797211867
 30
0.0
 11
4049.240958173231
 21
650.26711296354
 31
0.0
  0
LINE
  5
3E7
330
200
100
AcDbEntity
  8
0
  6
CENTER
 62
     1
 48
0.1
100
AcDbLine
 10
3563.866013297395
 20
558.5929550877044
 30
0.0
 11
3747.214329049069
 21
558.5929550877044
 31
0.0
  0
LINE
  5
3E8
330
200
100
AcDbEntity
  8
0
  6
CENTER
 62
     1
 48
0.1
100
AcDbLine
 10
3655.540171173232
 20
466.918797211867
 30
0.0
 11
3655.540171173232
 21
650.26711296354
 31
0.0
  0
LINE
  5
3E9
330
200
100
AcDbEntity
  8
0
  6
CENTER
 62
     1
 48
0.1
100
AcDbLine
 10
3957.566800297396
 20
358.5929552917041
 30
0.0
 11
4140.915116049069
 21
358.5929552917041
 31
0.0
  0
LINE
  5
3EA
330
200
100
AcDbEntity
  8
0
  6
CENTER
 62
     1
 48
0.1
100
AcDbLine
 10
4049.240958173231
 20
266.9187974158667
 30
0.0
 11
4049.240958173231
 21
450.2671131675415
 31
0.0
  0
LINE
  5
3EB
330
200
100
AcDbEntity
  8
0
  6
CENTER
 62
     1
 48
0.1
100
AcDbLine
 10
3563.866013297395
 20
358.5929552917041
 30
0.0
 11
3747.214329049069
 21
358.5929552917041
 31
0.0
  0
LINE
  5
3EC
330
200
100
AcDbEntity
  8
0
  6
CENTER
 62
     1
 48
0.1
100
AcDbLine
 10
3655.540171173232
 20
266.9187974158667
 30
0.0
 11
3655.540171173232
 21
450.2671131675415
 31
0.0
  0
LINE
  5
3ED
330
200
100
AcDbEntity
  8
0
  6
CENTER
 62
     1
 48
0.1
100
AcDbLine
 10
3563.866013297395
 20
158.5929554957038
 30
0.0
 11
3747.214329049069
 21
158.5929554957038
 31
0.0
  0
LINE
  5
3EE
330
200
100
AcDbEntity
  8
0
  6
CENTER
 62
     1
 48
0.1
100
AcDbLine
 10
3655.540171173232
 20
66.91879761986638
 30
0.0
 11
3655.540171173232
 21
250.2671133715412
 31
0.0
  0
LINE
  5
3EF
330
200
100
AcDbEntity
  8
0
  6
CENTER
 62
     1
 48
0.1
100
AcDbLine
 10
3957.566800297396
 20
158.5929554957038
 30
0.0
 11
4140.915116049069
 21
158.5929554957038
 31
0.0
  0
LINE
  5
3F0
330
200
100
AcDbEntity
  8
0
  6
CENTER
 62
     1
 48
0.1
100
AcDbLine
 10
4049.240958173231
 20
66.91879761986638
 30
0.0
 11
4049.240958173231
 21
250.2671133715412
 31
0.0
  0
LINE
  5
3F1
330
200
100
AcDbEntity
  8
0
  6
CENTER
 62
     1
 48
0.1
100
AcDbLine
 10
3563.866013297395
 20
-41.40704430029472
 30
0.0
 11
3747.214329049069
 21
-41.40704430029472
 31
0.0
  0
LINE
  5
3F2
330
200
100
AcDbEntity
  8
0
  6
CENTER
 62
     1
 48
0.1
100
AcDbLine
 10
3655.540171173232
 20
-133.0812021761339
 30
0.0
 11
3655.540171173232
 21
50.2671135755445
 31
0.0
  0
LINE
  5
3F3
330
200
100
AcDbEntity
  8
0
  6
CENTER
 62
     1
 48
0.1
100
AcDbLine
 10
3957.566800297396
 20
-41.40704430029472
 30
0.0
 11
4140.915116049069
 21
-41.40704430029472
 31
0.0
  0
LINE
  5
3F4
330
200
100
AcDbEntity
  8
0
  6
CENTER
 62
     1
 48
0.1
100
AcDbLine
 10
4049.240958173231
 20
-133.0812021761339
 30
0.0
 11
4049.240958173231
 21
50.2671135755445
 31
0.0
  0
LINE
  5
3F5
330
200
100
AcDbEntity
  8
0
  6
CENTER
 62
     1
 48
0.1
100
AcDbLine
 10
3563.866013297395
 20
-241.4070440962951
 30
0.0
 11
3747.214329049069
 21
-241.4070440962951
 31
0.0
  0
LINE
  5
3F6
330
200
100
AcDbEntity
  8
0
  6
CENTER
 62
     1
 48
0.1
100
AcDbLine
 10
3655.540171173232
 20
-333.0812019721343
 30
0.0
 11
3655.540171173232
 21
-149.7328862204595
 31
0.0
  0
LINE
  5
3F7
330
200
100
AcDbEntity
  8
0
  6
CENTER
 62
     1
 48
0.1
100
AcDbLine
 10
3957.566800297396
 20
-241.4070440962951
 30
0.0
 11
4140.915116049069
 21
-241.4070440962951
 31
0.0
  0
LINE
  5
3F8
330
200
100
AcDbEntity
  8
0
  6
CENTER
 62
     1
 48
0.1
100
AcDbLine
 10
4049.240958173231
 20
-333.0812019721343
 30
0.0
 11
4049.240958173231
 21
-149.7328862204595
 31
0.0
  0
LINE
  5
3F9
330
200
100
AcDbEntity
  8
0
  6
CENTER
 62
     1
 48
0.1
100
AcDbLine
 10
3563.866013297395
 20
-441.4070438922954
 30
0.0
 11
3747.214329049069
 21
-441.4070438922954
 31
0.0
  0
LINE
  5
3FA
330
200
100
AcDbEntity
  8
0
  6
CENTER
 62
     1
 48
0.1
100
AcDbLine
 10
3655.540171173232
 20
-533.0812017681309
 30
0.0
 11
3655.540171173232
 21
-349.7328860164562
 31
0.0
  0
LINE
  5
3FB
330
200
100
AcDbEntity
  8
0
  6
CENTER
 62
     1
 48
0.1
100
AcDbLine
 10
3957.566800297396
 20
-441.4070438922954
 30
0.0
 11
4140.915116049069
 21
-441.4070438922954
 31
0.0
  0
LINE
  5
3FC
330
200
100
AcDbEntity
  8
0
  6
CENTER
 62
     1
 48
0.1
100
AcDbLine
 10
4049.240958173231
 20
-533.0812017681309
 30
0.0
 11
4049.240958173231
 21
-349.7328860164562
 31
0.0
  0
LINE
  5
3FD
330
200
100
AcDbEntity
  8
0
  6
CENTER
 62
     1
 48
0.1
100
AcDbLine
 10
3563.866013297395
 20
-641.4070436882957
 30
0.0
 11
3747.214329049069
 21
-641.4070436882957
 31
0.0
  0
LINE
  5
3FE
330
200
100
AcDbEntity
  8
0
  6
CENTER
 62
     1
 48
0.1
100
AcDbLine
 10
3655.540171173232
 20
-733.0812015641331
 30
0.0
 11
3655.540171173232
 21
-549.7328858124583
 31
0.0
  0
LINE
  5
3FF
330
200
100
AcDbEntity
  8
0
  6
CENTER
 62
     1
 48
0.1
100
AcDbLine
 10
3957.566800297396
 20
-641.4070436882957
 30
0.0
 11
4140.915116049069
 21
-641.4070436882957
 31
0.0
  0
LINE
  5
400
330
200
100
AcDbEntity
  8
0
  6
CENTER
 62
     1
 48
0.1
100
AcDbLine
 10
4049.240958173231
 20
-733.0812015641331
 30
0.0
 11
4049.240958173231
 21
-549.7328858124583
 31
0.0
  0
LINE
  5
401
330
200
100
AcDbEntity
  8
0
  6
CENTER
 62
     1
 48
0.1
100
AcDbLine
 10
3957.566800297396
 20
-841.407043484296
 30
0.0
 11
4140.915116049069
 21
-841.407043484296
 31
0.0
  0
LINE
  5
402
330
200
100
AcDbEntity
  8
0
  6
CENTER
 62
     1
 48
0.1
100
AcDbLine
 10
4049.240958173231
 20
-933.0812013601317
 30
0.0
 11
4049.240958173231
 21
-749.7328856084569
 31
0.0
  0
LINE
  5
403
330
200
100
AcDbEntity
  8
0
  6
CENTER
 62
     1
 48
0.1
100
AcDbLine
 10
3563.866013297395
 20
-841.407043484296
 30
0.0
 11
3747.214329049069
 21
-841.407043484296
 31
0.0
  0
LINE
  5
404
330
200
100
AcDbEntity
  8
0
  6
CENTER
 62
     1
 48
0.1
100
AcDbLine
 10
3655.540171173232
 20
-933.0812013601317
 30
0.0
 11
3655.540171173232
 21
-749.7328856084569
 31
0.0
  0
LINE
  5
405
330
200
100
AcDbEntity
  8
0
  6
CENTER
 62
     1
 48
0.1
100
AcDbLine
 10
-1765.785162368724
 20
-93.47789726686642
 30
0.0
 11
-1582.436846617049
 21
-93.47789726686642
 31
0.0
  0
LINE
  5
406
330
200
100
AcDbEntity
  8
0
  6
CENTER
 62
     1
 48
0.1
100
AcDbLine
 10
-1674.111004492884
 20
-185.152055142702
 30
0.0
 11
-1674.111004492884
 21
-1.803739391027193
 31
0.0
  0
LINE
  5
407
330
200
100
AcDbEntity
  8
0
  6
CENTER
 62
     1
 48
0.1
100
AcDbLine
 10
-1865.785162266718
 20
-93.47789726686642
 30
0.0
 11
-1682.436846515044
 21
-93.47789726686642
 31
0.0
  0
LINE
  5
408
330
200
100
AcDbEntity
  8
0
  6
CENTER
 62
     1
 48
0.1
100
AcDbLine
 10
-1774.111004390883
 20
-185.152055142702
 30
0.0
 11
-1774.111004390883
 21
-1.803739391027193
 31
0.0
  0
LINE
  5
409
330
200
100
AcDbEntity
  8
0
  6
CENTER
 62
     1
 48
0.1
100
AcDbLine
 10
-1865.785162266718
 20
6.522102631131929
 30
0.0
 11
-1682.436846515044
 21
6.522102631131929
 31
0.0
  0
LINE
  5
40A
330
200
100
AcDbEntity
  8
0
  6
CENTER
 62
     1
 48
0.1
100
AcDbLine
 10
-1774.111004390883
 20
-85.15205524470729
 30
0.0
 11
-1774.111004390883
 21
98.19626050697117
 31
0.0
  0
LINE
  5
40B
330
200
100
AcDbEntity
  8
0
  6
CENTER
 62
     1
 48
0.1
100
AcDbLine
 10
-1765.785162368724
 20
6.522102631131929
 30
0.0
 11
-1582.436846617049
 21
6.522102631131929
 31
0.0
  0
LINE
  5
40C
330
200
100
AcDbEntity
  8
0
  6
CENTER
 62
     1
 48
0.1
100
AcDbLine
 10
-1674.111004492884
 20
-85.15205524470729
 30
0.0
 11
-1674.111004492884
 21
98.19626050697117
 31
0.0
  0
LINE
  5
40D
330
200
100
AcDbEntity
  8
0
  6
CENTER
 62
     1
 48
0.1
100
AcDbLine
 10
-1765.785162368724
 20
106.5221025291321
 30
0.0
 11
-1582.436846617049
 21
106.5221025291321
 31
0.0
  0
LINE
  5
40E
330
200
100
AcDbEntity
  8
0
  6
CENTER
 62
     1
 48
0.1
100
AcDbLine
 10
-1674.111004492884
 20
14.84794465329287
 30
0.0
 11
-1674.111004492884
 21
198.1962604049677
 31
0.0
  0
LINE
  5
40F
330
200
100
AcDbEntity
  8
0
  6
CENTER
 62
     1
 48
0.1
100
AcDbLine
 10
-1865.785162266718
 20
106.5221025291321
 30
0.0
 11
-1682.436846515044
 21
106.5221025291321
 31
0.0
  0
LINE
  5
410
330
200
100
AcDbEntity
  8
0
  6
CENTER
 62
     1
 48
0.1
100
AcDbLine
 10
-1774.111004390883
 20
14.84794465329287
 30
0.0
 11
-1774.111004390883
 21
198.1962604049677
 31
0.0
  0
LINE
  5
411
330
200
100
AcDbEntity
  8
0
  6
CENTER
 62
     1
 48
0.1
100
AcDbLine
 10
-1865.785162266718
 20
206.5221024271323
 30
0.0
 11
-1682.436846515044
 21
206.5221024271323
 31
0.0
  0
LINE
  5
412
330
200
100
AcDbEntity
  8
0
  6
CENTER
 62
     1
 48
0.1
100
AcDbLine
 10
-1774.111004390883
 20
114.8479445512966
 30
0.0
 11
-1774.111004390883
 21
298.1962603029678
 31
0.0
  0
LINE
  5
413
330
200
100
AcDbEntity
  8
0
  6
CENTER
 62
     1
 48
0.1
100
AcDbLine
 10
-1765.785162368724
 20
206.5221024271323
 30
0.0
 11
-1582.436846617049
 21
206.5221024271323
 31
0.0
  0
LINE
  5
414
330
200
100
AcDbEntity
  8
0
  6
CENTER
 62
     1
 48
0.1
100
AcDbLine
 10
-1674.111004492884
 20
114.8479445512966
 30
0.0
 11
-1674.111004492884
 21
298.1962603029678
 31
0.0
  0
LINE
  5
415
330
200
100
AcDbEntity
  8
0
  6
CENTER
 62
     1
 48
0.1
100
AcDbLine
 10
-1765.785162368724
 20
306.5221023251325
 30
0.0
 11
-1582.436846617049
 21
306.5221023251325
 31
0.0
  0
LINE
  5
416
330
200
100
AcDbEntity
  8
0
  6
CENTER
 62
     1
 48
0.1
100
AcDbLine
 10
-1674.111004492884
 20
214.8479444492969
 30
0.0
 11
-1674.111004492884
 21
398.1962602009735
 31
0.0
  0
LINE
  5
417
330
200
100
AcDbEntity
  8
0
  6
CENTER
 62
     1
 48
0.1
100
AcDbLine
 10
-1865.785162266718
 20
306.5221023251325
 30
0.0
 11
-1682.436846515044
 21
306.5221023251325
 31
0.0
  0
LINE
  5
418
330
200
100
AcDbEntity
  8
0
  6
CENTER
 62
     1
 48
0.1
100
AcDbLine
 10
-1774.111004390883
 20
214.8479444492969
 30
0.0
 11
-1774.111004390883
 21
398.1962602009735
 31
0.0
  0
LINE
  5
419
330
200
100
AcDbEntity
  8
0
  6
CENTER
 62
     1
 48
0.1
100
AcDbLine
 10
-1865.785162266718
 20
406.5221022231326
 30
0.0
 11
-1682.436846515044
 21
406.5221022231326
 31
0.0
  0
LINE
  5
41A
330
200
100
AcDbEntity
  8
0
  6
CENTER
 62
     1
 48
0.1
100
AcDbLine
 10
-1774.111004390883
 20
314.8479443472934
 30
0.0
 11
-1774.111004390883
 21
498.1962600989663
 31
0.0
  0
LINE
  5
41B
330
200
100
AcDbEntity
  8
0
  6
CENTER
 62
     1
 48
0.1
100
AcDbLine
 10
-1765.785162368724
 20
406.5221022231326
 30
0.0
 11
-1582.436846617049
 21
406.5221022231326
 31
0.0
  0
LINE
  5
41C
330
200
100
AcDbEntity
  8
0
  6
CENTER
 62
     1
 48
0.1
100
AcDbLine
 10
-1674.111004492884
 20
314.8479443472934
 30
0.0
 11
-1674.111004492884
 21
498.1962600989663
 31
0.0
  0
LINE
  5
41D
330
200
100
AcDbEntity
  8
0
  6
CENTER
 62
     1
 48
0.1
100
AcDbLine
 10
-1865.785162266718
 20
506.5221021211328
 30
0.0
 11
-1682.436846515044
 21
506.5221021211328
 31
0.0
  0
LINE
  5
41E
330
200
100
AcDbEntity
  8
0
  6
CENTER
 62
     1
 48
0.1
100
AcDbLine
 10
-1774.111004390883
 20
414.8479442452972
 30
0.0
 11
-1774.111004390883
 21
598.196259996972
 31
0.0
  0
LINE
  5
41F
330
200
100
AcDbEntity
  8
0
  6
CENTER
 62
     1
 48
0.1
100
AcDbLine
 10
-1765.785162368724
 20
506.5221021211328
 30
0.0
 11
-1582.436846617049
 21
506.5221021211328
 31
0.0
  0
LINE
  5
420
330
200
100
AcDbEntity
  8
0
  6
CENTER
 62
     1
 48
0.1
100
AcDbLine
 10
-1674.111004492884
 20
414.8479442452972
 30
0.0
 11
-1674.111004492884
 21
598.196259996972
 31
0.0
  0
LINE
  5
421
330
200
100
AcDbEntity
  8
0
  6
CENTER
 62
     1
 48
0.1
100
AcDbLine
 10
-1765.785162368724
 20
606.5221020191311
 30
0.0
 11
-1582.436846617049
 21
606.5221020191311
 31
0.0
  0
LINE
  5
422
330
200
100
AcDbEntity
  8
0
  6
CENTER
 62
     1
 48
0.1
100
AcDbLine
 10
-1674.111004492884
 20
514.8479441432973
 30
0.0
 11
-1674.111004492884
 21
698.1962598949703
 31
0.0
  0
LINE
  5
423
330
200
100
AcDbEntity
  8
0
  6
CENTER
 62
     1
 48
0.1
100
AcDbLine
 10
-1865.785162266718
 20
606.5221020191311
 30
0.0
 11
-1682.436846515044
 21
606.5221020191311
 31
0.0
  0
LINE
  5
424
330
200
100
AcDbEntity
  8
0
  6
CENTER
 62
     1
 48
0.1
100
AcDbLine
 10
-1774.111004390883
 20
514.8479441432973
 30
0.0
 11
-1774.111004390883
 21
698.1962598949703
 31
0.0
  0
LINE
  5
425
330
200
100
AcDbEntity
  8
0
  6
CENTER
 62
     1
 48
0.1
100
AcDbLine
 10
-1865.785162266718
 20
706.5221019171331
 30
0.0
 11
-1682.436846515044
 21
706.5221019171331
 31
0.0
  0
LINE
  5
426
330
200
100
AcDbEntity
  8
0
  6
CENTER
 62
     1
 48
0.1
100
AcDbLine
 10
-1774.111004390883
 20
614.8479440412939
 30
0.0
 11
-1774.111004390883
 21
798.1962597929668
 31
0.0
  0
LINE
  5
427
330
200
100
AcDbEntity
  8
0
  6
CENTER
 62
     1
 48
0.1
100
AcDbLine
 10
-1765.785162368724
 20
706.5221019171331
 30
0.0
 11
-1582.436846617049
 21
706.5221019171331
 31
0.0
  0
LINE
  5
428
330
200
100
AcDbEntity
  8
0
  6
CENTER
 62
     1
 48
0.1
100
AcDbLine
 10
-1674.111004492884
 20
614.8479440412939
 30
0.0
 11
-1674.111004492884
 21
798.1962597929668
 31
0.0
  0
LINE
  5
429
330
200
100
AcDbEntity
  8
0
  6
CENTER
 62
     1
 48
0.1
100
AcDbLine
 10
-1765.785162368724
 20
806.5221018151332
 30
0.0
 11
-1582.436846617049
 21
806.5221018151332
 31
0.0
  0
LINE
  5
42A
330
200
100
AcDbEntity
  8
0
  6
CENTER
 62
     1
 48
0.1
100
AcDbLine
 10
-1674.111004492884
 20
714.8479439392958
 30
0.0
 11
-1674.111004492884
 21
898.1962596909724
 31
0.0
  0
LINE
  5
42B
330
200
100
AcDbEntity
  8
0
  6
CENTER
 62
     1
 48
0.1
100
AcDbLine
 10
-1865.785162266718
 20
806.5221018151332
 30
0.0
 11
-1682.436846515044
 21
806.5221018151332
 31
0.0
  0
LINE
  5
42C
330
200
100
AcDbEntity
  8
0
  6
CENTER
 62
     1
 48
0.1
100
AcDbLine
 10
-1774.111004390883
 20
714.8479439392958
 30
0.0
 11
-1774.111004390883
 21
898.1962596909724
 31
0.0
  0
LINE
  5
42D
330
200
100
AcDbEntity
  8
0
  6
CENTER
 62
     1
 48
0.1
100
AcDbLine
 10
-1965.785162164724
 20
1006.128400824133
 30
0.0
 11
-1782.436846413049
 21
1006.128400824133
 31
0.0
  0
LINE
  5
42E
330
200
100
AcDbEntity
  8
0
  6
CENTER
 62
     1
 48
0.1
100
AcDbLine
 10
-1874.111004288885
 20
914.4542429482971
 30
0.0
 11
-1874.111004288885
 21
1097.802558699972
 31
0.0
  0
LINE
  5
42F
330
200
100
AcDbEntity
  8
0
  6
CENTER
 62
     1
 48
0.1
100
AcDbLine
 10
-1965.785162164724
 20
-293.0841962758677
 30
0.0
 11
-1782.436846413049
 21
-293.0841962758677
 31
0.0
  0
LINE
  5
430
330
200
100
AcDbEntity
  8
0
  6
CENTER
 62
     1
 48
0.1
100
AcDbLine
 10
-1874.111004288885
 20
-384.7583541517033
 30
0.0
 11
-1874.111004288885
 21
-201.4100384000285
 31
0.0
  0
CIRCLE
  5
465
330
200
100
AcDbEntity
  8
0
100
AcDbCircle
 10
3968.408674791115
 20
1794.0260246937
 30
0.0
 40
98.42519675
  0
CIRCLE
  5
468
330
200
100
AcDbEntity
  8
0
100
AcDbCircle
 10
3968.408674791115
 20
1844.0260246427
 30
0.0
 40
19.68503935
  0
CIRCLE
  5
469
330
200
100
AcDbEntity
  8
0
100
AcDbCircle
 10
3968.408674791115
 20
1744.0260247447
 30
0.0
 40
19.68503935
  0
ENDSEC
  0
SECTION
  2
OBJECTS
  0
DICTIONARY
  5
C
330
0
100
AcDbDictionary
281
     1
  3
ACAD_COLOR
350
2B4
  3
ACAD_GROUP
350
D
  3
ACAD_LAYOUT
350
1A
  3
ACAD_MATERIAL
350
28A
  3
ACAD_MLEADERSTYLE
350
2D9
  3
ACAD_MLINESTYLE
350
17
  3
ACAD_PLOTSETTINGS
350
19
  3
ACAD_PLOTSTYLENAME
350
E
  3
ACAD_SCALELIST
350
2B7
  3
ACAD_TABLESTYLE
350
2B5
  3
ACAD_VISUALSTYLE
350
2A3
  3
ACDB_RECOMPOSE_DATA
350
44C
  3
AcDbVariableDictionary
350
440
  3
DWGPROPS
350
477
  0
DICTIONARY
  5
438
330
10
100
AcDbDictionary
280
     1
281
     1
  3
ADSK_XREC_LAYER_RECONCILED
360
439
  0
DICTIONARY
  5
43A
330
1FA
100
AcDbDictionary
280
     1
281
     1
  3
ADSK_XREC_LAYER_RECONCILED
360
43B
  0
DICTIONARY
  5
43C
330
1FB
100
AcDbDictionary
280
     1
281
     1
  3
ADSK_XREC_LAYER_RECONCILED
360
43D
  0
DICTIONARY
  5
43E
330
1FC
100
AcDbDictionary
280
     1
281
     1
  3
ADSK_XREC_LAYER_RECONCILED
360
43F
  0
DICTIONARY
  5
45C
330
200
100
AcDbDictionary
280
     1
281
     1
  3
ACAD_SORTENTS
360
45D
  0
DICTIONARY
  5
2B4
102
{ACAD_REACTORS
330
C
102
}
330
C
100
AcDbDictionary
281
     1
  0
DICTIONARY
  5
D
102
{ACAD_REACTORS
330
C
102
}
330
C
100
AcDbDictionary
281
     1
  0
DICTIONARY
  5
1A
102
{ACAD_REACTORS
330
C
102
}
330
C
100
AcDbDictionary
281
     1
  3
Layout1
350
287
  3
Model
350
286
  0
DICTIONARY
  5
28A
102
{ACAD_REACTORS
330
C
102
}
330
C
100
AcDbDictionary
281
     1
  3
ByBlock
350
293
  3
ByLayer
350
28B
  3
Global
350
29B
  0
DICTIONARY
  5
2D9
102
{ACAD_REACTORS
330
C
102
}
330
C
100
AcDbDictionary
281
     1
  3
Standard
350
2DA
  0
DICTIONARY
  5
17
102
{ACAD_REACTORS
330
C
102
}
330
C
100
AcDbDictionary
281
     1
  3
Standard
350
18
  0
DICTIONARY
  5
19
102
{ACAD_REACTORS
330
C
102
}
330
C
100
AcDbDictionary
281
     1
  0
ACDBDICTIONARYWDFLT
  5
E
102
{ACAD_REACTORS
330
C
102
}
330
C
100
AcDbDictionary
281
     1
  3
Normal
350
F
100
AcDbDictionaryWithDefault
340
F
  0
DICTIONARY
  5
2B7
102
{ACAD_REACTORS
330
C
102
}
330
C
100
AcDbDictionary
281
     1
  3
A0
350
2B8
  3
A1
350
2B9
  3
A2
350
2BA
  3
A3
350
2BB
  3
A4
350
2BC
  3
A5
350
2BD
  3
A6
350
2BE
  3
A7
350
2BF
  3
A8
350
2C0
  3
A9
350
2C1
  3
B0
350
2C2
  3
B1
350
2C3
  3
B2
350
2C4
  3
B3
350
2C5
  3
B4
350
2C6
  3
B5
350
2C7
  3
B6
350
2C8
  3
B7
350
2C9
  3
B8
350
2CA
  3
B9
350
2CB
  3
C0
350
2CC
  3
C1
350
2CD
  3
C2
350
2CE
  3
C3
350
2CF
  3
C4
350
2D0
  3
C5
350
2D1
  3
C6
350
2D2
  3
C7
350
2D3
  3
C8
350
2D4
  3
C9
350
2D5
  3
D0
350
2D6
  3
D1
350
2D7
  3
D2
350
2D8
  0
DICTIONARY
  5
2B5
102
{ACAD_REACTORS
330
C
102
}
330
C
100
AcDbDictionary
281
     1
  3
Standard
350
2B6
  0
DICTIONARY
  5
2A3
102
{ACAD_REACTORS
330
C
102
}
330
C
100
AcDbDictionary
281
     1
  3
2dWireframe
350
2A9
  3
3D Hidden
350
2AB
  3
3dWireframe
350
2AA
  3
Basic
350
2A8
  3
Brighten
350
2AF
  3
ColorChange
350
2B3
  3
Conceptual
350
2AC
  3
Dim
350
2AE
  3
Facepattern
350
2B2
  3
Flat
350
2A4
  3
FlatWithEdges
350
2A5
  3
Gouraud
350
2A6
  3
GouraudWithEdges
350
2A7
  3
Linepattern
350
2B1
  3
Realistic
350
2AD
  3
Thicken
350
2B0
  0
XRECORD
  5
44C
102
{ACAD_REACTORS
330
C
102
}
330
C
100
AcDbXrecord
280
     1
 90
        1
330
2B6
  0
DICTIONARY
  5
440
102
{ACAD_REACTORS
330
C
102
}
330
C
100
AcDbDictionary
281
     1
  3
CANNOSCALE
350
444
  3
CMLEADERSTYLE
350
442
  3
CTABLESTYLE
350
441
  3
DIMASSOC
350
449
  3
HIDETEXT
350
448
  3
INDEXCTL
350
447
  3
LIGHTINGUNITS
350
445
  3
MSLTSCALE
350
443
  3
SORTENTS
350
446
  0
XRECORD
  5
477
102
{ACAD_REACTORS
330
C
102
}
330
C
100
AcDbXrecord
280
     1
  1
DWGPROPS COOKIE
  2

  3

  4

  6

  7

  8
01
  9

300
=
301
=
302
=
303
=
304
=
305
=
306
=
307
=
308
=
309
=
 40
0.0114917245370371
 41
2458705.611584028
 42
2458708.583571725
  1

 90
        0
  0
XRECORD
  5
439
102
{ACAD_REACTORS
330
438
102
}
330
438
100
AcDbXrecord
280
     1
290
     1
  0
XRECORD
  5
43B
102
{ACAD_REACTORS
330
43A
102
}
330
43A
100
AcDbXrecord
280
     1
290
     1
  0
XRECORD
  5
43D
102
{ACAD_REACTORS
330
43C
102
}
330
43C
100
AcDbXrecord
280
     1
290
     1
  0
XRECORD
  5
43F
102
{ACAD_REACTORS
330
43E
102
}
330
43E
100
AcDbXrecord
280
     1
290
     1
  0
SORTENTSTABLE
  5
45D
102
{ACAD_REACTORS
330
45C
102
}
330
45C
100
AcDbSortentsTable
330
200
331
247
  5
24B
331
3D6
  5
3DA
331
40B
  5
40F
331
214
  5
214
331
24F
  5
253
331
3DE
  5
3E2
331
413
  5
417
331
41B
  5
41F
331
3E6
  5
3EA
331
257
  5
25B
331
21C
  5
21C
331
423
  5
427
331
25F
  5
263
331
267
  5
26B
331
3EC
  5
3F0
331
42B
  5
42F
331
285
  5
3D6
331
26F
  5
273
331
3F4
  5
3F8
331
238
  5
23E
331
277
  5
27B
331
3FC
  5
400
331
27F
  5
283
331
404
  5
408
331
240
  5
244
331
3D7
  5
3DB
331
40C
  5
410
331
248
  5
24C
331
250
  5
254
331
3DF
  5
3E3
331
414
  5
418
331
258
  5
25C
331
3E7
  5
3EB
331
41C
  5
420
331
424
  5
428
331
260
  5
264
331
42C
  5
430
331
268
  5
26C
331
3ED
  5
3F1
331
3F5
  5
3F9
331
270
  5
274
331
278
  5
27C
331
3FD
  5
401
331
405
  5
409
331
241
  5
245
331
20E
  5
20E
331
249
  5
24D
331
3D8
  5
3DC
331
40D
  5
411
331
251
  5
255
331
3E0
  5
3E4
331
415
  5
419
331
41D
  5
421
331
259
  5
25D
331
425
  5
429
331
261
  5
265
331
269
  5
26D
331
3EE
  5
3F2
331
42D
  5
45B
331
271
  5
275
331
3F6
  5
3FA
331
465
  5
467
331
279
  5
27D
331
3FE
  5
402
331
406
  5
40A
331
242
  5
246
331
40E
  5
412
331
3D9
  5
3DD
331
24A
  5
24E
331
20F
  5
20F
331
252
  5
256
331
3E1
  5
3E5
331
416
  5
41A
331
25A
  5
25E
331
41E
  5
422
331
426
  5
42A
331
262
  5
266
331
42E
  5
45E
331
280
  5
284
331
26A
  5
26E
331
3EF
  5
3F3
331
272
  5
276
331
3F7
  5
3FB
331
27A
  5
27E
331
3FF
  5
403
331
407
  5
40B
331
243
  5
247
331
210
  5
210
331
24B
  5
24F
331
3DA
  5
3DE
331
40F
  5
413
331
417
  5
41B
331
253
  5
257
331
3E2
  5
3E6
331
41F
  5
423
331
25B
  5
25F
331
427
  5
42B
331
263
  5
267
331
3E8
  5
3EC
331
281
  5
285
331
26B
  5
26F
331
3F0
  5
3F4
331
42F
  5
465
331
273
  5
277
331
3F8
  5
3FC
331
23C
  5
240
331
27B
  5
27F
331
400
  5
404
331
3D3
  5
3D7
331
408
  5
40C
331
244
  5
248
331
410
  5
414
331
3DB
  5
3DF
331
24C
  5
250
331
211
  5
211
331
254
  5
258
331
3E3
  5
3E7
331
418
  5
41C
331
25C
  5
260
331
420
  5
424
331
428
  5
42C
331
264
  5
268
331
3E9
  5
3ED
331
430
  5
466
331
282
  5
3D3
331
26C
  5
270
331
3F1
  5
3F5
331
274
  5
278
331
3F9
  5
3FD
331
235
  5
235
331
27C
  5
280
331
401
  5
405
331
23D
  5
241
331
245
  5
249
331
3D4
  5
3D8
331
409
  5
40D
331
212
  5
212
331
24D
  5
251
331
3DC
  5
3E0
331
411
  5
415
331
3E4
  5
3E8
331
419
  5
41D
331
255
  5
259
331
421
  5
425
331
25D
  5
261
331
265
  5
269
331
3EA
  5
3EE
331
429
  5
42D
331
283
  5
3D4
331
26D
  5
271
331
3F2
  5
3F6
331
236
  5
23C
331
275
  5
279
331
3FA
  5
3FE
331
23E
  5
242
331
27D
  5
281
331
402
  5
406
331
3D5
  5
3D9
331
40A
  5
40E
331
246
  5
24A
331
213
  5
213
331
3DD
  5
3E1
331
412
  5
416
331
24E
  5
252
331
256
  5
25A
331
3E5
  5
3E9
331
41A
  5
41E
331
25E
  5
262
331
422
  5
426
331
42A
  5
42E
331
266
  5
26A
331
3EB
  5
3EF
331
284
  5
3D5
331
22F
  5
22F
331
26E
  5
272
331
3F3
  5
3F7
331
276
  5
27A
331
3FB
  5
3FF
331
237
  5
23D
331
23F
  5
243
331
27E
  5
282
331
403
  5
407
  0
LAYOUT
  5
287
102
{ACAD_XDICTIONARY
360
47A
102
}
102
{ACAD_REACTORS
330
1A
102
}
330
1A
100
AcDbPlotSettings
  1

  2
none_device
  4
ANSI_C_(22.00_x_17.00_Inches)
  6

 40
0.0
 41
0.0
 42
0.0
 43
0.0
 44
558.8
 45
431.8
 46
0.0
 47
0.0
 48
0.0
 49
0.0
140
0.0
141
0.0
142
1.0
143
1.0
 70
     0
 72
     1
 73
     0
 74
     0
  7

 75
     0
147
1.0
148
0.0
149
0.0
100
AcDbLayout
  1
Layout1
 70
     1
 71
     1
 10
0.0
 20
0.0
 11
12.0
 21
9.0
 12
0.0
 22
0.0
 32
0.0
 14
1.000000000000000E+20
 24
1.000000000000000E+20
 34
1.000000000000000E+20
 15
-1.000000000000000E+20
 25
-1.000000000000000E+20
 35
-1.000000000000000E+20
146
0.0
 13
0.0
 23
0.0
 33
0.0
 16
1.0
 26
0.0
 36
0.0
 17
0.0
 27
1.0
 37
0.0
 76
     0
330
201
  0
LAYOUT
  5
286
102
{ACAD_XDICTIONARY
360
478
102
}
102
{ACAD_REACTORS
330
1A
102
}
330
1A
100
AcDbPlotSettings
  1

  2
none_device
  4
ANSI_C_(22.00_x_17.00_Inches)
  6

 40
0.0
 41
0.0
 42
0.0
 43
0.0
 44
558.8
 45
431.8
 46
0.0
 47
0.0
 48
0.0
 49
0.0
140
0.0
141
0.0
142
1.0
143
1.0
 70
  1024
 72
     1
 73
     0
 74
     0
  7

 75
     0
147
1.0
148
0.0
149
0.0
100
AcDbLayout
  1
Model
 70
     0
 71
     0
 10
0.0
 20
0.0
 11
558.8
 21
431.8
 12
0.0
 22
0.0
 32
0.0
 14
0.0
 24
0.0
 34
0.0
 15
0.0
 25
0.0
 35
0.0
146
0.0
 13
0.0
 23
0.0
 33
0.0
 16
1.0
 26
0.0
 36
0.0
 17
0.0
 27
1.0
 37
0.0
 76
     0
330
200
331
1F4
  0
MATERIAL
  5
293
102
{ACAD_XDICTIONARY
360
294
102
}
102
{ACAD_REACTORS
330
28A
102
}
330
28A
100
AcDbMaterial
  1
ByBlock
 72
     0
 43
0.0008202099737533
 43
0.0
 43
0.0
 43
0.0
 43
0.0
 43
0.0008202099737533
 43
0.0
 43
0.0
 43
0.0
 43
0.0
 43
1.0
 43
0.0
 43
0.0
 43
0.0
 43
0.0
 43
1.0
 77
     0
 47
0.0008202099737533
 47
0.0
 47
0.0
 47
0.0
 47
0.0
 47
0.0008202099737533
 47
0.0
 47
0.0
 47
0.0
 47
0.0
 47
1.0
 47
0.0
 47
0.0
 47
0.0
 47
0.0
 47
1.0
171
     0
 49
0.0008202099737533
 49
0.0
 49
0.0
 49
0.0
 49
0.0
 49
0.0008202099737533
 49
0.0
 49
0.0
 49
0.0
 49
0.0
 49
1.0
 49
0.0
 49
0.0
 49
0.0
 49
0.0
 49
1.0
175
     0
142
0.0008202099737533
142
0.0
142
0.0
142
0.0
142
0.0
142
0.0008202099737533
142
0.0
142
0.0
142
0.0
142
0.0
142
1.0
142
0.0
142
0.0
142
0.0
142
0.0
142
1.0
179
     0
144
0.0008202099737533
144
0.0
144
0.0
144
0.0
144
0.0
144
0.0008202099737533
144
0.0
144
0.0
144
0.0
144
0.0
144
1.0
144
0.0
144
0.0
144
0.0
144
0.0
144
1.0
147
0.0008202099737533
147
0.0
147
0.0
147
0.0
147
0.0
147
0.0008202099737533
147
0.0
147
0.0
147
0.0
147
0.0
147
1.0
147
0.0
147
0.0
147
0.0
147
0.0
147
1.0
  0
MATERIAL
  5
28B
102
{ACAD_XDICTIONARY
360
28C
102
}
102
{ACAD_REACTORS
330
28A
102
}
330
28A
100
AcDbMaterial
  1
ByLayer
 72
     0
 43
0.0008202099737533
 43
0.0
 43
0.0
 43
0.0
 43
0.0
 43
0.0008202099737533
 43
0.0
 43
0.0
 43
0.0
 43
0.0
 43
1.0
 43
0.0
 43
0.0
 43
0.0
 43
0.0
 43
1.0
 77
     0
 47
0.0008202099737533
 47
0.0
 47
0.0
 47
0.0
 47
0.0
 47
0.0008202099737533
 47
0.0
 47
0.0
 47
0.0
 47
0.0
 47
1.0
 47
0.0
 47
0.0
 47
0.0
 47
0.0
 47
1.0
171
     0
 49
0.0008202099737533
 49
0.0
 49
0.0
 49
0.0
 49
0.0
 49
0.0008202099737533
 49
0.0
 49
0.0
 49
0.0
 49
0.0
 49
1.0
 49
0.0
 49
0.0
 49
0.0
 49
0.0
 49
1.0
175
     0
142
0.0008202099737533
142
0.0
142
0.0
142
0.0
142
0.0
142
0.0008202099737533
142
0.0
142
0.0
142
0.0
142
0.0
142
1.0
142
0.0
142
0.0
142
0.0
142
0.0
142
1.0
179
     0
144
0.0008202099737533
144
0.0
144
0.0
144
0.0
144
0.0
144
0.0008202099737533
144
0.0
144
0.0
144
0.0
144
0.0
144
1.0
144
0.0
144
0.0
144
0.0
144
0.0
144
1.0
147
0.0008202099737533
147
0.0
147
0.0
147
0.0
147
0.0
147
0.0008202099737533
147
0.0
147
0.0
147
0.0
147
0.0
147
1.0
147
0.0
147
0.0
147
0.0
147
0.0
147
1.0
  0
MATERIAL
  5
29B
102
{ACAD_XDICTIONARY
360
29C
102
}
102
{ACAD_REACTORS
330
28A
102
}
330
28A
100
AcDbMaterial
  1
Global
 72
     0
 43
0.0008202099737533
 43
0.0
 43
0.0
 43
0.0
 43
0.0
 43
0.0008202099737533
 43
0.0
 43
0.0
 43
0.0
 43
0.0
 43
1.0
 43
0.0
 43
0.0
 43
0.0
 43
0.0
 43
1.0
 77
     0
 47
0.0008202099737533
 47
0.0
 47
0.0
 47
0.0
 47
0.0
 47
0.0008202099737533
 47
0.0
 47
0.0
 47
0.0
 47
0.0
 47
1.0
 47
0.0
 47
0.0
 47
0.0
 47
0.0
 47
1.0
171
     0
 49
0.0008202099737533
 49
0.0
 49
0.0
 49
0.0
 49
0.0
 49
0.0008202099737533
 49
0.0
 49
0.0
 49
0.0
 49
0.0
 49
1.0
 49
0.0
 49
0.0
 49
0.0
 49
0.0
 49
1.0
175
     0
142
0.0008202099737533
142
0.0
142
0.0
142
0.0
142
0.0
142
0.0008202099737533
142
0.0
142
0.0
142
0.0
142
0.0
142
1.0
142
0.0
142
0.0
142
0.0
142
0.0
142
1.0
179
     0
144
0.0008202099737533
144
0.0
144
0.0
144
0.0
144
0.0
144
0.0008202099737533
144
0.0
144
0.0
144
0.0
144
0.0
144
1.0
144
0.0
144
0.0
144
0.0
144
0.0
144
1.0
147
0.0008202099737533
147
0.0
147
0.0
147
0.0
147
0.0
147
0.0008202099737533
147
0.0
147
0.0
147
0.0
147
0.0
147
1.0
147
0.0
147
0.0
147
0.0
147
0.0
147
1.0
  0
MLEADERSTYLE
  5
2DA
102
{ACAD_REACTORS
330
2D9
102
}
330
2D9
100
AcDbMLeaderStyle
170
     2
171
     1
172
     0
 90
        2
 40
0.0
 41
0.0
173
     1
 91
-1056964608
340
14
 92
       -2
290
     1
 42
2.0
291
     1
 43
0.36
  3
Standard
 44
4.0
300

342
11
174
     1
178
     6
175
     1
176
     0
 93
-1056964608
 45
4.0
292
     0
297
     0
 46
4.0
 94
-1056964608
 47
1.0
 49
1.0
140
1.0
293
     1
141
0.0
294
     1
177
     0
142
1.0
295
     0
296
     0
143
0.125
1001
ACAD_MLEADERVER
1070
     2
  0
MLINESTYLE
  5
18
102
{ACAD_REACTORS
330
17
102
}
330
17
100
AcDbMlineStyle
  2
STANDARD
 70
     0
  3

 62
   256
 51
90.0
 52
90.0
 71
     2
 49
0.5
 62
   256
  6
BYLAYER
 49
-0.5
 62
   256
  6
BYLAYER
  0
ACDBPLACEHOLDER
  5
F
102
{ACAD_REACTORS
330
E
102
}
330
E
  0
SCALE
  5
2B8
102
{ACAD_REACTORS
330
2B7
102
}
330
2B7
100
AcDbScale
 70
     0
300
1:1
140
1.0
141
1.0
290
     1
  0
SCALE
  5
2B9
102
{ACAD_REACTORS
330
2B7
102
}
330
2B7
100
AcDbScale
 70
     0
300
1:2
140
1.0
141
2.0
290
     0
  0
SCALE
  5
2BA
102
{ACAD_REACTORS
330
2B7
102
}
330
2B7
100
AcDbScale
 70
     0
300
1:4
140
1.0
141
4.0
290
     0
  0
SCALE
  5
2BB
102
{ACAD_REACTORS
330
2B7
102
}
330
2B7
100
AcDbScale
 70
     0
300
1:5
140
1.0
141
5.0
290
     0
  0
SCALE
  5
2BC
102
{ACAD_REACTORS
330
2B7
102
}
330
2B7
100
AcDbScale
 70
     0
300
1:8
140
1.0
141
8.0
290
     0
  0
SCALE
  5
2BD
102
{ACAD_REACTORS
330
2B7
102
}
330
2B7
100
AcDbScale
 70
     0
300
1:10
140
1.0
141
10.0
290
     0
  0
SCALE
  5
2BE
102
{ACAD_REACTORS
330
2B7
102
}
330
2B7
100
AcDbScale
 70
     0
300
1:16
140
1.0
141
16.0
290
     0
  0
SCALE
  5
2BF
102
{ACAD_REACTORS
330
2B7
102
}
330
2B7
100
AcDbScale
 70
     0
300
1:20
140
1.0
141
20.0
290
     0
  0
SCALE
  5
2C0
102
{ACAD_REACTORS
330
2B7
102
}
330
2B7
100
AcDbScale
 70
     0
300
1:30
140
1.0
141
30.0
290
     0
  0
SCALE
  5
2C1
102
{ACAD_REACTORS
330
2B7
102
}
330
2B7
100
AcDbScale
 70
     0
300
1:40
140
1.0
141
40.0
290
     0
  0
SCALE
  5
2C2
102
{ACAD_REACTORS
330
2B7
102
}
330
2B7
100
AcDbScale
 70
     0
300
1:50
140
1.0
141
50.0
290
     0
  0
SCALE
  5
2C3
102
{ACAD_REACTORS
330
2B7
102
}
330
2B7
100
AcDbScale
 70
     0
300
1:100
140
1.0
141
100.0
290
     0
  0
SCALE
  5
2C4
102
{ACAD_REACTORS
330
2B7
102
}
330
2B7
100
AcDbScale
 70
     0
300
2:1
140
2.0
141
1.0
290
     0
  0
SCALE
  5
2C5
102
{ACAD_REACTORS
330
2B7
102
}
330
2B7
100
AcDbScale
 70
     0
300
4:1
140
4.0
141
1.0
290
     0
  0
SCALE
  5
2C6
102
{ACAD_REACTORS
330
2B7
102
}
330
2B7
100
AcDbScale
 70
     0
300
8:1
140
8.0
141
1.0
290
     0
  0
SCALE
  5
2C7
102
{ACAD_REACTORS
330
2B7
102
}
330
2B7
100
AcDbScale
 70
     0
300
10:1
140
10.0
141
1.0
290
     0
  0
SCALE
  5
2C8
102
{ACAD_REACTORS
330
2B7
102
}
330
2B7
100
AcDbScale
 70
     0
300
100:1
140
100.0
141
1.0
290
     0
  0
SCALE
  5
2C9
102
{ACAD_REACTORS
330
2B7
102
}
330
2B7
100
AcDbScale
 70
     0
300
1/128" = 1'-0"
140
0.0078125
141
12.0
290
     0
  0
SCALE
  5
2CA
102
{ACAD_REACTORS
330
2B7
102
}
330
2B7
100
AcDbScale
 70
     0
300
1/64" = 1'-0"
140
0.015625
141
12.0
290
     0
  0
SCALE
  5
2CB
102
{ACAD_REACTORS
330
2B7
102
}
330
2B7
100
AcDbScale
 70
     0
300
1/32" = 1'-0"
140
0.03125
141
12.0
290
     0
  0
SCALE
  5
2CC
102
{ACAD_REACTORS
330
2B7
102
}
330
2B7
100
AcDbScale
 70
     0
300
1/16" = 1'-0"
140
0.0625
141
12.0
290
     0
  0
SCALE
  5
2CD
102
{ACAD_REACTORS
330
2B7
102
}
330
2B7
100
AcDbScale
 70
     0
300
3/32" = 1'-0"
140
0.09375
141
12.0
290
     0
  0
SCALE
  5
2CE
102
{ACAD_REACTORS
330
2B7
102
}
330
2B7
100
AcDbScale
 70
     0
300
1/8" = 1'-0"
140
0.125
141
12.0
290
     0
  0
SCALE
  5
2CF
102
{ACAD_REACTORS
330
2B7
102
}
330
2B7
100
AcDbScale
 70
     0
300
3/16" = 1'-0"
140
0.1875
141
12.0
290
     0
  0
SCALE
  5
2D0
102
{ACAD_REACTORS
330
2B7
102
}
330
2B7
100
AcDbScale
 70
     0
300
1/4" = 1'-0"
140
0.25
141
12.0
290
     0
  0
SCALE
  5
2D1
102
{ACAD_REACTORS
330
2B7
102
}
330
2B7
100
AcDbScale
 70
     0
300
3/8" = 1'-0"
140
0.375
141
12.0
290
     0
  0
SCALE
  5
2D2
102
{ACAD_REACTORS
330
2B7
102
}
330
2B7
100
AcDbScale
 70
     0
300
1/2" = 1'-0"
140
0.5
141
12.0
290
     0
  0
SCALE
  5
2D3
102
{ACAD_REACTORS
330
2B7
102
}
330
2B7
100
AcDbScale
 70
     0
300
3/4" = 1'-0"
140
0.75
141
12.0
290
     0
  0
SCALE
  5
2D4
102
{ACAD_REACTORS
330
2B7
102
}
330
2B7
100
AcDbScale
 70
     0
300
1" = 1'-0"
140
1.0
141
12.0
290
     0
  0
SCALE
  5
2D5
102
{ACAD_REACTORS
330
2B7
102
}
330
2B7
100
AcDbScale
 70
     0
300
1-1/2" = 1'-0"
140
1.5
141
12.0
290
     0
  0
SCALE
  5
2D6
102
{ACAD_REACTORS
330
2B7
102
}
330
2B7
100
AcDbScale
 70
     0
300
3" = 1'-0"
140
3.0
141
12.0
290
     0
  0
SCALE
  5
2D7
102
{ACAD_REACTORS
330
2B7
102
}
330
2B7
100
AcDbScale
 70
     0
300
6" = 1'-0"
140
6.0
141
12.0
290
     0
  0
SCALE
  5
2D8
102
{ACAD_REACTORS
330
2B7
102
}
330
2B7
100
AcDbScale
 70
     0
300
1'-0" = 1'-0"
140
12.0
141
12.0
290
     0
  0
TABLESTYLE
  5
2B6
102
{ACAD_XDICTIONARY
360
44A
102
}
102
{ACAD_REACTORS
330
2B5
102
}
330
2B5
100
AcDbTableStyle
  3
Standard
 70
     0
 71
     0
 40
1.5
 41
1.5
280
     0
281
     0
  7
STANDARD
140
4.5
170
     2
 62
     0
 63
     7
283
     0
274
    -2
284
     1
 64
     0
275
    -2
285
     1
 65
     0
276
    -2
286
     1
 66
     0
277
    -2
287
     1
 67
     0
278
    -2
288
     1
 68
     0
279
    -2
289
     1
 69
     0
  7
STANDARD
140
6.0
170
     5
 62
     0
 63
     7
283
     0
274
    -2
284
     1
 64
     0
275
    -2
285
     1
 65
     0
276
    -2
286
     1
 66
     0
277
    -2
287
     1
 67
     0
278
    -2
288
     1
 68
     0
279
    -2
289
     1
 69
     0
  7
STANDARD
140
4.5
170
     5
 62
     0
 63
     7
283
     0
274
    -2
284
     1
 64
     0
275
    -2
285
     1
 65
     0
276
    -2
286
     1
 66
     0
277
    -2
287
     1
 67
     0
278
    -2
288
     1
 68
     0
279
    -2
289
     1
 69
     0
  0
VISUALSTYLE
  5
2A9
102
{ACAD_REACTORS
330
2A3
102
}
330
2A3
100
AcDbVisualStyle
  2
2dWireframe
 70
     4
 71
     0
 72
     2
 73
     0
 90
        0
 40
-0.6
 41
-30.0
 62
     5
 63
     7
 74
     1
 91
        4
 64
     7
 65
   257
 75
     1
175
     1
 42
1.0
 92
        0
 66
   257
 43
1.0
 76
     1
 77
     6
 78
     2
 67
     7
 79
     5
170
     0
171
     0
290
     0
174
     0
 93
        1
 44
0.0
173
     0
291
     0
 45
0.0
1001
ACAD
1000
AcDbSavedByObjectVersion
1070
     0
1000
AcDbSavedByObjectVersion
1070
     0
1000
AcDbSavedByObjectVersion
1070
     0
  0
VISUALSTYLE
  5
2AB
102
{ACAD_REACTORS
330
2A3
102
}
330
2A3
100
AcDbVisualStyle
  2
3D Hidden
 70
     6
 71
     1
 72
     2
 73
     2
 90
        0
 40
-0.6
 41
-30.0
 62
     5
 63
     7
 74
     2
 91
        2
 64
     7
 65
   257
 75
     2
175
     1
 42
40.0
 92
        0
 66
   257
 43
1.0
 76
     1
 77
     6
 78
     2
 67
     7
 79
     3
170
     0
171
     0
290
     0
174
     0
 93
        1
 44
0.0
173
     0
291
     0
 45
0.0
1001
ACAD
1000
AcDbSavedByObjectVersion
1070
     0
1000
AcDbSavedByObjectVersion
1070
     0
1000
AcDbSavedByObjectVersion
1070
     0
  0
VISUALSTYLE
  5
2AA
102
{ACAD_REACTORS
330
2A3
102
}
330
2A3
100
AcDbVisualStyle
  2
3dWireframe
 70
     5
 71
     0
 72
     2
 73
     0
 90
        0
 40
-0.6
 41
-30.0
 62
     5
 63
     7
 74
     1
 91
        4
 64
     7
 65
   257
 75
     1
175
     1
 42
1.0
 92
        0
 66
   257
 43
1.0
 76
     1
 77
     6
 78
     2
 67
     7
 79
     5
170
     0
171
     0
290
     0
174
     0
 93
        1
 44
0.0
173
     0
291
     0
 45
0.0
1001
ACAD
1000
AcDbSavedByObjectVersion
1070
     0
1000
AcDbSavedByObjectVersion
1070
     0
1000
AcDbSavedByObjectVersion
1070
     0
  0
VISUALSTYLE
  5
2A8
102
{ACAD_REACTORS
330
2A3
102
}
330
2A3
100
AcDbVisualStyle
  2
Basic
 70
     7
 71
     1
 72
     0
 73
     1
 90
        0
 40
-0.6
 41
-30.0
 62
     5
 63
     7
 74
     0
 91
        4
 64
     7
 65
   257
 75
     1
175
     1
 42
1.0
 92
        8
 66
     7
 43
1.0
 76
     1
 77
     6
 78
     2
 67
     7
 79
     5
170
     0
171
     0
290
     0
174
     0
 93
        1
 44
0.0
173
     0
291
     1
 45
0.0
1001
ACAD
1000
AcDbSavedByObjectVersion
1070
     0
1000
AcDbSavedByObjectVersion
1070
     0
1000
AcDbSavedByObjectVersion
1070
     0
  0
VISUALSTYLE
  5
2AF
102
{ACAD_REACTORS
330
2A3
102
}
330
2A3
100
AcDbVisualStyle
  2
Brighten
 70
    12
 71
     2
 72
     2
 73
     0
 90
        0
 40
-0.6
 41
-30.0
 62
     5
 63
     7
 74
     1
 91
        4
 64
     7
 65
   257
 75
     1
175
     1
 42
1.0
 92
        8
 66
     7
 43
1.0
 76
     1
 77
     6
 78
     2
 67
     7
 79
     5
170
     0
171
     0
290
     0
174
     0
 93
        1
 44
50.0
173
     0
291
     1
 45
0.0
1001
ACAD
1000
AcDbSavedByObjectVersion
1070
     0
1000
AcDbSavedByObjectVersion
1070
     0
1000
AcDbSavedByObjectVersion
1070
     0
  0
VISUALSTYLE
  5
2B3
102
{ACAD_REACTORS
330
2A3
102
}
330
2A3
100
AcDbVisualStyle
  2
ColorChange
 70
    16
 71
     2
 72
     2
 73
     3
 90
        0
 40
-0.6
 41
-30.0
 62
     5
 63
     8
 74
     1
 91
        4
 64
     7
 65
   257
 75
     1
175
     1
 42
1.0
 92
        8
 66
     8
 43
1.0
 76
     1
 77
     6
 78
     2
 67
     7
 79
     5
170
     0
171
     0
290
     0
174
     0
 93
        1
 44
0.0
173
     0
291
     1
 45
0.0
1001
ACAD
1000
AcDbSavedByObjectVersion
1070
     0
1000
AcDbSavedByObjectVersion
1070
     0
1000
AcDbSavedByObjectVersion
1070
     0
  0
VISUALSTYLE
  5
2AC
102
{ACAD_REACTORS
330
2A3
102
}
330
2A3
100
AcDbVisualStyle
  2
Conceptual
 70
     9
 71
     3
 72
     2
 73
     0
 90
        0
 40
-0.6
 41
-30.0
 62
     5
 63
     7
 74
     2
 91
        2
 64
     7
 65
   257
 75
     1
175
     1
 42
40.0
 92
        8
 66
     7
 43
1.0
 76
     1
 77
     6
 78
     2
 67
     7
 79
     3
170
     0
171
     0
290
     0
174
     0
 93
        1
 44
0.0
173
     0
291
     0
 45
0.0
1001
ACAD
1000
AcDbSavedByObjectVersion
1070
     0
1000
AcDbSavedByObjectVersion
1070
     0
1000
AcDbSavedByObjectVersion
1070
     0
  0
VISUALSTYLE
  5
2AE
102
{ACAD_REACTORS
330
2A3
102
}
330
2A3
100
AcDbVisualStyle
  2
Dim
 70
    11
 71
     2
 72
     2
 73
     0
 90
        0
 40
-0.6
 41
-30.0
 62
     5
 63
     7
 74
     1
 91
        4
 64
     7
 65
   257
 75
     1
175
     1
 42
1.0
 92
        8
 66
     7
 43
1.0
 76
     1
 77
     6
 78
     2
 67
     7
 79
     5
170
     0
171
     0
290
     0
174
     0
 93
        1
 44
-50.0
173
     0
291
     1
 45
0.0
1001
ACAD
1000
AcDbSavedByObjectVersion
1070
     0
1000
AcDbSavedByObjectVersion
1070
     0
1000
AcDbSavedByObjectVersion
1070
     0
  0
VISUALSTYLE
  5
2B2
102
{ACAD_REACTORS
330
2A3
102
}
330
2A3
100
AcDbVisualStyle
  2
Facepattern
 70
    15
 71
     2
 72
     2
 73
     0
 90
        0
 40
-0.6
 41
-30.0
 62
     5
 63
     7
 74
     1
 91
        4
 64
     7
 65
   257
 75
     1
175
     1
 42
1.0
 92
        8
 66
     7
 43
1.0
 76
     1
 77
     6
 78
     2
 67
     7
 79
     5
170
     0
171
     0
290
     0
174
     0
 93
        1
 44
0.0
173
     0
291
     1
 45
0.0
1001
ACAD
1000
AcDbSavedByObjectVersion
1070
     0
1000
AcDbSavedByObjectVersion
1070
     0
1000
AcDbSavedByObjectVersion
1070
     0
  0
VISUALSTYLE
  5
2A4
102
{ACAD_REACTORS
330
2A3
102
}
330
2A3
100
AcDbVisualStyle
  2
Flat
 70
     0
 71
     2
 72
     1
 73
     1
 90
        2
 40
-0.6
 41
30.0
 62
     5
 63
     7
 74
     0
 91
        4
 64
     7
 65
   257
 75
     1
175
     1
 42
1.0
 92
        8
 66
     7
 43
1.0
 76
     1
 77
     6
 78
     2
 67
     7
 79
     5
170
     0
171
     0
290
     0
174
     0
 93
       13
 44
0.0
173
     0
291
     1
 45
0.0
1001
ACAD
1000
AcDbSavedByObjectVersion
1070
     0
1000
AcDbSavedByObjectVersion
1070
     0
1000
AcDbSavedByObjectVersion
1070
     0
  0
VISUALSTYLE
  5
2A5
102
{ACAD_REACTORS
330
2A3
102
}
330
2A3
100
AcDbVisualStyle
  2
FlatWithEdges
 70
     1
 71
     2
 72
     1
 73
     1
 90
        2
 40
-0.6
 41
30.0
 62
     5
 63
     7
 74
     1
 91
        4
 64
     7
 65
   257
 75
     1
175
     1
 42
1.0
 92
        0
 66
   257
 43
1.0
 76
     1
 77
     6
 78
     2
 67
     7
 79
     5
170
     0
171
     0
290
     0
174
     0
 93
       13
 44
0.0
173
     0
291
     1
 45
0.0
1001
ACAD
1000
AcDbSavedByObjectVersion
1070
     0
1000
AcDbSavedByObjectVersion
1070
     0
1000
AcDbSavedByObjectVersion
1070
     0
  0
VISUALSTYLE
  5
2A6
102
{ACAD_REACTORS
330
2A3
102
}
330
2A3
100
AcDbVisualStyle
  2
Gouraud
 70
     2
 71
     2
 72
     2
 73
     1
 90
        2
 40
-0.6
 41
30.0
 62
     5
 63
     7
 74
     0
 91
        4
 64
     7
 65
   257
 75
     1
175
     1
 42
1.0
 92
        0
 66
     7
 43
1.0
 76
     1
 77
     6
 78
     2
 67
     7
 79
     5
170
     0
171
     0
290
     0
174
     0
 93
       13
 44
0.0
173
     0
291
     1
 45
0.0
1001
ACAD
1000
AcDbSavedByObjectVersion
1070
     0
1000
AcDbSavedByObjectVersion
1070
     0
1000
AcDbSavedByObjectVersion
1070
     0
  0
VISUALSTYLE
  5
2A7
102
{ACAD_REACTORS
330
2A3
102
}
330
2A3
100
AcDbVisualStyle
  2
GouraudWithEdges
 70
     3
 71
     2
 72
     2
 73
     1
 90
        2
 40
-0.6
 41
30.0
 62
     5
 63
     7
 74
     1
 91
        4
 64
     7
 65
   257
 75
     1
175
     1
 42
1.0
 92
        0
 66
   257
 43
1.0
 76
     1
 77
     6
 78
     2
 67
     7
 79
     5
170
     0
171
     0
290
     0
174
     0
 93
       13
 44
0.0
173
     0
291
     1
 45
0.0
1001
ACAD
1000
AcDbSavedByObjectVersion
1070
     0
1000
AcDbSavedByObjectVersion
1070
     0
1000
AcDbSavedByObjectVersion
1070
     0
  0
VISUALSTYLE
  5
2B1
102
{ACAD_REACTORS
330
2A3
102
}
330
2A3
100
AcDbVisualStyle
  2
Linepattern
 70
    14
 71
     2
 72
     2
 73
     0
 90
        0
 40
-0.6
 41
-30.0
 62
     5
 63
     7
 74
     1
 91
        4
 64
     7
 65
   257
 75
     7
175
     7
 42
1.0
 92
        8
 66
     7
 43
1.0
 76
     1
 77
     6
 78
     2
 67
     7
 79
     5
170
     0
171
     0
290
     0
174
     0
 93
        1
 44
0.0
173
     0
291
     1
 45
0.0
1001
ACAD
1000
AcDbSavedByObjectVersion
1070
     0
1000
AcDbSavedByObjectVersion
1070
     0
1000
AcDbSavedByObjectVersion
1070
     0
  0
VISUALSTYLE
  5
2AD
102
{ACAD_REACTORS
330
2A3
102
}
330
2A3
100
AcDbVisualStyle
  2
Realistic
 70
     8
 71
     2
 72
     2
 73
     0
 90
        0
 40
-0.6
 41
-30.0
 62
     5
 63
     7
 74
     1
 91
        0
 64
     7
 65
   257
 75
     1
175
     1
 42
1.0
 92
        8
 66
     8
 43
1.0
 76
     1
 77
     6
 78
     2
 67
     7
 79
     5
170
     0
171
     0
290
     0
174
     0
 93
       13
 44
0.0
173
     0
291
     0
 45
0.0
1001
ACAD
1000
AcDbSavedByObjectVersion
1070
     0
1000
AcDbSavedByObjectVersion
1070
     0
1000
AcDbSavedByObjectVersion
1070
     0
  0
VISUALSTYLE
  5
2B0
102
{ACAD_REACTORS
330
2A3
102
}
330
2A3
100
AcDbVisualStyle
  2
Thicken
 70
    13
 71
     2
 72
     2
 73
     0
 90
        0
 40
-0.6
 41
-30.0
 62
     5
 63
     7
 74
     1
 91
        4
 64
     7
 65
   257
 75
     1
175
     1
 42
1.0
 92
       12
 66
     7
 43
1.0
 76
     1
 77
     6
 78
     2
 67
     7
 79
     5
170
     0
171
     0
290
     0
174
     0
 93
        1
 44
0.0
173
     0
291
     1
 45
0.0
1001
ACAD
1000
AcDbSavedByObjectVersion
1070
     0
1000
AcDbSavedByObjectVersion
1070
     0
1000
AcDbSavedByObjectVersion
1070
     0
  0
DICTIONARYVAR
  5
444
102
{ACAD_REACTORS
330
440
102
}
330
440
100
DictionaryVariables
280
     0
  1
1:1
  0
DICTIONARYVAR
  5
442
102
{ACAD_REACTORS
330
440
102
}
330
440
100
DictionaryVariables
280
     0
  1
STANDARD
  0
DICTIONARYVAR
  5
441
102
{ACAD_REACTORS
330
440
102
}
330
440
100
DictionaryVariables
280
     0
  1
STANDARD
  0
DICTIONARYVAR
  5
449
102
{ACAD_REACTORS
330
440
102
}
330
440
100
DictionaryVariables
280
     0
  1
2
  0
DICTIONARYVAR
  5
448
102
{ACAD_REACTORS
330
440
102
}
330
440
100
DictionaryVariables
280
     0
  1
1
  0
DICTIONARYVAR
  5
447
102
{ACAD_REACTORS
330
440
102
}
330
440
100
DictionaryVariables
280
     0
  1
0
  0
DICTIONARYVAR
  5
445
102
{ACAD_REACTORS
330
440
102
}
330
440
100
DictionaryVariables
280
     0
  1
2
  0
DICTIONARYVAR
  5
443
102
{ACAD_REACTORS
330
440
102
}
330
440
100
DictionaryVariables
280
     0
  1
1
  0
DICTIONARYVAR
  5
446
102
{ACAD_REACTORS
330
440
102
}
330
440
100
DictionaryVariables
280
     0
  1
127
  0
DICTIONARY
  5
47A
330
287
100
AcDbDictionary
280
     1
281
     1
  3
ACAD_XREC_ROUNDTRIP
360
47B
  0
DICTIONARY
  5
478
330
286
100
AcDbDictionary
280
     1
281
     1
  3
ACAD_XREC_ROUNDTRIP
360
479
  0
DICTIONARY
  5
294
330
293
100
AcDbDictionary
280
     1
281
     1
  3
ACAD_XREC_ROUNDTRIP
360
453
  3
BUMPTILE
360
296
  3
DIFFUSETILE
360
295
  3
OPACITYTILE
360
299
  3
REFLECTIONTILE
360
298
  3
REFRACTIONTILE
360
29A
  3
SPECULARTILE
360
297
  0
DICTIONARY
  5
28C
330
28B
100
AcDbDictionary
280
     1
281
     1
  3
ACAD_XREC_ROUNDTRIP
360
452
  3
BUMPTILE
360
28E
  3
DIFFUSETILE
360
28D
  3
OPACITYTILE
360
291
  3
REFLECTIONTILE
360
290
  3
REFRACTIONTILE
360
292
  3
SPECULARTILE
360
28F
  0
DICTIONARY
  5
29C
330
29B
100
AcDbDictionary
280
     1
281
     1
  3
ACAD_XREC_ROUNDTRIP
360
454
  3
BUMPTILE
360
29E
  3
DIFFUSETILE
360
29D
  3
OPACITYTILE
360
2A1
  3
REFLECTIONTILE
360
2A0
  3
REFRACTIONTILE
360
2A2
  3
SPECULARTILE
360
29F
  0
DICTIONARY
  5
44A
330
2B6
100
AcDbDictionary
280
     1
281
     1
  3
ACAD_ROUNDTRIP_2008_TABLESTYLE_CELLSTYLEMAP
360
476
  3
ACAD_XREC_ROUNDTRIP
360
47C
  0
XRECORD
  5
47B
102
{ACAD_REACTORS
330
47A
102
}
330
47A
100
AcDbXrecord
280
     1
102
SHADEPLOT
 70
     0
102
SHADEPLOTRESLEVEL
 70
     2
102
SHADEPLOTCUSTOMDPI
 70
   300
  0
XRECORD
  5
479
102
{ACAD_REACTORS
330
478
102
}
330
478
100
AcDbXrecord
280
     1
102
SHADEPLOT
 70
     0
102
SHADEPLOTRESLEVEL
 70
     2
102
SHADEPLOTCUSTOMDPI
 70
   300
  0
XRECORD
  5
453
102
{ACAD_REACTORS
330
294
102
}
330
294
100
AcDbXrecord
280
     1
102
MATERIAL
148
0.0
149
0.0
149
0.0
 93
        0
 94
      127
282
     0
 72
     0
 77
     0
171
     0
175
     0
179
     0
273
     0
  0
XRECORD
  5
296
102
{ACAD_REACTORS
330
294
102
}
330
294
100
AcDbXrecord
280
     1
270
     1
271
     1
  0
XRECORD
  5
295
102
{ACAD_REACTORS
330
294
102
}
330
294
100
AcDbXrecord
280
     1
270
     1
271
     1
  0
XRECORD
  5
299
102
{ACAD_REACTORS
330
294
102
}
330
294
100
AcDbXrecord
280
     1
270
     1
271
     1
  0
XRECORD
  5
298
102
{ACAD_REACTORS
330
294
102
}
330
294
100
AcDbXrecord
280
     1
270
     1
271
     1
  0
XRECORD
  5
29A
102
{ACAD_REACTORS
330
294
102
}
330
294
100
AcDbXrecord
280
     1
270
     1
271
     1
  0
XRECORD
  5
297
102
{ACAD_REACTORS
330
294
102
}
330
294
100
AcDbXrecord
280
     1
270
     1
271
     1
  0
XRECORD
  5
452
102
{ACAD_REACTORS
330
28C
102
}
330
28C
100
AcDbXrecord
280
     1
102
MATERIAL
148
0.0
149
0.0
149
0.0
 93
        0
 94
      127
282
     0
 72
     0
 77
     0
171
     0
175
     0
179
     0
273
     0
  0
XRECORD
  5
28E
102
{ACAD_REACTORS
330
28C
102
}
330
28C
100
AcDbXrecord
280
     1
270
     1
271
     1
  0
XRECORD
  5
28D
102
{ACAD_REACTORS
330
28C
102
}
330
28C
100
AcDbXrecord
280
     1
270
     1
271
     1
  0
XRECORD
  5
291
102
{ACAD_REACTORS
330
28C
102
}
330
28C
100
AcDbXrecord
280
     1
270
     1
271
     1
  0
XRECORD
  5
290
102
{ACAD_REACTORS
330
28C
102
}
330
28C
100
AcDbXrecord
280
     1
270
     1
271
     1
  0
XRECORD
  5
292
102
{ACAD_REACTORS
330
28C
102
}
330
28C
100
AcDbXrecord
280
     1
270
     1
271
     1
  0
XRECORD
  5
28F
102
{ACAD_REACTORS
330
28C
102
}
330
28C
100
AcDbXrecord
280
     1
270
     1
271
     1
  0
XRECORD
  5
454
102
{ACAD_REACTORS
330
29C
102
}
330
29C
100
AcDbXrecord
280
     1
102
MATERIAL
148
0.0
149
0.0
149
0.0
 93
        0
 94
      127
282
     0
 72
     0
 77
     0
171
     0
175
     0
179
     0
273
     0
  0
XRECORD
  5
29E
102
{ACAD_REACTORS
330
29C
102
}
330
29C
100
AcDbXrecord
280
     1
270
     1
271
     1
  0
XRECORD
  5
29D
102
{ACAD_REACTORS
330
29C
102
}
330
29C
100
AcDbXrecord
280
     1
270
     1
271
     1
  0
XRECORD
  5
2A1
102
{ACAD_REACTORS
330
29C
102
}
330
29C
100
AcDbXrecord
280
     1
270
     1
271
     1
  0
XRECORD
  5
2A0
102
{ACAD_REACTORS
330
29C
102
}
330
29C
100
AcDbXrecord
280
     1
270
     1
271
     1
  0
XRECORD
  5
2A2
102
{ACAD_REACTORS
330
29C
102
}
330
29C
100
AcDbXrecord
280
     1
270
     1
271
     1
  0
XRECORD
  5
29F
102
{ACAD_REACTORS
330
29C
102
}
330
29C
100
AcDbXrecord
280
     1
270
     1
271
     1
  0
CELLSTYLEMAP
  5
476
102
{ACAD_REACTORS
330
44A
102
}
330
44A
100
AcDbCellStyleMap
 90
        3
300
CELLSTYLE
  1
TABLEFORMAT_BEGIN
 90
        5
170
     1
 91
        0
 92
    32768
 62
   257
 93
        1
300
CONTENTFORMAT
  1
CONTENTFORMAT_BEGIN
 90
        0
 91
        0
 92
      512
 93
        0
300

 40
0.0
140
1.0
 94
        5
 62
     0
340
11
144
6.0
309
CONTENTFORMAT_END
171
     1
301
MARGIN
  1
CELLMARGIN_BEGIN
 40
1.5
 40
1.5
 40
1.5
 40
1.5
 40
0.18
 40
0.18
309
CELLMARGIN_END
 94
        6
 95
        1
302
GRIDFORMAT
  1
GRIDFORMAT_BEGIN
 90
        0
 91
        1
 62
     0
 92
       -2
340
0
 93
        0
 40
1.125
309
GRIDFORMAT_END
 95
        2
302
GRIDFORMAT
  1
GRIDFORMAT_BEGIN
 90
        0
 91
        1
 62
     0
 92
       -2
340
0
 93
        0
 40
1.125
309
GRIDFORMAT_END
 95
        4
302
GRIDFORMAT
  1
GRIDFORMAT_BEGIN
 90
        0
 91
        1
 62
     0
 92
       -2
340
0
 93
        0
 40
1.125
309
GRIDFORMAT_END
 95
        8
302
GRIDFORMAT
  1
GRIDFORMAT_BEGIN
 90
        0
 91
        1
 62
     0
 92
       -2
340
0
 93
        0
 40
1.125
309
GRIDFORMAT_END
 95
       16
302
GRIDFORMAT
  1
GRIDFORMAT_BEGIN
 90
        0
 91
        1
 62
     0
 92
       -2
340
0
 93
        0
 40
1.125
309
GRIDFORMAT_END
 95
       32
302
GRIDFORMAT
  1
GRIDFORMAT_BEGIN
 90
        0
 91
        1
 62
     0
 92
       -2
340
0
 93
        0
 40
1.125
309
GRIDFORMAT_END
309
TABLEFORMAT_END
  1
CELLSTYLE_BEGIN
 90
        1
 91
        1
300
_TITLE
309
CELLSTYLE_END
300
CELLSTYLE
  1
TABLEFORMAT_BEGIN
 90
        5
170
     1
 91
        0
 92
        0
 62
   257
 93
        1
300
CONTENTFORMAT
  1
CONTENTFORMAT_BEGIN
 90
        0
 91
        0
 92
      512
 93
        0
300

 40
0.0
140
1.0
 94
        5
 62
     0
340
11
144
4.5
309
CONTENTFORMAT_END
171
     1
301
MARGIN
  1
CELLMARGIN_BEGIN
 40
1.5
 40
1.5
 40
1.5
 40
1.5
 40
0.18
 40
0.18
309
CELLMARGIN_END
 94
        6
 95
        1
302
GRIDFORMAT
  1
GRIDFORMAT_BEGIN
 90
        0
 91
        1
 62
     0
 92
       -2
340
0
 93
        0
 40
1.125
309
GRIDFORMAT_END
 95
        2
302
GRIDFORMAT
  1
GRIDFORMAT_BEGIN
 90
        0
 91
        1
 62
     0
 92
       -2
340
0
 93
        0
 40
1.125
309
GRIDFORMAT_END
 95
        4
302
GRIDFORMAT
  1
GRIDFORMAT_BEGIN
 90
        0
 91
        1
 62
     0
 92
       -2
340
0
 93
        0
 40
1.125
309
GRIDFORMAT_END
 95
        8
302
GRIDFORMAT
  1
GRIDFORMAT_BEGIN
 90
        0
 91
        1
 62
     0
 92
       -2
340
0
 93
        0
 40
1.125
309
GRIDFORMAT_END
 95
       16
302
GRIDFORMAT
  1
GRIDFORMAT_BEGIN
 90
        0
 91
        1
 62
     0
 92
       -2
340
0
 93
        0
 40
1.125
309
GRIDFORMAT_END
 95
       32
302
GRIDFORMAT
  1
GRIDFORMAT_BEGIN
 90
        0
 91
        1
 62
     0
 92
       -2
340
0
 93
        0
 40
1.125
309
GRIDFORMAT_END
309
TABLEFORMAT_END
  1
CELLSTYLE_BEGIN
 90
        2
 91
        1
300
_HEADER
309
CELLSTYLE_END
300
CELLSTYLE
  1
TABLEFORMAT_BEGIN
 90
        5
170
     1
 91
        0
 92
        0
 62
   257
 93
        1
300
CONTENTFORMAT
  1
CONTENTFORMAT_BEGIN
 90
        0
 91
        0
 92
      512
 93
        0
300

 40
0.0
140
1.0
 94
        2
 62
     0
340
11
144
4.5
309
CONTENTFORMAT_END
171
     1
301
MARGIN
  1
CELLMARGIN_BEGIN
 40
1.5
 40
1.5
 40
1.5
 40
1.5
 40
0.18
 40
0.18
309
CELLMARGIN_END
 94
        6
 95
        1
302
GRIDFORMAT
  1
GRIDFORMAT_BEGIN
 90
        0
 91
        1
 62
     0
 92
       -2
340
0
 93
        0
 40
1.125
309
GRIDFORMAT_END
 95
        2
302
GRIDFORMAT
  1
GRIDFORMAT_BEGIN
 90
        0
 91
        1
 62
     0
 92
       -2
340
0
 93
        0
 40
1.125
309
GRIDFORMAT_END
 95
        4
302
GRIDFORMAT
  1
GRIDFORMAT_BEGIN
 90
        0
 91
        1
 62
     0
 92
       -2
340
0
 93
        0
 40
1.125
309
GRIDFORMAT_END
 95
        8
302
GRIDFORMAT
  1
GRIDFORMAT_BEGIN
 90
        0
 91
        1
 62
     0
 92
       -2
340
0
 93
        0
 40
1.125
309
GRIDFORMAT_END
 95
       16
302
GRIDFORMAT
  1
GRIDFORMAT_BEGIN
 90
        0
 91
        1
 62
     0
 92
       -2
340
0
 93
        0
 40
1.125
309
GRIDFORMAT_END
 95
       32
302
GRIDFORMAT
  1
GRIDFORMAT_BEGIN
 90
        0
 91
        1
 62
     0
 92
       -2
340
0
 93
        0
 40
1.125
309
GRIDFORMAT_END
309
TABLEFORMAT_END
  1
CELLSTYLE_BEGIN
 90
        3
 91
        2
300
_DATA
309
CELLSTYLE_END
  0
XRECORD
  5
47C
102
{ACAD_REACTORS
330
44A
102
}
330
44A
100
AcDbXrecord
280
     1
102
ACAD_ROUNDTRIP_PRE2007_TABLESTYLE
 90
      512
 91
        0
  1

 92
      512
 93
        0
  2

 94
      512
 95
        0
  3

  0
ENDSEC
  0
EOF
